%FSLAX24Y24*%
%MOIN*%
G70*
G01*
G75*
%ADD10C,0.0060*%
%ADD11C,0.0256*%
%ADD12R,0.1496X0.0472*%
%ADD13R,0.2480X0.0866*%
%ADD14R,0.1299X0.1122*%
%ADD15R,0.2362X0.0787*%
%ADD16R,0.0142X0.0394*%
%ADD17C,0.0142*%
%ADD18C,0.0100*%
%ADD19C,0.0260*%
D18*
X401278Y396130D02*
X401196Y396188D01*
X401110Y396240D01*
X401020Y396285D01*
X400927Y396323D01*
X400831Y396353D01*
X400733Y396376D01*
X400634Y396391D01*
X400534Y396399D01*
X400433Y396398D01*
X400333Y396389D01*
X400234Y396373D01*
X400136Y396349D01*
X400041Y396317D01*
X399948Y396278D01*
X399859Y396232D01*
X399774Y396179D01*
X399693Y396119D01*
X399617Y396054D01*
X399546Y395982D01*
X399481Y395905D01*
X399423Y395823D01*
X399371Y395737D01*
X399326Y395648D01*
X399288Y395555D01*
X399257Y395459D01*
X399234Y395361D01*
X399219Y395262D01*
X399212Y395161D01*
X399212Y395061D01*
X399221Y394961D01*
X398290Y394961D02*
X398208Y395017D01*
X398120Y395066D01*
X398029Y395106D01*
X397934Y395138D01*
X397837Y395160D01*
X397738Y395174D01*
X397638Y395179D01*
X395472Y398916D02*
X395572Y398920D01*
X395671Y398934D01*
X395769Y398957D01*
X395863Y398989D01*
X395955Y399029D01*
X396042Y399077D01*
X396125Y399134D01*
X396478Y398032D02*
X396463Y398123D01*
X396421Y398206D01*
X396356Y398272D01*
X396273Y398314D01*
X396181Y398328D01*
X396478Y398032D02*
X396463Y398123D01*
X396421Y398206D01*
X396356Y398272D01*
X396273Y398314D01*
X396181Y398328D01*
Y395766D02*
X396273Y395781D01*
X396356Y395823D01*
X396421Y395889D01*
X396463Y395971D01*
X396478Y396063D01*
X396181Y395766D02*
X396273Y395781D01*
X396356Y395823D01*
X396421Y395889D01*
X396463Y395971D01*
X396478Y396063D01*
X401240Y399134D02*
X401278Y399096D01*
X401198Y399134D02*
X401278Y399054D01*
X401155Y399134D02*
X401278Y399011D01*
X401113Y399134D02*
X401278Y398969D01*
X401071Y399134D02*
X401278Y398926D01*
X401028Y399134D02*
X401278Y398884D01*
X400986Y399134D02*
X401278Y398842D01*
X400943Y399134D02*
X401278Y398799D01*
X400901Y399134D02*
X401278Y398757D01*
X400858Y399134D02*
X401278Y398714D01*
X400816Y399134D02*
X401278Y398672D01*
X400774Y399134D02*
X401278Y398629D01*
X400731Y399134D02*
X401278Y398587D01*
X400689Y399134D02*
X401278Y398545D01*
X400646Y399134D02*
X401278Y398502D01*
X400604Y399134D02*
X401278Y398460D01*
X400561Y399134D02*
X401278Y398417D01*
X400519Y399134D02*
X401278Y398375D01*
X400477Y399134D02*
X401278Y398333D01*
X400434Y399134D02*
X401278Y398290D01*
X400392Y399134D02*
X401278Y398248D01*
X400349Y399134D02*
X401278Y398205D01*
X400307Y399134D02*
X401278Y398163D01*
X400264Y399134D02*
X401278Y398120D01*
X400222Y399134D02*
X401278Y398078D01*
X400180Y399134D02*
X401278Y398036D01*
X400137Y399134D02*
X401278Y397993D01*
X400095Y399134D02*
X401278Y397951D01*
X400052Y399134D02*
X401278Y397908D01*
X400010Y399134D02*
X401278Y397866D01*
X399967Y399134D02*
X401278Y397823D01*
X399925Y399134D02*
X401278Y397781D01*
X399883Y399134D02*
X401278Y397739D01*
X399840Y399134D02*
X401278Y397696D01*
X399798Y399134D02*
X401278Y397654D01*
X399755Y399134D02*
X401278Y397611D01*
X399713Y399134D02*
X401278Y397569D01*
X399671Y399134D02*
X401278Y397526D01*
X399628Y399134D02*
X401278Y397484D01*
X399586Y399134D02*
X401278Y397442D01*
X399543Y399134D02*
X401278Y397399D01*
X399501Y399134D02*
X401278Y397357D01*
X399458Y399134D02*
X401278Y397314D01*
X399416Y399134D02*
X401278Y397272D01*
X400634Y396391D02*
X401278Y397035D01*
X399374Y399134D02*
X401278Y397229D01*
X400514Y396399D02*
X401278Y397163D01*
X400472Y396399D02*
X401278Y397205D01*
X400428Y396398D02*
X401278Y397248D01*
X400595Y396395D02*
X401278Y397078D01*
X400555Y396398D02*
X401278Y397120D01*
X400383Y396395D02*
X401278Y397290D01*
X400744Y396374D02*
X401278Y396908D01*
X400335Y396390D02*
X401278Y397332D01*
X400813Y396358D02*
X401278Y396823D01*
X400779Y396367D02*
X401278Y396866D01*
X400286Y396382D02*
X401278Y397375D01*
X400234Y396373D02*
X401278Y397417D01*
X400179Y396360D02*
X401278Y397460D01*
X400708Y396381D02*
X401278Y396950D01*
X400672Y396387D02*
X401278Y396993D01*
X399331Y399134D02*
X401278Y397187D01*
X399289Y399134D02*
X401278Y397145D01*
X399246Y399134D02*
X401278Y397102D01*
X399204Y399134D02*
X401278Y397060D01*
X399161Y399134D02*
X401278Y397017D01*
X399119Y399134D02*
X401278Y396975D01*
X399077Y399134D02*
X401278Y396932D01*
X399034Y399134D02*
X401278Y396890D01*
X398992Y399134D02*
X401278Y396848D01*
X398949Y399134D02*
X401278Y396805D01*
X398907Y399134D02*
X401278Y396763D01*
X398864Y399134D02*
X401278Y396720D01*
X398822Y399134D02*
X401278Y396678D01*
X398780Y399134D02*
X401278Y396635D01*
X398737Y399134D02*
X401278Y396593D01*
X398695Y399134D02*
X401278Y396551D01*
X398652Y399134D02*
X401278Y396508D01*
X398610Y399134D02*
X401278Y396466D01*
X398567Y399134D02*
X401278Y396423D01*
X398525Y399134D02*
X401278Y396381D01*
X398016Y399134D02*
X400784Y396365D01*
X397973Y399134D02*
X400730Y396377D01*
X397931Y399134D02*
X400679Y396385D01*
X397889Y399134D02*
X400631Y396392D01*
X397846Y399134D02*
X400584Y396396D01*
X397804Y399134D02*
X400539Y396398D01*
X397761Y399134D02*
X400496Y396399D01*
X397719Y399134D02*
X400454Y396399D01*
X397677Y399134D02*
X400414Y396397D01*
X397634Y399134D02*
X400374Y396394D01*
X397592Y399134D02*
X400336Y396390D01*
X398483Y399134D02*
X401278Y396339D01*
X398440Y399134D02*
X401278Y396296D01*
X398186Y399134D02*
X401046Y396273D01*
X398143Y399134D02*
X400970Y396307D01*
X398101Y399134D02*
X400903Y396331D01*
X397549Y399134D02*
X400299Y396385D01*
X398058Y399134D02*
X400842Y396351D01*
X397507Y399134D02*
X400262Y396378D01*
X397464Y399134D02*
X400227Y396371D01*
X397422Y399134D02*
X400192Y396364D01*
X396478Y396733D02*
X398879Y399134D01*
X396478Y396690D02*
X398922Y399134D01*
X396478Y396775D02*
X398837Y399134D01*
X396478Y396817D02*
X398794Y399134D01*
X396478Y396860D02*
X398752Y399134D01*
X396478Y396945D02*
X398667Y399134D01*
X396478Y396902D02*
X398710Y399134D01*
X396478Y396987D02*
X398625Y399134D01*
X396478Y397029D02*
X398582Y399134D01*
X396478Y397072D02*
X398540Y399134D01*
X397422D02*
X400192Y396364D01*
X397379Y399134D02*
X400158Y396355D01*
X397337Y399134D02*
X400125Y396346D01*
X397295Y399134D02*
X400093Y396335D01*
X397252Y399134D02*
X400061Y396325D01*
X397210Y399134D02*
X400030Y396313D01*
X397167Y399134D02*
X400000Y396301D01*
X397125Y399134D02*
X399971Y396288D01*
X397082Y399134D02*
X399941Y396275D01*
X396478Y396648D02*
X398964Y399134D01*
X396478Y397114D02*
X398497Y399134D01*
X400846Y396349D02*
X401278Y396781D01*
X396478Y397157D02*
X398455Y399134D01*
X400911Y396329D02*
X401278Y396696D01*
X400879Y396339D02*
X401278Y396738D01*
X396478Y397242D02*
X398370Y399134D01*
X396478Y397199D02*
X398413Y399134D01*
X396478Y397284D02*
X398328Y399134D01*
X396478Y397327D02*
X398285Y399134D01*
X396478Y397369D02*
X398243Y399134D01*
X400120Y396344D02*
X401278Y397502D01*
X400942Y396318D02*
X401278Y396654D01*
X400056Y396323D02*
X401278Y397544D01*
X401060Y396266D02*
X401278Y396484D01*
X400973Y396306D02*
X401278Y396611D01*
X401032Y396280D02*
X401278Y396526D01*
X401002Y396293D02*
X401278Y396569D01*
X399986Y396295D02*
X401278Y397587D01*
X401088Y396252D02*
X401278Y396441D01*
X401116Y396237D02*
X401278Y396399D01*
X396478Y397836D02*
X397776Y399134D01*
X396478Y397793D02*
X397819Y399134D01*
X396478Y397878D02*
X397734Y399134D01*
X396478Y397920D02*
X397691Y399134D01*
X396478Y397963D02*
X397649Y399134D01*
X396478Y398047D02*
X397564Y399134D01*
X396478Y398005D02*
X397607Y399134D01*
X396473Y398085D02*
X397522Y399134D01*
X396465Y398119D02*
X397479Y399134D01*
X396453Y398150D02*
X397437Y399134D01*
X396478Y397454D02*
X398158Y399134D01*
X396478Y397411D02*
X398200Y399134D01*
X396478Y397496D02*
X398116Y399134D01*
X396478Y397539D02*
X398073Y399134D01*
X396478Y397581D02*
X398031Y399134D01*
X396478Y397666D02*
X397946Y399134D01*
X396478Y397623D02*
X397988Y399134D01*
X396478Y397708D02*
X397903Y399134D01*
X396478Y397751D02*
X397861Y399134D01*
X396478Y397751D02*
X397861Y399134D01*
X398398D02*
X401278Y396254D01*
X398355Y399134D02*
X401278Y396211D01*
X398313Y399134D02*
X401278Y396169D01*
Y396130D02*
Y399134D01*
X398270D02*
X401263Y396141D01*
X397427Y395179D02*
X401278Y399029D01*
X397040Y399134D02*
X399913Y396261D01*
X398228Y399134D02*
X401137Y396225D01*
X396998Y399134D02*
X399885Y396246D01*
X397385Y395179D02*
X401278Y399072D01*
X396955Y399134D02*
X399858Y396231D01*
X397300Y395179D02*
X401255Y399134D01*
X397258Y395179D02*
X401213Y399134D01*
X397215Y395179D02*
X401170Y399134D01*
X397342Y395179D02*
X401278Y399114D01*
X397173Y395179D02*
X401128Y399134D01*
X397130Y395179D02*
X401085Y399134D01*
X397088Y395179D02*
X401043Y399134D01*
X397045Y395179D02*
X401001Y399134D01*
X397003Y395179D02*
X400958Y399134D01*
X396961Y395179D02*
X400916Y399134D01*
X396913D02*
X399831Y396216D01*
X396918Y395179D02*
X400873Y399134D01*
X396876Y395179D02*
X400831Y399134D01*
X396870D02*
X399805Y396199D01*
X396828Y399134D02*
X399779Y396183D01*
X396785Y399134D02*
X399754Y396165D01*
X396743Y399134D02*
X399729Y396147D01*
X396701Y399134D02*
X399705Y396129D01*
X396658Y399134D02*
X399682Y396110D01*
X396616Y399134D02*
X399659Y396091D01*
X396833Y395179D02*
X400788Y399134D01*
X396791Y395179D02*
X400746Y399134D01*
X396749Y395179D02*
X400704Y399134D01*
X396706Y395179D02*
X400661Y399134D01*
X396664Y395179D02*
X400619Y399134D01*
X396621Y395179D02*
X400576Y399134D01*
X396579Y395179D02*
X400534Y399134D01*
X396536Y395179D02*
X400491Y399134D01*
X396494Y395179D02*
X400449Y399134D01*
X396451Y395179D02*
X400407Y399134D01*
X399906Y396257D02*
X401278Y397629D01*
X401143Y396222D02*
X401278Y396357D01*
X399807Y396200D02*
X401278Y397672D01*
X401195Y396189D02*
X401278Y396272D01*
X401169Y396206D02*
X401278Y396314D01*
X401221Y396172D02*
X401278Y396229D01*
X399624Y396060D02*
X401278Y397714D01*
X398202Y395020D02*
X401278Y398096D01*
X401245Y396154D02*
X401278Y396187D01*
X401270Y396136D02*
X401278Y396144D01*
X398254Y394987D02*
X401278Y398011D01*
X398228Y395004D02*
X401278Y398054D01*
X398176Y395036D02*
X401278Y398138D01*
X398482Y394961D02*
X401278Y397757D01*
X398355Y394961D02*
X401278Y397884D01*
X398312Y394961D02*
X401278Y397926D01*
X398278Y394969D02*
X401278Y397969D01*
X398440Y394961D02*
X401278Y397799D01*
X398397Y394961D02*
X401278Y397841D01*
X397721Y395176D02*
X401278Y398732D01*
X397681Y395178D02*
X401278Y398775D01*
X397639Y395179D02*
X401278Y398817D01*
X397797Y395167D02*
X401278Y398648D01*
X397760Y395172D02*
X401278Y398690D01*
X397555Y395179D02*
X401278Y398902D01*
X397512Y395179D02*
X401278Y398945D01*
X397470Y395179D02*
X401278Y398987D01*
X397937Y395137D02*
X401278Y398478D01*
X397597Y395179D02*
X401278Y398860D01*
X397903Y395146D02*
X401278Y398520D01*
X397869Y395154D02*
X401278Y398563D01*
X397834Y395161D02*
X401278Y398605D01*
X398001Y395116D02*
X401278Y398393D01*
X397969Y395127D02*
X401278Y398435D01*
X398092Y395079D02*
X401278Y398266D01*
X398062Y395092D02*
X401278Y398308D01*
X398032Y395105D02*
X401278Y398351D01*
X398148Y395051D02*
X401278Y398181D01*
X398120Y395066D02*
X401278Y398223D01*
X396573Y399134D02*
X399636Y396071D01*
X396531Y399134D02*
X399614Y396051D01*
X396453Y395944D02*
X399643Y399134D01*
X396488D02*
X399592Y396030D01*
X396472Y396006D02*
X399601Y399134D01*
X396478Y396223D02*
X399388Y399134D01*
X396478Y396054D02*
X399558Y399134D01*
X396453Y398152D02*
X399236Y395368D01*
X396472Y398089D02*
X399229Y395333D01*
X396478Y396063D02*
Y398032D01*
X396478Y398041D02*
X399223Y395296D01*
X396478Y397999D02*
X399219Y395258D01*
X396478Y397956D02*
X399215Y395219D01*
X396478Y397914D02*
X399212Y395179D01*
X396478Y397702D02*
X399219Y394961D01*
X396478Y397872D02*
X399211Y395138D01*
X396478Y397829D02*
X399211Y395096D01*
X396478Y397787D02*
X399213Y395052D01*
X396478Y397744D02*
X399216Y395006D01*
X396478Y397659D02*
X399177Y394961D01*
X396478Y397617D02*
X399134Y394961D01*
X396478Y397575D02*
X399092Y394961D01*
X396478Y397532D02*
X399050Y394961D01*
X396478Y397490D02*
X399007Y394961D01*
X396478Y397447D02*
X398965Y394961D01*
X396478Y397405D02*
X398922Y394961D01*
X396478Y397363D02*
X398880Y394961D01*
X396478Y397320D02*
X398837Y394961D01*
X396478Y397278D02*
X398795Y394961D01*
X396478Y397235D02*
X398753Y394961D01*
X396478Y397193D02*
X398710Y394961D01*
X396478Y397150D02*
X398668Y394961D01*
X396478Y397108D02*
X398625Y394961D01*
X396478Y397066D02*
X398583Y394961D01*
X396478Y397023D02*
X398540Y394961D01*
X396478Y396981D02*
X398498Y394961D01*
X396478Y396938D02*
X398456Y394961D01*
X396478Y396896D02*
X398413Y394961D01*
X396478Y396853D02*
X398371Y394961D01*
X396478Y396811D02*
X398328Y394961D01*
X398906D02*
X399221Y395275D01*
X398864Y394961D02*
X399228Y395325D01*
X398821Y394961D02*
X399237Y395377D01*
X399203Y394961D02*
X399219Y394976D01*
X399161Y394961D02*
X399215Y395015D01*
X399034Y394961D02*
X399211Y395138D01*
X398991Y394961D02*
X399213Y395182D01*
X398949Y394961D02*
X399216Y395228D01*
X399118Y394961D02*
X399213Y395055D01*
X399076Y394961D02*
X399211Y395096D01*
X398609Y394961D02*
X399353Y395704D01*
X398567Y394961D02*
X399410Y395804D01*
X398524Y394961D02*
X399550Y395986D01*
X398694Y394961D02*
X399287Y395554D01*
X398652Y394961D02*
X399315Y395624D01*
X398779Y394961D02*
X399250Y395432D01*
X398737Y394961D02*
X399266Y395490D01*
X396478Y396769D02*
X398274Y394972D01*
X398290Y394961D02*
X399221D01*
X396478Y396472D02*
X397780Y395169D01*
X396478Y396429D02*
X397732Y395175D01*
X396478Y396387D02*
X397687Y395178D01*
X396478Y396344D02*
X397644Y395179D01*
X396478Y396302D02*
X397601Y395179D01*
X396478Y396259D02*
X397559Y395179D01*
X396478Y396217D02*
X397516Y395179D01*
X396478Y396175D02*
X397474Y395179D01*
X396478Y396132D02*
X397431Y395179D01*
X396478Y396090D02*
X397389Y395179D01*
X396478Y396684D02*
X398075Y395087D01*
X396478Y396726D02*
X398159Y395045D01*
X396478Y396641D02*
X398004Y395115D01*
X396478Y396599D02*
X397941Y395135D01*
X396478Y396556D02*
X397884Y395150D01*
X396478Y396048D02*
X397346Y395179D01*
X396478Y396514D02*
X397830Y395161D01*
X396473Y396010D02*
X397304Y395179D01*
X396465Y395976D02*
X397262Y395179D01*
X396453Y395945D02*
X397219Y395179D01*
X396478Y396478D02*
X399134Y399134D01*
X396478Y396436D02*
X399176Y399134D01*
X396478Y396520D02*
X399091Y399134D01*
X396478Y396605D02*
X399007Y399134D01*
X396478Y396563D02*
X399049Y399134D01*
X396439Y398178D02*
X397394Y399134D01*
X396404Y398228D02*
X397310Y399134D01*
X396422Y398204D02*
X397352Y399134D01*
X396383Y398249D02*
X397267Y399134D01*
X396360Y398269D02*
X397225Y399134D01*
X396334Y398286D02*
X397182Y399134D01*
X396446D02*
X399571Y396009D01*
X396404Y399134D02*
X399551Y395987D01*
X396361Y399134D02*
X399530Y395965D01*
X396478Y396096D02*
X399516Y399134D01*
X396478Y396139D02*
X399473Y399134D01*
X396478Y396266D02*
X399346Y399134D01*
X396478Y396181D02*
X399431Y399134D01*
X396478Y396308D02*
X399304Y399134D01*
X396478Y396351D02*
X399261Y399134D01*
X396478Y396393D02*
X399219Y399134D01*
X396276Y398313D02*
X397097Y399134D01*
X396243Y398322D02*
X397055Y399134D01*
X396125D02*
X401278D01*
X396206Y398327D02*
X397013Y399134D01*
X396165Y398328D02*
X396970Y399134D01*
X396122Y398328D02*
X396928Y399134D01*
X396080Y398328D02*
X396885Y399134D01*
X396037Y398328D02*
X396843Y399134D01*
X395995Y398328D02*
X396800Y399134D01*
X395952Y398328D02*
X396758Y399134D01*
X396319D02*
X399511Y395942D01*
X396276Y399134D02*
X399492Y395918D01*
X396234Y399134D02*
X399473Y395895D01*
X396191Y399134D02*
X399455Y395870D01*
X396149Y399134D02*
X399437Y395845D01*
X396307Y398301D02*
X397140Y399134D01*
X396114Y399126D02*
X399420Y395820D01*
X395910Y398328D02*
X396716Y399134D01*
X395868Y398328D02*
X396673Y399134D01*
X395825Y398328D02*
X396631Y399134D01*
X395783Y398328D02*
X396588Y399134D01*
X395740Y398328D02*
X396546Y399134D01*
X395698Y398328D02*
X396503Y399134D01*
X395656Y398328D02*
X396461Y399134D01*
X395613Y398328D02*
X396419Y399134D01*
X395634Y398928D02*
X396239Y398323D01*
X395571Y398328D02*
X396376Y399134D01*
X395596Y398923D02*
X396191Y398328D01*
X395558Y398919D02*
X396148Y398328D01*
X396090Y399109D02*
X399404Y395794D01*
X396064Y399091D02*
X399388Y395768D01*
X395528Y398328D02*
X396334Y399134D01*
X395670Y398934D02*
X396301Y398303D01*
X395486Y398328D02*
X396291Y399134D01*
X395518Y398917D02*
X396106Y398328D01*
X395443D02*
X396249Y399134D01*
X395401Y398328D02*
X396206Y399134D01*
X395359Y398328D02*
X396164Y399134D01*
X395476Y398916D02*
X396064Y398328D01*
X395316D02*
X396113Y399125D01*
X395434Y398916D02*
X396021Y398328D01*
X395391Y398916D02*
X395979Y398328D01*
X395274D02*
X395996Y399050D01*
X395349Y398916D02*
X395936Y398328D01*
X395307Y398916D02*
X395894Y398328D01*
X395264Y398916D02*
X395852Y398328D01*
X395231D02*
X395912Y399009D01*
X395189Y398328D02*
X395841Y398980D01*
X393998Y398328D02*
X396181D01*
X393998Y395766D02*
X396181D01*
X395222Y398916D02*
X395809Y398328D01*
X395146D02*
X395778Y398960D01*
X395104Y398328D02*
X395720Y398944D01*
X395179Y398916D02*
X395767Y398328D01*
X395137Y398916D02*
X395724Y398328D01*
X395094Y398916D02*
X395682Y398328D01*
X395062D02*
X395666Y398933D01*
X395052Y398916D02*
X395639Y398328D01*
X395019D02*
X395616Y398925D01*
X395010Y398916D02*
X395597Y398328D01*
X394977D02*
X395568Y398920D01*
X394967Y398916D02*
X395555Y398328D01*
X394925Y398916D02*
X395512Y398328D01*
X394934D02*
X395523Y398917D01*
X394882Y398916D02*
X395470Y398328D01*
X394892D02*
X395479Y398916D01*
X394849Y398328D02*
X395437Y398916D01*
X394840D02*
X395427Y398328D01*
X394807D02*
X395394Y398916D01*
X394797D02*
X395385Y398328D01*
X394755Y398916D02*
X395342Y398328D01*
X394765D02*
X395352Y398916D01*
X394713D02*
X395300Y398328D01*
X394722D02*
X395310Y398916D01*
X394680Y398328D02*
X395267Y398916D01*
X394670D02*
X395258Y398328D01*
X394637D02*
X395225Y398916D01*
X394628D02*
X395215Y398328D01*
X393998Y398916D02*
X395472D01*
X394595Y398328D02*
X395182Y398916D01*
X394585D02*
X395173Y398328D01*
X394543Y398916D02*
X395130Y398328D01*
X394552D02*
X395140Y398916D01*
X394510Y398328D02*
X395097Y398916D01*
X394500D02*
X395088Y398328D01*
X394468D02*
X395055Y398916D01*
X394458D02*
X395045Y398328D01*
X394425D02*
X395013Y398916D01*
X394416D02*
X395003Y398328D01*
X394373Y398916D02*
X394961Y398328D01*
X394383D02*
X394970Y398916D01*
X394331D02*
X394918Y398328D01*
X394340D02*
X394928Y398916D01*
X394298Y398328D02*
X394885Y398916D01*
X394288D02*
X394876Y398328D01*
X394255D02*
X394843Y398916D01*
X394246D02*
X394833Y398328D01*
X394213D02*
X394800Y398916D01*
X393998Y398368D02*
X394546Y398916D01*
X393998Y398410D02*
X394503Y398916D01*
X393998Y398452D02*
X394461Y398916D01*
X393998Y398537D02*
X394376Y398916D01*
X393998Y398495D02*
X394419Y398916D01*
X393998Y398580D02*
X394334Y398916D01*
X393998Y398622D02*
X394291Y398916D01*
X393998Y398665D02*
X394249Y398916D01*
X394203D02*
X394791Y398328D01*
X394161Y398916D02*
X394748Y398328D01*
X394171D02*
X394758Y398916D01*
X394119D02*
X394706Y398328D01*
X394128D02*
X394716Y398916D01*
X394086Y398328D02*
X394673Y398916D01*
X394076D02*
X394664Y398328D01*
X394043D02*
X394631Y398916D01*
X394034D02*
X394621Y398328D01*
X394001D02*
X394588Y398916D01*
X393998Y398707D02*
X394206Y398916D01*
X393998Y398909D02*
X394579Y398328D01*
X393998Y398867D02*
X394536Y398328D01*
X393998Y398825D02*
X394494Y398328D01*
X393998Y398782D02*
X394451Y398328D01*
X393998Y398792D02*
X394122Y398916D01*
X393998Y398749D02*
X394164Y398916D01*
X393998Y398834D02*
X394079Y398916D01*
X393998Y398877D02*
X394037Y398916D01*
X393998Y398328D02*
Y398916D01*
Y398740D02*
X394409Y398328D01*
X393998Y398697D02*
X394367Y398328D01*
X393998Y398655D02*
X394324Y398328D01*
X393998Y398612D02*
X394282Y398328D01*
X393998Y398570D02*
X394239Y398328D01*
X393998Y398528D02*
X394197Y398328D01*
X393998Y398485D02*
X394154Y398328D01*
X393998Y398443D02*
X394112Y398328D01*
X393998Y398400D02*
X394070Y398328D01*
X393998Y398358D02*
X394027Y398328D01*
X396409Y395179D02*
X400364Y399134D01*
X396367Y395179D02*
X400322Y399134D01*
X396324Y395179D02*
X400279Y399134D01*
X396439Y395916D02*
X397177Y395179D01*
X396423Y395890D02*
X397134Y395179D01*
X396038Y399075D02*
X399372Y395741D01*
X396404Y395867D02*
X397092Y395179D01*
X396383Y395845D02*
X397050Y395179D01*
X396360Y395826D02*
X397007Y395179D01*
X396335Y395809D02*
X396965Y395179D01*
X396307Y395794D02*
X396922Y395179D01*
X396282D02*
X400237Y399134D01*
X396239Y395179D02*
X400195Y399134D01*
X396197Y395179D02*
X400152Y399134D01*
X396155Y395179D02*
X400110Y399134D01*
X396112Y395179D02*
X400067Y399134D01*
X396277Y395782D02*
X396880Y395179D01*
X396070D02*
X400025Y399134D01*
X396027Y395179D02*
X399982Y399134D01*
X396243Y395773D02*
X396837Y395179D01*
X396206Y395767D02*
X396795Y395179D01*
X396012Y399059D02*
X399358Y395713D01*
X395984Y399044D02*
X399343Y395685D01*
X395956Y399030D02*
X399330Y395656D01*
X395928Y399016D02*
X399316Y395627D01*
X395898Y399003D02*
X399304Y395597D01*
X395868Y398991D02*
X399292Y395567D01*
X395837Y398979D02*
X399281Y395535D01*
X395806Y398968D02*
X399270Y395503D01*
X395773Y398958D02*
X399261Y395471D01*
X395740Y398949D02*
X399251Y395438D01*
X395985Y395179D02*
X399940Y399134D01*
X395942Y395179D02*
X399897Y399134D01*
X395900Y395179D02*
X399855Y399134D01*
X395858Y395179D02*
X399813Y399134D01*
X395815Y395179D02*
X399770Y399134D01*
X395773Y395179D02*
X399728Y399134D01*
X395730Y395179D02*
X399685Y399134D01*
X395705Y398941D02*
X399243Y395403D01*
X395688Y395179D02*
X396300Y395791D01*
X395645Y395179D02*
X396238Y395772D01*
X396165Y395766D02*
X396753Y395179D01*
X396123Y395766D02*
X396710Y395179D01*
X396080Y395766D02*
X396668Y395179D01*
X396038Y395766D02*
X396625Y395179D01*
X395995Y395766D02*
X396583Y395179D01*
X395953Y395766D02*
X396540Y395179D01*
X395911Y395766D02*
X396498Y395179D01*
X395868Y395766D02*
X396456Y395179D01*
X395826Y395766D02*
X396413Y395179D01*
X395783Y395766D02*
X396371Y395179D01*
X395741Y395766D02*
X396328Y395179D01*
X395698Y395766D02*
X396286Y395179D01*
X395656Y395766D02*
X396243Y395179D01*
X395614Y395766D02*
X396201Y395179D01*
X395603D02*
X396191Y395766D01*
X395571Y395766D02*
X396159Y395179D01*
X395561D02*
X396148Y395766D01*
X395518Y395179D02*
X396106Y395766D01*
X395529D02*
X396116Y395179D01*
X395486Y395766D02*
X396074Y395179D01*
X395476D02*
X396063Y395766D01*
X395444D02*
X396031Y395179D01*
X395433D02*
X396021Y395766D01*
X395401D02*
X395989Y395179D01*
X395391D02*
X395978Y395766D01*
X395359D02*
X395946Y395179D01*
X395348D02*
X395936Y395766D01*
X395306Y395179D02*
X395893Y395766D01*
X395317D02*
X395904Y395179D01*
X395274Y395766D02*
X395862Y395179D01*
X395264D02*
X395851Y395766D01*
X395232D02*
X395819Y395179D01*
X395221D02*
X395809Y395766D01*
X395189D02*
X395777Y395179D01*
X393998D02*
X397638D01*
X395179D02*
X395766Y395766D01*
X395136Y395179D02*
X395724Y395766D01*
X395147D02*
X395734Y395179D01*
X395094D02*
X395681Y395766D01*
X395104D02*
X395692Y395179D01*
X395062Y395766D02*
X395649Y395179D01*
X395051D02*
X395639Y395766D01*
X395020D02*
X395607Y395179D01*
X395009D02*
X395596Y395766D01*
X394977D02*
X395565Y395179D01*
X394967D02*
X395554Y395766D01*
X394924Y395179D02*
X395512Y395766D01*
X394935D02*
X395522Y395179D01*
X394892Y395766D02*
X395480Y395179D01*
X394882D02*
X395469Y395766D01*
X394850D02*
X395437Y395179D01*
X394839D02*
X395427Y395766D01*
X394808D02*
X395395Y395179D01*
X394797D02*
X395384Y395766D01*
X394754Y395179D02*
X395342Y395766D01*
X394765D02*
X395352Y395179D01*
X394712D02*
X395299Y395766D01*
X394723D02*
X395310Y395179D01*
X394680Y395766D02*
X395268Y395179D01*
X394670D02*
X395257Y395766D01*
X394638D02*
X395225Y395179D01*
X394627D02*
X395215Y395766D01*
X394595D02*
X395183Y395179D01*
X394585D02*
X395172Y395766D01*
X394542Y395179D02*
X395130Y395766D01*
X394553D02*
X395140Y395179D01*
X394511Y395766D02*
X395098Y395179D01*
X394500D02*
X395087Y395766D01*
X394468D02*
X395056Y395179D01*
X394457D02*
X395045Y395766D01*
X394426D02*
X395013Y395179D01*
X394415D02*
X395002Y395766D01*
X394383D02*
X394971Y395179D01*
X394373D02*
X394960Y395766D01*
X394330Y395179D02*
X394918Y395766D01*
X394341D02*
X394928Y395179D01*
X394298Y395766D02*
X394886Y395179D01*
X394288D02*
X394875Y395766D01*
X394256D02*
X394843Y395179D01*
X394245D02*
X394833Y395766D01*
X394214D02*
X394801Y395179D01*
X394203D02*
X394790Y395766D01*
X393998Y395228D02*
X394536Y395766D01*
X393998Y395270D02*
X394493Y395766D01*
X393998Y395270D02*
X394493Y395766D01*
X393998Y395355D02*
X394408Y395766D01*
X393998Y395313D02*
X394451Y395766D01*
X393998Y395398D02*
X394366Y395766D01*
X393998Y395440D02*
X394324Y395766D01*
X393998Y395483D02*
X394281Y395766D01*
X394160Y395179D02*
X394748Y395766D01*
X394171D02*
X394759Y395179D01*
X394118D02*
X394705Y395766D01*
X394129D02*
X394716Y395179D01*
X394086Y395766D02*
X394674Y395179D01*
X394076D02*
X394663Y395766D01*
X394044D02*
X394631Y395179D01*
X394033D02*
X394621Y395766D01*
X394001D02*
X394589Y395179D01*
X393998Y395186D02*
X394578Y395766D01*
X393998Y395567D02*
X394196Y395766D01*
X393998Y395525D02*
X394239Y395766D01*
X393998Y395728D02*
X394546Y395179D01*
X393998Y395685D02*
X394504Y395179D01*
X393998Y395643D02*
X394462Y395179D01*
X393998Y395652D02*
X394112Y395766D01*
X393998Y395610D02*
X394154Y395766D01*
X393998Y395695D02*
X394069Y395766D01*
X393998Y395737D02*
X394027Y395766D01*
X393998Y395179D02*
Y395766D01*
Y395600D02*
X394419Y395179D01*
X393998Y395558D02*
X394377Y395179D01*
X393998Y395515D02*
X394334Y395179D01*
X393998Y395473D02*
X394292Y395179D01*
X393998Y395431D02*
X394249Y395179D01*
X393998Y395388D02*
X394207Y395179D01*
X393998Y395346D02*
X394165Y395179D01*
X393998Y395303D02*
X394122Y395179D01*
X393998Y395261D02*
X394080Y395179D01*
X393998Y395218D02*
X394037Y395179D01*
X398425Y394095D02*
X398418Y394197D01*
X398398Y394298D01*
X398365Y394396D01*
X398320Y394488D01*
X398262Y394574D01*
X398195Y394651D01*
X398117Y394719D01*
X398032Y394776D01*
X397939Y394822D01*
X397842Y394855D01*
X397741Y394875D01*
X397638Y394882D01*
X395472Y399213D02*
X395575Y399219D01*
X395676Y399239D01*
X395774Y399273D01*
X395866Y399318D01*
X395952Y399375D01*
X396029Y399443D01*
X396097Y399521D01*
X396154Y399606D01*
X396200Y399699D01*
X396233Y399796D01*
X396253Y399897D01*
X396260Y400000D01*
X393701Y394882D02*
X397638D01*
X398425Y393701D02*
Y394095D01*
X393701Y399213D02*
X395472D01*
X393701Y398032D02*
X396181D01*
X393701Y396063D02*
X396181D01*
X393701Y398032D02*
Y399213D01*
Y394882D02*
Y396063D01*
X396181D02*
Y398032D01*
X398425Y393701D02*
X401575D01*
Y400787D01*
X396260D02*
X401575D01*
X396260Y400000D02*
Y400787D01*
D19*
X398346Y398386D02*
D03*
Y398976D02*
D03*
X399488Y398386D02*
D03*
Y398976D02*
D03*
X397638Y398701D02*
D03*
Y398346D02*
D03*
Y397992D02*
D03*
Y395394D02*
D03*
Y395748D02*
D03*
Y396102D02*
D03*
M02*
