%FSLAX24Y24*%
%MOIN*%
G70*
G01*
G75*
%ADD10C,0.0060*%
%ADD11C,0.0256*%
%ADD12R,0.1496X0.0472*%
%ADD13R,0.2480X0.0866*%
%ADD14R,0.1299X0.1122*%
%ADD15R,0.2362X0.0787*%
%ADD16R,0.0142X0.0394*%
%ADD17C,0.0142*%
%ADD18C,0.0100*%
%ADD19C,0.0260*%
%ADD20R,0.0236X0.0157*%
%ADD21R,0.1576X0.0552*%
%ADD22R,0.2560X0.0946*%
%ADD23R,0.1379X0.1202*%
%ADD24R,0.2442X0.0867*%
%ADD25R,0.0201X0.0453*%
%ADD26C,0.0080*%
D18*
X398425Y394095D02*
X398418Y394197D01*
X398398Y394298D01*
X398365Y394396D01*
X398320Y394488D01*
X398262Y394574D01*
X398195Y394651D01*
X398117Y394719D01*
X398032Y394776D01*
X397939Y394822D01*
X397842Y394855D01*
X397741Y394875D01*
X397638Y394882D01*
X395472Y399213D02*
X395575Y399219D01*
X395676Y399239D01*
X395774Y399273D01*
X395866Y399318D01*
X395952Y399375D01*
X396029Y399443D01*
X396097Y399521D01*
X396154Y399606D01*
X396200Y399699D01*
X396233Y399796D01*
X396253Y399897D01*
X396260Y400000D01*
X393701Y394882D02*
X397638D01*
X398425Y393701D02*
Y394095D01*
X393701Y399213D02*
X395472D01*
X393701Y398032D02*
X396181D01*
X393701Y396063D02*
X396181D01*
X393701Y398032D02*
Y399213D01*
Y394882D02*
Y396063D01*
X396181D02*
Y398032D01*
X398425Y393701D02*
X401575D01*
Y400787D01*
X396260D02*
X401575D01*
X396260Y400000D02*
Y400787D01*
D26*
X400492Y395118D02*
D03*
M02*
