M72
M48
T1F00S00C0.0118
T2F00S00C0.0140
T3F00S00C0.0236
T4F00S00C0.0315
T5F00S00C0.0362
T6F00S00C0.0382
T7F00S00C0.0390
T8F00S00C0.0472
T9F00S00C0.0591
T10F00S00C0.0787
T11F00S00C0.0935
T12F00S00C0.1024
T13F00S00C0.1181
T14F00S00C0.1457
T15F00S00C0.1732
%
T01
X416378Y396882
X416693
X417008
X416850Y397157
X416535
X416220
X417165
X417480
X417795
X418110
X418425
X418268Y396882
X417953
X417638
T02
X406742Y396752
X407480Y397146
X407628Y397982
X407333
Y398474
X407628Y398474
X408465Y398622
X409508Y398504
X409803
Y398839
X409508
X409705Y399193
Y399429
X410827Y399459
X411122
X411516Y399665
X411831
X410876Y400197
X410532
X410187
X408583Y400157
Y400433
X409567Y402362
X411811Y402953
X412835Y402795
X413189Y403346
X412559Y403425
X413819
X414409Y403799
X414744
Y404862
X414409
X413642
X413307
X413386Y406004
X412549Y405905
X410817Y405945
X410138Y406201
X411368Y400699
X413110Y400374
Y400059
X413189Y400984
X414291Y401614
Y402008
X414921Y402047
X414331Y399724
Y399409
X414124Y398868
X414419Y398474
X413405Y398405
X413366Y397894
Y397618
X413533Y397244
X413533Y396850
X414095Y397638
X412638Y397835
X412382
X412155Y398238
X411614
X411890Y397264
X412008Y396850
X410974Y396900
Y397293
X411073Y396407
Y395965
X411565
X408268Y395787
X415896Y397638
X416339Y398179
X416683
X417323
Y398524
X417963Y398179
X418307
X418750Y397638
X419882Y398583
X419724Y398937
X420748Y399488
X420374Y400295
X420423Y400984
X421024Y401142
X421112Y401772
X420423Y402805
X419783Y402362
X420079Y403888
X420905Y405905
X421407
X417126Y405020
X416053Y404616
X419291Y400984
X421457Y400000
Y398583
X421112Y394931
X420718Y394488
X420128
X419734Y394931
X406201Y399508
X404724Y398425
X404331
X403937
Y402756
X404331
X404724
X403543
X405118Y409646
X401968Y410630
X403937Y419055
X404528Y418898
X405905Y419685
X407598Y420866
Y421260
X407953Y421811
X409685
X410945Y421772
X411024Y420472
X412520
X412795Y421112
X413386
X415118Y421693
X414518Y419734
X415797
X415529Y418088
X413287Y416339
X412894
X412352Y416634
X412362Y415827
X412402Y415502
X412008Y415787
X411614Y416289
X411659Y417474
X411659Y417868
X410728Y417913
X409203Y416978
X408415Y417077
X408415Y417569
X408514Y418750
X408415Y416289
Y415896
X407677Y415992
Y416386
X407874Y414567
Y414173
X408514Y414124
Y414518
X408563Y413287
X408957
X409596Y413238
Y412845
X410728Y412894
X411457Y413228
X411417Y411909
X411073
X412008
X412451
Y411024
X412008
Y410285
X412697Y409498
X413091
X413780
Y410285
X410354Y410463
X410089Y408268
X411467Y407530
X413435Y406545
X415305Y406250
X416388Y406299
X416732Y407776
X416043
X414961Y407382
X418405Y406988
X421407Y407480
X420905Y409006
X420433Y410098
X419980Y410236
X419537Y410285
Y411860
X420571Y411270
X420748Y410758
X421506Y412205
X421112Y413337
X420472
X412795Y413927
X412549Y414321
Y414715
X413287Y414468
X411024Y414222
Y414813
X410433
X409843
Y415404
X410433
X411024
X410433Y414222
X409843
X409498Y406447
X406841Y422195
X407638Y423032
X410748Y423642
X410118Y424803
X411102Y425591
X412323Y424429
Y424035
X412717
Y424429
X412736Y422598
X413327
X413671Y423189
X414262
X414961Y423032
X414665Y424311
X414567Y425472
Y426870
X413878
X414567Y428789
Y429774
X416142
Y428789
X416831Y428642
X417913Y428248
X417569Y430630
Y431024
X416585
Y430630
X416634Y432205
X417569Y432992
Y433386
Y433780
Y434232
X413140
Y433780
Y432598
Y432205
Y431417
Y431024
X414124
Y431417
Y432205
X411417Y431250
X409055
X406693
X417717Y423622
X405512Y430266
X405965Y431339
X404232Y431004
X402559Y430315
X401890
X402106Y431398
X402904Y432579
X403593Y434055
X400148Y430069
X399409Y429429
Y429183
Y428937
T03
X404921Y394783
X405512
X406102
X417551Y417252
Y418091
X417358Y420161
X409374Y423673
T04
X407303Y394449
X407374Y404673
X408374
Y405673
X407374
X403720Y395118
X407374Y406673
X408374
Y407673
Y408673
Y409673
X407374
Y408673
Y407673
T05
X395472Y410976
Y411764
Y412551
Y413339
Y415008
Y415795
Y416583
Y417370
T06
X419659Y406094
Y408276
T07
X415157Y419079
X414757Y421079
X415557
T08
X415642Y394843
Y396705
X419004
Y394843
T09
X394402Y410689
X396543
Y413445
Y414902
X394402
Y413445
Y417657
X396543
T10
X398130Y397933
T11
X414157Y419079
Y420329
X416157
Y419079
T12
X408661Y394882
X408268Y429134
X410630
T13
X411024Y394882
X410630Y430905
X408268
T14
X407874Y402756
X416929
Y425591
X407874
T15
X401968Y400787
Y422047
M30
