%FSLAX24Y24*%
%MOIN*%
G70*
G01*
G75*
%ADD10C,0.0090*%
%ADD11R,0.1142X0.0157*%
%ADD12R,0.0650X0.1024*%
%ADD13R,0.0079X0.0236*%
%ADD14R,0.0354X0.0118*%
%ADD15R,0.0118X0.0354*%
%ADD16R,0.0118X0.0118*%
%ADD17R,0.0709X0.0709*%
%ADD18R,0.0197X0.0138*%
%ADD19R,0.1260X0.0701*%
%ADD20R,0.1063X0.0472*%
%ADD21R,0.0630X0.0709*%
%ADD22R,0.0709X0.0630*%
%ADD23R,0.0512X0.0591*%
%ADD24R,0.0591X0.0512*%
%ADD25R,0.0394X0.0433*%
%ADD26R,0.0315X0.0551*%
%ADD27R,0.0591X0.0276*%
%ADD28R,0.0276X0.0591*%
%ADD29R,0.0591X0.0394*%
%ADD30R,0.0630X0.0630*%
%ADD31R,0.0315X0.0630*%
%ADD32R,0.0630X0.0315*%
%ADD33C,0.0056*%
%ADD34R,0.0276X0.0118*%
%ADD35R,0.0118X0.0276*%
%ADD36R,0.0276X0.0098*%
%ADD37R,0.0315X0.0098*%
%ADD38R,0.0248X0.0177*%
%ADD39R,0.0748X0.0945*%
%ADD40R,0.0413X0.0236*%
%ADD41R,0.0384X0.0079*%
%ADD42C,0.0079*%
%ADD43R,0.0384X0.0236*%
%ADD44R,0.0039X0.0157*%
%ADD45R,0.0098X0.0581*%
%ADD46O,0.0098X0.0079*%
%ADD47C,0.0011*%
%ADD48R,0.0236X0.0192*%
%ADD49R,0.0074X0.0064*%
%ADD50C,0.0010*%
%ADD51R,0.0035X0.0044*%
%ADD52R,0.0079X0.0202*%
%ADD53R,0.0226X0.0079*%
%ADD54R,0.0044X0.0035*%
%ADD55R,0.0202X0.0079*%
%ADD56R,0.0079X0.0226*%
%ADD57R,0.0192X0.0236*%
%ADD58O,0.0079X0.0098*%
%ADD59R,0.0384X0.0098*%
%ADD60R,0.0064X0.0074*%
%ADD61R,0.0482X0.0079*%
%ADD62R,0.0315X0.0079*%
%ADD63R,0.0079X0.0315*%
%ADD64R,0.0236X0.0217*%
%ADD65R,0.0098X0.0039*%
%ADD66R,0.0354X0.0315*%
%ADD67R,0.0551X0.0315*%
%ADD68R,0.0551X0.0453*%
%ADD69R,0.0236X0.0413*%
%ADD70C,0.0394*%
%ADD71R,0.2016X0.2087*%
%ADD72R,0.0236X0.0276*%
%ADD73R,0.0276X0.0236*%
%ADD74R,0.0433X0.0394*%
%ADD75R,0.0236X0.0472*%
%ADD76R,0.0157X0.0098*%
%ADD77R,0.0079X0.0197*%
%ADD78R,0.0197X0.0079*%
%ADD79R,0.0098X0.0315*%
%ADD80R,0.1457X0.1457*%
%ADD81R,0.1311X0.2756*%
%ADD82R,0.0118X0.0472*%
%ADD83C,0.0100*%
%ADD84C,0.0150*%
%ADD85C,0.0140*%
%ADD86C,0.0170*%
%ADD87C,0.0120*%
%ADD88C,0.0079*%
%ADD89C,0.0110*%
%ADD90C,0.0630*%
%ADD91C,0.0098*%
%ADD92C,0.0070*%
%ADD93C,0.0512*%
%ADD94C,0.0230*%
%ADD95C,0.0236*%
%ADD96C,0.0060*%
%ADD97C,0.0010*%
%ADD98C,0.0118*%
%ADD99R,0.0394X0.1083*%
%ADD100R,0.1033X0.0640*%
%ADD101R,0.1102X0.1102*%
%ADD102R,0.1063X0.0354*%
%ADD103R,0.0748X0.0709*%
%ADD104R,0.0630X0.1339*%
%ADD105R,0.0630X0.1358*%
%ADD106R,0.1654X0.0709*%
%ADD107R,0.0866X0.1614*%
%ADD108R,0.0453X0.0906*%
%ADD109R,0.1594X0.0610*%
%ADD110R,0.0512X0.1516*%
%ADD111R,0.2736X0.0433*%
%ADD112R,0.0787X0.0748*%
%ADD113R,0.2264X0.0689*%
%ADD114R,0.0689X0.0906*%
%ADD115R,0.0236X0.0610*%
%ADD116R,0.0177X0.0315*%
%ADD117R,0.1161X0.0787*%
%ADD118R,0.0689X0.0098*%
%ADD119R,0.0394X0.0571*%
%ADD120R,0.0728X0.0098*%
%ADD121R,0.0768X0.0335*%
%ADD122R,0.0217X0.0689*%
%ADD123R,0.0866X0.0689*%
%ADD124R,0.1319X0.0827*%
%ADD125R,0.0591X0.0276*%
%ADD126R,0.0630X0.1299*%
%ADD127R,0.0531X0.0354*%
%ADD128R,0.0177X0.0748*%
%ADD129R,0.0492X0.0236*%
%ADD130R,0.0335X0.1063*%
%ADD131R,0.0886X0.0610*%
%ADD132R,0.0512X0.0768*%
%ADD133R,0.0807X0.0551*%
%ADD134R,0.1457X0.0492*%
%ADD135R,0.0817X0.1181*%
%ADD136R,0.1801X0.0945*%
%ADD137R,0.0707X0.0295*%
%ADD138R,0.1772X0.0640*%
%ADD139C,0.0787*%
%ADD140C,0.2362*%
%ADD141C,0.0748*%
%ADD142C,0.0591*%
%ADD143C,0.0984*%
%ADD144C,0.2913*%
%ADD145C,0.0433*%
%ADD146C,0.0630*%
%ADD147C,0.0551*%
%ADD148C,0.0256*%
%ADD149C,0.0260*%
%ADD150C,0.0230*%
%ADD151C,0.0500*%
%ADD152C,0.0550*%
%ADD153C,0.0250*%
%ADD154C,0.0180*%
%ADD155C,0.0400*%
%ADD156C,0.0450*%
%ADD157C,0.0095*%
%ADD158C,0.0310*%
%ADD159C,0.0200*%
%ADD160C,0.0197*%
%ADD161R,0.0276X0.0512*%
%ADD162R,0.0738X0.0315*%
%ADD163R,0.0571X0.0315*%
%ADD164R,0.0276X0.0512*%
%ADD165R,0.1969X0.1929*%
%ADD166R,0.0640X0.0394*%
%ADD167R,0.0138X0.0315*%
%ADD168R,0.0787X0.1969*%
%ADD169R,0.1969X0.0787*%
%ADD170C,0.0020*%
%ADD171C,0.0335*%
%ADD172C,0.0354*%
%ADD173C,0.0402*%
%ADD174C,0.0128*%
%ADD175R,0.0276X0.0276*%
%ADD176R,0.0569X0.0402*%
%ADD177R,0.0394X0.2756*%
%ADD178R,0.0524X0.1575*%
%ADD179R,0.1102X0.0118*%
%ADD180R,0.0453X0.0827*%
%ADD181R,0.0157X0.0157*%
%ADD182R,0.0220X0.0161*%
%ADD183R,0.0193X0.0122*%
%ADD184R,0.0315X0.0354*%
%ADD185R,0.0181X0.0220*%
%ADD186R,0.0220X0.0181*%
%ADD187R,0.0354X0.0315*%
%ADD188R,0.0142X0.0378*%
%ADD189R,0.0173X0.0114*%
%ADD190R,0.1063X0.1063*%
%ADD191C,0.0423*%
%ADD192C,0.1211*%
%ADD193C,0.0404*%
%ADD194R,0.1173X0.0189*%
%ADD195R,0.0681X0.1055*%
%ADD196R,0.0110X0.0268*%
%ADD197R,0.0394X0.0157*%
%ADD198R,0.0157X0.0394*%
%ADD199R,0.0748X0.0748*%
%ADD200R,0.0236X0.0177*%
%ADD201R,0.1311X0.0752*%
%ADD202R,0.1114X0.0524*%
%ADD203R,0.0681X0.0760*%
%ADD204R,0.0760X0.0681*%
%ADD205R,0.0563X0.0642*%
%ADD206R,0.0642X0.0563*%
%ADD207R,0.0445X0.0484*%
%ADD208R,0.0395X0.0631*%
%ADD209R,0.0650X0.0335*%
%ADD210R,0.0335X0.0650*%
%ADD211R,0.0650X0.0453*%
%ADD212R,0.0710X0.0710*%
%ADD213R,0.0395X0.0710*%
%ADD214R,0.0710X0.0395*%
%ADD215R,0.0356X0.0198*%
%ADD216R,0.0198X0.0356*%
%ADD217R,0.0323X0.0146*%
%ADD218R,0.0362X0.0146*%
%ADD219R,0.0287X0.0217*%
%ADD220R,0.0787X0.0984*%
%ADD221R,0.0493X0.0316*%
%ADD222R,0.0423X0.0118*%
%ADD223C,0.0118*%
%ADD224R,0.0423X0.0276*%
%ADD225R,0.0138X0.0620*%
%ADD226O,0.0138X0.0118*%
%ADD227R,0.0276X0.0232*%
%ADD228R,0.0113X0.0103*%
%ADD229R,0.0074X0.0083*%
%ADD230R,0.0118X0.0241*%
%ADD231R,0.0266X0.0118*%
%ADD232R,0.0083X0.0074*%
%ADD233R,0.0241X0.0118*%
%ADD234R,0.0118X0.0266*%
%ADD235R,0.0232X0.0276*%
%ADD236O,0.0118X0.0138*%
%ADD237R,0.0423X0.0138*%
%ADD238R,0.0103X0.0113*%
%ADD239R,0.0522X0.0118*%
%ADD240R,0.0276X0.0256*%
%ADD241R,0.0138X0.0079*%
%ADD242R,0.0434X0.0395*%
%ADD243R,0.0631X0.0395*%
%ADD244R,0.0610X0.0512*%
%ADD245R,0.0316X0.0493*%
%ADD246C,0.0787*%
%ADD247R,0.0474X0.0513*%
%ADD248R,0.2096X0.2167*%
%ADD249R,0.0287X0.0327*%
%ADD250R,0.0327X0.0287*%
%ADD251R,0.0484X0.0445*%
%ADD252R,0.0118X0.0236*%
%ADD253R,0.0236X0.0118*%
%ADD254R,0.0150X0.0366*%
%ADD255R,0.0366X0.0150*%
%ADD256R,0.1508X0.1508*%
%ADD257R,0.1391X0.2836*%
%ADD258R,0.0157X0.0512*%
%ADD259C,0.0080*%
%ADD260C,0.0671*%
%ADD261C,0.1064*%
%ADD262C,0.0513*%
%ADD263C,0.0710*%
%ADD264C,0.0295*%
%ADD265C,0.0650*%
%ADD266C,0.0390*%
D10*
X420276Y397441D02*
X422047Y397441D01*
X420276Y396260D02*
X422047Y396260D01*
X419095Y413976D02*
X420866D01*
X400394Y393701D02*
Y394685D01*
X399213Y393701D02*
Y394685D01*
X398425Y393701D02*
X399213D01*
X404134Y433661D02*
Y434646D01*
X405315Y433661D02*
Y434646D01*
D83*
X420276Y397441D02*
X420178Y397433D01*
X420084Y397409D01*
X419995Y397370D01*
X419913Y397316D01*
X419841Y397250D01*
X419781Y397173D01*
X419735Y397088D01*
X419703Y396995D01*
X419687Y396899D01*
Y396802D01*
X419703Y396705D01*
X419735Y396613D01*
X419781Y396527D01*
X419841Y396450D01*
X419913Y396384D01*
X419995Y396331D01*
X420084Y396292D01*
X420178Y396268D01*
X420276Y396260D01*
X422047Y412795D02*
X422043Y412893D01*
X422031Y412990D01*
X422011Y413085D01*
X421983Y413179D01*
X421948Y413270D01*
X421905Y413357D01*
X421855Y413441D01*
X421798Y413521D01*
X421735Y413595D01*
X421666Y413664D01*
X421592Y413727D01*
X421512Y413784D01*
X421428Y413834D01*
X421341Y413877D01*
X421250Y413912D01*
X421156Y413940D01*
X421061Y413960D01*
X420964Y413972D01*
X420866Y413976D01*
X397244Y394882D02*
X397248Y394784D01*
X397260Y394688D01*
X397280Y394592D01*
X397308Y394498D01*
X397344Y394407D01*
X397386Y394320D01*
X397436Y394236D01*
X397493Y394156D01*
X397556Y394082D01*
X397625Y394013D01*
X397700Y393950D01*
X397779Y393893D01*
X397863Y393843D01*
X397951Y393800D01*
X398042Y393765D01*
X398135Y393737D01*
X398231Y393717D01*
X398328Y393705D01*
X398425Y393701D01*
Y434646D02*
X398328Y434642D01*
X398231Y434630D01*
X398135Y434610D01*
X398042Y434582D01*
X397951Y434546D01*
X397863Y434503D01*
X397779Y434453D01*
X397700Y434397D01*
X397625Y434334D01*
X397556Y434264D01*
X397493Y434190D01*
X397436Y434111D01*
X397386Y434027D01*
X397344Y433939D01*
X397308Y433848D01*
X397280Y433755D01*
X397260Y433659D01*
X397248Y433562D01*
X397244Y433465D01*
X396654Y422244D02*
X396756Y422253D01*
X396856Y422280D01*
X396949Y422323D01*
X397033Y422382D01*
X397106Y422455D01*
X397165Y422539D01*
X397208Y422633D01*
X397235Y422732D01*
X397244Y422835D01*
Y405512D02*
X397235Y405614D01*
X397208Y405714D01*
X397165Y405807D01*
X397106Y405891D01*
X397033Y405964D01*
X396949Y406023D01*
X396856Y406067D01*
X396756Y406093D01*
X396654Y406102D01*
X419685Y393701D02*
X419785Y393703D01*
X419885Y393709D01*
X419985Y393720D01*
X420084Y393735D01*
X420183Y393754D01*
X420280Y393777D01*
X420377Y393804D01*
X420472Y393836D01*
X420566Y393871D01*
X420658Y393910D01*
X420749Y393954D01*
X420837Y394001D01*
X420924Y394052D01*
X421008Y394106D01*
X421090Y394164D01*
X421169Y394225D01*
X421246Y394290D01*
X421320Y394358D01*
X421390Y394428D01*
X421458Y394502D01*
X421523Y394579D01*
X421584Y394658D01*
X421642Y394740D01*
X421697Y394824D01*
X421747Y394911D01*
X421794Y395000D01*
X421838Y395090D01*
X421877Y395182D01*
X421912Y395276D01*
X421944Y395371D01*
X421971Y395468D01*
X421994Y395565D01*
X422013Y395664D01*
X422028Y395763D01*
X422039Y395863D01*
X422045Y395963D01*
X422047Y396063D01*
X418504Y433465D02*
X418500Y433562D01*
X418488Y433659D01*
X418468Y433755D01*
X418440Y433848D01*
X418404Y433939D01*
X418362Y434027D01*
X418312Y434111D01*
X418255Y434190D01*
X418192Y434264D01*
X418123Y434334D01*
X418048Y434397D01*
X417969Y434453D01*
X417885Y434503D01*
X417797Y434546D01*
X417706Y434582D01*
X417613Y434610D01*
X417517Y434630D01*
X417420Y434642D01*
X417323Y434646D01*
X418504Y414567D02*
X418513Y414464D01*
X418540Y414365D01*
X418583Y414272D01*
X418642Y414187D01*
X418715Y414115D01*
X418799Y414055D01*
X418893Y414012D01*
X418992Y413985D01*
X419095Y413976D01*
X400394Y394685D02*
X400386Y394782D01*
X400362Y394877D01*
X400323Y394966D01*
X400269Y395048D01*
X400203Y395120D01*
X400126Y395179D01*
X400040Y395226D01*
X399948Y395258D01*
X399852Y395274D01*
X399754D01*
X399658Y395258D01*
X399566Y395226D01*
X399480Y395179D01*
X399403Y395120D01*
X399337Y395048D01*
X399284Y394966D01*
X399245Y394877D01*
X399221Y394782D01*
X399213Y394685D01*
X404134Y433661D02*
X404142Y433564D01*
X404166Y433470D01*
X404205Y433380D01*
X404258Y433299D01*
X404324Y433227D01*
X404401Y433167D01*
X404487Y433121D01*
X404579Y433089D01*
X404676Y433073D01*
X404773D01*
X404869Y433089D01*
X404962Y433121D01*
X405047Y433167D01*
X405124Y433227D01*
X405190Y433299D01*
X405244Y433380D01*
X405283Y433470D01*
X405307Y433564D01*
X405315Y433661D01*
X422047Y396063D02*
Y396260D01*
X418504Y414567D02*
Y433465D01*
X393701Y422244D02*
X393701Y406102D01*
X405315Y434646D02*
X417323Y434646D01*
X397244Y422835D02*
Y433465D01*
X393701Y422244D02*
X396654D01*
X400394Y393701D02*
X419685Y393701D01*
X397244Y394882D02*
Y405512D01*
X393701Y406102D02*
X396654D01*
X422047Y397441D02*
Y412795D01*
X398425Y434646D02*
X404134D01*
M02*
