%FSLAX24Y24*%
%MOIN*%
G70*
G01*
G75*
%ADD10C,0.0090*%
%ADD11R,0.1142X0.0157*%
%ADD12R,0.0650X0.1024*%
%ADD13R,0.0079X0.0236*%
%ADD14R,0.0354X0.0118*%
%ADD15R,0.0118X0.0354*%
%ADD16R,0.0118X0.0118*%
%ADD17R,0.0709X0.0709*%
%ADD18R,0.0197X0.0138*%
%ADD19R,0.1260X0.0701*%
%ADD20R,0.1063X0.0472*%
%ADD21R,0.0630X0.0709*%
%ADD22R,0.0709X0.0630*%
%ADD23R,0.0512X0.0591*%
%ADD24R,0.0591X0.0512*%
%ADD25R,0.0394X0.0433*%
%ADD26R,0.0315X0.0551*%
%ADD27R,0.0591X0.0276*%
%ADD28R,0.0276X0.0591*%
%ADD29R,0.0591X0.0394*%
%ADD30R,0.0630X0.0630*%
%ADD31R,0.0315X0.0630*%
%ADD32R,0.0630X0.0315*%
%ADD33C,0.0056*%
%ADD34R,0.0276X0.0118*%
%ADD35R,0.0118X0.0276*%
%ADD36R,0.0276X0.0098*%
%ADD37R,0.0315X0.0098*%
%ADD38R,0.0248X0.0177*%
%ADD39R,0.0748X0.0945*%
%ADD40R,0.0413X0.0236*%
%ADD41R,0.0384X0.0079*%
%ADD42C,0.0079*%
%ADD43R,0.0384X0.0236*%
%ADD44R,0.0039X0.0157*%
%ADD45R,0.0098X0.0581*%
%ADD46O,0.0098X0.0079*%
%ADD47C,0.0011*%
%ADD48R,0.0236X0.0192*%
%ADD49R,0.0074X0.0064*%
%ADD50C,0.0010*%
%ADD51R,0.0035X0.0044*%
%ADD52R,0.0079X0.0202*%
%ADD53R,0.0226X0.0079*%
%ADD54R,0.0044X0.0035*%
%ADD55R,0.0202X0.0079*%
%ADD56R,0.0079X0.0226*%
%ADD57R,0.0192X0.0236*%
%ADD58O,0.0079X0.0098*%
%ADD59R,0.0384X0.0098*%
%ADD60R,0.0064X0.0074*%
%ADD61R,0.0482X0.0079*%
%ADD62R,0.0315X0.0079*%
%ADD63R,0.0079X0.0315*%
%ADD64R,0.0236X0.0217*%
%ADD65R,0.0098X0.0039*%
%ADD66R,0.0354X0.0315*%
%ADD67R,0.0551X0.0315*%
%ADD68R,0.0551X0.0453*%
%ADD69R,0.0236X0.0413*%
%ADD70C,0.0394*%
%ADD71R,0.2016X0.2087*%
%ADD72R,0.0236X0.0276*%
%ADD73R,0.0276X0.0236*%
%ADD74R,0.0433X0.0394*%
%ADD75R,0.0236X0.0472*%
%ADD76R,0.0157X0.0098*%
%ADD77R,0.0079X0.0197*%
%ADD78R,0.0197X0.0079*%
%ADD79R,0.0098X0.0315*%
%ADD80R,0.1457X0.1457*%
%ADD81R,0.1311X0.2756*%
%ADD82R,0.0118X0.0472*%
%ADD83C,0.0100*%
%ADD84C,0.0150*%
%ADD85C,0.0140*%
%ADD86C,0.0170*%
%ADD87C,0.0120*%
%ADD88C,0.0079*%
%ADD89C,0.0110*%
%ADD90C,0.0630*%
%ADD91C,0.0098*%
%ADD92C,0.0070*%
%ADD93C,0.0512*%
%ADD94C,0.0230*%
%ADD95C,0.0236*%
%ADD96C,0.0060*%
%ADD97C,0.0010*%
%ADD98C,0.0118*%
%ADD99R,0.0394X0.1083*%
%ADD100R,0.1033X0.0640*%
%ADD101R,0.1102X0.1102*%
%ADD102R,0.1063X0.0354*%
%ADD103R,0.0748X0.0709*%
%ADD104R,0.0630X0.1339*%
%ADD105R,0.0630X0.1358*%
%ADD106R,0.1654X0.0709*%
%ADD107R,0.0866X0.1614*%
%ADD108R,0.0453X0.0906*%
%ADD109R,0.1594X0.0610*%
%ADD110R,0.0512X0.1516*%
%ADD111R,0.2736X0.0433*%
%ADD112R,0.0787X0.0748*%
%ADD113R,0.2264X0.0689*%
%ADD114R,0.0689X0.0906*%
%ADD115R,0.0236X0.0610*%
%ADD116R,0.0177X0.0315*%
%ADD117R,0.1161X0.0787*%
%ADD118R,0.0689X0.0098*%
%ADD119R,0.0394X0.0571*%
%ADD120R,0.0728X0.0098*%
%ADD121R,0.0768X0.0335*%
%ADD122R,0.0217X0.0689*%
%ADD123R,0.0866X0.0689*%
%ADD124R,0.1319X0.0827*%
%ADD125R,0.0591X0.0276*%
%ADD126R,0.0630X0.1299*%
%ADD127R,0.0531X0.0354*%
%ADD128R,0.0177X0.0748*%
%ADD129R,0.0492X0.0236*%
%ADD130R,0.0335X0.1063*%
%ADD131R,0.0886X0.0610*%
%ADD132R,0.0512X0.0768*%
%ADD133R,0.0807X0.0551*%
%ADD134R,0.1457X0.0492*%
%ADD135R,0.0817X0.1181*%
%ADD136R,0.1801X0.0945*%
%ADD137R,0.0707X0.0295*%
%ADD138R,0.1772X0.0640*%
%ADD139C,0.0787*%
%ADD140C,0.2362*%
%ADD141C,0.0748*%
%ADD142C,0.0591*%
%ADD143C,0.0984*%
%ADD144C,0.2913*%
%ADD145C,0.0433*%
%ADD146C,0.0630*%
%ADD147C,0.0551*%
%ADD148C,0.0256*%
%ADD149C,0.0260*%
%ADD150C,0.0230*%
%ADD151C,0.0500*%
%ADD152C,0.0550*%
%ADD153C,0.0250*%
%ADD154C,0.0180*%
%ADD155C,0.0400*%
%ADD156C,0.0450*%
%ADD157C,0.0095*%
%ADD158C,0.0310*%
%ADD159C,0.0200*%
%ADD160C,0.0197*%
%ADD161R,0.0276X0.0512*%
%ADD162R,0.0738X0.0315*%
%ADD163R,0.0571X0.0315*%
%ADD164R,0.0276X0.0512*%
%ADD165R,0.1969X0.1929*%
%ADD166R,0.0640X0.0394*%
D10*
X414883Y396576D02*
X414870Y396678D01*
X414830Y396773D01*
X414768Y396854D01*
X414686Y396917D01*
X414591Y396956D01*
X414489Y396970D01*
X415038Y396576D02*
X415052Y396474D01*
X415091Y396379D01*
X415153Y396298D01*
X415235Y396235D01*
X415330Y396196D01*
X415432Y396182D01*
X415038Y396576D02*
X415030Y396671D01*
X415005Y396764D01*
X414965Y396850D01*
X414910Y396929D01*
X414842Y396996D01*
X414764Y397051D01*
X414677Y397092D01*
X414585Y397116D01*
X414489Y397125D01*
X416852Y396182D02*
X416954Y396196D01*
X417048Y396235D01*
X417130Y396298D01*
X417193Y396379D01*
X417232Y396474D01*
X417245Y396576D01*
X414883Y396576D02*
X414891Y396481D01*
X414916Y396388D01*
X414957Y396302D01*
X415012Y396223D01*
X415079Y396156D01*
X415157Y396101D01*
X415244Y396060D01*
X415337Y396036D01*
X415432Y396027D01*
X416852Y396027D02*
X416947Y396036D01*
X417039Y396060D01*
X417126Y396101D01*
X417204Y396156D01*
X417272Y396223D01*
X417327Y396302D01*
X417367Y396388D01*
X417392Y396481D01*
X417400Y396576D01*
X411161Y405945D02*
X413681Y408465D01*
X417323D01*
X418307Y407480D01*
X421407D01*
X411417Y406890D02*
X413533Y409006D01*
X420905D01*
X416339Y398179D02*
Y398917D01*
X414961Y398573D02*
Y400394D01*
X415502Y400935D01*
X410817Y405945D02*
X411161D01*
X409498Y406447D02*
X409941Y406890D01*
X411417D01*
X417126Y405020D02*
Y405659D01*
X419783Y402362D02*
X420522D01*
X421407Y403248D01*
Y405905D01*
X413189Y398150D02*
X414537D01*
X413189Y406545D02*
X413435D01*
X412559Y404862D02*
X413307D01*
X414035Y403642D02*
Y405354D01*
X413386Y406004D02*
X414035Y405354D01*
X410089Y408268D02*
Y409203D01*
X408661Y410630D02*
X410089Y409203D01*
X414961Y405315D02*
X415217Y405059D01*
X414961Y405315D02*
Y407382D01*
X405118Y396850D02*
X406102Y395866D01*
Y394783D02*
Y395866D01*
X404724Y402756D02*
X404724Y398425D01*
X404331D02*
Y402756D01*
X403937Y398425D02*
Y402756D01*
X404921Y394783D02*
Y395866D01*
X408374Y404673D02*
X409447D01*
X408374Y407673D02*
X409346D01*
X412402Y415502D02*
X412894D01*
X411890Y420866D02*
X413327Y422303D01*
Y422598D01*
X407598Y420866D02*
X411890D01*
X411752Y421260D02*
X412736Y422244D01*
Y422598D01*
X407598Y421260D02*
X411752Y421260D01*
X412953Y397913D02*
X413189Y398150D01*
X408563Y399311D02*
Y400146D01*
X415305Y405512D02*
X415512Y405305D01*
X413819Y403425D02*
X414035Y403642D01*
X408268Y395787D02*
Y396358D01*
X414518Y419734D02*
X414563D01*
X414907Y420079D01*
X415752Y419734D02*
X415797D01*
X415407Y420079D02*
X415752Y419734D01*
X415407Y419579D02*
X415411D01*
X415502Y419488D01*
Y418750D02*
Y419488D01*
Y418750D02*
X415896Y418356D01*
X416388D01*
X416782Y418750D01*
Y421211D01*
X414961Y423032D02*
X416782Y421211D01*
X414646Y421693D02*
X415118D01*
X414370Y421417D02*
X414646Y421693D01*
X414370Y420984D02*
Y421417D01*
Y420984D02*
X414776Y420579D01*
X414907D01*
X413947Y425472D02*
X414567D01*
X410945Y421772D02*
Y422411D01*
X411024Y420472D02*
X412520D01*
X405118Y396850D02*
Y409646D01*
X406102Y410630D02*
X408661D01*
X405118Y409646D02*
X406102Y410630D01*
X412008Y403189D02*
X413189Y402008D01*
X412008Y403189D02*
Y405364D01*
X413189Y400984D02*
Y402008D01*
X406841Y420620D02*
Y422195D01*
X405905Y419685D02*
X406841Y420620D01*
X400787Y402756D02*
X403543D01*
X400000Y401968D02*
X400787Y402756D01*
X400000Y399567D02*
Y401968D01*
X404331Y396457D02*
X404921Y395866D01*
X403110Y396457D02*
X404331D01*
X400000Y399567D02*
X403110Y396457D01*
X415305Y405512D02*
Y406250D01*
X414095Y403150D02*
X414567D01*
X413819Y403425D02*
X414095Y403150D01*
X411220Y411122D02*
Y411900D01*
X413533Y396850D02*
X413653Y396970D01*
X413533Y397244D02*
X413653Y397125D01*
Y396970D02*
X414489D01*
X417400Y397026D02*
X417470Y397096D01*
X417400Y396576D02*
Y397026D01*
X417175Y397096D02*
X417245Y397026D01*
Y396576D02*
Y397026D01*
X417400Y397289D02*
X417470Y397219D01*
X417175D02*
X417245Y397289D01*
X417323Y397982D02*
X417400Y397905D01*
X417323Y397982D02*
Y398179D01*
X417400Y397289D02*
Y397905D01*
X417077Y397982D02*
X417245Y397814D01*
X417077Y397982D02*
Y398278D01*
X417323Y398524D01*
X417245Y397289D02*
Y397814D01*
X415432Y396182D02*
X416852D01*
X413653Y397125D02*
X414489D01*
X415432Y396027D02*
X416852Y396027D01*
X412008Y396850D02*
X412451D01*
X412953Y397352D01*
Y397913D01*
X415217Y401388D02*
Y405059D01*
X413405Y399577D02*
X415217Y401388D01*
X413405Y398405D02*
Y399577D01*
X415502Y400935D02*
X415512Y405305D01*
X414537Y398150D02*
X414961Y398573D01*
X413681Y401280D02*
Y401722D01*
X413386Y400984D02*
X413681Y401280D01*
X413189Y400984D02*
X413386D01*
X412008Y405364D02*
X413189Y406545D01*
X405965Y430817D02*
Y431339D01*
X420905Y403287D02*
Y405905D01*
X420423Y402805D02*
X420905Y403287D01*
X420276Y397441D02*
X422047Y397441D01*
X420276Y396260D02*
X422047Y396260D01*
X419095Y413976D02*
X420866D01*
X400394Y393701D02*
Y394685D01*
X399213Y393701D02*
Y394685D01*
X398425Y393701D02*
X399213D01*
X404134Y433661D02*
Y434646D01*
X405315Y433661D02*
Y434646D01*
D83*
X420276Y397441D02*
X420178Y397433D01*
X420084Y397409D01*
X419995Y397370D01*
X419913Y397316D01*
X419841Y397250D01*
X419781Y397173D01*
X419735Y397088D01*
X419703Y396995D01*
X419687Y396899D01*
Y396802D01*
X419703Y396705D01*
X419735Y396613D01*
X419781Y396527D01*
X419841Y396450D01*
X419913Y396384D01*
X419995Y396331D01*
X420084Y396292D01*
X420178Y396268D01*
X420276Y396260D01*
X422047Y412795D02*
X422043Y412893D01*
X422031Y412990D01*
X422011Y413085D01*
X421983Y413179D01*
X421948Y413270D01*
X421905Y413357D01*
X421855Y413441D01*
X421798Y413521D01*
X421735Y413595D01*
X421666Y413664D01*
X421592Y413727D01*
X421512Y413784D01*
X421428Y413834D01*
X421341Y413877D01*
X421250Y413912D01*
X421156Y413940D01*
X421061Y413960D01*
X420964Y413972D01*
X420866Y413976D01*
X397244Y394882D02*
X397248Y394784D01*
X397260Y394688D01*
X397280Y394592D01*
X397308Y394498D01*
X397344Y394407D01*
X397386Y394320D01*
X397436Y394236D01*
X397493Y394156D01*
X397556Y394082D01*
X397625Y394013D01*
X397700Y393950D01*
X397779Y393893D01*
X397863Y393843D01*
X397951Y393800D01*
X398042Y393765D01*
X398135Y393737D01*
X398231Y393717D01*
X398328Y393705D01*
X398425Y393701D01*
Y434646D02*
X398328Y434642D01*
X398231Y434630D01*
X398135Y434610D01*
X398042Y434582D01*
X397951Y434546D01*
X397863Y434503D01*
X397779Y434453D01*
X397700Y434397D01*
X397625Y434334D01*
X397556Y434264D01*
X397493Y434190D01*
X397436Y434111D01*
X397386Y434027D01*
X397344Y433939D01*
X397308Y433848D01*
X397280Y433755D01*
X397260Y433659D01*
X397248Y433562D01*
X397244Y433465D01*
X396654Y422244D02*
X396756Y422253D01*
X396856Y422280D01*
X396949Y422323D01*
X397033Y422382D01*
X397106Y422455D01*
X397165Y422539D01*
X397208Y422633D01*
X397235Y422732D01*
X397244Y422835D01*
Y405512D02*
X397235Y405614D01*
X397208Y405714D01*
X397165Y405807D01*
X397106Y405891D01*
X397033Y405964D01*
X396949Y406023D01*
X396856Y406067D01*
X396756Y406093D01*
X396654Y406102D01*
X419685Y393701D02*
X419785Y393703D01*
X419885Y393709D01*
X419985Y393720D01*
X420084Y393735D01*
X420183Y393754D01*
X420280Y393777D01*
X420377Y393804D01*
X420472Y393836D01*
X420566Y393871D01*
X420658Y393910D01*
X420749Y393954D01*
X420837Y394001D01*
X420924Y394052D01*
X421008Y394106D01*
X421090Y394164D01*
X421169Y394225D01*
X421246Y394290D01*
X421320Y394358D01*
X421390Y394428D01*
X421458Y394502D01*
X421523Y394579D01*
X421584Y394658D01*
X421642Y394740D01*
X421697Y394824D01*
X421747Y394911D01*
X421794Y395000D01*
X421838Y395090D01*
X421877Y395182D01*
X421912Y395276D01*
X421944Y395371D01*
X421971Y395468D01*
X421994Y395565D01*
X422013Y395664D01*
X422028Y395763D01*
X422039Y395863D01*
X422045Y395963D01*
X422047Y396063D01*
X418504Y433465D02*
X418500Y433562D01*
X418488Y433659D01*
X418468Y433755D01*
X418440Y433848D01*
X418404Y433939D01*
X418362Y434027D01*
X418312Y434111D01*
X418255Y434190D01*
X418192Y434264D01*
X418123Y434334D01*
X418048Y434397D01*
X417969Y434453D01*
X417885Y434503D01*
X417797Y434546D01*
X417706Y434582D01*
X417613Y434610D01*
X417517Y434630D01*
X417420Y434642D01*
X417323Y434646D01*
X418504Y414567D02*
X418513Y414464D01*
X418540Y414365D01*
X418583Y414272D01*
X418642Y414187D01*
X418715Y414115D01*
X418799Y414055D01*
X418893Y414012D01*
X418992Y413985D01*
X419095Y413976D01*
X400394Y394685D02*
X400386Y394782D01*
X400362Y394877D01*
X400323Y394966D01*
X400269Y395048D01*
X400203Y395120D01*
X400126Y395179D01*
X400040Y395226D01*
X399948Y395258D01*
X399852Y395274D01*
X399754D01*
X399658Y395258D01*
X399566Y395226D01*
X399480Y395179D01*
X399403Y395120D01*
X399337Y395048D01*
X399284Y394966D01*
X399245Y394877D01*
X399221Y394782D01*
X399213Y394685D01*
X404134Y433661D02*
X404142Y433564D01*
X404166Y433470D01*
X404205Y433380D01*
X404258Y433299D01*
X404324Y433227D01*
X404401Y433167D01*
X404487Y433121D01*
X404579Y433089D01*
X404676Y433073D01*
X404773D01*
X404869Y433089D01*
X404962Y433121D01*
X405047Y433167D01*
X405124Y433227D01*
X405190Y433299D01*
X405244Y433380D01*
X405283Y433470D01*
X405307Y433564D01*
X405315Y433661D01*
X422047Y396063D02*
Y396260D01*
X418504Y414567D02*
Y433465D01*
X393701Y422244D02*
X393701Y406102D01*
X405315Y434646D02*
X417323Y434646D01*
X397244Y422835D02*
Y433465D01*
X393701Y422244D02*
X396654D01*
X400394Y393701D02*
X419685Y393701D01*
X397244Y394882D02*
Y405512D01*
X393701Y406102D02*
X396654D01*
X422047Y397441D02*
Y412795D01*
X398425Y434646D02*
X404134D01*
D84*
X416437Y405020D02*
X417126D01*
X415896Y405561D02*
X416437Y405020D01*
X415896Y405561D02*
Y407037D01*
X415157Y407776D02*
X415896Y407037D01*
X413632Y407776D02*
X415157D01*
X411220Y405364D02*
X413632Y407776D01*
X410532Y405364D02*
X411220D01*
X410138Y405758D02*
X410532Y405364D01*
X410138Y405758D02*
Y406201D01*
X409567Y402362D02*
X411811D01*
X413189Y400984D01*
D87*
X405512Y427362D02*
X406693D01*
X404528Y426378D02*
X405512Y427362D01*
X404528Y418898D02*
Y426378D01*
X405118Y427953D02*
X406575D01*
X403937Y426772D02*
X405118Y427953D01*
X403937Y419055D02*
Y426772D01*
X406693Y431791D02*
X415945Y431791D01*
X413091Y426870D02*
X413878D01*
X414567Y426476D02*
Y426870D01*
X414222Y426132D02*
X414567Y426476D01*
X413041Y426132D02*
X414222D01*
X411811Y427362D02*
X413041Y426132D01*
X406693Y427362D02*
X411811D01*
X415945Y431791D02*
X416358Y432205D01*
X416634D01*
X406575Y427953D02*
X412008D01*
X413091Y426870D01*
X406417Y431791D02*
X406693D01*
X405965Y431339D02*
X406417Y431791D01*
D96*
X410847Y398798D02*
X411418Y399369D01*
X410890Y398756D02*
X411461Y399327D01*
X410869Y398777D02*
X411439Y399348D01*
X411024Y399764D02*
X412283Y398504D01*
X410911Y398735D02*
X411482Y399305D01*
X410784Y398862D02*
X411355Y399433D01*
X410805Y398841D02*
X411376Y399412D01*
X410763Y398883D02*
X411333Y399454D01*
X410826Y398820D02*
X411397Y399390D01*
X410784Y398862D02*
X411355Y399433D01*
X411059Y398586D02*
X411630Y399157D01*
X411081Y398565D02*
X411652Y399136D01*
X411038Y398607D02*
X411609Y399178D01*
X411123Y398523D02*
X411694Y399093D01*
X411102Y398544D02*
X411673Y399115D01*
X410975Y398671D02*
X411546Y399242D01*
X410953Y398692D02*
X411524Y399263D01*
X410932Y398713D02*
X411503Y399284D01*
X411017Y398629D02*
X411588Y399199D01*
X410996Y398650D02*
X411567Y399221D01*
X410986Y400335D02*
X411024Y400297D01*
X410943Y400335D02*
X411024Y400254D01*
X410901Y400335D02*
X411024Y400212D01*
X410858Y400335D02*
X411024Y400169D01*
X410816Y400335D02*
X411024Y400127D01*
X410773Y400335D02*
X411024Y400084D01*
X410731Y400335D02*
X411024Y400042D01*
X410689Y400335D02*
X411024Y400000D01*
X410646Y400335D02*
X411024Y399957D01*
X410604Y400335D02*
X411024Y399915D01*
X410656Y398989D02*
X411227Y399560D01*
X410699Y398947D02*
X411270Y399518D01*
X411024Y399764D02*
Y400335D01*
X410741Y398904D02*
X411312Y399475D01*
X410720Y398926D02*
X411291Y399496D01*
X410614Y399032D02*
X411185Y399603D01*
X410593Y399053D02*
X411164Y399624D01*
X410678Y398968D02*
X411249Y399539D01*
X410635Y399010D02*
X411206Y399581D01*
X412283Y398091D02*
Y398504D01*
X411879Y398091D02*
X412283Y398495D01*
X411837Y398091D02*
X412267Y398521D01*
X411794Y398091D02*
X412246Y398542D01*
X411752Y398091D02*
X412224Y398563D01*
X411667Y398091D02*
X412182Y398605D01*
X411709Y398091D02*
X412203Y398584D01*
X411625Y398091D02*
X412161Y398627D01*
X411582Y398091D02*
X412139Y398648D01*
X411547Y398098D02*
X412118Y398669D01*
X412219Y398091D02*
X412283Y398155D01*
X412261Y398091D02*
X412283Y398113D01*
X412176Y398091D02*
X412283Y398198D01*
X412134Y398091D02*
X412283Y398240D01*
X412091Y398091D02*
X412283Y398283D01*
X412006Y398091D02*
X412283Y398368D01*
X412049Y398091D02*
X412283Y398325D01*
X411964Y398091D02*
X412283Y398410D01*
X411922Y398091D02*
X412283Y398452D01*
X411555Y398091D02*
X412283D01*
X411272Y398374D02*
X411842Y398945D01*
X411293Y398353D02*
X411864Y398924D01*
X411250Y398395D02*
X411821Y398966D01*
X411335Y398310D02*
X411906Y398881D01*
X411314Y398332D02*
X411885Y398902D01*
X411187Y398459D02*
X411758Y399030D01*
X411166Y398480D02*
X411736Y399051D01*
X411144Y398501D02*
X411715Y399072D01*
X411229Y398416D02*
X411800Y398987D01*
X411208Y398438D02*
X411779Y399009D01*
X411463Y398183D02*
X412033Y398754D01*
X411505Y398141D02*
X412076Y398712D01*
X411420Y398226D02*
X411991Y398796D01*
X411526Y398119D02*
X412097Y398690D01*
X411484Y398162D02*
X412055Y398733D01*
X411378Y398268D02*
X411949Y398839D01*
X411357Y398289D02*
X411927Y398860D01*
X411441Y398204D02*
X412012Y398775D01*
X411399Y398247D02*
X411970Y398818D01*
X410561Y400335D02*
X411024Y399872D01*
X410519Y400335D02*
X411024Y399830D01*
X410476Y400335D02*
X411024Y399787D01*
X410169Y399477D02*
X411024Y400332D01*
X410147Y399498D02*
X410984Y400335D01*
X410039D02*
X411024D01*
X410084Y399562D02*
X410856Y400335D01*
X410062Y399583D02*
X410814Y400335D01*
X410126Y399520D02*
X410941Y400335D01*
X410105Y399541D02*
X410899Y400335D01*
X410253Y399392D02*
X411024Y400162D01*
X410317Y399329D02*
X411024Y400035D01*
X410296Y399350D02*
X411024Y400078D01*
X410338Y399307D02*
X411024Y399993D01*
X410359Y399286D02*
X411024Y399950D01*
X410190Y399456D02*
X411024Y400290D01*
X410211Y399435D02*
X411024Y400247D01*
X410041Y399604D02*
X410772Y400335D01*
X410232Y399413D02*
X411024Y400205D01*
X410275Y399371D02*
X411024Y400120D01*
X410039Y399730D02*
X410644Y400335D01*
X410039Y399772D02*
X410602Y400335D01*
X410039Y399815D02*
X410559Y400335D01*
X410039Y399645D02*
X410729Y400335D01*
X410039Y399687D02*
X410687Y400335D01*
X410039Y399942D02*
X410432Y400335D01*
X410039Y399984D02*
X410390Y400335D01*
X410039Y400027D02*
X410347Y400335D01*
X410039Y399857D02*
X410517Y400335D01*
X410039Y399899D02*
X410475Y400335D01*
X410039Y400154D02*
X410220Y400335D01*
X410039Y400196D02*
X410178Y400335D01*
X410039Y400239D02*
X410135Y400335D01*
X410039Y400069D02*
X410305Y400335D01*
X410039Y400112D02*
X410262Y400335D01*
X410039Y400281D02*
X410093Y400335D01*
X410039Y400324D02*
X410050Y400335D01*
X410039Y400197D02*
Y400335D01*
Y399606D02*
Y400197D01*
X410434Y400335D02*
X412283Y398485D01*
X410392Y400335D02*
X412283Y398443D01*
X410349Y400335D02*
X412283Y398400D01*
X410307Y400335D02*
X412283Y398358D01*
X410264Y400335D02*
X412283Y398315D01*
X410222Y400335D02*
X412283Y398273D01*
X410179Y400335D02*
X412283Y398231D01*
X410137Y400335D02*
X412283Y398188D01*
X410095Y400335D02*
X412283Y398146D01*
X410052Y400335D02*
X412283Y398103D01*
X410052Y400335D02*
X412283Y398103D01*
X410039Y400305D02*
X412254Y398091D01*
X410039Y400263D02*
X412211Y398091D01*
X410039Y400220D02*
X412169Y398091D01*
X410039Y400178D02*
X412127Y398091D01*
X410039Y400135D02*
X412084Y398091D01*
X410039Y400093D02*
X412042Y398091D01*
X410039Y400050D02*
X411999Y398091D01*
X410039Y400008D02*
X411957Y398091D01*
X410039Y399966D02*
X411914Y398091D01*
X410381Y399265D02*
X411024Y399908D01*
X410402Y399244D02*
X411024Y399865D01*
X410423Y399223D02*
X411024Y399823D01*
X410487Y399159D02*
X411058Y399730D01*
X410444Y399201D02*
X411024Y399781D01*
X410039Y399923D02*
X411872Y398091D01*
X410039Y399881D02*
X411830Y398091D01*
X410039Y399838D02*
X411787Y398091D01*
X410039Y399796D02*
X411745Y398091D01*
X410039Y399753D02*
X411702Y398091D01*
X410508Y399138D02*
X411079Y399709D01*
X410529Y399116D02*
X411100Y399687D01*
X410466Y399180D02*
X411036Y399751D01*
X410572Y399074D02*
X411142Y399645D01*
X410550Y399095D02*
X411121Y399666D01*
X410039Y399711D02*
X411660Y398091D01*
X410039Y399669D02*
X411617Y398091D01*
X410039Y399626D02*
X411575Y398091D01*
X410039Y399606D02*
X411555Y398091D01*
X411811Y400738D02*
X412303Y401230D01*
X411790Y400759D02*
X412282Y401251D01*
X411832Y400717D02*
X412325Y401209D01*
X411726Y400823D02*
X412219Y401315D01*
X411769Y400780D02*
X412261Y401273D01*
X411811Y401722D02*
X412992Y400541D01*
X411875Y400674D02*
X412367Y401166D01*
X411854Y400696D02*
X412346Y401188D01*
X411896Y400653D02*
X412388Y401145D01*
X411599Y400950D02*
X412091Y401442D01*
X411620Y400929D02*
X412112Y401421D01*
X411663Y400886D02*
X412155Y401379D01*
X411548Y400984D02*
X412049Y401485D01*
X411578Y400971D02*
X412070Y401463D01*
X411705Y400844D02*
X412197Y401336D01*
X411748Y400802D02*
X412240Y401294D01*
X411642Y400908D02*
X412134Y401400D01*
X411684Y400865D02*
X412176Y401357D01*
X413240Y400541D02*
X413287Y400494D01*
X412992Y400541D02*
X413287D01*
X413197D02*
X413287Y400451D01*
X412087Y400462D02*
X412579Y400954D01*
X412108Y400441D02*
X412600Y400933D01*
X413155Y400541D02*
X413287Y400409D01*
X413112Y400541D02*
X413287Y400366D01*
X412151Y400399D02*
X412643Y400891D01*
X412129Y400420D02*
X412622Y400912D01*
X411960Y400589D02*
X412452Y401082D01*
X411981Y400568D02*
X412473Y401060D01*
X411939Y400611D02*
X412431Y401103D01*
X411917Y400632D02*
X412409Y401124D01*
X412023Y400526D02*
X412515Y401018D01*
X412066Y400483D02*
X412558Y400976D01*
X412002Y400547D02*
X412494Y401039D01*
X412045Y400505D02*
X412537Y400997D01*
X411082Y400984D02*
X411815Y401718D01*
X411039Y400984D02*
X411777Y401722D01*
X410997Y400984D02*
X411735Y401722D01*
X410954Y400984D02*
X411693Y401722D01*
X410912Y400984D02*
X411650Y401722D01*
X410870Y400984D02*
X411608Y401722D01*
X410827Y400984D02*
X411565Y401722D01*
X410785Y400984D02*
X411523Y401722D01*
X410786D02*
X411524Y400984D01*
X410742D02*
X411480Y401722D01*
X410743D02*
X411481Y400984D01*
X410700D02*
X411438Y401722D01*
X410701D02*
X411439Y400984D01*
X410657D02*
X411396Y401722D01*
X410658D02*
X411397Y400984D01*
X410615D02*
X411353Y401722D01*
X410616D02*
X411354Y400984D01*
X411464D02*
X412006Y401527D01*
X411421Y400984D02*
X411985Y401548D01*
X411506Y400984D02*
X412028Y401506D01*
X411336Y400984D02*
X411943Y401591D01*
X411379Y400984D02*
X411964Y401570D01*
X411251Y400984D02*
X411900Y401633D01*
X411294Y400984D02*
X411922Y401612D01*
X411209Y400984D02*
X411879Y401654D01*
X411167Y400984D02*
X411858Y401676D01*
X410573Y400984D02*
X411311Y401722D01*
X411124Y400984D02*
X411837Y401697D01*
X410574Y401722D02*
X411312Y400984D01*
X410530D02*
X411268Y401722D01*
X410531D02*
X411269Y400984D01*
X410488D02*
X411226Y401722D01*
X410489D02*
X411227Y400984D01*
X410445D02*
X411184Y401722D01*
X413070Y400541D02*
X413287Y400324D01*
X411804Y401722D02*
X413287Y400239D01*
X413027Y400541D02*
X413287Y400281D01*
X411761Y401722D02*
X413287Y400197D01*
X411719Y401722D02*
X413287Y400154D01*
X411677Y401722D02*
X413287Y400112D01*
Y399902D02*
Y400541D01*
X412639Y399911D02*
X413269Y400541D01*
X412617Y399932D02*
X413227Y400541D01*
X411634Y401722D02*
X413287Y400069D01*
X411592Y401722D02*
X413287Y400027D01*
X411549Y401722D02*
X413287Y399984D01*
X411507Y401722D02*
X413287Y399942D01*
X411464Y401722D02*
X413285Y399902D01*
X411465Y401722D02*
X413285Y399902D01*
X411422Y401722D02*
X413243Y399902D01*
X411380Y401722D02*
X413200Y399902D01*
X413223D02*
X413287Y399966D01*
X413181Y399902D02*
X413287Y400008D01*
X413266Y399902D02*
X413287Y399923D01*
X413096Y399902D02*
X413287Y400093D01*
X413139Y399902D02*
X413287Y400050D01*
X413011Y399902D02*
X413287Y400178D01*
X413054Y399902D02*
X413287Y400135D01*
X412926Y399902D02*
X413287Y400263D01*
X412969Y399902D02*
X413287Y400220D01*
X412842Y399902D02*
X413287Y400347D01*
X412884Y399902D02*
X413287Y400305D01*
X412596Y399953D02*
X413184Y400541D01*
X412799Y399902D02*
X413287Y400390D01*
X412714Y399902D02*
X413287Y400475D01*
X412757Y399902D02*
X413287Y400432D01*
X412672Y399902D02*
X413287Y400517D01*
X412648Y399902D02*
X413287D01*
X412214Y400335D02*
X412706Y400827D01*
X411337Y401722D02*
X413158Y399902D01*
X412193Y400356D02*
X412685Y400848D01*
X411565Y400984D02*
X412648Y399902D01*
X412172Y400377D02*
X412664Y400869D01*
X411295Y401722D02*
X413116Y399902D01*
X411252Y401722D02*
X413073Y399902D01*
X411210Y401722D02*
X413031Y399902D01*
X411167Y401722D02*
X412988Y399902D01*
X411125Y401722D02*
X412946Y399902D01*
X411083Y401722D02*
X412903Y399902D01*
X411040Y401722D02*
X412861Y399902D01*
X410998Y401722D02*
X412819Y399902D01*
X410955Y401722D02*
X412776Y399902D01*
X410913Y401722D02*
X412734Y399902D01*
X410870Y401722D02*
X412691Y399902D01*
X410828Y401722D02*
X412649Y399902D01*
X412490Y400059D02*
X412982Y400551D01*
X412448Y400102D02*
X412940Y400594D01*
X412469Y400080D02*
X412961Y400572D01*
X412426Y400123D02*
X412919Y400615D01*
X412405Y400144D02*
X412897Y400636D01*
X412575Y399974D02*
X413142Y400541D01*
X412554Y399996D02*
X413100Y400541D01*
X412532Y400017D02*
X413057Y400541D01*
X412511Y400038D02*
X413015Y400541D01*
X412278Y400271D02*
X412770Y400763D01*
X412299Y400250D02*
X412791Y400742D01*
X412235Y400314D02*
X412728Y400806D01*
X412257Y400293D02*
X412749Y400785D01*
X412363Y400186D02*
X412855Y400679D01*
X412384Y400165D02*
X412876Y400657D01*
X412320Y400229D02*
X412812Y400721D01*
X412342Y400208D02*
X412834Y400700D01*
X410446Y401722D02*
X411184Y400984D01*
X410403D02*
X411141Y401722D01*
X410404D02*
X411142Y400984D01*
X410360D02*
X411099Y401722D01*
X410361D02*
X411100Y400984D01*
X410318D02*
X411056Y401722D01*
X410319D02*
X411057Y400984D01*
X410276D02*
X411014Y401722D01*
X410277D02*
X411015Y400984D01*
X409449Y401722D02*
X411811D01*
X410233Y400984D02*
X410971Y401722D01*
X410234D02*
X410972Y400984D01*
X410191D02*
X410929Y401722D01*
X410192D02*
X410930Y400984D01*
X410148D02*
X410887Y401722D01*
X410149D02*
X410887Y400984D01*
X410107Y401722D02*
X410845Y400984D01*
X410064Y401722D02*
X410803Y400984D01*
X410022Y401722D02*
X410760Y400984D01*
X410138D02*
X411565D01*
X409980Y401722D02*
X410718Y400984D01*
X409937Y401722D02*
X410675Y400984D01*
X409895Y401722D02*
X410633Y400984D01*
X409852Y401722D02*
X410590Y400984D01*
X409810Y401722D02*
X410548Y400984D01*
X409767Y401722D02*
X410506Y400984D01*
X409725Y401722D02*
X410463Y400984D01*
X409683Y401722D02*
X410421Y400984D01*
X409640Y401722D02*
X410378Y400984D01*
X409598Y401722D02*
X410336Y400984D01*
X409555Y401722D02*
X410293Y400984D01*
X409513Y401722D02*
X410251Y400984D01*
X409470Y401722D02*
X410209Y400984D01*
X409438Y401712D02*
X410166Y400984D01*
X409417Y401691D02*
X410131Y400977D01*
X409396Y401670D02*
X410110Y400956D01*
X409375Y401648D02*
X410088Y400935D01*
X409354Y401627D02*
X410067Y400914D01*
X409332Y401606D02*
X410046Y400892D01*
X409311Y401585D02*
X410025Y400871D01*
X409290Y401564D02*
X410004Y400850D01*
X409269Y401542D02*
X409982Y400829D01*
X409247Y401521D02*
X409961Y400808D01*
X408415Y400609D02*
X409529Y401722D01*
X409226Y401500D02*
X409940Y400786D01*
X408415Y400651D02*
X409486Y401722D01*
X408415Y400689D02*
X409449Y401722D01*
X408415Y400439D02*
X409699Y401722D01*
X408415Y400482D02*
X409656Y401722D01*
X408415Y400524D02*
X409614Y401722D01*
X408415Y400566D02*
X409571Y401722D01*
X409205Y401479D02*
X409919Y400765D01*
X409184Y401457D02*
X409897Y400744D01*
X409163Y401436D02*
X409876Y400723D01*
X409141Y401415D02*
X409855Y400701D01*
X409120Y401394D02*
X409834Y400680D01*
X409099Y401373D02*
X409813Y400659D01*
X409078Y401351D02*
X409791Y400638D01*
X409057Y401330D02*
X409770Y400617D01*
X409035Y401309D02*
X409749Y400595D01*
X409014Y401288D02*
X409728Y400574D01*
X408993Y401267D02*
X409707Y400553D01*
X408972Y401245D02*
X409685Y400532D01*
X408951Y401224D02*
X409664Y400511D01*
X408929Y401203D02*
X409643Y400489D01*
X408908Y401182D02*
X409622Y400468D01*
X408887Y401161D02*
X409600Y400447D01*
X408866Y401139D02*
X409579Y400426D01*
X409122Y400000D02*
X410844Y401722D01*
X409079Y400000D02*
X410802Y401722D01*
X409037Y400000D02*
X410759Y401722D01*
X408994Y400000D02*
X410717Y401722D01*
X408952Y400000D02*
X410674Y401722D01*
X408910Y400000D02*
X410632Y401722D01*
X408867Y400000D02*
X410590Y401722D01*
X408825Y400000D02*
X410547Y401722D01*
X408782Y400000D02*
X410505Y401722D01*
X408740Y400000D02*
X410462Y401722D01*
X408697Y400000D02*
X410420Y401722D01*
X408655Y400000D02*
X410377Y401722D01*
X408613Y400000D02*
X410335Y401722D01*
X408570Y400000D02*
X410293Y401722D01*
X408528Y400000D02*
X410250Y401722D01*
X408528Y400000D02*
X410250Y401722D01*
X408485Y400000D02*
X410208Y401722D01*
X408844Y401118D02*
X409558Y400404D01*
X408823Y401097D02*
X409537Y400383D01*
X408802Y401076D02*
X409516Y400362D01*
X408781Y401054D02*
X409494Y400341D01*
X408760Y401033D02*
X409473Y400320D01*
X408443Y400000D02*
X410165Y401722D01*
X409154Y400000D02*
X410138Y400984D01*
X408415Y400015D02*
X410123Y401722D01*
X408415Y400057D02*
X410080Y401722D01*
X408415Y400269D02*
X409868Y401722D01*
X408415Y400312D02*
X409826Y401722D01*
X408415Y400354D02*
X409783Y401722D01*
X408415Y400397D02*
X409741Y401722D01*
X408415Y400100D02*
X410038Y401722D01*
X408415Y400142D02*
X409996Y401722D01*
X408415Y400185D02*
X409953Y401722D01*
X408415Y400227D02*
X409911Y401722D01*
X408738Y401012D02*
X409452Y400298D01*
X408717Y400991D02*
X409431Y400277D01*
X408696Y400970D02*
X409410Y400256D01*
X408675Y400948D02*
X409388Y400235D01*
X408654Y400927D02*
X409367Y400214D01*
X408632Y400906D02*
X409346Y400192D01*
X408611Y400885D02*
X409325Y400171D01*
X408590Y400863D02*
X409303Y400150D01*
X408569Y400842D02*
X409282Y400129D01*
X408547Y400821D02*
X409261Y400107D01*
X408526Y400800D02*
X409240Y400086D01*
X408505Y400779D02*
X409219Y400065D01*
X408484Y400757D02*
X409197Y400044D01*
X408463Y400736D02*
X409176Y400023D01*
X408441Y400715D02*
X409155Y400001D01*
X408420Y400694D02*
X409114Y400000D01*
X408415D02*
Y400689D01*
Y400656D02*
X409072Y400000D01*
X408415Y400614D02*
X409029Y400000D01*
X408415Y400571D02*
X408987Y400000D01*
X408415Y400529D02*
X408944Y400000D01*
X408415Y400487D02*
X408902Y400000D01*
X408415Y400444D02*
X408859Y400000D01*
X408415Y400402D02*
X408817Y400000D01*
X408415Y400359D02*
X408775Y400000D01*
X408415Y400317D02*
X408732Y400000D01*
X408415Y400274D02*
X408690Y400000D01*
X408415Y400232D02*
X408647Y400000D01*
X408415Y400190D02*
X408605Y400000D01*
X408415Y400147D02*
X408562Y400000D01*
X408415Y400105D02*
X408520Y400000D01*
X408415D02*
X409154D01*
X408415Y400062D02*
X408478Y400000D01*
X408415Y400020D02*
X408435Y400000D01*
D97*
X397904Y431729D02*
Y431819D01*
X397914Y431709D02*
Y431839D01*
X397924Y431699D02*
Y431849D01*
Y429609D02*
Y429649D01*
Y425509D02*
Y425529D01*
X397934Y431689D02*
Y431869D01*
Y429589D02*
Y429669D01*
Y425479D02*
Y425569D01*
X397944Y431679D02*
Y431879D01*
Y429569D02*
Y429689D01*
Y425469D02*
Y425599D01*
X397954Y431669D02*
Y431889D01*
Y429569D02*
Y429719D01*
Y428909D02*
Y428969D01*
Y428149D02*
Y428209D01*
Y427449D02*
Y427499D01*
Y426299D02*
Y426349D01*
Y425459D02*
Y425619D01*
Y425049D02*
Y425089D01*
X397964Y431659D02*
Y431909D01*
Y429559D02*
Y429739D01*
Y428879D02*
Y428999D01*
Y428129D02*
Y428239D01*
Y427419D02*
Y427509D01*
Y426269D02*
Y426389D01*
Y425449D02*
Y425639D01*
Y425029D02*
Y425119D01*
X397974Y433169D02*
Y433249D01*
Y432379D02*
Y432459D01*
Y431649D02*
Y431919D01*
Y431019D02*
Y431179D01*
Y430279D02*
Y430429D01*
Y429549D02*
Y429759D01*
Y428859D02*
Y429029D01*
Y428109D02*
Y428269D01*
Y427409D02*
Y427519D01*
Y426789D02*
Y426849D01*
Y426249D02*
Y426419D01*
Y425439D02*
Y425659D01*
Y425009D02*
Y425129D01*
X397984Y433159D02*
Y433259D01*
Y432359D02*
Y432469D01*
Y431649D02*
Y431929D01*
Y430999D02*
Y431199D01*
Y430269D02*
Y430459D01*
Y429549D02*
Y429759D01*
Y428859D02*
Y429039D01*
Y428109D02*
Y428289D01*
Y427399D02*
Y427529D01*
Y426769D02*
Y426859D01*
Y426239D02*
Y426429D01*
Y425439D02*
Y425659D01*
Y424999D02*
Y425139D01*
Y423929D02*
Y424019D01*
X397994Y433149D02*
Y433299D01*
Y432339D02*
Y432469D01*
Y431629D02*
Y431939D01*
Y430979D02*
Y431239D01*
Y430249D02*
Y430489D01*
Y429549D02*
Y429779D01*
Y428839D02*
Y429069D01*
Y428099D02*
Y428309D01*
Y427379D02*
Y427539D01*
Y426749D02*
Y426869D01*
Y426229D02*
Y426449D01*
Y425439D02*
Y425679D01*
Y424989D02*
Y425159D01*
Y423899D02*
Y424049D01*
X398004Y433129D02*
Y433319D01*
Y432319D02*
Y432479D01*
Y431629D02*
Y431949D01*
Y430969D02*
Y431259D01*
Y430239D02*
Y430529D01*
Y429549D02*
Y429799D01*
Y428829D02*
Y429079D01*
Y428089D02*
Y428329D01*
Y427369D02*
Y427549D01*
Y426729D02*
Y426879D01*
Y426219D02*
Y426469D01*
Y425429D02*
Y425699D01*
Y424969D02*
Y425169D01*
Y423879D02*
Y424059D01*
X398014Y433119D02*
Y433339D01*
Y432309D02*
Y432489D01*
Y431619D02*
Y431959D01*
Y430959D02*
Y431279D01*
Y430229D02*
Y430549D01*
Y429539D02*
Y429809D01*
Y428829D02*
Y429099D01*
Y428079D02*
Y428349D01*
Y427369D02*
Y427549D01*
Y426719D02*
Y426889D01*
Y426209D02*
Y426489D01*
Y425429D02*
Y425709D01*
Y424959D02*
Y425179D01*
Y423859D02*
Y424069D01*
X398024Y433119D02*
Y433349D01*
Y432309D02*
Y432499D01*
Y431619D02*
Y431969D01*
Y430949D02*
Y431289D01*
Y430219D02*
Y430559D01*
Y429539D02*
Y429819D01*
Y428819D02*
Y429109D01*
Y428079D02*
Y428349D01*
Y427359D02*
Y427559D01*
Y426709D02*
Y426899D01*
Y426209D02*
Y426499D01*
Y425429D02*
Y425719D01*
Y424959D02*
Y425189D01*
Y423849D02*
Y424069D01*
X398034Y433109D02*
Y433369D01*
Y432299D02*
Y432509D01*
Y431609D02*
Y431979D01*
Y430939D02*
Y431309D01*
Y430209D02*
Y430569D01*
Y429539D02*
Y429829D01*
Y428809D02*
Y429129D01*
Y428059D02*
Y428369D01*
Y427349D02*
Y427569D01*
Y426699D02*
Y426899D01*
Y426199D02*
Y426509D01*
Y425429D02*
Y425729D01*
Y424949D02*
Y425199D01*
Y423839D02*
Y424079D01*
X398044Y433099D02*
Y433379D01*
Y432289D02*
Y432519D01*
Y431609D02*
Y431989D01*
Y430929D02*
Y431319D01*
Y430199D02*
Y430589D01*
Y429539D02*
Y429849D01*
Y428809D02*
Y429139D01*
Y428059D02*
Y428389D01*
Y427349D02*
Y427579D01*
Y426689D02*
Y426919D01*
Y426189D02*
Y426529D01*
Y425429D02*
Y425739D01*
Y424939D02*
Y425209D01*
Y423829D02*
Y424089D01*
X398054Y433089D02*
Y433399D01*
Y432289D02*
Y432529D01*
Y431599D02*
Y431999D01*
Y430919D02*
Y431319D01*
Y430189D02*
Y430589D01*
Y429539D02*
Y429859D01*
Y428799D02*
Y429159D01*
Y428049D02*
Y428399D01*
Y427349D02*
Y427589D01*
Y426689D02*
Y426929D01*
Y426189D02*
Y426549D01*
Y425419D02*
Y425759D01*
Y424929D02*
Y425219D01*
Y423829D02*
Y424099D01*
X398064Y433089D02*
Y433409D01*
Y432289D02*
Y432529D01*
Y431599D02*
Y431999D01*
Y430919D02*
Y431329D01*
Y430189D02*
Y430599D01*
Y429539D02*
Y429869D01*
Y428789D02*
Y429169D01*
Y428049D02*
Y428409D01*
Y427349D02*
Y427589D01*
Y426689D02*
Y426929D01*
Y426179D02*
Y426559D01*
Y425419D02*
Y425759D01*
Y424929D02*
Y425229D01*
Y423829D02*
Y424099D01*
X398074Y433079D02*
Y433419D01*
Y432289D02*
Y432549D01*
Y431589D02*
Y432009D01*
Y430909D02*
Y431329D01*
Y430179D02*
Y430599D01*
Y429539D02*
Y429889D01*
Y428789D02*
Y429189D01*
Y428039D02*
Y428419D01*
Y427339D02*
Y427609D01*
Y426679D02*
Y426939D01*
Y426169D02*
Y426579D01*
Y425419D02*
Y425779D01*
Y424919D02*
Y425239D01*
Y423829D02*
Y424099D01*
X398084Y433079D02*
Y433429D01*
Y432289D02*
Y432549D01*
Y431589D02*
Y432019D01*
Y430899D02*
Y431329D01*
Y430169D02*
Y430599D01*
Y429539D02*
Y429899D01*
Y428779D02*
Y429199D01*
Y428039D02*
Y428429D01*
Y427339D02*
Y427619D01*
Y426689D02*
Y426949D01*
Y426169D02*
Y426589D01*
Y425419D02*
Y425789D01*
Y424909D02*
Y425249D01*
Y423829D02*
Y424109D01*
X398094Y433069D02*
Y433449D01*
Y432289D02*
Y432559D01*
Y431579D02*
Y432029D01*
Y430899D02*
Y431329D01*
Y430159D02*
Y430609D01*
Y429539D02*
Y429909D01*
Y428779D02*
Y429219D01*
Y428039D02*
Y428449D01*
Y427349D02*
Y427629D01*
Y426689D02*
Y426969D01*
Y426159D02*
Y426599D01*
Y425419D02*
Y425799D01*
Y424909D02*
Y425259D01*
Y423829D02*
Y424119D01*
X398104Y433069D02*
Y433459D01*
Y432299D02*
Y432569D01*
Y431579D02*
Y432039D01*
Y430889D02*
Y431329D01*
Y430159D02*
Y430609D01*
Y429539D02*
Y429919D01*
Y428769D02*
Y429229D01*
Y428029D02*
Y428449D01*
Y427349D02*
Y427629D01*
Y426689D02*
Y426969D01*
Y426159D02*
Y426619D01*
Y425419D02*
Y425809D01*
Y424909D02*
Y425269D01*
Y423829D02*
Y424129D01*
X398114Y433059D02*
Y433469D01*
Y432299D02*
Y432579D01*
Y431579D02*
Y432049D01*
Y430889D02*
Y431329D01*
Y430149D02*
Y430619D01*
Y429539D02*
Y429929D01*
Y428769D02*
Y429239D01*
Y428019D02*
Y428469D01*
Y427349D02*
Y427639D01*
Y426709D02*
Y426979D01*
Y426149D02*
Y426629D01*
Y425419D02*
Y425819D01*
Y424899D02*
Y425279D01*
Y423829D02*
Y424129D01*
X398124Y433049D02*
Y433479D01*
Y432309D02*
Y432589D01*
Y431579D02*
Y432049D01*
Y430879D02*
Y431329D01*
Y430149D02*
Y430619D01*
Y429539D02*
Y429939D01*
Y428759D02*
Y429259D01*
Y428019D02*
Y428479D01*
Y427359D02*
Y427649D01*
Y426709D02*
Y426999D01*
Y426149D02*
Y426639D01*
Y425419D02*
Y425829D01*
Y424889D02*
Y425289D01*
Y423839D02*
Y424139D01*
X398134Y433049D02*
Y433489D01*
Y432309D02*
Y432599D01*
Y431569D02*
Y432059D01*
Y430879D02*
Y431329D01*
Y430139D02*
Y430619D01*
Y429539D02*
Y429959D01*
Y428749D02*
Y429269D01*
Y428019D02*
Y428489D01*
Y427359D02*
Y427659D01*
Y426719D02*
Y427009D01*
Y426139D02*
Y426649D01*
Y425419D02*
Y425839D01*
Y424879D02*
Y425299D01*
Y423839D02*
Y424139D01*
X398144Y433049D02*
Y433499D01*
Y432319D02*
Y432609D01*
Y431759D02*
Y432069D01*
Y431569D02*
Y431689D01*
Y430869D02*
Y431339D01*
Y430129D02*
Y430619D01*
Y429539D02*
Y429969D01*
Y428749D02*
Y429289D01*
Y428019D02*
Y428499D01*
Y427369D02*
Y427669D01*
Y426719D02*
Y427019D01*
Y426139D02*
Y426669D01*
Y425419D02*
Y425849D01*
Y424879D02*
Y425309D01*
Y423849D02*
Y424149D01*
X398154Y433049D02*
Y433509D01*
Y432319D02*
Y432609D01*
Y431779D02*
Y432079D01*
Y431569D02*
Y431689D01*
Y430859D02*
Y431339D01*
Y430129D02*
Y430619D01*
Y429539D02*
Y429979D01*
Y428749D02*
Y429289D01*
Y428009D02*
Y428509D01*
Y427369D02*
Y427679D01*
Y426729D02*
Y427029D01*
Y426129D02*
Y426679D01*
Y425429D02*
Y425859D01*
Y424879D02*
Y425309D01*
Y423849D02*
Y424149D01*
X398164Y433039D02*
Y433519D01*
Y432339D02*
Y432619D01*
Y431799D02*
Y432079D01*
Y431569D02*
Y431689D01*
Y430859D02*
Y431339D01*
Y430119D02*
Y430619D01*
Y429539D02*
Y429989D01*
Y428749D02*
Y429309D01*
Y428009D02*
Y428519D01*
Y427369D02*
Y427689D01*
Y426739D02*
Y427039D01*
Y426129D02*
Y426689D01*
Y425429D02*
Y425869D01*
Y424869D02*
Y425319D01*
Y423859D02*
Y424159D01*
X398174Y433039D02*
Y433529D01*
Y432339D02*
Y432639D01*
Y431819D02*
Y432089D01*
Y431569D02*
Y431689D01*
Y430849D02*
Y431339D01*
Y430119D02*
Y430629D01*
Y429549D02*
Y429999D01*
Y428949D02*
Y429319D01*
Y428739D02*
Y428869D01*
Y428199D02*
Y428529D01*
Y428009D02*
Y428169D01*
Y427379D02*
Y427699D01*
Y426749D02*
Y427059D01*
Y426329D02*
Y426709D01*
Y426129D02*
Y426249D01*
Y425429D02*
Y425869D01*
Y424869D02*
Y425329D01*
Y423869D02*
Y424169D01*
X398184Y433209D02*
Y433539D01*
Y433039D02*
Y433179D01*
Y432349D02*
Y432649D01*
Y431839D02*
Y432099D01*
Y431559D02*
Y431689D01*
Y430849D02*
Y431339D01*
Y430109D02*
Y430629D01*
Y429549D02*
Y430019D01*
Y428999D02*
Y429339D01*
Y428739D02*
Y428839D01*
Y428239D02*
Y428539D01*
Y428009D02*
Y428139D01*
Y427379D02*
Y427709D01*
Y426749D02*
Y427069D01*
Y426379D02*
Y426719D01*
Y426119D02*
Y426229D01*
Y425589D02*
Y425889D01*
Y425429D02*
Y425569D01*
Y424859D02*
Y425339D01*
Y423879D02*
Y424179D01*
X398194Y433239D02*
Y433539D01*
Y433039D02*
Y433169D01*
Y432349D02*
Y432649D01*
Y431849D02*
Y432099D01*
Y431559D02*
Y431689D01*
Y430849D02*
Y431339D01*
Y430109D02*
Y430629D01*
Y429549D02*
Y430019D01*
Y429009D02*
Y429339D01*
Y428739D02*
Y428839D01*
Y428259D02*
Y428539D01*
Y428009D02*
Y428139D01*
Y427389D02*
Y427719D01*
Y426759D02*
Y427069D01*
Y426399D02*
Y426729D01*
Y426119D02*
Y426219D01*
Y425609D02*
Y425889D01*
Y425429D02*
Y425549D01*
Y424859D02*
Y425349D01*
Y423879D02*
Y424179D01*
X398204Y433279D02*
Y433549D01*
Y433039D02*
Y433159D01*
Y432359D02*
Y432659D01*
Y431869D02*
Y432109D01*
Y431559D02*
Y431689D01*
Y431059D02*
Y431339D01*
Y430839D02*
Y431009D01*
Y430349D02*
Y430629D01*
Y430109D02*
Y430329D01*
Y429549D02*
Y430029D01*
Y429049D02*
Y429349D01*
Y428729D02*
Y428829D01*
Y428279D02*
Y428549D01*
Y428009D02*
Y428139D01*
Y427399D02*
Y427729D01*
Y426769D02*
Y427079D01*
Y426429D02*
Y426739D01*
Y426119D02*
Y426219D01*
Y425649D02*
Y425899D01*
Y425429D02*
Y425539D01*
Y424859D02*
Y425349D01*
Y423889D02*
Y424189D01*
X398214Y433299D02*
Y433559D01*
Y433029D02*
Y433159D01*
Y432369D02*
Y432679D01*
Y431879D02*
Y432119D01*
Y431559D02*
Y431689D01*
Y431089D02*
Y431339D01*
Y430839D02*
Y430989D01*
Y430379D02*
Y430629D01*
Y430099D02*
Y430289D01*
Y429769D02*
Y430039D01*
Y429549D02*
Y429699D01*
Y429079D02*
Y429369D01*
Y428729D02*
Y428829D01*
Y428309D02*
Y428559D01*
Y427999D02*
Y428139D01*
Y427399D02*
Y427739D01*
Y427019D02*
Y427099D01*
Y426769D02*
Y427009D01*
Y426469D02*
Y426759D01*
Y426119D02*
Y426209D01*
Y425679D02*
Y425909D01*
Y425429D02*
Y425539D01*
Y424849D02*
Y425359D01*
Y423889D02*
Y424189D01*
X398224Y433329D02*
Y433569D01*
Y433029D02*
Y433159D01*
Y432379D02*
Y432689D01*
Y431889D02*
Y432129D01*
Y431559D02*
Y431699D01*
Y431099D02*
Y431339D01*
Y430839D02*
Y430979D01*
Y430389D02*
Y430629D01*
Y430099D02*
Y430279D01*
Y429809D02*
Y430059D01*
Y429549D02*
Y429689D01*
Y429109D02*
Y429379D01*
Y428729D02*
Y428829D01*
Y428329D02*
Y428569D01*
Y427999D02*
Y428139D01*
Y427409D02*
Y427749D01*
Y427029D02*
Y427109D01*
Y426789D02*
Y427019D01*
Y426499D02*
Y426769D01*
Y426109D02*
Y426209D01*
Y425699D02*
Y425919D01*
Y425429D02*
Y425539D01*
Y425069D02*
Y425369D01*
Y424849D02*
Y424999D01*
Y423899D02*
Y424199D01*
X398234Y433339D02*
Y433579D01*
Y433029D02*
Y433159D01*
Y432379D02*
Y432689D01*
Y431899D02*
Y432129D01*
Y431559D02*
Y431699D01*
Y431099D02*
Y431339D01*
Y430829D02*
Y430969D01*
Y430399D02*
Y430639D01*
Y430099D02*
Y430259D01*
Y429819D02*
Y430059D01*
Y429549D02*
Y429689D01*
Y429119D02*
Y429389D01*
Y428729D02*
Y428819D01*
Y428339D02*
Y428579D01*
Y427999D02*
Y428139D01*
Y427409D02*
Y427749D01*
Y427039D02*
Y427119D01*
Y426789D02*
Y427019D01*
Y426509D02*
Y426769D01*
Y426109D02*
Y426209D01*
Y425709D02*
Y425929D01*
Y425439D02*
Y425539D01*
Y425079D02*
Y425379D01*
Y424839D02*
Y424989D01*
Y423899D02*
Y424199D01*
X398244Y433369D02*
Y433589D01*
Y433029D02*
Y433159D01*
Y432389D02*
Y432699D01*
Y431919D02*
Y432139D01*
Y431559D02*
Y431699D01*
Y431109D02*
Y431339D01*
Y430829D02*
Y430969D01*
Y430409D02*
Y430639D01*
Y430089D02*
Y430249D01*
Y429849D02*
Y430069D01*
Y429559D02*
Y429689D01*
Y429149D02*
Y429399D01*
Y428729D02*
Y428819D01*
Y428359D02*
Y428589D01*
Y427999D02*
Y428149D01*
Y427419D02*
Y427759D01*
Y427049D02*
Y427139D01*
Y426799D02*
Y427029D01*
Y426539D02*
Y426789D01*
Y426109D02*
Y426209D01*
Y425729D02*
Y425939D01*
Y425439D02*
Y425539D01*
Y425109D02*
Y425389D01*
Y424839D02*
Y424989D01*
Y423919D02*
Y424209D01*
X398254Y433379D02*
Y433589D01*
Y433029D02*
Y433169D01*
Y432389D02*
Y432719D01*
Y431929D02*
Y432139D01*
Y431559D02*
Y431709D01*
Y431119D02*
Y431339D01*
Y430829D02*
Y430959D01*
Y430419D02*
Y430639D01*
Y430089D02*
Y430239D01*
Y429879D02*
Y430079D01*
Y429559D02*
Y429689D01*
Y429169D02*
Y429419D01*
Y428719D02*
Y428829D01*
Y428379D02*
Y428599D01*
Y427999D02*
Y428149D01*
Y427429D02*
Y427779D01*
Y427059D02*
Y427149D01*
Y426559D02*
Y427039D01*
Y426109D02*
Y426209D01*
Y425759D02*
Y425949D01*
Y425439D02*
Y425549D01*
Y425129D02*
Y425389D01*
Y424839D02*
Y424989D01*
Y423919D02*
Y424219D01*
X398264Y433409D02*
Y433599D01*
Y433029D02*
Y433169D01*
Y432399D02*
Y432729D01*
Y431939D02*
Y432149D01*
Y431559D02*
Y431709D01*
Y431129D02*
Y431339D01*
Y430819D02*
Y430949D01*
Y430419D02*
Y430639D01*
Y429899D02*
Y430229D01*
Y429559D02*
Y429689D01*
Y429199D02*
Y429429D01*
Y428719D02*
Y428829D01*
Y428399D02*
Y428609D01*
Y427999D02*
Y428159D01*
Y427439D02*
Y427789D01*
Y427069D02*
Y427159D01*
Y426579D02*
Y427049D01*
Y426109D02*
Y426209D01*
Y425769D02*
Y425959D01*
Y425439D02*
Y425549D01*
Y425159D02*
Y425399D01*
Y424839D02*
Y424989D01*
Y423929D02*
Y424229D01*
X398274Y433419D02*
Y433609D01*
Y433029D02*
Y433179D01*
Y432409D02*
Y432739D01*
Y431949D02*
Y432159D01*
Y431559D02*
Y431709D01*
Y431129D02*
Y431339D01*
Y430819D02*
Y430939D01*
Y430429D02*
Y430639D01*
Y429919D02*
Y430209D01*
Y429559D02*
Y429699D01*
Y429219D02*
Y429439D01*
Y428709D02*
Y428829D01*
Y428409D02*
Y428619D01*
Y427999D02*
Y428169D01*
Y427449D02*
Y427799D01*
Y427079D02*
Y427179D01*
Y426609D02*
Y427059D01*
Y426099D02*
Y426219D01*
Y425789D02*
Y425969D01*
Y425439D02*
Y425549D01*
Y425169D02*
Y425409D01*
Y424829D02*
Y424999D01*
Y423939D02*
Y424229D01*
X398284Y433429D02*
Y433609D01*
Y433029D02*
Y433179D01*
Y432419D02*
Y432739D01*
Y431959D02*
Y432169D01*
Y431559D02*
Y431719D01*
Y431129D02*
Y431349D01*
Y430809D02*
Y430939D01*
Y430429D02*
Y430639D01*
Y429929D02*
Y430209D01*
Y429569D02*
Y429699D01*
Y429239D02*
Y429449D01*
Y428709D02*
Y428829D01*
Y428429D02*
Y428619D01*
Y427999D02*
Y428169D01*
Y427689D02*
Y427799D01*
Y427449D02*
Y427679D01*
Y427089D02*
Y427179D01*
Y426619D02*
Y427059D01*
Y426099D02*
Y426219D01*
Y425799D02*
Y425979D01*
Y425449D02*
Y425549D01*
Y425179D02*
Y425419D01*
Y424829D02*
Y424999D01*
Y423939D02*
Y424239D01*
X398294Y433449D02*
Y433609D01*
Y433029D02*
Y433199D01*
Y432419D02*
Y432749D01*
Y431969D02*
Y432169D01*
Y431569D02*
Y431719D01*
Y431139D02*
Y431349D01*
Y430809D02*
Y430939D01*
Y430439D02*
Y430649D01*
Y429949D02*
Y430199D01*
Y429569D02*
Y429699D01*
Y429249D02*
Y429459D01*
Y428709D02*
Y428829D01*
Y428439D02*
Y428629D01*
Y427999D02*
Y428179D01*
Y427699D02*
Y427809D01*
Y427459D02*
Y427679D01*
Y427099D02*
Y427199D01*
Y426639D02*
Y427069D01*
Y426099D02*
Y426219D01*
Y425819D02*
Y425989D01*
Y425449D02*
Y425559D01*
Y425199D02*
Y425429D01*
Y424829D02*
Y424999D01*
Y423949D02*
Y424239D01*
X398304Y433469D02*
Y433629D01*
Y433029D02*
Y433199D01*
Y432429D02*
Y432769D01*
Y431979D02*
Y432179D01*
Y431569D02*
Y431729D01*
Y431139D02*
Y431349D01*
Y430809D02*
Y430929D01*
Y430449D02*
Y430649D01*
Y429969D02*
Y430199D01*
Y429569D02*
Y429709D01*
Y429269D02*
Y429469D01*
Y428709D02*
Y428839D01*
Y428459D02*
Y428639D01*
Y427999D02*
Y428189D01*
Y427709D02*
Y427829D01*
Y427459D02*
Y427689D01*
Y427109D02*
Y427209D01*
Y426659D02*
Y427069D01*
Y426099D02*
Y426219D01*
Y425829D02*
Y425989D01*
Y425459D02*
Y425559D01*
Y425219D02*
Y425429D01*
Y424829D02*
Y424999D01*
Y423959D02*
Y424259D01*
X398314Y433479D02*
Y433629D01*
Y433029D02*
Y433209D01*
Y432439D02*
Y432779D01*
Y431989D02*
Y432179D01*
Y431569D02*
Y431739D01*
Y431149D02*
Y431349D01*
Y430809D02*
Y430929D01*
Y430449D02*
Y430649D01*
Y429989D02*
Y430189D01*
Y429569D02*
Y429719D01*
Y429299D02*
Y429489D01*
Y428709D02*
Y428839D01*
Y428469D02*
Y428649D01*
Y428009D02*
Y428199D01*
Y427719D02*
Y427839D01*
Y427479D02*
Y427699D01*
Y427119D02*
Y427229D01*
Y426679D02*
Y427079D01*
Y426089D02*
Y426229D01*
Y425849D02*
Y425999D01*
Y425459D02*
Y425569D01*
Y425229D02*
Y425439D01*
Y424829D02*
Y425009D01*
Y423969D02*
Y424259D01*
X398324Y433499D02*
Y433629D01*
Y433029D02*
Y433219D01*
Y432439D02*
Y432779D01*
Y431989D02*
Y432189D01*
Y431569D02*
Y431739D01*
Y431149D02*
Y431349D01*
Y430799D02*
Y430929D01*
Y430459D02*
Y430649D01*
Y429999D02*
Y430189D01*
Y429569D02*
Y429719D01*
Y429309D02*
Y429499D01*
Y428709D02*
Y428839D01*
Y428479D02*
Y428649D01*
Y428009D02*
Y428199D01*
Y427729D02*
Y427849D01*
Y427479D02*
Y427699D01*
Y427129D02*
Y427229D01*
Y426689D02*
Y427089D01*
Y426089D02*
Y426229D01*
Y425859D02*
Y426009D01*
Y425459D02*
Y425569D01*
Y425249D02*
Y425439D01*
Y424829D02*
Y425009D01*
Y423969D02*
Y424269D01*
X398334Y433509D02*
Y433639D01*
Y433029D02*
Y433219D01*
Y432449D02*
Y432789D01*
Y431999D02*
Y432189D01*
Y431569D02*
Y431749D01*
Y431149D02*
Y431349D01*
Y430799D02*
Y430919D01*
Y430459D02*
Y430659D01*
Y430019D02*
Y430189D01*
Y429579D02*
Y429719D01*
Y429329D02*
Y429509D01*
Y428709D02*
Y428849D01*
Y428499D02*
Y428659D01*
Y428009D02*
Y428209D01*
Y427739D02*
Y427859D01*
Y427489D02*
Y427699D01*
Y427139D02*
Y427249D01*
Y426709D02*
Y427099D01*
Y426089D02*
Y426239D01*
Y425869D02*
Y426019D01*
Y425259D02*
Y425579D01*
Y424829D02*
Y425019D01*
Y423979D02*
Y424269D01*
X398344Y433529D02*
Y433639D01*
Y433039D02*
Y433239D01*
Y432649D02*
Y432809D01*
Y432459D02*
Y432639D01*
Y432009D02*
Y432199D01*
Y431579D02*
Y431749D01*
Y431159D02*
Y431349D01*
Y430799D02*
Y430919D01*
Y430469D02*
Y430659D01*
Y430029D02*
Y430189D01*
Y429589D02*
Y429729D01*
Y429349D02*
Y429519D01*
Y428709D02*
Y428859D01*
Y428509D02*
Y428669D01*
Y428009D02*
Y428219D01*
Y427749D02*
Y427869D01*
Y427489D02*
Y427709D01*
Y427149D02*
Y427269D01*
Y426729D02*
Y427109D01*
Y426089D02*
Y426239D01*
Y425889D02*
Y426029D01*
Y425269D02*
Y425589D01*
Y424829D02*
Y425019D01*
Y423979D02*
Y424279D01*
X398354Y433549D02*
Y433649D01*
Y433039D02*
Y433239D01*
Y432659D02*
Y432819D01*
Y432469D02*
Y432649D01*
Y432019D02*
Y432209D01*
Y431579D02*
Y431759D01*
Y431159D02*
Y431349D01*
Y430799D02*
Y430919D01*
Y430469D02*
Y430659D01*
Y430049D02*
Y430189D01*
Y429589D02*
Y429739D01*
Y429369D02*
Y429529D01*
Y428709D02*
Y428859D01*
Y428529D02*
Y428679D01*
Y428019D02*
Y428229D01*
Y427759D02*
Y427879D01*
Y427499D02*
Y427719D01*
Y427159D02*
Y427279D01*
Y426749D02*
Y427119D01*
Y426089D02*
Y426249D01*
Y425909D02*
Y426039D01*
Y425289D02*
Y425589D01*
Y424829D02*
Y425029D01*
Y423989D02*
Y424289D01*
X398364Y433549D02*
Y433649D01*
Y433039D02*
Y433249D01*
Y432669D02*
Y432829D01*
Y432469D02*
Y432649D01*
Y432019D02*
Y432209D01*
Y431579D02*
Y431759D01*
Y431159D02*
Y431349D01*
Y430799D02*
Y430919D01*
Y430469D02*
Y430659D01*
Y430059D02*
Y430189D01*
Y429589D02*
Y429739D01*
Y429379D02*
Y429539D01*
Y428709D02*
Y428869D01*
Y428529D02*
Y428689D01*
Y428019D02*
Y428229D01*
Y427769D02*
Y427889D01*
Y427499D02*
Y427719D01*
Y427169D02*
Y427289D01*
Y426759D02*
Y427119D01*
Y426089D02*
Y426249D01*
Y425909D02*
Y426039D01*
Y425299D02*
Y425599D01*
Y424829D02*
Y425029D01*
Y423999D02*
Y424289D01*
X398374Y433569D02*
Y433649D01*
Y433039D02*
Y433259D01*
Y432679D02*
Y432839D01*
Y432479D02*
Y432659D01*
Y432039D02*
Y432219D01*
Y431589D02*
Y431769D01*
Y431159D02*
Y431349D01*
Y430799D02*
Y430919D01*
Y430479D02*
Y430659D01*
Y430069D02*
Y430199D01*
Y429589D02*
Y429739D01*
Y429389D02*
Y429549D01*
Y428709D02*
Y428869D01*
Y428549D02*
Y428699D01*
Y428019D02*
Y428239D01*
Y427779D02*
Y427899D01*
Y427509D02*
Y427719D01*
Y427179D02*
Y427299D01*
Y426779D02*
Y427129D01*
Y426089D02*
Y426259D01*
Y425929D02*
Y426059D01*
Y425309D02*
Y425599D01*
Y424829D02*
Y425039D01*
Y424009D02*
Y424299D01*
X398384Y433579D02*
Y433649D01*
Y433049D02*
Y433269D01*
Y432689D02*
Y432849D01*
Y432489D02*
Y432669D01*
Y432049D02*
Y432219D01*
Y431589D02*
Y431779D01*
Y431169D02*
Y431349D01*
Y430789D02*
Y430909D01*
Y430479D02*
Y430669D01*
Y430069D02*
Y430219D01*
Y429599D02*
Y429759D01*
Y429409D02*
Y429559D01*
Y428709D02*
Y428879D01*
Y428569D02*
Y428699D01*
Y428019D02*
Y428249D01*
Y427789D02*
Y427909D01*
Y427519D02*
Y427739D01*
Y427189D02*
Y427319D01*
Y426799D02*
Y427139D01*
Y426089D02*
Y426259D01*
Y425939D02*
Y426069D01*
Y425329D02*
Y425609D01*
Y424829D02*
Y425039D01*
Y424009D02*
Y424309D01*
X398394Y433599D02*
Y433649D01*
Y433049D02*
Y433279D01*
Y432699D02*
Y432859D01*
Y432489D02*
Y432679D01*
Y432049D02*
Y432229D01*
Y431599D02*
Y431789D01*
Y431169D02*
Y431459D01*
Y430789D02*
Y430909D01*
Y430489D02*
Y430669D01*
Y430079D02*
Y430239D01*
Y429599D02*
Y429759D01*
Y429429D02*
Y429569D01*
Y428579D02*
Y428879D01*
Y428029D02*
Y428259D01*
Y427799D02*
Y427919D01*
Y427529D02*
Y427739D01*
Y427199D02*
Y427329D01*
Y426819D02*
Y427149D01*
Y426089D02*
Y426269D01*
Y425959D02*
Y426079D01*
Y425339D02*
Y425619D01*
Y424839D02*
Y425039D01*
Y424019D02*
Y424309D01*
X398404Y433599D02*
Y433649D01*
Y433049D02*
Y433279D01*
Y432709D02*
Y432869D01*
Y432499D02*
Y432689D01*
Y432059D02*
Y432229D01*
Y431609D02*
Y431789D01*
Y431169D02*
Y431489D01*
Y430789D02*
Y430909D01*
Y430489D02*
Y430669D01*
Y430079D02*
Y430259D01*
Y429599D02*
Y429769D01*
Y429439D02*
Y429579D01*
Y428579D02*
Y428889D01*
Y428039D02*
Y428259D01*
Y427809D02*
Y427929D01*
Y427539D02*
Y427749D01*
Y427209D02*
Y427339D01*
Y426819D02*
Y427149D01*
Y426089D02*
Y426279D01*
Y425959D02*
Y426079D01*
Y425349D02*
Y425629D01*
Y424839D02*
Y425049D01*
Y424019D02*
Y424319D01*
X398414Y433619D02*
Y433649D01*
Y433069D02*
Y433289D01*
Y432719D02*
Y432879D01*
Y432509D02*
Y432689D01*
Y432069D02*
Y432239D01*
Y431609D02*
Y431799D01*
Y431129D02*
Y431539D01*
Y430789D02*
Y430909D01*
Y430489D02*
Y430669D01*
Y430089D02*
Y430289D01*
Y429609D02*
Y429769D01*
Y429459D02*
Y429589D01*
Y428599D02*
Y428899D01*
Y428039D02*
Y428269D01*
Y427819D02*
Y427939D01*
Y427539D02*
Y427749D01*
Y427219D02*
Y427359D01*
Y426839D02*
Y427159D01*
Y425979D02*
Y426279D01*
Y425359D02*
Y425629D01*
Y424839D02*
Y425049D01*
Y424029D02*
Y424319D01*
X398424Y433069D02*
Y433299D01*
Y432739D02*
Y432899D01*
Y432519D02*
Y432699D01*
Y432079D02*
Y432249D01*
Y431619D02*
Y431799D01*
Y431079D02*
Y431569D01*
Y430789D02*
Y430899D01*
Y430499D02*
Y430669D01*
Y430109D02*
Y430319D01*
Y429609D02*
Y429779D01*
Y429469D02*
Y429599D01*
Y428609D02*
Y428899D01*
Y428049D02*
Y428279D01*
Y427829D02*
Y427959D01*
Y427549D02*
Y427759D01*
Y427229D02*
Y427369D01*
Y426859D02*
Y427179D01*
Y425989D02*
Y426289D01*
Y425379D02*
Y425639D01*
Y424839D02*
Y425059D01*
Y424039D02*
Y424329D01*
X398434Y433079D02*
Y433309D01*
Y432749D02*
Y432909D01*
Y432519D02*
Y432719D01*
Y432089D02*
Y432249D01*
Y431619D02*
Y431819D01*
Y431049D02*
Y431599D01*
Y430789D02*
Y430899D01*
Y430499D02*
Y430669D01*
Y430119D02*
Y430359D01*
Y429489D02*
Y429789D01*
Y428629D02*
Y428909D01*
Y428059D02*
Y428289D01*
Y427839D02*
Y427969D01*
Y427559D02*
Y427769D01*
Y427239D02*
Y427379D01*
Y426879D02*
Y427189D01*
Y426009D02*
Y426289D01*
Y425389D02*
Y425649D01*
Y424839D02*
Y425059D01*
Y424049D02*
Y424339D01*
X398444Y433089D02*
Y433319D01*
Y432759D02*
Y432919D01*
Y432529D02*
Y432729D01*
Y432089D02*
Y432259D01*
Y431009D02*
Y431819D01*
Y430789D02*
Y430899D01*
Y430499D02*
Y430679D01*
Y430139D02*
Y430389D01*
Y429509D02*
Y429799D01*
Y428639D02*
Y429079D01*
Y428059D02*
Y428299D01*
Y427849D02*
Y427979D01*
Y427569D02*
Y427779D01*
Y427249D02*
Y427399D01*
Y426889D02*
Y427189D01*
Y426019D02*
Y426469D01*
Y425399D02*
Y425659D01*
Y424839D02*
Y425059D01*
Y424059D02*
Y424349D01*
X398454Y433089D02*
Y433329D01*
Y432769D02*
Y432929D01*
Y432529D02*
Y432729D01*
Y432099D02*
Y432259D01*
Y430989D02*
Y431829D01*
Y430789D02*
Y430899D01*
Y430499D02*
Y430679D01*
Y430149D02*
Y430409D01*
Y429519D02*
Y429799D01*
Y428649D02*
Y429119D01*
Y428069D02*
Y428309D01*
Y427849D02*
Y427979D01*
Y427579D02*
Y427789D01*
Y427259D02*
Y427409D01*
Y426899D02*
Y427199D01*
Y426029D02*
Y426499D01*
Y425419D02*
Y425659D01*
Y424849D02*
Y425069D01*
Y424059D02*
Y424349D01*
X398464Y433109D02*
Y433339D01*
Y432779D02*
Y432939D01*
Y432549D02*
Y432739D01*
Y432099D02*
Y432269D01*
Y431459D02*
Y431839D01*
Y430959D02*
Y431359D01*
Y430789D02*
Y430899D01*
Y430509D02*
Y430679D01*
Y430169D02*
Y430449D01*
Y429539D02*
Y429809D01*
Y428659D02*
Y429169D01*
Y428079D02*
Y428319D01*
Y427869D02*
Y427999D01*
Y427579D02*
Y427789D01*
Y427269D02*
Y427429D01*
Y426919D02*
Y427209D01*
Y426039D02*
Y426549D01*
Y425429D02*
Y425679D01*
Y424849D02*
Y425079D01*
Y424069D02*
Y424359D01*
X398474Y433109D02*
Y433349D01*
Y432789D02*
Y432959D01*
Y432549D02*
Y432749D01*
Y432119D02*
Y432269D01*
Y431519D02*
Y431839D01*
Y431189D02*
Y431359D01*
Y430929D02*
Y431139D01*
Y430789D02*
Y430899D01*
Y430509D02*
Y430679D01*
Y430209D02*
Y430479D01*
Y429549D02*
Y429819D01*
Y428669D02*
Y429209D01*
Y428089D02*
Y428329D01*
Y427879D02*
Y428009D01*
Y427589D02*
Y427799D01*
Y427279D02*
Y427439D01*
Y426929D02*
Y427219D01*
Y426059D02*
Y426599D01*
Y425439D02*
Y425679D01*
Y424859D02*
Y425079D01*
Y424069D02*
Y424369D01*
X398484Y433119D02*
Y433359D01*
Y432799D02*
Y432969D01*
Y432559D02*
Y432759D01*
Y432119D02*
Y432279D01*
Y431559D02*
Y431849D01*
Y431189D02*
Y431359D01*
Y430789D02*
Y431089D01*
Y430509D02*
Y430679D01*
Y430219D02*
Y430499D01*
Y429559D02*
Y429829D01*
Y428689D02*
Y429249D01*
Y428099D02*
Y428339D01*
Y427889D02*
Y428019D01*
Y427599D02*
Y427809D01*
Y427289D02*
Y427459D01*
Y426949D02*
Y427229D01*
Y426069D02*
Y426629D01*
Y425449D02*
Y425689D01*
Y424859D02*
Y425079D01*
Y424089D02*
Y424369D01*
X398494Y433129D02*
Y433369D01*
Y432809D02*
Y432979D01*
Y432559D02*
Y432769D01*
Y432129D02*
Y432289D01*
Y431579D02*
Y431859D01*
Y431189D02*
Y431359D01*
Y430799D02*
Y431069D01*
Y430229D02*
Y430689D01*
Y429569D02*
Y429829D01*
Y428689D02*
Y429259D01*
Y428099D02*
Y428339D01*
Y427889D02*
Y428029D01*
Y427609D02*
Y427809D01*
Y427299D02*
Y427469D01*
Y426949D02*
Y427239D01*
Y426069D02*
Y426649D01*
Y425459D02*
Y425699D01*
Y424859D02*
Y425089D01*
Y424089D02*
Y424379D01*
X398504Y433139D02*
Y433369D01*
Y432819D02*
Y432989D01*
Y432569D02*
Y432779D01*
Y432129D02*
Y432289D01*
Y431609D02*
Y431869D01*
Y431189D02*
Y431359D01*
Y430799D02*
Y431029D01*
Y430239D02*
Y430689D01*
Y429589D02*
Y429839D01*
Y428699D02*
Y429289D01*
Y428109D02*
Y428349D01*
Y427899D02*
Y428039D01*
Y427619D02*
Y427829D01*
Y427309D02*
Y427489D01*
Y426969D02*
Y427239D01*
Y426079D02*
Y426679D01*
Y425469D02*
Y425709D01*
Y424859D02*
Y425089D01*
Y424099D02*
Y424389D01*
X398514Y433149D02*
Y433379D01*
Y432829D02*
Y433009D01*
Y432579D02*
Y432789D01*
Y432139D02*
Y432299D01*
Y431629D02*
Y431879D01*
Y431189D02*
Y431359D01*
Y430799D02*
Y431009D01*
Y430379D02*
Y430689D01*
Y430249D02*
Y430329D01*
Y429599D02*
Y429849D01*
Y428999D02*
Y429319D01*
Y428709D02*
Y428959D01*
Y428119D02*
Y428359D01*
Y427909D02*
Y428059D01*
Y427629D02*
Y427829D01*
Y427319D02*
Y427499D01*
Y426989D02*
Y427249D01*
Y426379D02*
Y426709D01*
Y426099D02*
Y426339D01*
Y425479D02*
Y425719D01*
Y424859D02*
Y425089D01*
Y424099D02*
Y424399D01*
X398524Y433159D02*
Y433389D01*
Y432839D02*
Y433019D01*
Y432589D02*
Y432789D01*
Y432139D02*
Y432299D01*
Y431649D02*
Y431889D01*
Y431189D02*
Y431359D01*
Y430799D02*
Y430979D01*
Y430429D02*
Y430689D01*
Y430259D02*
Y430339D01*
Y429609D02*
Y429859D01*
Y429029D02*
Y429349D01*
Y428729D02*
Y428969D01*
Y428129D02*
Y428369D01*
Y427919D02*
Y428069D01*
Y427629D02*
Y427839D01*
Y427329D02*
Y427519D01*
Y426999D02*
Y427269D01*
Y426419D02*
Y426729D01*
Y426109D02*
Y426349D01*
Y425489D02*
Y425729D01*
Y424869D02*
Y425099D01*
Y424109D02*
Y424399D01*
X398534Y433169D02*
Y433399D01*
Y432849D02*
Y433029D01*
Y432589D02*
Y432799D01*
Y432149D02*
Y432299D01*
Y431659D02*
Y431889D01*
Y431189D02*
Y431359D01*
Y430809D02*
Y430969D01*
Y430459D02*
Y430699D01*
Y430269D02*
Y430349D01*
Y429619D02*
Y429859D01*
Y429049D02*
Y429359D01*
Y428739D02*
Y428969D01*
Y428139D02*
Y428379D01*
Y427929D02*
Y428079D01*
Y427639D02*
Y427839D01*
Y427339D02*
Y427529D01*
Y427009D02*
Y427269D01*
Y426429D02*
Y426749D01*
Y426119D02*
Y426359D01*
Y425499D02*
Y425729D01*
Y424869D02*
Y425099D01*
Y424109D02*
Y424409D01*
X398544Y433179D02*
Y433409D01*
Y432859D02*
Y433039D01*
Y432599D02*
Y432809D01*
Y432149D02*
Y432309D01*
Y431669D02*
Y431909D01*
Y431199D02*
Y431369D01*
Y430809D02*
Y430939D01*
Y430489D02*
Y430699D01*
Y430279D02*
Y430359D01*
Y429639D02*
Y429869D01*
Y429079D02*
Y429379D01*
Y428749D02*
Y428979D01*
Y428149D02*
Y428389D01*
Y427939D02*
Y428089D01*
Y427649D02*
Y427849D01*
Y427349D02*
Y427539D01*
Y427019D02*
Y427279D01*
Y426459D02*
Y426769D01*
Y426129D02*
Y426369D01*
Y425519D02*
Y425739D01*
Y424869D02*
Y425099D01*
Y424129D02*
Y424409D01*
X398554Y433189D02*
Y433419D01*
Y432869D02*
Y433059D01*
Y432609D02*
Y432819D01*
Y432169D02*
Y432309D01*
Y431689D02*
Y431919D01*
Y431199D02*
Y431369D01*
Y430819D02*
Y430929D01*
Y430529D02*
Y430709D01*
Y430289D02*
Y430369D01*
Y429649D02*
Y429879D01*
Y429099D02*
Y429399D01*
Y428759D02*
Y428989D01*
Y428159D02*
Y428399D01*
Y427939D02*
Y428099D01*
Y427659D02*
Y427869D01*
Y427359D02*
Y427559D01*
Y427029D02*
Y427289D01*
Y426489D02*
Y426789D01*
Y426139D02*
Y426379D01*
Y425529D02*
Y425749D01*
Y424869D02*
Y425109D01*
Y424129D02*
Y424429D01*
X398564Y433199D02*
Y433429D01*
Y432879D02*
Y433069D01*
Y432619D02*
Y432829D01*
Y432169D02*
Y432319D01*
Y431709D02*
Y431929D01*
Y431199D02*
Y431369D01*
Y430829D02*
Y430899D01*
Y430539D02*
Y430709D01*
Y430299D02*
Y430379D01*
Y429659D02*
Y429889D01*
Y429119D02*
Y429419D01*
Y428769D02*
Y428999D01*
Y428169D02*
Y428409D01*
Y427959D02*
Y428109D01*
Y427669D02*
Y427869D01*
Y427369D02*
Y427579D01*
Y427049D02*
Y427299D01*
Y426509D02*
Y426809D01*
Y426149D02*
Y426379D01*
Y425539D02*
Y425759D01*
Y424869D02*
Y425109D01*
Y424139D02*
Y424429D01*
X398574Y433209D02*
Y433439D01*
Y432889D02*
Y433089D01*
Y432619D02*
Y432849D01*
Y432179D02*
Y432319D01*
Y431719D02*
Y431939D01*
Y431199D02*
Y431369D01*
Y430849D02*
Y430879D01*
Y430539D02*
Y430709D01*
Y430319D02*
Y430389D01*
Y429669D02*
Y429899D01*
Y429139D02*
Y429439D01*
Y428779D02*
Y429009D01*
Y428179D02*
Y428409D01*
Y427969D02*
Y428129D01*
Y427679D02*
Y427879D01*
Y427379D02*
Y427599D01*
Y427059D02*
Y427309D01*
Y426529D02*
Y426819D01*
Y426159D02*
Y426389D01*
Y425549D02*
Y425769D01*
Y424879D02*
Y425109D01*
Y424149D02*
Y424439D01*
X398584Y433219D02*
Y433439D01*
Y432899D02*
Y433099D01*
Y432629D02*
Y432849D01*
Y432179D02*
Y432329D01*
Y431719D02*
Y431949D01*
Y431199D02*
Y431369D01*
Y430539D02*
Y430709D01*
Y430319D02*
Y430399D01*
Y429679D02*
Y429909D01*
Y429159D02*
Y429449D01*
Y428779D02*
Y429009D01*
Y428189D02*
Y428419D01*
Y427969D02*
Y428139D01*
Y427679D02*
Y427889D01*
Y427389D02*
Y427609D01*
Y427059D02*
Y427319D01*
Y426539D02*
Y426839D01*
Y426169D02*
Y426399D01*
Y425559D02*
Y425779D01*
Y424879D02*
Y425119D01*
Y424149D02*
Y424439D01*
X398594Y433229D02*
Y433459D01*
Y432909D02*
Y433109D01*
Y432639D02*
Y432859D01*
Y432189D02*
Y432339D01*
Y431729D02*
Y431959D01*
Y431199D02*
Y431369D01*
Y430539D02*
Y430719D01*
Y430319D02*
Y430399D01*
Y429689D02*
Y429909D01*
Y429169D02*
Y429459D01*
Y428789D02*
Y429019D01*
Y428209D02*
Y428429D01*
Y427979D02*
Y428149D01*
Y427699D02*
Y427889D01*
Y427399D02*
Y427629D01*
Y427069D02*
Y427329D01*
Y426559D02*
Y426849D01*
Y426179D02*
Y426409D01*
Y425569D02*
Y425789D01*
Y424879D02*
Y425119D01*
Y424159D02*
Y424449D01*
X398604Y433239D02*
Y433469D01*
Y432919D02*
Y433129D01*
Y432649D02*
Y432869D01*
Y432189D02*
Y432339D01*
Y431739D02*
Y431969D01*
Y431199D02*
Y431379D01*
Y430549D02*
Y430719D01*
Y430329D02*
Y430409D01*
Y429689D02*
Y429929D01*
Y429189D02*
Y429479D01*
Y428799D02*
Y429029D01*
Y428219D02*
Y428439D01*
Y427999D02*
Y428169D01*
Y427709D02*
Y427909D01*
Y427409D02*
Y427649D01*
Y427079D02*
Y427339D01*
Y426579D02*
Y426859D01*
Y426189D02*
Y426419D01*
Y425569D02*
Y425789D01*
Y424879D02*
Y425119D01*
Y424169D02*
Y424459D01*
X398614Y433249D02*
Y433479D01*
Y432939D02*
Y433149D01*
Y432649D02*
Y432879D01*
Y432199D02*
Y432339D01*
Y431749D02*
Y431979D01*
Y431209D02*
Y431379D01*
Y430549D02*
Y430739D01*
Y430339D02*
Y430419D01*
Y429699D02*
Y429939D01*
Y429209D02*
Y429499D01*
Y428809D02*
Y429039D01*
Y428229D02*
Y428449D01*
Y428009D02*
Y428179D01*
Y427709D02*
Y427909D01*
Y427419D02*
Y427659D01*
Y427089D02*
Y427349D01*
Y426599D02*
Y426879D01*
Y426189D02*
Y426429D01*
Y425579D02*
Y425809D01*
Y424889D02*
Y425119D01*
Y424179D02*
Y424469D01*
X398624Y433259D02*
Y433479D01*
Y432939D02*
Y433149D01*
Y432659D02*
Y432879D01*
Y432199D02*
Y432349D01*
Y431759D02*
Y431989D01*
Y431209D02*
Y431379D01*
Y430549D02*
Y430749D01*
Y430339D02*
Y430419D01*
Y429699D02*
Y429939D01*
Y429219D02*
Y429499D01*
Y428809D02*
Y429049D01*
Y428229D02*
Y428459D01*
Y428009D02*
Y428179D01*
Y427719D02*
Y427919D01*
Y427429D02*
Y427669D01*
Y427099D02*
Y427349D01*
Y426599D02*
Y426889D01*
Y426199D02*
Y426429D01*
Y425589D02*
Y425809D01*
Y424889D02*
Y425119D01*
Y424179D02*
Y424469D01*
X398634Y433269D02*
Y433489D01*
Y432949D02*
Y433169D01*
Y432659D02*
Y432899D01*
Y432209D02*
Y432349D01*
Y431759D02*
Y431999D01*
Y431209D02*
Y431389D01*
Y430549D02*
Y430769D01*
Y430359D02*
Y430429D01*
Y429709D02*
Y429949D01*
Y429239D02*
Y429509D01*
Y428819D02*
Y429049D01*
Y428239D02*
Y428469D01*
Y428019D02*
Y428199D01*
Y427729D02*
Y427929D01*
Y427439D02*
Y427689D01*
Y427099D02*
Y427359D01*
Y426619D02*
Y426899D01*
Y426209D02*
Y426439D01*
Y425589D02*
Y425819D01*
Y424889D02*
Y425119D01*
Y424189D02*
Y424479D01*
X398644Y433289D02*
Y433499D01*
Y432959D02*
Y433179D01*
Y432679D02*
Y432909D01*
Y432209D02*
Y432359D01*
Y431779D02*
Y432009D01*
Y431209D02*
Y431389D01*
Y430549D02*
Y430799D01*
Y430359D02*
Y430439D01*
Y429719D02*
Y429959D01*
Y429249D02*
Y429519D01*
Y428829D02*
Y429069D01*
Y428259D02*
Y428479D01*
Y428029D02*
Y428219D01*
Y427739D02*
Y427929D01*
Y427449D02*
Y427709D01*
Y427109D02*
Y427369D01*
Y426639D02*
Y426909D01*
Y426209D02*
Y426449D01*
Y425599D02*
Y425829D01*
Y424899D02*
Y425119D01*
Y424199D02*
Y424489D01*
X398654Y433299D02*
Y433509D01*
Y432979D02*
Y433199D01*
Y432679D02*
Y432919D01*
Y432219D02*
Y432359D01*
Y431789D02*
Y432019D01*
Y431209D02*
Y431389D01*
Y430559D02*
Y430809D01*
Y430369D02*
Y430449D01*
Y429719D02*
Y429969D01*
Y429269D02*
Y429539D01*
Y428839D02*
Y429079D01*
Y428269D02*
Y428489D01*
Y428039D02*
Y428229D01*
Y427749D02*
Y427939D01*
Y427469D02*
Y427729D01*
Y427119D02*
Y427379D01*
Y426649D02*
Y426919D01*
Y426219D02*
Y426459D01*
Y425609D02*
Y425839D01*
Y424899D02*
Y425119D01*
Y424199D02*
Y424499D01*
X398664Y433299D02*
Y433519D01*
Y432979D02*
Y433209D01*
Y432689D02*
Y432919D01*
Y432219D02*
Y432359D01*
Y431789D02*
Y432039D01*
Y431219D02*
Y431389D01*
Y430559D02*
Y430829D01*
Y430369D02*
Y430449D01*
Y429729D02*
Y429969D01*
Y429269D02*
Y429539D01*
Y428839D02*
Y429079D01*
Y428269D02*
Y428489D01*
Y428049D02*
Y428239D01*
Y427759D02*
Y427949D01*
Y427479D02*
Y427739D01*
Y427119D02*
Y427389D01*
Y426659D02*
Y426929D01*
Y426219D02*
Y426469D01*
Y425609D02*
Y425849D01*
Y424899D02*
Y425119D01*
Y424209D02*
Y424499D01*
X398674Y433309D02*
Y433519D01*
Y432989D02*
Y433229D01*
Y432689D02*
Y432939D01*
Y432219D02*
Y432369D01*
Y431799D02*
Y432049D01*
Y431219D02*
Y431399D01*
Y430559D02*
Y430849D01*
Y430379D02*
Y430459D01*
Y429729D02*
Y429979D01*
Y429289D02*
Y429549D01*
Y428849D02*
Y429089D01*
Y428289D02*
Y428499D01*
Y428059D02*
Y428249D01*
Y427769D02*
Y427959D01*
Y427489D02*
Y427759D01*
Y427139D02*
Y427399D01*
Y426679D02*
Y426929D01*
Y426239D02*
Y426479D01*
Y425609D02*
Y425859D01*
Y424899D02*
Y425119D01*
Y424219D02*
Y424509D01*
X398684Y433329D02*
Y433539D01*
Y432999D02*
Y433249D01*
Y432699D02*
Y432939D01*
Y432229D02*
Y432479D01*
Y431809D02*
Y432059D01*
Y431219D02*
Y431399D01*
Y430559D02*
Y430869D01*
Y430389D02*
Y430469D01*
Y429739D02*
Y429989D01*
Y429309D02*
Y429559D01*
Y428859D02*
Y429099D01*
Y428299D02*
Y428509D01*
Y428069D02*
Y428269D01*
Y427499D02*
Y427969D01*
Y427139D02*
Y427409D01*
Y426689D02*
Y426939D01*
Y426249D02*
Y426489D01*
Y425629D02*
Y425869D01*
Y424899D02*
Y425109D01*
Y424229D02*
Y424519D01*
X398694Y433339D02*
Y433549D01*
Y433019D02*
Y433269D01*
Y432709D02*
Y432949D01*
Y432229D02*
Y432559D01*
Y431819D02*
Y432079D01*
Y431219D02*
Y431399D01*
Y430559D02*
Y430889D01*
Y430399D02*
Y430479D01*
Y429749D02*
Y429999D01*
Y429319D02*
Y429559D01*
Y428869D02*
Y429119D01*
Y428309D02*
Y428519D01*
Y428079D02*
Y428279D01*
Y427509D02*
Y427969D01*
Y427149D02*
Y427419D01*
Y426709D02*
Y426949D01*
Y426249D02*
Y426499D01*
Y425629D02*
Y425869D01*
Y424909D02*
Y425109D01*
Y424229D02*
Y424529D01*
X398704Y433349D02*
Y433549D01*
Y433029D02*
Y433279D01*
Y432719D02*
Y432959D01*
Y432219D02*
Y432579D01*
Y431829D02*
Y432089D01*
Y431219D02*
Y431409D01*
Y430769D02*
Y430899D01*
Y430559D02*
Y430759D01*
Y430409D02*
Y430489D01*
Y429759D02*
Y429999D01*
Y429329D02*
Y429569D01*
Y428869D02*
Y429119D01*
Y428319D02*
Y428529D01*
Y428089D02*
Y428299D01*
Y427509D02*
Y427979D01*
Y427159D02*
Y427419D01*
Y426709D02*
Y426949D01*
Y426259D02*
Y426509D01*
Y425639D02*
Y425879D01*
Y424909D02*
Y425099D01*
Y424239D02*
Y424529D01*
X398714Y433359D02*
Y433559D01*
Y433039D02*
Y433299D01*
Y432719D02*
Y432969D01*
Y432199D02*
Y432639D01*
Y431839D02*
Y432109D01*
Y431219D02*
Y431409D01*
Y430789D02*
Y430929D01*
Y430559D02*
Y430759D01*
Y430409D02*
Y430499D01*
Y429769D02*
Y430019D01*
Y429339D02*
Y429569D01*
Y428879D02*
Y429129D01*
Y428329D02*
Y428529D01*
Y428099D02*
Y428309D01*
Y427529D02*
Y427989D01*
Y427159D02*
Y427429D01*
Y426729D02*
Y426949D01*
Y426269D02*
Y426519D01*
Y425639D02*
Y425889D01*
Y424909D02*
Y425099D01*
Y424659D02*
Y424759D01*
Y424239D02*
Y424539D01*
X398724Y433369D02*
Y433569D01*
Y433049D02*
Y433309D01*
Y432729D02*
Y432979D01*
Y432189D02*
Y432689D01*
Y431849D02*
Y432129D01*
Y431219D02*
Y431409D01*
Y430809D02*
Y430959D01*
Y430559D02*
Y430769D01*
Y430419D02*
Y430499D01*
Y429769D02*
Y430029D01*
Y429349D02*
Y429569D01*
Y428899D02*
Y429139D01*
Y428349D02*
Y428539D01*
Y428109D02*
Y428329D01*
Y427539D02*
Y427999D01*
Y427179D02*
Y427439D01*
Y426739D02*
Y426949D01*
Y426279D02*
Y426529D01*
Y425649D02*
Y425899D01*
Y424909D02*
Y425089D01*
Y424649D02*
Y424809D01*
Y424259D02*
Y424549D01*
X398734Y433379D02*
Y433579D01*
Y433059D02*
Y433339D01*
Y432739D02*
Y432989D01*
Y432179D02*
Y432729D01*
Y431859D02*
Y432159D01*
Y431229D02*
Y431419D01*
Y430829D02*
Y430979D01*
Y430559D02*
Y430779D01*
Y430429D02*
Y430509D01*
Y429779D02*
Y430029D01*
Y429369D02*
Y429569D01*
Y428899D02*
Y429159D01*
Y428359D02*
Y428559D01*
Y428119D02*
Y428349D01*
Y427549D02*
Y428009D01*
Y427179D02*
Y427449D01*
Y426749D02*
Y426959D01*
Y426289D02*
Y426539D01*
Y425659D02*
Y425909D01*
Y424909D02*
Y425089D01*
Y424639D02*
Y424849D01*
Y424259D02*
Y424559D01*
X398744Y433399D02*
Y433589D01*
Y433069D02*
Y433359D01*
Y431869D02*
Y432999D01*
Y431229D02*
Y431419D01*
Y430849D02*
Y430999D01*
Y430559D02*
Y430789D01*
Y430429D02*
Y430529D01*
Y429789D02*
Y430039D01*
Y429379D02*
Y429569D01*
Y428909D02*
Y429169D01*
Y428129D02*
Y428569D01*
Y427569D02*
Y428009D01*
Y427189D02*
Y427459D01*
Y426759D02*
Y426959D01*
Y426299D02*
Y426549D01*
Y425669D02*
Y425919D01*
Y424909D02*
Y425089D01*
Y424629D02*
Y424879D01*
Y424269D02*
Y424569D01*
X398754Y433409D02*
Y433589D01*
Y433079D02*
Y433369D01*
Y431879D02*
Y432999D01*
Y431229D02*
Y431429D01*
Y430859D02*
Y431009D01*
Y430569D02*
Y430789D01*
Y430439D02*
Y430529D01*
Y429799D02*
Y430049D01*
Y429379D02*
Y429569D01*
Y428919D02*
Y429179D01*
Y428139D02*
Y428569D01*
Y427569D02*
Y428019D01*
Y427199D02*
Y427459D01*
Y426769D02*
Y426959D01*
Y426299D02*
Y426559D01*
Y425679D02*
Y425919D01*
Y424909D02*
Y425079D01*
Y424629D02*
Y424899D01*
Y424269D02*
Y424569D01*
X398764Y433419D02*
Y433599D01*
Y433089D02*
Y433389D01*
Y431889D02*
Y433009D01*
Y431229D02*
Y431439D01*
Y430879D02*
Y431029D01*
Y430569D02*
Y430789D01*
Y430449D02*
Y430539D01*
Y429809D02*
Y430059D01*
Y429389D02*
Y429569D01*
Y428929D02*
Y429189D01*
Y428149D02*
Y428579D01*
Y427589D02*
Y428019D01*
Y427199D02*
Y427469D01*
Y426779D02*
Y426959D01*
Y426319D02*
Y426579D01*
Y425679D02*
Y425939D01*
Y424619D02*
Y425079D01*
Y424279D02*
Y424579D01*
X398774Y433429D02*
Y433609D01*
Y433109D02*
Y433419D01*
Y431909D02*
Y433019D01*
Y431229D02*
Y431439D01*
Y430899D02*
Y431059D01*
Y430569D02*
Y430799D01*
Y430459D02*
Y430549D01*
Y429809D02*
Y430069D01*
Y429399D02*
Y429569D01*
Y428939D02*
Y429199D01*
Y428159D02*
Y428589D01*
Y427599D02*
Y428039D01*
Y427219D02*
Y427479D01*
Y426789D02*
Y426949D01*
Y426329D02*
Y426589D01*
Y425689D02*
Y425949D01*
Y424619D02*
Y425069D01*
Y424289D02*
Y424579D01*
X398784Y433119D02*
Y433609D01*
Y431919D02*
Y433029D01*
Y431239D02*
Y431449D01*
Y430919D02*
Y431079D01*
Y430569D02*
Y430809D01*
Y430469D02*
Y430559D01*
Y429819D02*
Y430079D01*
Y429409D02*
Y429569D01*
Y428949D02*
Y429219D01*
Y428169D02*
Y428599D01*
Y427609D02*
Y428039D01*
Y427219D02*
Y427489D01*
Y426799D02*
Y426949D01*
Y426339D02*
Y426599D01*
Y425699D02*
Y425959D01*
Y424609D02*
Y425059D01*
Y424299D02*
Y424599D01*
X398794Y433119D02*
Y433619D01*
Y431919D02*
Y433039D01*
Y431239D02*
Y431449D01*
Y430929D02*
Y431089D01*
Y430469D02*
Y430809D01*
Y429829D02*
Y430079D01*
Y429409D02*
Y429569D01*
Y428959D02*
Y429219D01*
Y428179D02*
Y428599D01*
Y427619D02*
Y428049D01*
Y427229D02*
Y427489D01*
Y426799D02*
Y426949D01*
Y426339D02*
Y426609D01*
Y425699D02*
Y425959D01*
Y424609D02*
Y425059D01*
Y424299D02*
Y424599D01*
X398804Y433139D02*
Y433629D01*
Y431939D02*
Y433049D01*
Y431239D02*
Y431449D01*
Y430939D02*
Y431109D01*
Y430479D02*
Y430819D01*
Y429829D02*
Y430099D01*
Y429419D02*
Y429559D01*
Y428969D02*
Y429239D01*
Y428189D02*
Y428609D01*
Y427629D02*
Y428049D01*
Y427229D02*
Y427489D01*
Y426809D02*
Y426949D01*
Y426349D02*
Y426629D01*
Y425719D02*
Y425969D01*
Y424309D02*
Y425049D01*
X398814Y433149D02*
Y433639D01*
Y431949D02*
Y433049D01*
Y431239D02*
Y431459D01*
Y430969D02*
Y431139D01*
Y430489D02*
Y430829D01*
Y429849D02*
Y430099D01*
Y429419D02*
Y429559D01*
Y428979D02*
Y429259D01*
Y428199D02*
Y428619D01*
Y427649D02*
Y428049D01*
Y427239D02*
Y427499D01*
Y426809D02*
Y426939D01*
Y426369D02*
Y426639D01*
Y425719D02*
Y425979D01*
Y424319D02*
Y425059D01*
X398824Y433159D02*
Y433639D01*
Y431959D02*
Y433069D01*
Y431249D02*
Y431469D01*
Y430979D02*
Y431159D01*
Y430499D02*
Y430829D01*
Y429859D02*
Y430109D01*
Y429429D02*
Y429549D01*
Y428989D02*
Y429269D01*
Y428209D02*
Y428619D01*
Y427659D02*
Y428049D01*
Y427249D02*
Y427499D01*
Y426809D02*
Y426939D01*
Y426379D02*
Y426659D01*
Y425729D02*
Y425989D01*
Y424329D02*
Y425089D01*
X398834Y433169D02*
Y433639D01*
Y432689D02*
Y433069D01*
Y431969D02*
Y432429D01*
Y431249D02*
Y431469D01*
Y430989D02*
Y431179D01*
Y430499D02*
Y430839D01*
Y429859D02*
Y430119D01*
Y429429D02*
Y429549D01*
Y428999D02*
Y429279D01*
Y428219D02*
Y428619D01*
Y427669D02*
Y428049D01*
Y427249D02*
Y427509D01*
Y426809D02*
Y426939D01*
Y426389D02*
Y426669D01*
Y425739D02*
Y425999D01*
Y424329D02*
Y425109D01*
X398844Y433179D02*
Y433649D01*
Y432779D02*
Y433079D01*
Y431989D02*
Y432419D01*
Y431259D02*
Y431479D01*
Y431009D02*
Y431199D01*
Y430509D02*
Y430839D01*
Y429869D02*
Y430129D01*
Y429419D02*
Y429549D01*
Y429009D02*
Y429299D01*
Y428229D02*
Y428619D01*
Y427679D02*
Y428039D01*
Y427269D02*
Y427509D01*
Y426809D02*
Y426929D01*
Y426399D02*
Y426689D01*
Y425739D02*
Y426009D01*
Y424339D02*
Y425129D01*
X398854Y433199D02*
Y433649D01*
Y432819D02*
Y433079D01*
Y431999D02*
Y432419D01*
Y431259D02*
Y431489D01*
Y431029D02*
Y431219D01*
Y430519D02*
Y430849D01*
Y429879D02*
Y430129D01*
Y429419D02*
Y429539D01*
Y429029D02*
Y429329D01*
Y428239D02*
Y428619D01*
Y427699D02*
Y428029D01*
Y427269D02*
Y427509D01*
Y426799D02*
Y426929D01*
Y426409D02*
Y426709D01*
Y425759D02*
Y426019D01*
Y424349D02*
Y425159D01*
X398864Y433209D02*
Y433639D01*
Y432829D02*
Y433089D01*
Y432019D02*
Y432419D01*
Y431259D02*
Y431489D01*
Y431049D02*
Y431239D01*
Y430529D02*
Y430859D01*
Y429889D02*
Y430149D01*
Y429379D02*
Y429529D01*
Y429039D02*
Y429369D01*
Y428259D02*
Y428609D01*
Y427709D02*
Y428019D01*
Y427279D02*
Y427499D01*
Y426769D02*
Y426919D01*
Y426429D02*
Y426759D01*
Y425769D02*
Y426029D01*
Y424359D02*
Y425179D01*
X398874Y433219D02*
Y433639D01*
Y432839D02*
Y433089D01*
Y432029D02*
Y432419D01*
Y431069D02*
Y431499D01*
Y430539D02*
Y430869D01*
Y429899D02*
Y430159D01*
Y429049D02*
Y429519D01*
Y428269D02*
Y428599D01*
Y427729D02*
Y428009D01*
Y427289D02*
Y427499D01*
Y426439D02*
Y426909D01*
Y425769D02*
Y426039D01*
Y424359D02*
Y425209D01*
X398884Y433239D02*
Y433639D01*
Y432849D02*
Y433099D01*
Y432039D02*
Y432419D01*
Y431069D02*
Y431499D01*
Y430539D02*
Y430879D01*
Y429899D02*
Y430159D01*
Y429059D02*
Y429519D01*
Y428269D02*
Y428589D01*
Y427739D02*
Y427999D01*
Y427289D02*
Y427499D01*
Y426449D02*
Y426899D01*
Y425779D02*
Y426039D01*
Y424369D02*
Y425219D01*
X398894Y433249D02*
Y433629D01*
Y432849D02*
Y433109D01*
Y432059D02*
Y432419D01*
Y431089D02*
Y431519D01*
Y430549D02*
Y430879D01*
Y429909D02*
Y430169D01*
Y429079D02*
Y429509D01*
Y428289D02*
Y428579D01*
Y427759D02*
Y427979D01*
Y427299D02*
Y427489D01*
Y426459D02*
Y426889D01*
Y425789D02*
Y426059D01*
Y424379D02*
Y425239D01*
X398904Y433259D02*
Y433619D01*
Y432859D02*
Y433109D01*
Y432079D02*
Y432419D01*
Y431109D02*
Y431519D01*
Y430559D02*
Y430889D01*
Y429919D02*
Y430179D01*
Y429089D02*
Y429499D01*
Y428309D02*
Y428569D01*
Y427779D02*
Y427959D01*
Y427309D02*
Y427479D01*
Y426479D02*
Y426889D01*
Y425789D02*
Y426069D01*
Y424389D02*
Y425259D01*
X398914Y433279D02*
Y433609D01*
Y432869D02*
Y433109D01*
Y432099D02*
Y432419D01*
Y431129D02*
Y431529D01*
Y430569D02*
Y430899D01*
Y429929D02*
Y430189D01*
Y429099D02*
Y429489D01*
Y428319D02*
Y428549D01*
Y427789D02*
Y427929D01*
Y427319D02*
Y427459D01*
Y426489D02*
Y426879D01*
Y425809D02*
Y426069D01*
Y424389D02*
Y425289D01*
X398924Y433289D02*
Y433609D01*
Y432869D02*
Y433109D01*
Y432109D02*
Y432419D01*
Y431139D02*
Y431539D01*
Y430579D02*
Y430909D01*
Y429939D02*
Y430199D01*
Y429119D02*
Y429479D01*
Y428329D02*
Y428539D01*
Y427799D02*
Y427919D01*
Y427319D02*
Y427459D01*
Y426499D02*
Y426869D01*
Y425809D02*
Y426079D01*
Y424399D02*
Y425289D01*
X398934Y433299D02*
Y433589D01*
Y432879D02*
Y433109D01*
Y432129D02*
Y432419D01*
Y431149D02*
Y431539D01*
Y430589D02*
Y430919D01*
Y429939D02*
Y430199D01*
Y429129D02*
Y429469D01*
Y428349D02*
Y428519D01*
Y427839D02*
Y427869D01*
Y427319D02*
Y427439D01*
Y426519D02*
Y426859D01*
Y425819D02*
Y426089D01*
Y424999D02*
Y425309D01*
Y424409D02*
Y424989D01*
X398944Y433319D02*
Y433579D01*
Y432879D02*
Y433099D01*
Y432149D02*
Y432419D01*
Y431169D02*
Y431559D01*
Y430589D02*
Y430929D01*
Y429949D02*
Y430209D01*
Y429149D02*
Y429459D01*
Y428359D02*
Y428499D01*
Y427329D02*
Y427419D01*
Y426539D02*
Y426849D01*
Y425829D02*
Y426099D01*
Y425039D02*
Y425329D01*
Y424409D02*
Y424969D01*
X398954Y433339D02*
Y433559D01*
Y432899D02*
Y433089D01*
Y432159D02*
Y432419D01*
Y431189D02*
Y431559D01*
Y430599D02*
Y430939D01*
Y429969D02*
Y430229D01*
Y429169D02*
Y429439D01*
Y428389D02*
Y428469D01*
Y427339D02*
Y427389D01*
Y426559D02*
Y426829D01*
Y425839D02*
Y426109D01*
Y425059D02*
Y425349D01*
Y424429D02*
Y424959D01*
X398964Y433349D02*
Y433559D01*
Y432899D02*
Y433089D01*
Y432169D02*
Y432419D01*
Y431189D02*
Y431569D01*
Y430609D02*
Y430939D01*
Y429969D02*
Y430229D01*
Y429179D02*
Y429439D01*
Y428389D02*
Y428449D01*
Y426559D02*
Y426819D01*
Y425849D02*
Y426109D01*
Y425069D02*
Y425349D01*
Y424429D02*
Y424959D01*
X398974Y433369D02*
Y433539D01*
Y432899D02*
Y433079D01*
Y432169D02*
Y432409D01*
Y431209D02*
Y431579D01*
Y430619D02*
Y430959D01*
Y429979D02*
Y430239D01*
Y429199D02*
Y429419D01*
Y426589D02*
Y426799D01*
Y425849D02*
Y426119D01*
Y425089D02*
Y425369D01*
Y424439D02*
Y424939D01*
X398984Y433389D02*
Y433519D01*
Y432909D02*
Y433069D01*
Y432179D02*
Y432409D01*
Y431229D02*
Y431589D01*
Y430629D02*
Y430969D01*
Y429989D02*
Y430249D01*
Y429229D02*
Y429389D01*
Y426619D02*
Y426779D01*
Y425859D02*
Y426129D01*
Y425099D02*
Y425389D01*
Y424439D02*
Y424909D01*
X398994Y433409D02*
Y433489D01*
Y432919D02*
Y433049D01*
Y432189D02*
Y432399D01*
Y431239D02*
Y431599D01*
Y430639D02*
Y430979D01*
Y429989D02*
Y430259D01*
Y429259D02*
Y429359D01*
Y426649D02*
Y426749D01*
Y425869D02*
Y426149D01*
Y425119D02*
Y425399D01*
Y424449D02*
Y424869D01*
X399004Y433419D02*
Y433469D01*
Y432919D02*
Y433039D01*
Y432189D02*
Y432399D01*
Y431249D02*
Y431599D01*
Y430649D02*
Y430979D01*
Y429999D02*
Y430259D01*
Y429289D02*
Y429329D01*
Y426669D02*
Y426719D01*
Y425869D02*
Y426149D01*
Y425129D02*
Y425409D01*
Y424449D02*
Y424759D01*
X399014Y432929D02*
Y433019D01*
Y432209D02*
Y432389D01*
Y431259D02*
Y431609D01*
Y430659D02*
Y430989D01*
Y430009D02*
Y430269D01*
Y425889D02*
Y426159D01*
Y425139D02*
Y425429D01*
Y424469D02*
Y424769D01*
X399024Y432939D02*
Y432999D01*
Y432219D02*
Y432389D01*
Y431279D02*
Y431619D01*
Y430669D02*
Y431009D01*
Y430019D02*
Y430279D01*
Y429689D02*
Y429979D01*
Y425899D02*
Y426169D01*
Y425159D02*
Y425439D01*
Y424469D02*
Y424779D01*
X399034Y432239D02*
Y432379D01*
Y431289D02*
Y431629D01*
Y430679D02*
Y431019D01*
Y429679D02*
Y430289D01*
Y425899D02*
Y426179D01*
Y425169D02*
Y425459D01*
Y424479D02*
Y424789D01*
X399044Y432259D02*
Y432359D01*
Y431309D02*
Y431649D01*
Y430689D02*
Y431039D01*
Y430489D02*
Y430529D01*
Y429669D02*
Y430299D01*
Y425909D02*
Y426189D01*
Y425189D02*
Y425469D01*
Y424489D02*
Y424799D01*
X399054Y432269D02*
Y432349D01*
Y431319D02*
Y431659D01*
Y430699D02*
Y431049D01*
Y430489D02*
Y430529D01*
Y429659D02*
Y430299D01*
Y425919D02*
Y426189D01*
Y425189D02*
Y425479D01*
Y424489D02*
Y424799D01*
X399064Y431329D02*
Y431669D01*
Y430719D02*
Y431049D01*
Y430459D02*
Y430539D01*
Y429649D02*
Y430319D01*
Y425929D02*
Y426199D01*
Y425209D02*
Y425489D01*
Y424499D02*
Y424809D01*
X399074Y431349D02*
Y431679D01*
Y430729D02*
Y431049D01*
Y429649D02*
Y430549D01*
Y425939D02*
Y426209D01*
Y425219D02*
Y425509D01*
Y424509D02*
Y424819D01*
X399084Y431359D02*
Y431689D01*
Y430749D02*
Y431049D01*
Y429649D02*
Y430549D01*
Y425949D02*
Y426219D01*
Y425229D02*
Y425519D01*
Y424519D02*
Y424829D01*
X399094Y431359D02*
Y431689D01*
Y430749D02*
Y431049D01*
Y429649D02*
Y430549D01*
Y425949D02*
Y426229D01*
Y425239D02*
Y425519D01*
Y424519D02*
Y424829D01*
X399104Y431379D02*
Y431689D01*
Y430759D02*
Y431039D01*
Y429649D02*
Y430559D01*
Y425959D02*
Y426239D01*
Y425249D02*
Y425539D01*
Y424529D02*
Y424839D01*
X399114Y431389D02*
Y431689D01*
Y430779D02*
Y431029D01*
Y429649D02*
Y430559D01*
Y425969D02*
Y426249D01*
Y425259D02*
Y425549D01*
Y424539D02*
Y424849D01*
X399124Y431409D02*
Y431679D01*
Y430799D02*
Y431019D01*
Y429649D02*
Y430559D01*
Y425979D02*
Y426259D01*
Y425269D02*
Y425559D01*
Y424539D02*
Y424859D01*
X399134Y431409D02*
Y431679D01*
Y430799D02*
Y431019D01*
Y429649D02*
Y430559D01*
Y425989D02*
Y426259D01*
Y425279D02*
Y425569D01*
Y424549D02*
Y424859D01*
X399144Y431419D02*
Y431669D01*
Y430819D02*
Y431009D01*
Y429649D02*
Y430559D01*
Y425989D02*
Y426269D01*
Y425289D02*
Y425589D01*
Y424559D02*
Y424869D01*
X399154Y431439D02*
Y431659D01*
Y430839D02*
Y430999D01*
Y430119D02*
Y430559D01*
Y429649D02*
Y429739D01*
Y425999D02*
Y426279D01*
Y425299D02*
Y425599D01*
Y424569D02*
Y424879D01*
X399164Y431449D02*
Y431649D01*
Y430849D02*
Y430989D01*
Y430129D02*
Y430559D01*
Y429669D02*
Y429709D01*
Y426019D02*
Y426289D01*
Y425309D02*
Y425609D01*
Y424569D02*
Y424889D01*
X399174Y431459D02*
Y431639D01*
Y430869D02*
Y430969D01*
Y430149D02*
Y430559D01*
Y426019D02*
Y426299D01*
Y425329D02*
Y425619D01*
Y424579D02*
Y424899D01*
X399184Y431479D02*
Y431629D01*
Y430879D02*
Y430959D01*
Y430149D02*
Y430559D01*
Y426029D02*
Y426309D01*
Y425329D02*
Y425629D01*
Y424579D02*
Y424909D01*
X399194Y431489D02*
Y431619D01*
Y430899D02*
Y430939D01*
Y430159D02*
Y430549D01*
Y426039D02*
Y426319D01*
Y425339D02*
Y425639D01*
Y424599D02*
Y424909D01*
X399204Y431499D02*
Y431599D01*
Y430169D02*
Y430549D01*
Y426039D02*
Y426329D01*
Y425349D02*
Y425649D01*
Y424599D02*
Y424919D01*
X399214Y431519D02*
Y431579D01*
Y430459D02*
Y430519D01*
Y430169D02*
Y430439D01*
Y426059D02*
Y426339D01*
Y425359D02*
Y425659D01*
Y424609D02*
Y424929D01*
X399224Y431519D02*
Y431569D01*
Y430179D02*
Y430449D01*
Y426059D02*
Y426339D01*
Y425359D02*
Y425659D01*
Y424609D02*
Y424929D01*
X399234Y430189D02*
Y430449D01*
Y426069D02*
Y426349D01*
Y425369D02*
Y425679D01*
Y424619D02*
Y424949D01*
X399244Y430199D02*
Y430459D01*
Y426079D02*
Y426359D01*
Y425379D02*
Y425689D01*
Y424629D02*
Y424949D01*
X399254Y430209D02*
Y430469D01*
Y426089D02*
Y426369D01*
Y425389D02*
Y425699D01*
Y424639D02*
Y424959D01*
X399264Y430209D02*
Y430479D01*
Y426089D02*
Y426379D01*
Y425399D02*
Y425699D01*
Y424639D02*
Y424959D01*
X399274Y430219D02*
Y430489D01*
Y426099D02*
Y426379D01*
Y425399D02*
Y425709D01*
Y424649D02*
Y424969D01*
X399284Y430229D02*
Y430499D01*
Y426109D02*
Y426389D01*
Y425419D02*
Y425719D01*
Y424659D02*
Y424989D01*
X399294Y430239D02*
Y430499D01*
Y426119D02*
Y426409D01*
Y425429D02*
Y425729D01*
Y424669D02*
Y424989D01*
X399304Y430239D02*
Y430509D01*
Y426119D02*
Y426409D01*
Y425429D02*
Y425729D01*
Y424669D02*
Y424999D01*
X399314Y430249D02*
Y430509D01*
Y426129D02*
Y426419D01*
Y425439D02*
Y425739D01*
Y424679D02*
Y424999D01*
X399324Y430259D02*
Y430509D01*
Y426149D02*
Y426429D01*
Y425449D02*
Y425759D01*
Y424689D02*
Y425009D01*
X399334Y430259D02*
Y430509D01*
Y426149D02*
Y426439D01*
Y425459D02*
Y425759D01*
Y424699D02*
Y425019D01*
X399344Y430279D02*
Y430509D01*
Y426159D02*
Y426449D01*
Y425469D02*
Y425769D01*
Y424699D02*
Y425029D01*
Y424569D02*
Y424629D01*
X399354Y430279D02*
Y430509D01*
Y426169D02*
Y426449D01*
Y425469D02*
Y425769D01*
Y424709D02*
Y425039D01*
Y424569D02*
Y424649D01*
X399364Y430289D02*
Y430499D01*
Y426169D02*
Y426459D01*
Y425479D02*
Y425779D01*
Y424709D02*
Y425039D01*
Y424569D02*
Y424669D01*
X399374Y430289D02*
Y430499D01*
Y426189D02*
Y426469D01*
Y425489D02*
Y425789D01*
Y424729D02*
Y425049D01*
Y424589D02*
Y424699D01*
X399384Y430299D02*
Y430489D01*
Y426189D02*
Y426479D01*
Y425489D02*
Y425789D01*
Y424729D02*
Y425059D01*
Y424609D02*
Y424709D01*
X399394Y430309D02*
Y430489D01*
Y426199D02*
Y426489D01*
Y425499D02*
Y425799D01*
Y424739D02*
Y425059D01*
Y424619D02*
Y424729D01*
X399404Y430319D02*
Y430479D01*
Y426209D02*
Y426499D01*
Y425509D02*
Y425809D01*
Y424629D02*
Y425069D01*
X399414Y430319D02*
Y430469D01*
Y426209D02*
Y426499D01*
Y425519D02*
Y425809D01*
Y424649D02*
Y425079D01*
X399424Y430329D02*
Y430459D01*
Y426219D02*
Y426509D01*
Y425529D02*
Y425819D01*
Y424659D02*
Y425079D01*
X399434Y430329D02*
Y430459D01*
Y426229D02*
Y426509D01*
Y425529D02*
Y425819D01*
Y424669D02*
Y425089D01*
X399444Y430339D02*
Y430449D01*
Y426239D02*
Y426519D01*
Y425539D02*
Y425819D01*
Y424689D02*
Y425089D01*
X399454Y430349D02*
Y430429D01*
Y426249D02*
Y426529D01*
Y425549D02*
Y425829D01*
Y424699D02*
Y425099D01*
X399464Y430359D02*
Y430419D01*
Y426249D02*
Y426529D01*
Y425559D02*
Y425829D01*
Y424709D02*
Y425099D01*
X399474Y430369D02*
Y430399D01*
Y426259D02*
Y426529D01*
Y425559D02*
Y425829D01*
Y424729D02*
Y425109D01*
X399484Y426259D02*
Y426519D01*
Y425569D02*
Y425829D01*
Y424739D02*
Y425109D01*
X399494Y426279D02*
Y426519D01*
Y425569D02*
Y425829D01*
Y424749D02*
Y425119D01*
X399504Y426279D02*
Y426519D01*
Y425589D02*
Y425829D01*
Y424759D02*
Y425119D01*
X399514Y426289D02*
Y426509D01*
Y425589D02*
Y425829D01*
Y424779D02*
Y425119D01*
X399524Y426299D02*
Y426509D01*
Y425599D02*
Y425829D01*
Y424779D02*
Y425129D01*
X399534Y426299D02*
Y426499D01*
Y425599D02*
Y425819D01*
Y424799D02*
Y425129D01*
X399544Y426319D02*
Y426499D01*
Y425609D02*
Y425819D01*
Y424809D02*
Y425129D01*
X399554Y426319D02*
Y426489D01*
Y425619D02*
Y425819D01*
Y424819D02*
Y425129D01*
X399564Y426329D02*
Y426489D01*
Y425619D02*
Y425809D01*
Y424829D02*
Y425129D01*
X399574Y426329D02*
Y426479D01*
Y425629D02*
Y425809D01*
Y424839D02*
Y425129D01*
X399584Y426339D02*
Y426469D01*
Y425639D02*
Y425809D01*
Y424849D02*
Y425129D01*
X399594Y426349D02*
Y426459D01*
Y425639D02*
Y425799D01*
Y424859D02*
Y425129D01*
X399604Y426349D02*
Y426449D01*
Y425649D02*
Y425789D01*
Y424869D02*
Y425119D01*
X399614Y426359D02*
Y426439D01*
Y425649D02*
Y425789D01*
Y424879D02*
Y425119D01*
X399624Y426369D02*
Y426429D01*
Y425659D02*
Y425779D01*
Y424889D02*
Y425099D01*
X399634Y426379D02*
Y426409D01*
Y425659D02*
Y425769D01*
Y424899D02*
Y425089D01*
X399644Y425669D02*
Y425759D01*
Y424909D02*
Y425079D01*
X399654Y425679D02*
Y425759D01*
Y424909D02*
Y425069D01*
X399664Y425679D02*
Y425739D01*
Y424919D02*
Y425049D01*
X399674Y425689D02*
Y425719D01*
Y424929D02*
Y425029D01*
D139*
X408374Y404673D02*
D03*
Y405673D02*
D03*
Y406673D02*
D03*
Y407673D02*
D03*
Y408673D02*
D03*
Y409673D02*
D03*
X407374Y404673D02*
D03*
Y405673D02*
D03*
Y406673D02*
D03*
Y407673D02*
D03*
Y408673D02*
D03*
Y409673D02*
D03*
D140*
X416929Y425591D02*
D03*
X407874D02*
D03*
Y402756D02*
D03*
X416929D02*
D03*
D141*
X409374Y423673D02*
D03*
X417551Y417252D02*
D03*
Y418091D02*
D03*
X417358Y420161D02*
D03*
D142*
X405955Y430807D02*
D03*
X412559Y404862D02*
D03*
X413681Y401722D02*
D03*
X414567Y403150D02*
D03*
X416339Y398917D02*
D03*
X408268Y396358D02*
D03*
X413927Y425492D02*
D03*
X410945Y422411D02*
D03*
X412894Y415502D02*
D03*
X409449Y407677D02*
D03*
X411220Y411122D02*
D03*
X417126Y405659D02*
D03*
X409447Y404673D02*
D03*
X408563Y399311D02*
D03*
X395472Y410976D02*
D03*
Y411764D02*
D03*
Y412551D02*
D03*
Y413339D02*
D03*
Y415008D02*
D03*
Y415795D02*
D03*
Y416583D02*
D03*
Y417370D02*
D03*
D143*
X396543Y410689D02*
D03*
Y413445D02*
D03*
X394402Y410689D02*
D03*
Y413445D02*
D03*
X396543Y414902D02*
D03*
Y417657D02*
D03*
X394402Y414902D02*
D03*
Y417657D02*
D03*
D144*
X401968Y400787D02*
D03*
Y422047D02*
D03*
D145*
X405512Y394783D02*
D03*
X404921D02*
D03*
X406102D02*
D03*
D146*
X403720Y395118D02*
D03*
X407303Y394449D02*
D03*
X419004Y396705D02*
D03*
X415642D02*
D03*
X419004Y394843D02*
D03*
X415642D02*
D03*
D147*
X419659Y408276D02*
D03*
Y406094D02*
D03*
D148*
X418425Y397157D02*
D03*
X418268Y396882D02*
D03*
X418110Y397157D02*
D03*
X417953Y396882D02*
D03*
X417795Y397157D02*
D03*
X417638Y396882D02*
D03*
X417480Y397157D02*
D03*
X416220D02*
D03*
X416378Y396882D02*
D03*
X416535Y397157D02*
D03*
X416693Y396882D02*
D03*
X416850Y397157D02*
D03*
X417008Y396882D02*
D03*
X417165Y397157D02*
D03*
D149*
X407628Y397982D02*
D03*
X407333D02*
D03*
X407628Y398474D02*
D03*
X407333Y398474D02*
D03*
X421407Y407480D02*
D03*
X420905Y409006D02*
D03*
X421407Y405905D02*
D03*
X420905D02*
D03*
X420748Y410758D02*
D03*
X421506Y412205D02*
D03*
X421112Y413337D02*
D03*
X420472D02*
D03*
X419537Y411860D02*
D03*
Y410285D02*
D03*
X419980Y410236D02*
D03*
X420571Y411270D02*
D03*
X416053Y404616D02*
D03*
X415529Y418088D02*
D03*
X410728Y412894D02*
D03*
X411811Y402953D02*
D03*
X410354Y410463D02*
D03*
X402559Y430315D02*
D03*
X412549Y405905D02*
D03*
X413435Y406545D02*
D03*
X413386Y406004D02*
D03*
X415305Y406250D02*
D03*
X411467Y407530D02*
D03*
X410089Y408268D02*
D03*
X407638Y423032D02*
D03*
X406841Y422195D02*
D03*
X411102Y425591D02*
D03*
X410118Y424803D02*
D03*
X410748Y423642D02*
D03*
X414291Y401614D02*
D03*
Y402008D02*
D03*
X414921Y402047D02*
D03*
X413819Y403425D02*
D03*
X414744Y403799D02*
D03*
X414409D02*
D03*
X414744Y404862D02*
D03*
X414409D02*
D03*
X413642D02*
D03*
X413307D02*
D03*
X414331Y399724D02*
D03*
Y399409D02*
D03*
X410974Y396900D02*
D03*
Y397293D02*
D03*
X407598Y420866D02*
D03*
Y421260D02*
D03*
X413327Y422598D02*
D03*
X412736D02*
D03*
X413386Y421112D02*
D03*
X412795D02*
D03*
X405905Y419685D02*
D03*
X412008Y396850D02*
D03*
X414961Y407382D02*
D03*
X414095Y397638D02*
D03*
X414419Y398474D02*
D03*
X414124Y398868D02*
D03*
X412835Y402795D02*
D03*
X412559Y403425D02*
D03*
X415896Y397638D02*
D03*
X418750D02*
D03*
X417323Y398179D02*
D03*
X420079Y403888D02*
D03*
X418405Y406988D02*
D03*
X411417Y431250D02*
D03*
X409055D02*
D03*
X406693D02*
D03*
X414567Y426870D02*
D03*
X413878D02*
D03*
X404528Y418898D02*
D03*
X403937Y419055D02*
D03*
X420423Y400984D02*
D03*
X419291D02*
D03*
X402106Y431398D02*
D03*
X404232Y431004D02*
D03*
X405512Y430266D02*
D03*
X404724Y402756D02*
D03*
X404331D02*
D03*
X403937D02*
D03*
X403543D02*
D03*
X404724Y398425D02*
D03*
X404331D02*
D03*
X403937D02*
D03*
X401968Y410630D02*
D03*
X420128Y394488D02*
D03*
X421112Y394931D02*
D03*
X420718Y394488D02*
D03*
X410817Y405945D02*
D03*
X410138Y406201D02*
D03*
X409498Y406447D02*
D03*
X401890Y430315D02*
D03*
X411659Y417474D02*
D03*
X411659Y417868D02*
D03*
X407677Y415992D02*
D03*
Y416386D02*
D03*
X407874Y414567D02*
D03*
Y414173D02*
D03*
X400148Y430069D02*
D03*
X399409Y428937D02*
D03*
Y429183D02*
D03*
Y429429D02*
D03*
X420374Y400295D02*
D03*
X419724Y398937D02*
D03*
X421024Y401142D02*
D03*
X421457Y400000D02*
D03*
Y398583D02*
D03*
X419882D02*
D03*
X420748Y399488D02*
D03*
X413671Y423189D02*
D03*
X414262D02*
D03*
X414665Y424311D02*
D03*
X412323Y424429D02*
D03*
X412717D02*
D03*
X412323Y424035D02*
D03*
X412717D02*
D03*
X408563Y413287D02*
D03*
X408957D02*
D03*
X408514Y414124D02*
D03*
Y414518D02*
D03*
X412894Y416339D02*
D03*
X413287D02*
D03*
X412352Y416634D02*
D03*
X411614Y416289D02*
D03*
X411457Y413228D02*
D03*
X408514Y418750D02*
D03*
X410728Y417913D02*
D03*
X408415Y417569D02*
D03*
X409596Y412845D02*
D03*
Y413238D02*
D03*
X409203Y416978D02*
D03*
X412008Y415787D02*
D03*
X408415Y415896D02*
D03*
Y416289D02*
D03*
Y417077D02*
D03*
X410433Y414813D02*
D03*
X409843D02*
D03*
X411024D02*
D03*
X410433Y414222D02*
D03*
Y415404D02*
D03*
X409843D02*
D03*
X411024D02*
D03*
X409843Y414222D02*
D03*
X411024D02*
D03*
X412362Y415827D02*
D03*
X412402Y415502D02*
D03*
X412549Y414715D02*
D03*
Y414321D02*
D03*
X413287Y414468D02*
D03*
X412795Y413927D02*
D03*
X416388Y406299D02*
D03*
X417126Y405020D02*
D03*
X416732Y407776D02*
D03*
X416043D02*
D03*
X413405Y398405D02*
D03*
X410827Y399459D02*
D03*
X411122D02*
D03*
X410532Y400197D02*
D03*
X410876D02*
D03*
X410187D02*
D03*
X409705Y399429D02*
D03*
X411614Y398238D02*
D03*
X412155D02*
D03*
X417569Y434232D02*
D03*
Y433780D02*
D03*
Y431024D02*
D03*
Y430630D02*
D03*
X413140Y431024D02*
D03*
Y431417D02*
D03*
Y432205D02*
D03*
Y432598D02*
D03*
Y433780D02*
D03*
Y434232D02*
D03*
X414124Y432205D02*
D03*
Y431417D02*
D03*
Y431024D02*
D03*
X414567Y429774D02*
D03*
Y428789D02*
D03*
X416585Y431024D02*
D03*
Y430630D02*
D03*
X416634Y432205D02*
D03*
X416831Y428642D02*
D03*
X417913Y428248D02*
D03*
X416142Y429774D02*
D03*
Y428789D02*
D03*
X417569Y433386D02*
D03*
Y432992D02*
D03*
X406742Y396752D02*
D03*
X406201Y399508D02*
D03*
X407480Y397146D02*
D03*
X408465Y398622D02*
D03*
X403593Y434055D02*
D03*
X402904Y432579D02*
D03*
X405118Y409646D02*
D03*
X419734Y394931D02*
D03*
X411073Y396407D02*
D03*
Y395965D02*
D03*
X411565D02*
D03*
X411890Y397264D02*
D03*
X409705Y399193D02*
D03*
X411368Y400699D02*
D03*
X411516Y399665D02*
D03*
X411831D02*
D03*
X409803Y398504D02*
D03*
X409508D02*
D03*
Y398839D02*
D03*
X412382Y397835D02*
D03*
X411024Y420472D02*
D03*
X415797Y419734D02*
D03*
X413110Y400059D02*
D03*
Y400374D02*
D03*
X412638Y397835D02*
D03*
X409803Y398839D02*
D03*
X413366Y397618D02*
D03*
Y397894D02*
D03*
X408583Y400433D02*
D03*
Y400157D02*
D03*
X413189Y400984D02*
D03*
X409567Y402362D02*
D03*
X413780Y410285D02*
D03*
X413091Y409498D02*
D03*
X412697D02*
D03*
X413780D02*
D03*
X412008Y411024D02*
D03*
X411417Y411909D02*
D03*
X411073D02*
D03*
X412008D02*
D03*
X408268Y395787D02*
D03*
X412520Y420472D02*
D03*
X414518Y419734D02*
D03*
X414961Y423032D02*
D03*
X415118Y421693D02*
D03*
X417717Y423622D02*
D03*
X414567Y425472D02*
D03*
X410945Y421772D02*
D03*
X409685Y421811D02*
D03*
X407953D02*
D03*
X420423Y402805D02*
D03*
X419783Y402362D02*
D03*
X421112Y401772D02*
D03*
X412008Y410285D02*
D03*
X417323Y398524D02*
D03*
X413533Y397244D02*
D03*
X413533Y396850D02*
D03*
X412451Y411909D02*
D03*
Y411024D02*
D03*
X405965Y431339D02*
D03*
X416339Y398179D02*
D03*
X416683D02*
D03*
X418307D02*
D03*
X417963D02*
D03*
X420433Y410098D02*
D03*
D150*
X413189Y403346D02*
D03*
D157*
X395973Y412393D02*
X396019Y412281D01*
X396131Y412235D01*
X395973Y412393D02*
X395927Y412505D01*
X395815Y412551D01*
X395973Y416425D02*
X396019Y416313D01*
X396131Y416266D01*
X395815Y415795D02*
X395927Y415842D01*
X395973Y415953D01*
X396131Y416111D02*
X396019Y416065D01*
X395973Y415953D01*
X395973Y416425D02*
X395927Y416536D01*
X395815Y416583D01*
X405088Y412235D02*
X405191Y412242D01*
X405292Y412262D01*
X405389Y412295D01*
X405482Y412341D01*
X405567Y412398D01*
X405645Y412466D01*
X405713Y412543D01*
X405770Y412629D01*
X405815Y412721D01*
X405848Y412819D01*
X405868Y412920D01*
X405875Y413022D01*
X406818Y414448D02*
X406719Y414442D01*
X406622Y414427D01*
X406526Y414401D01*
X406434Y414366D01*
X406346Y414321D01*
X406264Y414268D01*
X406187Y414206D01*
X406117Y414136D01*
X406055Y414059D01*
X406001Y413976D01*
X405957Y413888D01*
X405921Y413796D01*
X405896Y413701D01*
X405880Y413604D01*
X405875Y413505D01*
X395815Y411764D02*
X395927Y411810D01*
X395973Y411922D01*
X396131Y412080D02*
X396019Y412034D01*
X395973Y411922D01*
X405088Y412080D02*
X405186Y412085D01*
X405284Y412101D01*
X405379Y412126D01*
X405471Y412161D01*
X405559Y412206D01*
X405642Y412260D01*
X405718Y412322D01*
X405788Y412392D01*
X405850Y412468D01*
X405904Y412551D01*
X405949Y412639D01*
X405984Y412731D01*
X406010Y412826D01*
X406025Y412924D01*
X406030Y413022D01*
X406818Y414293D02*
X406715Y414286D01*
X406614Y414266D01*
X406516Y414233D01*
X406424Y414187D01*
X406338Y414130D01*
X406261Y414062D01*
X406193Y413985D01*
X406136Y413899D01*
X406090Y413806D01*
X406057Y413709D01*
X406037Y413608D01*
X406030Y413505D01*
X417051Y417436D02*
X417097Y417324D01*
X417209Y417278D01*
X417051Y417436D02*
X417004Y417547D01*
X416892Y417594D01*
X417209Y418065D02*
X417097Y418019D01*
X417051Y417907D01*
X416892Y417749D02*
X417004Y417795D01*
X417051Y417907D01*
X395472Y412551D02*
X395815D01*
X396131Y416266D02*
X407558D01*
X396131Y416111D02*
X407558Y416111D01*
X395472Y415795D02*
X395815D01*
X395472Y416583D02*
X395815D01*
X407755Y414293D02*
X407874Y414173D01*
X407558Y416266D02*
X407677Y416386D01*
X407558Y416111D02*
X407677Y415992D01*
X407755Y414448D02*
X407874Y414567D01*
X396131Y412235D02*
X405088D01*
X405875Y413022D02*
Y413505D01*
X406818Y414448D02*
X407755D01*
X395472Y411764D02*
X395815D01*
X396131Y412080D02*
X405088D01*
X406030Y413022D02*
Y413505D01*
X406818Y414293D02*
X407755D01*
X417209Y417278D02*
X417551D01*
X417209Y418065D02*
X417551D01*
X411779Y417749D02*
X416892D01*
X411659Y417868D02*
X411779Y417749D01*
X411779Y417594D02*
X416892D01*
X411659Y417474D02*
X411779Y417594D01*
D158*
X414907Y419579D02*
D03*
X415407Y420579D02*
D03*
Y420079D02*
D03*
X414907Y420579D02*
D03*
Y420079D02*
D03*
X415407Y419579D02*
D03*
D159*
X409764Y399390D02*
X411890Y397264D01*
D160*
X416683Y397687D02*
Y398179D01*
Y397687D02*
X416850Y397520D01*
Y397157D02*
Y397520D01*
X417963Y397687D02*
Y398179D01*
X417795Y397520D02*
X417963Y397687D01*
X417795Y397157D02*
Y397520D01*
D161*
X409705Y399311D02*
D03*
D162*
X411245Y411900D02*
D03*
D163*
X412510Y397835D02*
D03*
D164*
X413189Y403346D02*
D03*
D165*
X410433Y414783D02*
D03*
D166*
X416511Y398179D02*
D03*
X418135D02*
D03*
M02*
