%FSLAX24Y24*%
%MOIN*%
G70*
G01*
G75*
%ADD10C,0.0090*%
%ADD11R,0.1142X0.0157*%
%ADD12R,0.0650X0.1024*%
%ADD13R,0.0079X0.0236*%
%ADD14R,0.0354X0.0118*%
%ADD15R,0.0118X0.0354*%
%ADD16R,0.0118X0.0118*%
%ADD17R,0.0709X0.0709*%
%ADD18R,0.0197X0.0138*%
%ADD19R,0.1260X0.0701*%
%ADD20R,0.1063X0.0472*%
%ADD21R,0.0630X0.0709*%
%ADD22R,0.0709X0.0630*%
%ADD23R,0.0512X0.0591*%
%ADD24R,0.0591X0.0512*%
%ADD25R,0.0394X0.0433*%
%ADD26R,0.0315X0.0551*%
%ADD27R,0.0591X0.0276*%
%ADD28R,0.0276X0.0591*%
%ADD29R,0.0591X0.0394*%
%ADD30R,0.0630X0.0630*%
%ADD31R,0.0315X0.0630*%
%ADD32R,0.0630X0.0315*%
%ADD33C,0.0056*%
%ADD34R,0.0276X0.0118*%
%ADD35R,0.0118X0.0276*%
%ADD36R,0.0276X0.0098*%
%ADD37R,0.0315X0.0098*%
%ADD38R,0.0248X0.0177*%
%ADD39R,0.0748X0.0945*%
%ADD40R,0.0413X0.0236*%
%ADD41R,0.0384X0.0079*%
%ADD42C,0.0079*%
%ADD43R,0.0384X0.0236*%
%ADD44R,0.0039X0.0157*%
%ADD45R,0.0098X0.0581*%
%ADD46O,0.0098X0.0079*%
%ADD47C,0.0011*%
%ADD48R,0.0236X0.0192*%
%ADD49R,0.0074X0.0064*%
%ADD50C,0.0010*%
%ADD51R,0.0035X0.0044*%
%ADD52R,0.0079X0.0202*%
%ADD53R,0.0226X0.0079*%
%ADD54R,0.0044X0.0035*%
%ADD55R,0.0202X0.0079*%
%ADD56R,0.0079X0.0226*%
%ADD57R,0.0192X0.0236*%
%ADD58O,0.0079X0.0098*%
%ADD59R,0.0384X0.0098*%
%ADD60R,0.0064X0.0074*%
%ADD61R,0.0482X0.0079*%
%ADD62R,0.0315X0.0079*%
%ADD63R,0.0079X0.0315*%
%ADD64R,0.0236X0.0217*%
%ADD65R,0.0098X0.0039*%
%ADD66R,0.0354X0.0315*%
%ADD67R,0.0551X0.0315*%
%ADD68R,0.0551X0.0453*%
%ADD69R,0.0236X0.0413*%
%ADD70C,0.0394*%
%ADD71R,0.2016X0.2087*%
%ADD72R,0.0236X0.0276*%
%ADD73R,0.0276X0.0236*%
%ADD74R,0.0433X0.0394*%
%ADD75R,0.0236X0.0472*%
%ADD76R,0.0157X0.0098*%
%ADD77R,0.0079X0.0197*%
%ADD78R,0.0197X0.0079*%
%ADD79R,0.0098X0.0315*%
%ADD80R,0.1457X0.1457*%
%ADD81R,0.1311X0.2756*%
%ADD82R,0.0118X0.0472*%
%ADD83C,0.0100*%
%ADD84C,0.0150*%
%ADD85C,0.0140*%
%ADD86C,0.0170*%
%ADD87C,0.0120*%
%ADD88C,0.0079*%
%ADD89C,0.0110*%
%ADD90C,0.0630*%
%ADD91C,0.0098*%
%ADD92C,0.0070*%
%ADD93C,0.0512*%
%ADD94C,0.0230*%
%ADD95C,0.0236*%
%ADD96C,0.0060*%
%ADD97C,0.0010*%
%ADD98C,0.0118*%
%ADD99R,0.0394X0.1083*%
%ADD100R,0.1033X0.0640*%
%ADD101R,0.1102X0.1102*%
%ADD102R,0.1063X0.0354*%
%ADD103R,0.0748X0.0709*%
%ADD104R,0.0630X0.1339*%
%ADD105R,0.0630X0.1358*%
%ADD106R,0.1654X0.0709*%
%ADD107R,0.0866X0.1614*%
%ADD108R,0.0453X0.0906*%
%ADD109R,0.1594X0.0610*%
%ADD110R,0.0512X0.1516*%
%ADD111R,0.2736X0.0433*%
%ADD112R,0.0787X0.0748*%
%ADD113R,0.2264X0.0689*%
%ADD114R,0.0689X0.0906*%
%ADD115R,0.0236X0.0610*%
%ADD116R,0.0177X0.0315*%
%ADD117R,0.1161X0.0787*%
%ADD118R,0.0689X0.0098*%
%ADD119R,0.0394X0.0571*%
%ADD120R,0.0728X0.0098*%
%ADD121R,0.0768X0.0335*%
%ADD122R,0.0217X0.0689*%
%ADD123R,0.0866X0.0689*%
%ADD124R,0.1319X0.0827*%
%ADD125R,0.0591X0.0276*%
%ADD126R,0.0630X0.1299*%
%ADD127R,0.0531X0.0354*%
%ADD128R,0.0177X0.0748*%
%ADD129R,0.0492X0.0236*%
%ADD130R,0.0335X0.1063*%
%ADD131R,0.0886X0.0610*%
%ADD132R,0.0512X0.0768*%
%ADD133R,0.0807X0.0551*%
%ADD134R,0.1457X0.0492*%
%ADD135R,0.0817X0.1181*%
%ADD136R,0.1801X0.0945*%
%ADD137R,0.0707X0.0295*%
%ADD138R,0.1772X0.0640*%
%ADD139C,0.0787*%
%ADD140C,0.2362*%
%ADD141C,0.0748*%
%ADD142C,0.0591*%
%ADD143C,0.0984*%
%ADD144C,0.2913*%
%ADD145C,0.0433*%
%ADD146C,0.0630*%
%ADD147C,0.0551*%
%ADD148C,0.0256*%
%ADD149C,0.0260*%
%ADD150C,0.0230*%
%ADD151C,0.0500*%
%ADD152C,0.0550*%
%ADD153C,0.0250*%
%ADD154C,0.0180*%
%ADD155C,0.0400*%
%ADD156C,0.0450*%
%ADD157C,0.0095*%
%ADD158C,0.0310*%
%ADD159C,0.0200*%
%ADD160C,0.0197*%
%ADD161R,0.0276X0.0512*%
%ADD162R,0.0738X0.0315*%
%ADD163R,0.0571X0.0315*%
%ADD164R,0.0276X0.0512*%
%ADD165R,0.1969X0.1929*%
%ADD166R,0.0640X0.0394*%
%ADD167R,0.0138X0.0315*%
%ADD168R,0.0787X0.1969*%
%ADD169R,0.1969X0.0787*%
D10*
X420276Y397441D02*
X422047Y397441D01*
X420276Y396260D02*
X422047Y396260D01*
X419095Y413976D02*
X420866D01*
X400394Y393701D02*
Y394685D01*
X399213Y393701D02*
Y394685D01*
X398425Y393701D02*
X399213D01*
X404134Y433661D02*
Y434646D01*
X405315Y433661D02*
Y434646D01*
D83*
X420276Y397441D02*
X420178Y397433D01*
X420084Y397409D01*
X419995Y397370D01*
X419913Y397316D01*
X419841Y397250D01*
X419781Y397173D01*
X419735Y397088D01*
X419703Y396995D01*
X419687Y396899D01*
Y396802D01*
X419703Y396705D01*
X419735Y396613D01*
X419781Y396527D01*
X419841Y396450D01*
X419913Y396384D01*
X419995Y396331D01*
X420084Y396292D01*
X420178Y396268D01*
X420276Y396260D01*
X422047Y412795D02*
X422043Y412893D01*
X422031Y412990D01*
X422011Y413085D01*
X421983Y413179D01*
X421948Y413270D01*
X421905Y413357D01*
X421855Y413441D01*
X421798Y413521D01*
X421735Y413595D01*
X421666Y413664D01*
X421592Y413727D01*
X421512Y413784D01*
X421428Y413834D01*
X421341Y413877D01*
X421250Y413912D01*
X421156Y413940D01*
X421061Y413960D01*
X420964Y413972D01*
X420866Y413976D01*
X397244Y394882D02*
X397248Y394784D01*
X397260Y394688D01*
X397280Y394592D01*
X397308Y394498D01*
X397344Y394407D01*
X397386Y394320D01*
X397436Y394236D01*
X397493Y394156D01*
X397556Y394082D01*
X397625Y394013D01*
X397700Y393950D01*
X397779Y393893D01*
X397863Y393843D01*
X397951Y393800D01*
X398042Y393765D01*
X398135Y393737D01*
X398231Y393717D01*
X398328Y393705D01*
X398425Y393701D01*
Y434646D02*
X398328Y434642D01*
X398231Y434630D01*
X398135Y434610D01*
X398042Y434582D01*
X397951Y434546D01*
X397863Y434503D01*
X397779Y434453D01*
X397700Y434397D01*
X397625Y434334D01*
X397556Y434264D01*
X397493Y434190D01*
X397436Y434111D01*
X397386Y434027D01*
X397344Y433939D01*
X397308Y433848D01*
X397280Y433755D01*
X397260Y433659D01*
X397248Y433562D01*
X397244Y433465D01*
X396654Y422244D02*
X396756Y422253D01*
X396856Y422280D01*
X396949Y422323D01*
X397033Y422382D01*
X397106Y422455D01*
X397165Y422539D01*
X397208Y422633D01*
X397235Y422732D01*
X397244Y422835D01*
Y405512D02*
X397235Y405614D01*
X397208Y405714D01*
X397165Y405807D01*
X397106Y405891D01*
X397033Y405964D01*
X396949Y406023D01*
X396856Y406067D01*
X396756Y406093D01*
X396654Y406102D01*
X419685Y393701D02*
X419785Y393703D01*
X419885Y393709D01*
X419985Y393720D01*
X420084Y393735D01*
X420183Y393754D01*
X420280Y393777D01*
X420377Y393804D01*
X420472Y393836D01*
X420566Y393871D01*
X420658Y393910D01*
X420749Y393954D01*
X420837Y394001D01*
X420924Y394052D01*
X421008Y394106D01*
X421090Y394164D01*
X421169Y394225D01*
X421246Y394290D01*
X421320Y394358D01*
X421390Y394428D01*
X421458Y394502D01*
X421523Y394579D01*
X421584Y394658D01*
X421642Y394740D01*
X421697Y394824D01*
X421747Y394911D01*
X421794Y395000D01*
X421838Y395090D01*
X421877Y395182D01*
X421912Y395276D01*
X421944Y395371D01*
X421971Y395468D01*
X421994Y395565D01*
X422013Y395664D01*
X422028Y395763D01*
X422039Y395863D01*
X422045Y395963D01*
X422047Y396063D01*
X418504Y433465D02*
X418500Y433562D01*
X418488Y433659D01*
X418468Y433755D01*
X418440Y433848D01*
X418404Y433939D01*
X418362Y434027D01*
X418312Y434111D01*
X418255Y434190D01*
X418192Y434264D01*
X418123Y434334D01*
X418048Y434397D01*
X417969Y434453D01*
X417885Y434503D01*
X417797Y434546D01*
X417706Y434582D01*
X417613Y434610D01*
X417517Y434630D01*
X417420Y434642D01*
X417323Y434646D01*
X418504Y414567D02*
X418513Y414464D01*
X418540Y414365D01*
X418583Y414272D01*
X418642Y414187D01*
X418715Y414115D01*
X418799Y414055D01*
X418893Y414012D01*
X418992Y413985D01*
X419095Y413976D01*
X400394Y394685D02*
X400386Y394782D01*
X400362Y394877D01*
X400323Y394966D01*
X400269Y395048D01*
X400203Y395120D01*
X400126Y395179D01*
X400040Y395226D01*
X399948Y395258D01*
X399852Y395274D01*
X399754D01*
X399658Y395258D01*
X399566Y395226D01*
X399480Y395179D01*
X399403Y395120D01*
X399337Y395048D01*
X399284Y394966D01*
X399245Y394877D01*
X399221Y394782D01*
X399213Y394685D01*
X404134Y433661D02*
X404142Y433564D01*
X404166Y433470D01*
X404205Y433380D01*
X404258Y433299D01*
X404324Y433227D01*
X404401Y433167D01*
X404487Y433121D01*
X404579Y433089D01*
X404676Y433073D01*
X404773D01*
X404869Y433089D01*
X404962Y433121D01*
X405047Y433167D01*
X405124Y433227D01*
X405190Y433299D01*
X405244Y433380D01*
X405283Y433470D01*
X405307Y433564D01*
X405315Y433661D01*
X422047Y396063D02*
Y396260D01*
X418504Y414567D02*
Y433465D01*
X393701Y422244D02*
X393701Y406102D01*
X405315Y434646D02*
X417323Y434646D01*
X397244Y422835D02*
Y433465D01*
X393701Y422244D02*
X396654D01*
X400394Y393701D02*
X419685Y393701D01*
X397244Y394882D02*
Y405512D01*
X393701Y406102D02*
X396654D01*
X422047Y397441D02*
Y412795D01*
X398425Y434646D02*
X404134D01*
D96*
X417079Y417252D02*
X417089Y417154D01*
X417120Y417060D01*
X417169Y416974D01*
X417235Y416901D01*
X417315Y416843D01*
X417405Y416803D01*
X417502Y416782D01*
X417601D01*
X417697Y416803D01*
X417787Y416843D01*
X417867Y416901D01*
X417933Y416974D01*
X417983Y417060D01*
X418013Y417154D01*
X418024Y417252D01*
Y418091D02*
X418013Y418189D01*
X417983Y418283D01*
X417933Y418368D01*
X417867Y418442D01*
X417787Y418500D01*
X417697Y418540D01*
X417601Y418560D01*
X417502D01*
X417405Y418540D01*
X417315Y418500D01*
X417235Y418442D01*
X417169Y418368D01*
X417120Y418283D01*
X417089Y418189D01*
X417079Y418091D01*
X417831Y420161D02*
X417820Y420260D01*
X417790Y420354D01*
X417740Y420439D01*
X417674Y420513D01*
X417594Y420571D01*
X417504Y420611D01*
X417408Y420631D01*
X417309D01*
X417212Y420611D01*
X417122Y420571D01*
X417042Y420513D01*
X416976Y420439D01*
X416927Y420354D01*
X416896Y420260D01*
X416886Y420161D01*
X416896Y420063D01*
X416927Y419969D01*
X416976Y419884D01*
X417042Y419810D01*
X417122Y419752D01*
X417212Y419712D01*
X417309Y419692D01*
X417408D01*
X417504Y419712D01*
X417594Y419752D01*
X417674Y419810D01*
X417740Y419884D01*
X417790Y419969D01*
X417820Y420063D01*
X417831Y420161D01*
X409846Y423673D02*
X409836Y423771D01*
X409806Y423865D01*
X409756Y423951D01*
X409690Y424024D01*
X409610Y424082D01*
X409520Y424123D01*
X409423Y424143D01*
X409325D01*
X409228Y424123D01*
X409138Y424082D01*
X409058Y424024D01*
X408992Y423951D01*
X408942Y423865D01*
X408912Y423771D01*
X408902Y423673D01*
X408912Y423575D01*
X408942Y423481D01*
X408992Y423396D01*
X409058Y423322D01*
X409138Y423264D01*
X409228Y423224D01*
X409325Y423203D01*
X409423D01*
X409520Y423224D01*
X409610Y423264D01*
X409690Y423322D01*
X409756Y423396D01*
X409806Y423481D01*
X409836Y423575D01*
X409846Y423673D01*
X406496Y402756D02*
X406500Y402658D01*
X406510Y402560D01*
X406528Y402463D01*
X406552Y402368D01*
X406583Y402274D01*
X406621Y402183D01*
X406665Y402096D01*
X406715Y402011D01*
X406771Y401930D01*
X406833Y401854D01*
X406900Y401782D01*
X406972Y401715D01*
X407048Y401653D01*
X407129Y401597D01*
X407214Y401547D01*
X407302Y401502D01*
X407392Y401465D01*
X407486Y401434D01*
X407581Y401409D01*
X407678Y401392D01*
X407776Y401381D01*
X407874Y401378D01*
X407874Y426968D02*
X407776Y426965D01*
X407678Y426954D01*
X407581Y426937D01*
X407486Y426913D01*
X407392Y426882D01*
X407302Y426844D01*
X407214Y426800D01*
X407129Y426750D01*
X407048Y426694D01*
X406972Y426632D01*
X406900Y426565D01*
X406833Y426493D01*
X406771Y426416D01*
X406715Y426336D01*
X406665Y426251D01*
X406621Y426163D01*
X406583Y426072D01*
X406552Y425979D01*
X406528Y425883D01*
X406510Y425787D01*
X406500Y425689D01*
X406496Y425591D01*
X418307D02*
X418304Y425689D01*
X418293Y425787D01*
X418276Y425883D01*
X418251Y425979D01*
X418220Y426072D01*
X418183Y426163D01*
X418139Y426251D01*
X418088Y426336D01*
X418032Y426416D01*
X417971Y426493D01*
X417903Y426565D01*
X417831Y426632D01*
X417755Y426694D01*
X417674Y426750D01*
X417589Y426800D01*
X417502Y426844D01*
X417411Y426882D01*
X417317Y426913D01*
X417222Y426937D01*
X417125Y426954D01*
X417027Y426965D01*
X416929Y426968D01*
Y401378D02*
X417027Y401381D01*
X417125Y401392D01*
X417222Y401409D01*
X417317Y401434D01*
X417411Y401465D01*
X417502Y401502D01*
X417589Y401547D01*
X417674Y401597D01*
X417755Y401653D01*
X417831Y401715D01*
X417903Y401782D01*
X417971Y401854D01*
X418032Y401930D01*
X418088Y402011D01*
X418139Y402096D01*
X418183Y402183D01*
X418220Y402274D01*
X418251Y402368D01*
X418276Y402463D01*
X418293Y402560D01*
X418304Y402658D01*
X418307Y402756D01*
X413071Y423602D02*
X413150Y423681D01*
X420136Y399221D02*
X420087Y399306D01*
X419989D01*
X419940Y399221D01*
X419989Y399136D01*
X420087D01*
X420136Y399221D01*
X400433Y429134D02*
X400354D01*
X400433D01*
X412283Y397766D02*
X412205D01*
X412283D01*
X420689Y404341D02*
X420644Y404433D01*
X420545Y404456D01*
X420464Y404392D01*
Y404289D01*
X420545Y404225D01*
X420644Y404248D01*
X420689Y404341D01*
X413071Y403661D02*
X412992D01*
X413071D01*
X421063Y410709D02*
X421009Y410784D01*
X420921Y410755D01*
Y410662D01*
X421009Y410634D01*
X421063Y410709D01*
X409488Y415837D02*
X409434Y415911D01*
X409346Y415883D01*
Y415790D01*
X409434Y415762D01*
X409488Y415837D01*
X418024Y417252D02*
Y418091D01*
X417079Y417252D02*
Y418091D01*
X406496Y402756D02*
Y404134D01*
X407874Y401378D02*
X409252D01*
X407874Y426968D02*
X409252D01*
X406496Y424213D02*
Y425591D01*
X415551Y426968D02*
X416929D01*
X418307Y424213D02*
Y425591D01*
X415551Y401378D02*
X416929D01*
X418307Y402756D02*
Y404134D01*
X406815Y404114D02*
Y410232D01*
X408933Y404114D02*
Y410232D01*
X406815Y404114D02*
X408933D01*
X406815Y410232D02*
X408933D01*
X408032Y398819D02*
Y399085D01*
Y397953D02*
Y398504D01*
Y397372D02*
Y397638D01*
X406929Y398819D02*
Y399085D01*
Y397953D02*
Y398504D01*
Y397372D02*
Y397638D01*
X411831Y423543D02*
X412067D01*
X411831D02*
Y423780D01*
Y424685D02*
Y424921D01*
X412067D01*
X412972D02*
X413209D01*
Y424685D02*
Y424921D01*
Y423543D02*
Y423780D01*
X412972Y423543D02*
X413209D01*
X419546Y399024D02*
X420530D01*
X419546Y400205D02*
X420530D01*
Y399024D02*
Y400205D01*
X419546Y399024D02*
Y400205D01*
X411240Y402362D02*
Y403543D01*
X412579Y402362D02*
Y403543D01*
X410000Y400148D02*
Y400541D01*
X411063Y400148D02*
Y400541D01*
X410866Y410285D02*
Y410679D01*
X409803Y410285D02*
Y410679D01*
X413874Y404665D02*
X414197D01*
X413874Y403996D02*
X414197D01*
X410669Y397978D02*
Y398301D01*
X410000Y397978D02*
Y398301D01*
X411665Y411150D02*
X411760D01*
X411665Y411685D02*
X411760D01*
X410854Y398132D02*
Y398226D01*
X411390Y398132D02*
Y398226D01*
X412059Y399530D02*
X412154D01*
X412059Y398994D02*
X412154D01*
X412059Y399811D02*
X412154D01*
X412059Y400346D02*
X412154D01*
X413476Y399289D02*
X413571D01*
X413476Y399825D02*
X413571D01*
X407728Y400028D02*
X407823D01*
X407728Y400563D02*
X407823D01*
X410020Y394921D02*
X410020Y394843D01*
X409665Y394921D02*
X410020D01*
X409665D02*
X409665Y394843D01*
X412028Y394921D02*
X412028Y394843D01*
X412028Y394921D02*
X412382D01*
X412382Y394843D01*
X406909Y430945D02*
X406909Y430866D01*
X407264D01*
X407264Y430945D02*
X407264Y430866D01*
X409626Y430945D02*
X409626Y430866D01*
X409272D02*
X409626D01*
X409272Y430945D02*
X409272Y430866D01*
X411634Y430945D02*
X411634Y430866D01*
X411988D01*
X411988Y430945D02*
X411988Y430866D01*
X413425Y434646D02*
X417283D01*
X416378Y429095D02*
X417283D01*
Y429213D01*
Y434528D02*
Y434646D01*
X413425Y429095D02*
X414331D01*
X413425D02*
Y429213D01*
Y434528D02*
Y434646D01*
X397894Y431260D02*
Y433307D01*
X398583Y430571D02*
X400630D01*
X401319Y431260D02*
Y433307D01*
X398583Y433996D02*
X400630D01*
X398110Y432283D02*
X398504Y432677D01*
X398110Y432283D02*
X398504Y431890D01*
Y432677D01*
X400551Y431181D02*
Y431496D01*
X400394Y431339D02*
X400709D01*
X409813Y405728D02*
X410463D01*
X410463Y405728D02*
Y405819D01*
X409813Y405728D02*
Y405819D01*
X409813Y406673D02*
X410463D01*
X410463Y406583D02*
Y406673D01*
X409813Y406583D02*
Y406673D01*
X410038Y405728D02*
Y406673D01*
X400059Y428602D02*
X400728D01*
X400059Y429272D02*
X400728D01*
X399114Y430000D02*
Y430118D01*
X397736Y430000D02*
Y430118D01*
X397736Y430118D02*
X399114D01*
Y428740D02*
Y428858D01*
X397736Y428740D02*
Y428858D01*
X397736Y428740D02*
X399114D01*
X397736Y427067D02*
X399114D01*
X397736Y427067D02*
Y427185D01*
X399114Y427067D02*
Y427185D01*
X397736Y428445D02*
X399114D01*
X397736Y428327D02*
Y428445D01*
X399114Y428327D02*
Y428445D01*
X411575Y409695D02*
X412244D01*
X411575Y410876D02*
X412244D01*
X411575Y410120D02*
Y410451D01*
X411772Y398711D02*
X411929D01*
X411772Y398553D02*
Y398711D01*
X413032Y398553D02*
Y398711D01*
X412874D02*
X413032D01*
X412874Y397451D02*
X413032D01*
Y397608D01*
X411772Y397451D02*
Y397608D01*
Y397451D02*
X411929D01*
X404665Y430839D02*
Y431169D01*
X403996Y430413D02*
X404665D01*
X403996Y431595D02*
X404665D01*
X412323Y406694D02*
X413268D01*
X413177Y406919D02*
X413268D01*
X413177Y406270D02*
X413268D01*
X413268Y406270D02*
Y406919D01*
X412323Y406919D02*
X412413D01*
X412323Y406270D02*
X412413D01*
X412323Y406270D02*
Y406919D01*
X410108Y424685D02*
X410758D01*
X410108Y424594D02*
Y424685D01*
X410758Y424594D02*
Y424685D01*
X410108Y423740D02*
X410758D01*
X410108Y423740D02*
Y423831D01*
X410758Y423740D02*
Y423831D01*
X410533Y423740D02*
Y424685D01*
X403504Y433128D02*
Y433407D01*
X402795Y433522D02*
Y433937D01*
Y432598D02*
Y433013D01*
Y433937D02*
X403504D01*
X402795Y432598D02*
X403504D01*
X418661Y405207D02*
X419323D01*
X418661Y404947D02*
Y405207D01*
Y403159D02*
X419323D01*
X418661D02*
Y403419D01*
Y403947D02*
Y404419D01*
X420835Y405207D02*
X421496D01*
Y404947D02*
Y405207D01*
X420835Y403159D02*
X421496D01*
X421496Y403159D02*
Y403419D01*
X421496Y403947D02*
Y404419D01*
X394055Y406102D02*
X396890D01*
X394055D02*
Y410197D01*
X394055Y411181D02*
Y412953D01*
X394921Y413740D02*
X396024D01*
X396890Y406102D02*
Y410197D01*
Y411181D02*
Y412953D01*
X394055Y415394D02*
Y417165D01*
Y418150D02*
Y422244D01*
X394921Y414606D02*
X396024D01*
X396890Y415394D02*
Y417165D01*
X396890Y418150D02*
Y422244D01*
X394055D02*
X396890D01*
X408740Y418435D02*
Y418474D01*
X409370Y419006D02*
X409528D01*
X409370Y417904D02*
X409528D01*
X410157Y418435D02*
Y418474D01*
X416222Y405866D02*
X416553D01*
X415797D02*
Y406535D01*
X416978Y405866D02*
Y406535D01*
X401791Y411457D02*
X401791Y411378D01*
X402146Y411457D02*
X402146Y411378D01*
X397736Y396161D02*
Y426673D01*
X397736Y396161D02*
X400807D01*
X397736Y426673D02*
X400807D01*
X406201Y396161D02*
Y426673D01*
X403130Y396161D02*
X406201D01*
X403130Y426673D02*
X406201D01*
X411909Y400581D02*
Y400817D01*
X412155Y416073D02*
Y416309D01*
X412303Y413809D02*
Y414045D01*
X413091Y414695D02*
Y414931D01*
Y415089D02*
Y415325D01*
X408642Y416093D02*
X408878D01*
X408740Y414321D02*
X408976D01*
X411811Y416516D02*
Y416752D01*
X410925Y413120D02*
Y413356D01*
X408760Y413514D02*
Y413750D01*
X412087Y414518D02*
X412323D01*
X409744Y416467D02*
Y416703D01*
Y416860D02*
Y417096D01*
X410138Y413120D02*
Y413356D01*
Y412726D02*
Y412963D01*
X409744Y417451D02*
Y417687D01*
X413169Y415797D02*
X413405D01*
X408642Y416880D02*
X408878D01*
X410532Y417451D02*
Y417687D01*
X408957Y417451D02*
Y417687D01*
X412776Y415797D02*
X413012D01*
X413661Y397835D02*
X413898D01*
X410236Y399193D02*
Y399429D01*
X413583Y398750D02*
Y398986D01*
X413878Y398356D02*
Y398593D01*
X409429Y421496D02*
X409429Y421417D01*
X409075Y421496D02*
X409075Y421417D01*
X415413Y422323D02*
X415492Y422323D01*
X415413Y421968D02*
X415492Y421968D01*
X414154Y421890D02*
X414154Y421811D01*
X413799Y421890D02*
X413799Y421811D01*
X416890Y423799D02*
X416968Y423799D01*
X416890Y423445D02*
X416968Y423445D01*
X418583Y406191D02*
X418583Y406112D01*
X418228Y406191D02*
X418228Y406112D01*
X412618Y421890D02*
X412618Y421811D01*
X412972Y421890D02*
X412972Y421811D01*
X413563Y421890D02*
X413563Y421811D01*
X413209Y421890D02*
X413209Y421811D01*
X413494Y424016D02*
X413494Y423937D01*
X413848Y424016D02*
X413848Y423937D01*
X414439Y424016D02*
X414439Y423937D01*
X414085Y424016D02*
X414085Y423937D01*
X419951Y395315D02*
X419951Y395236D01*
X420305Y395315D02*
X420305Y395236D01*
X413701Y406634D02*
X413701Y406555D01*
X414055Y406634D02*
X414055Y406555D01*
X408287Y397874D02*
X408287Y397795D01*
X408642Y397874D02*
X408642Y397795D01*
X408327Y423209D02*
X408405Y423209D01*
X408327Y422854D02*
X408405Y422854D01*
X414390Y406634D02*
X414390Y406555D01*
X414744Y406634D02*
X414744Y406555D01*
X414548Y402657D02*
X414627Y402657D01*
X414548Y402303D02*
X414627Y402303D01*
X414548Y403248D02*
X414627Y403248D01*
X414548Y402894D02*
X414627Y402894D01*
X420896Y395315D02*
X420896Y395236D01*
X420541Y395315D02*
X420541Y395236D01*
X416348Y405197D02*
X416427Y405197D01*
X416348Y404843D02*
X416427Y404843D01*
X416348Y407205D02*
X416427Y407205D01*
X416348Y407559D02*
X416427Y407559D01*
X413465Y401614D02*
X413544Y401614D01*
X413465Y401968D02*
X413544Y401968D01*
X405689Y431043D02*
X405689Y430965D01*
X405335Y431043D02*
X405335Y430965D01*
X402815Y431575D02*
X402894Y431575D01*
X402815Y431220D02*
X402894Y431220D01*
X407441Y396929D02*
X407520Y396929D01*
X407441Y396575D02*
X407520Y396575D01*
X413396Y409715D02*
X413474Y409715D01*
X413396Y410069D02*
X413474Y410069D01*
X409951Y396329D02*
X410030Y396329D01*
X409951Y396683D02*
X410030Y396683D01*
X406949Y399685D02*
X407028Y399685D01*
X406949Y399331D02*
X407028Y399331D01*
X414350Y394921D02*
X414350Y394843D01*
X413996Y394921D02*
X413996Y394843D01*
X400453Y429803D02*
X400532Y429803D01*
X400453Y429449D02*
X400532Y429449D01*
X402126Y429350D02*
X402205Y429350D01*
X402126Y429705D02*
X402205Y429705D01*
X402126Y428760D02*
X402205Y428760D01*
X402126Y429114D02*
X402205Y429114D01*
X408543Y421496D02*
X408543Y421417D01*
X408189Y421496D02*
X408189Y421417D01*
X412165Y407707D02*
X412244Y407707D01*
X412165Y407352D02*
X412244Y407352D01*
X413543Y407352D02*
X413622Y407352D01*
X413543Y407707D02*
X413622Y407707D01*
X411594Y396742D02*
X411595Y396663D01*
X411240Y396742D02*
X411240Y396663D01*
X410098Y407264D02*
X410177Y407264D01*
X410098Y406909D02*
X410177Y406909D01*
X410098Y405138D02*
X410177Y405138D01*
X410098Y405492D02*
X410177Y405492D01*
X420600Y401811D02*
X420600Y401732D01*
X420246Y401811D02*
X420246Y401732D01*
X419114Y401811D02*
X419114Y401732D01*
X419468Y401811D02*
X419468Y401732D01*
X410295Y425768D02*
X410374Y425768D01*
X410295Y425413D02*
X410374Y425413D01*
X420630Y398396D02*
X420709Y398396D01*
X420630Y398750D02*
X420709Y398750D01*
X420837Y400384D02*
X420837Y400305D01*
X421191Y400384D02*
X421191Y400305D01*
X407264Y428583D02*
X407264Y428504D01*
X406909Y428583D02*
X406909Y428504D01*
X409272Y428583D02*
X409272Y428504D01*
X409626Y428583D02*
X409626Y428504D01*
X411988Y428583D02*
X411988Y428504D01*
X411634Y428583D02*
X411634Y428504D01*
X401949Y432323D02*
X401949Y432244D01*
X401595Y432323D02*
X401595Y432244D01*
X403209Y431959D02*
X403287Y431959D01*
X403209Y432313D02*
X403287Y432313D01*
X417530Y428465D02*
X417608Y428465D01*
X417530Y428819D02*
X417608Y428819D01*
X414744Y427697D02*
X414744Y427618D01*
X414390Y427697D02*
X414390Y427618D01*
X413701Y427697D02*
X413701Y427618D01*
X414055Y427697D02*
X414055Y427618D01*
X421289Y412589D02*
X421289Y412510D01*
X420935Y412589D02*
X420935Y412510D01*
X419715Y411112D02*
X419715Y411033D01*
X419360Y411112D02*
X419360Y411033D01*
X420650Y412589D02*
X420650Y412510D01*
X420295Y412589D02*
X420295Y412510D01*
X402175Y430886D02*
X402254Y430886D01*
X402175Y430532D02*
X402254Y430532D01*
X412756Y402913D02*
X413622D01*
X412756Y403780D02*
X413622D01*
X404724Y393346D02*
Y393583D01*
Y392874D02*
Y393110D01*
Y392402D02*
Y392638D01*
X405315Y392559D02*
Y393701D01*
X406299Y392559D02*
Y393701D01*
X405965Y392362D02*
X406299Y392559D01*
X405315D02*
X405650Y392362D01*
X405315Y392559D02*
X406299D01*
X405650Y392362D02*
X405965D01*
X403602Y393701D02*
X407421D01*
X403819Y395512D02*
X407421Y395512D01*
X403602Y393701D02*
Y394724D01*
X407421Y394843D02*
Y395512D01*
Y394055D02*
X407421Y393701D01*
X403602Y394095D02*
X407087D01*
X420020Y410374D02*
Y410520D01*
Y410374D02*
X420165D01*
X421319D02*
Y410520D01*
X421173Y410374D02*
X421319D01*
X420020Y411528D02*
Y411673D01*
X420165D01*
X421319Y411528D02*
Y411673D01*
X421173D02*
X421319D01*
X411654Y415758D02*
Y416033D01*
X411378D02*
X411654D01*
X411378Y413593D02*
X411654D01*
Y413868D01*
X409213Y413593D02*
Y413868D01*
Y413593D02*
X409488D01*
X409213Y416033D02*
X409488D01*
X409213Y415758D02*
Y416033D01*
X420512Y405728D02*
Y408642D01*
X418807Y405728D02*
Y408642D01*
Y405728D02*
X420512D01*
X418807Y408642D02*
X420512D01*
X415543Y397650D02*
X416110D01*
X418535D02*
X419102D01*
X415543Y393110D02*
X419102D01*
X415543Y397098D02*
Y397650D01*
X415543Y393110D02*
X415543Y394449D01*
Y395236D02*
Y396311D01*
X419102Y397098D02*
Y397650D01*
Y394449D02*
X419102Y393110D01*
X419102Y395236D02*
Y396311D01*
X403188Y430737D02*
X403254Y430804D01*
Y430937D01*
X403188Y431004D01*
X402921D01*
X402854Y430937D01*
Y430804D01*
X402921Y430737D01*
X402854Y430404D02*
X403254D01*
X403054Y430604D01*
Y430337D01*
X402854Y430004D02*
X403254D01*
X403054Y430204D01*
Y429938D01*
X413091Y412691D02*
X412957D01*
X413024D01*
Y413091D01*
X413091D01*
X412957D01*
X412491Y412757D02*
X412557Y412691D01*
X412691D01*
X412757Y412757D01*
Y413024D01*
X412691Y413091D01*
X412557D01*
X412491Y413024D01*
X412357Y413091D02*
X412224D01*
X412291D01*
Y412691D01*
X412357Y412757D01*
X412024Y413091D02*
X411891D01*
X411958D01*
Y412691D01*
X412024Y412757D01*
X419204Y412324D02*
X419138Y412257D01*
Y412124D01*
X419204Y412057D01*
X419471D01*
X419537Y412124D01*
Y412257D01*
X419471Y412324D01*
X419537Y412724D02*
Y412457D01*
X419271Y412724D01*
X419204D01*
X419138Y412657D01*
Y412524D01*
X419204Y412457D01*
Y412857D02*
X419138Y412923D01*
Y413057D01*
X419204Y413123D01*
X419271D01*
X419337Y413057D01*
X419404Y413123D01*
X419471D01*
X419537Y413057D01*
Y412923D01*
X419471Y412857D01*
X419404D01*
X419337Y412923D01*
X419271Y412857D01*
X419204D01*
X419337Y412923D02*
Y413057D01*
X418860Y410896D02*
X418793Y410830D01*
Y410697D01*
X418860Y410630D01*
X419126D01*
X419193Y410697D01*
Y410830D01*
X419126Y410896D01*
X419193Y411296D02*
Y411030D01*
X418926Y411296D01*
X418860D01*
X418793Y411230D01*
Y411096D01*
X418860Y411030D01*
X418793Y411430D02*
Y411696D01*
X418860D01*
X419126Y411430D01*
X419193D01*
X419746Y412324D02*
X419679Y412257D01*
Y412124D01*
X419746Y412057D01*
X420012D01*
X420079Y412124D01*
Y412257D01*
X420012Y412324D01*
X420079Y412724D02*
Y412457D01*
X419812Y412724D01*
X419746D01*
X419679Y412657D01*
Y412524D01*
X419746Y412457D01*
X419679Y413123D02*
X419746Y412990D01*
X419879Y412857D01*
X420012D01*
X420079Y412923D01*
Y413057D01*
X420012Y413123D01*
X419945D01*
X419879Y413057D01*
Y412857D01*
X421309Y409541D02*
X421176D01*
X421242D01*
Y409941D01*
X421309D01*
X421176D01*
X420709Y409608D02*
X420776Y409541D01*
X420909D01*
X420976Y409608D01*
Y409874D01*
X420909Y409941D01*
X420776D01*
X420709Y409874D01*
X420576Y409941D02*
X420443D01*
X420509D01*
Y409541D01*
X420576Y409608D01*
X420243D02*
X420176Y409541D01*
X420043D01*
X419976Y409608D01*
Y409874D01*
X420043Y409941D01*
X420176D01*
X420243Y409874D01*
Y409608D01*
X413543Y427165D02*
X413143D01*
Y427365D01*
X413210Y427432D01*
X413343D01*
X413410Y427365D01*
Y427165D01*
Y427299D02*
X413543Y427432D01*
Y427832D02*
Y427565D01*
X413277Y427832D01*
X413210D01*
X413143Y427765D01*
Y427632D01*
X413210Y427565D01*
Y427965D02*
X413143Y428032D01*
Y428165D01*
X413210Y428232D01*
X413277D01*
X413343Y428165D01*
X413410Y428232D01*
X413477D01*
X413543Y428165D01*
Y428032D01*
X413477Y427965D01*
X413410D01*
X413343Y428032D01*
X413277Y427965D01*
X413210D01*
X413343Y428032D02*
Y428165D01*
X414882Y428110D02*
X415282D01*
Y427910D01*
X415215Y427844D01*
X415082D01*
X415015Y427910D01*
Y428110D01*
Y427977D02*
X414882Y427844D01*
Y427444D02*
Y427710D01*
X415148Y427444D01*
X415215D01*
X415282Y427510D01*
Y427644D01*
X415215Y427710D01*
X415282Y427310D02*
Y427044D01*
X415215D01*
X414949Y427310D01*
X414882D01*
X412740Y429085D02*
Y429218D01*
Y429151D01*
X413140D01*
Y429085D01*
Y429218D01*
X412807Y429684D02*
X412740Y429618D01*
Y429485D01*
X412807Y429418D01*
X413073D01*
X413140Y429485D01*
Y429618D01*
X413073Y429684D01*
Y429818D02*
X413140Y429884D01*
Y430018D01*
X413073Y430084D01*
X412807D01*
X412740Y430018D01*
Y429884D01*
X412807Y429818D01*
X412873D01*
X412940Y429884D01*
Y430084D01*
X417755Y427934D02*
X417822Y427868D01*
X417955D01*
X418022Y427934D01*
Y428201D01*
X417955Y428268D01*
X417822D01*
X417755Y428201D01*
X417355Y428268D02*
X417622D01*
X417355Y428001D01*
Y427934D01*
X417422Y427868D01*
X417555D01*
X417622Y427934D01*
X416955Y427868D02*
X417222D01*
Y428068D01*
X417089Y428001D01*
X417022D01*
X416955Y428068D01*
Y428201D01*
X417022Y428268D01*
X417155D01*
X417222Y428201D01*
X403937Y431939D02*
Y432339D01*
X404137D01*
X404204Y432272D01*
Y432139D01*
X404137Y432072D01*
X403937D01*
X404070D02*
X404204Y431939D01*
X404603D02*
X404337D01*
X404603Y432206D01*
Y432272D01*
X404537Y432339D01*
X404404D01*
X404337Y432272D01*
X405003Y432339D02*
X404870Y432272D01*
X404737Y432139D01*
Y432006D01*
X404803Y431939D01*
X404937D01*
X405003Y432006D01*
Y432072D01*
X404937Y432139D01*
X404737D01*
X402116Y432825D02*
X402516D01*
Y432625D01*
X402449Y432558D01*
X402316D01*
X402249Y432625D01*
Y432825D01*
Y432691D02*
X402116Y432558D01*
Y432158D02*
Y432425D01*
X402383Y432158D01*
X402449D01*
X402516Y432225D01*
Y432358D01*
X402449Y432425D01*
X402516Y431758D02*
Y432025D01*
X402316D01*
X402383Y431892D01*
Y431825D01*
X402316Y431758D01*
X402183D01*
X402116Y431825D01*
Y431958D01*
X402183Y432025D01*
X412205Y427854D02*
Y427454D01*
X412005D01*
X411938Y427521D01*
Y427654D01*
X412005Y427721D01*
X412205D01*
X412071D02*
X411938Y427854D01*
X411538D02*
X411805D01*
X411538Y427588D01*
Y427521D01*
X411605Y427454D01*
X411738D01*
X411805Y427521D01*
X411205Y427854D02*
Y427454D01*
X411405Y427654D01*
X411138D01*
X409892Y427854D02*
Y427454D01*
X409692D01*
X409625Y427521D01*
Y427654D01*
X409692Y427721D01*
X409892D01*
X409758D02*
X409625Y427854D01*
X409225D02*
X409492D01*
X409225Y427588D01*
Y427521D01*
X409292Y427454D01*
X409425D01*
X409492Y427521D01*
X409092D02*
X409025Y427454D01*
X408892D01*
X408825Y427521D01*
Y427588D01*
X408892Y427654D01*
X408959D01*
X408892D01*
X408825Y427721D01*
Y427788D01*
X408892Y427854D01*
X409025D01*
X409092Y427788D01*
X407530Y427854D02*
Y427454D01*
X407330D01*
X407263Y427521D01*
Y427654D01*
X407330Y427721D01*
X407530D01*
X407396D02*
X407263Y427854D01*
X406863D02*
X407130D01*
X406863Y427588D01*
Y427521D01*
X406930Y427454D01*
X407063D01*
X407130Y427521D01*
X406463Y427854D02*
X406730D01*
X406463Y427588D01*
Y427521D01*
X406530Y427454D01*
X406663D01*
X406730Y427521D01*
X397447Y406574D02*
Y406707D01*
Y406641D01*
X397114D01*
X397047Y406707D01*
Y406774D01*
X397114Y406841D01*
X397047Y406241D02*
X397447D01*
X397247Y406441D01*
Y406174D01*
X397447Y421928D02*
Y422062D01*
Y421995D01*
X397114D01*
X397047Y422062D01*
Y422128D01*
X397114Y422195D01*
X397380Y421795D02*
X397447Y421728D01*
Y421595D01*
X397380Y421528D01*
X397314D01*
X397247Y421595D01*
Y421662D01*
Y421595D01*
X397181Y421528D01*
X397114D01*
X397047Y421595D01*
Y421728D01*
X397114Y421795D01*
X412106Y429817D02*
Y430217D01*
X411906D01*
X411840Y430150D01*
Y429883D01*
X411906Y429817D01*
X412106D01*
X411440D02*
X411706D01*
Y430017D01*
X411573Y429950D01*
X411507D01*
X411440Y430017D01*
Y430150D01*
X411507Y430217D01*
X411640D01*
X411706Y430150D01*
X409695Y429817D02*
Y430217D01*
X409495D01*
X409428Y430150D01*
Y429883D01*
X409495Y429817D01*
X409695D01*
X409095Y430217D02*
Y429817D01*
X409295Y430017D01*
X409028D01*
X407382Y429817D02*
Y430217D01*
X407182D01*
X407115Y430150D01*
Y429883D01*
X407182Y429817D01*
X407382D01*
X406982Y429883D02*
X406915Y429817D01*
X406782D01*
X406715Y429883D01*
Y429950D01*
X406782Y430017D01*
X406849D01*
X406782D01*
X406715Y430083D01*
Y430150D01*
X406782Y430217D01*
X406915D01*
X406982Y430150D01*
X401975Y434055D02*
X401575D01*
Y433855D01*
X401641Y433789D01*
X401708D01*
X401775Y433855D01*
Y434055D01*
Y433855D01*
X401841Y433789D01*
X401908D01*
X401975Y433855D01*
Y434055D01*
Y433655D02*
Y433389D01*
X401908D01*
X401641Y433655D01*
X401575D01*
Y433389D01*
Y433255D02*
Y433122D01*
Y433189D01*
X401975D01*
X401908Y433255D01*
X419010Y399213D02*
Y399346D01*
Y399279D01*
X419409D01*
Y399213D01*
Y399346D01*
X419076Y399812D02*
X419010Y399746D01*
Y399612D01*
X419076Y399546D01*
X419343D01*
X419409Y399612D01*
Y399746D01*
X419343Y399812D01*
X419076Y399946D02*
X419010Y400012D01*
Y400146D01*
X419076Y400212D01*
X419143D01*
X419210Y400146D01*
X419276Y400212D01*
X419343D01*
X419409Y400146D01*
Y400012D01*
X419343Y399946D01*
X419276D01*
X419210Y400012D01*
X419143Y399946D01*
X419076D01*
X419210Y400012D02*
Y400146D01*
X421691Y400619D02*
X421758Y400686D01*
Y400819D01*
X421691Y400886D01*
X421425D01*
X421358Y400819D01*
Y400686D01*
X421425Y400619D01*
X421358Y400219D02*
Y400486D01*
X421625Y400219D01*
X421691D01*
X421758Y400286D01*
Y400419D01*
X421691Y400486D01*
X421358Y399886D02*
X421758D01*
X421558Y400086D01*
Y399819D01*
X420875Y397934D02*
X420942Y397868D01*
X421075D01*
X421142Y397934D01*
Y398201D01*
X421075Y398268D01*
X420942D01*
X420875Y398201D01*
X420475Y398268D02*
X420742D01*
X420475Y398001D01*
Y397934D01*
X420542Y397868D01*
X420675D01*
X420742Y397934D01*
X420342D02*
X420275Y397868D01*
X420142D01*
X420075Y397934D01*
Y398001D01*
X420142Y398068D01*
X420209D01*
X420142D01*
X420075Y398134D01*
Y398201D01*
X420142Y398268D01*
X420275D01*
X420342Y398201D01*
X409941Y425935D02*
Y426335D01*
X410141D01*
X410208Y426268D01*
Y426135D01*
X410141Y426068D01*
X409941D01*
X410074D02*
X410208Y425935D01*
X410607D02*
X410341D01*
X410607Y426202D01*
Y426268D01*
X410541Y426335D01*
X410407D01*
X410341Y426268D01*
X410741Y425935D02*
X410874D01*
X410807D01*
Y426335D01*
X410741Y426268D01*
X419606Y402205D02*
X420006D01*
Y402005D01*
X419940Y401938D01*
X419806D01*
X419740Y402005D01*
Y402205D01*
Y402071D02*
X419606Y401938D01*
Y401538D02*
Y401805D01*
X419873Y401538D01*
X419940D01*
X420006Y401605D01*
Y401738D01*
X419940Y401805D01*
Y401405D02*
X420006Y401338D01*
Y401205D01*
X419940Y401138D01*
X419673D01*
X419606Y401205D01*
Y401338D01*
X419673Y401405D01*
X419940D01*
X420738Y402205D02*
X421138D01*
Y402005D01*
X421071Y401938D01*
X420938D01*
X420871Y402005D01*
Y402205D01*
Y402071D02*
X420738Y401938D01*
Y401805D02*
Y401672D01*
Y401738D01*
X421138D01*
X421071Y401805D01*
X420805Y401472D02*
X420738Y401405D01*
Y401272D01*
X420805Y401205D01*
X421071D01*
X421138Y401272D01*
Y401405D01*
X421071Y401472D01*
X421005D01*
X420938Y401405D01*
Y401205D01*
X410630Y404970D02*
Y404571D01*
X410430D01*
X410363Y404637D01*
Y404771D01*
X410430Y404837D01*
X410630D01*
X410497D02*
X410363Y404970D01*
X410230D02*
X410097D01*
X410163D01*
Y404571D01*
X410230Y404637D01*
X409897D02*
X409830Y404571D01*
X409697D01*
X409630Y404637D01*
Y404704D01*
X409697Y404771D01*
X409630Y404837D01*
Y404904D01*
X409697Y404970D01*
X409830D01*
X409897Y404904D01*
Y404837D01*
X409830Y404771D01*
X409897Y404704D01*
Y404637D01*
X409830Y404771D02*
X409697D01*
X409646Y407431D02*
Y407831D01*
X409846D01*
X409912Y407764D01*
Y407631D01*
X409846Y407564D01*
X409646D01*
X409779D02*
X409912Y407431D01*
X410046D02*
X410179D01*
X410112D01*
Y407831D01*
X410046Y407764D01*
X410379Y407831D02*
X410645D01*
Y407764D01*
X410379Y407498D01*
Y407431D01*
X410795Y406279D02*
X411062D01*
X411128Y406345D01*
Y406479D01*
X411062Y406545D01*
X410795D01*
X410728Y406479D01*
Y406345D01*
X410862Y406412D02*
X410728Y406279D01*
Y406345D02*
X410795Y406279D01*
X411128Y405879D02*
Y406145D01*
X410928D01*
X410995Y406012D01*
Y405945D01*
X410928Y405879D01*
X410795D01*
X410728Y405945D01*
Y406079D01*
X410795Y406145D01*
X406918Y400880D02*
X407052D01*
X406985D01*
Y401213D01*
X407052Y401280D01*
X407118D01*
X407185Y401213D01*
X406519Y401280D02*
X406785D01*
X406519Y401013D01*
Y400946D01*
X406585Y400880D01*
X406719D01*
X406785Y400946D01*
X412095Y396879D02*
X412162Y396946D01*
Y397079D01*
X412095Y397146D01*
X411828D01*
X411762Y397079D01*
Y396946D01*
X411828Y396879D01*
X411762Y396746D02*
Y396613D01*
Y396679D01*
X412162D01*
X412095Y396746D01*
Y396413D02*
X412162Y396346D01*
Y396213D01*
X412095Y396146D01*
X412028D01*
X411962Y396213D01*
X411895Y396146D01*
X411828D01*
X411762Y396213D01*
Y396346D01*
X411828Y396413D01*
X411895D01*
X411962Y396346D01*
X412028Y396413D01*
X412095D01*
X411962Y396346D02*
Y396213D01*
X405266Y427270D02*
Y426870D01*
X405466D01*
X405532Y426937D01*
Y427003D01*
X405466Y427070D01*
X405266D01*
X405466D01*
X405532Y427137D01*
Y427203D01*
X405466Y427270D01*
X405266D01*
X405666D02*
X405932D01*
X405799D01*
Y426870D01*
X406065D02*
X406199D01*
X406132D01*
Y427270D01*
X406065Y427203D01*
X407912Y395452D02*
X407979Y395519D01*
Y395652D01*
X407912Y395718D01*
X407845D01*
X407779Y395652D01*
Y395519D01*
X407712Y395452D01*
X407645D01*
X407579Y395519D01*
Y395652D01*
X407645Y395718D01*
X407979Y395319D02*
X407579D01*
X407712Y395185D01*
X407579Y395052D01*
X407979D01*
X407579Y394919D02*
Y394785D01*
Y394852D01*
X407979D01*
X407912Y394919D01*
X413140Y407825D02*
Y408225D01*
X413340D01*
X413406Y408158D01*
Y408025D01*
X413340Y407958D01*
X413140D01*
X413273D02*
X413406Y407825D01*
X413540D02*
X413673D01*
X413606D01*
Y408225D01*
X413540Y408158D01*
X414139Y408225D02*
X414006Y408158D01*
X413873Y408025D01*
Y407891D01*
X413940Y407825D01*
X414073D01*
X414139Y407891D01*
Y407958D01*
X414073Y408025D01*
X413873D01*
X412949Y395226D02*
X412549D01*
Y395026D01*
X412616Y394960D01*
X412882D01*
X412949Y395026D01*
Y395226D01*
X412549Y394560D02*
Y394827D01*
X412816Y394560D01*
X412882D01*
X412949Y394627D01*
Y394760D01*
X412882Y394827D01*
X409049Y395374D02*
X409449D01*
Y395574D01*
X409382Y395641D01*
X409116D01*
X409049Y395574D01*
Y395374D01*
X409449Y395774D02*
Y395907D01*
Y395841D01*
X409049D01*
X409116Y395774D01*
X412028Y408158D02*
X411962Y408225D01*
X411828D01*
X411762Y408158D01*
Y407891D01*
X411828Y407825D01*
X411962D01*
X412028Y407891D01*
X412428Y407825D02*
X412162D01*
X412428Y408091D01*
Y408158D01*
X412362Y408225D01*
X412228D01*
X412162Y408158D01*
X412828Y407825D02*
X412562D01*
X412828Y408091D01*
Y408158D01*
X412761Y408225D01*
X412628D01*
X412562Y408158D01*
X408022Y420915D02*
X407622D01*
Y421115D01*
X407688Y421182D01*
X407822D01*
X407888Y421115D01*
Y420915D01*
Y421049D02*
X408022Y421182D01*
Y421315D02*
Y421449D01*
Y421382D01*
X407622D01*
X407688Y421315D01*
X407622Y421915D02*
Y421648D01*
X407822D01*
X407755Y421782D01*
Y421848D01*
X407822Y421915D01*
X407955D01*
X408022Y421848D01*
Y421715D01*
X407955Y421648D01*
X407382Y400689D02*
Y401089D01*
X407582D01*
X407648Y401022D01*
Y400889D01*
X407582Y400822D01*
X407382D01*
X407515D02*
X407648Y400689D01*
X407782D02*
X407915D01*
X407848D01*
Y401089D01*
X407782Y401022D01*
X408315Y400689D02*
Y401089D01*
X408115Y400889D01*
X408382D01*
X403121Y429123D02*
X403054Y429189D01*
X402921D01*
X402854Y429123D01*
Y428856D01*
X402921Y428789D01*
X403054D01*
X403121Y428856D01*
X403254Y428789D02*
X403387D01*
X403321D01*
Y429189D01*
X403254Y429123D01*
X403587Y428856D02*
X403654Y428789D01*
X403787D01*
X403854Y428856D01*
Y429123D01*
X403787Y429189D01*
X403654D01*
X403587Y429123D01*
Y429056D01*
X403654Y428989D01*
X403854D01*
X406342Y397736D02*
Y397869D01*
Y397803D01*
X406742D01*
Y397736D01*
Y397869D01*
X406409Y398336D02*
X406342Y398269D01*
Y398136D01*
X406409Y398069D01*
X406675D01*
X406742Y398136D01*
Y398269D01*
X406675Y398336D01*
X406342Y398736D02*
X406409Y398603D01*
X406542Y398469D01*
X406675D01*
X406742Y398536D01*
Y398669D01*
X406675Y398736D01*
X406609D01*
X406542Y398669D01*
Y398469D01*
X402854Y429380D02*
Y429780D01*
X403054D01*
X403121Y429713D01*
Y429580D01*
X403054Y429513D01*
X402854D01*
X402988D02*
X403121Y429380D01*
X403254D02*
X403387D01*
X403321D01*
Y429780D01*
X403254Y429713D01*
X403587D02*
X403654Y429780D01*
X403787D01*
X403854Y429713D01*
Y429646D01*
X403787Y429580D01*
X403721D01*
X403787D01*
X403854Y429513D01*
Y429447D01*
X403787Y429380D01*
X403654D01*
X403587Y429447D01*
X400000Y429921D02*
Y430321D01*
X400200D01*
X400267Y430254D01*
Y430121D01*
X400200Y430055D01*
X400000D01*
X400133D02*
X400267Y429921D01*
X400400D02*
X400533D01*
X400467D01*
Y430321D01*
X400400Y430254D01*
X401000Y429921D02*
X400733D01*
X401000Y430188D01*
Y430254D01*
X400933Y430321D01*
X400800D01*
X400733Y430254D01*
X399378Y428178D02*
X399644D01*
X399711Y428245D01*
Y428378D01*
X399644Y428445D01*
X399378D01*
X399311Y428378D01*
Y428245D01*
X399444Y428312D02*
X399311Y428178D01*
Y428245D02*
X399378Y428178D01*
X399311Y427845D02*
X399711D01*
X399511Y428045D01*
Y427778D01*
X399328Y429852D02*
X399595D01*
X399662Y429918D01*
Y430051D01*
X399595Y430118D01*
X399328D01*
X399262Y430051D01*
Y429918D01*
X399395Y429985D02*
X399262Y429852D01*
Y429918D02*
X399328Y429852D01*
X399595Y429718D02*
X399662Y429652D01*
Y429518D01*
X399595Y429452D01*
X399528D01*
X399462Y429518D01*
Y429585D01*
Y429518D01*
X399395Y429452D01*
X399328D01*
X399262Y429518D01*
Y429652D01*
X399328Y429718D01*
X400787Y428045D02*
X400654D01*
X400721D01*
Y428445D01*
X400787D01*
X400654D01*
X400188Y428112D02*
X400254Y428045D01*
X400388D01*
X400454Y428112D01*
Y428378D01*
X400388Y428445D01*
X400254D01*
X400188Y428378D01*
X400054Y428045D02*
X399788D01*
Y428112D01*
X400054Y428378D01*
Y428445D01*
X413856Y394615D02*
X413456D01*
Y394815D01*
X413523Y394882D01*
X413656D01*
X413723Y394815D01*
Y394615D01*
Y394748D02*
X413856Y394882D01*
X413789Y395015D02*
X413856Y395082D01*
Y395215D01*
X413789Y395281D01*
X413523D01*
X413456Y395215D01*
Y395082D01*
X413523Y395015D01*
X413590D01*
X413656Y395082D01*
Y395281D01*
X414321Y398179D02*
Y398579D01*
X414521D01*
X414587Y398512D01*
Y398379D01*
X414521Y398312D01*
X414321D01*
X414454D02*
X414587Y398179D01*
X414721Y398512D02*
X414787Y398579D01*
X414921D01*
X414987Y398512D01*
Y398446D01*
X414921Y398379D01*
X414987Y398312D01*
Y398246D01*
X414921Y398179D01*
X414787D01*
X414721Y398246D01*
Y398312D01*
X414787Y398379D01*
X414721Y398446D01*
Y398512D01*
X414787Y398379D02*
X414921D01*
X414026Y398720D02*
Y399120D01*
X414226D01*
X414292Y399054D01*
Y398920D01*
X414226Y398854D01*
X414026D01*
X414159D02*
X414292Y398720D01*
X414425Y399120D02*
X414692D01*
Y399054D01*
X414425Y398787D01*
Y398720D01*
X407677Y399311D02*
Y399711D01*
X407877D01*
X407944Y399644D01*
Y399511D01*
X407877Y399444D01*
X407677D01*
X407810D02*
X407944Y399311D01*
X408077D02*
X408210D01*
X408144D01*
Y399711D01*
X408077Y399644D01*
X408410Y399311D02*
X408544D01*
X408477D01*
Y399711D01*
X408410Y399644D01*
X410728Y396161D02*
Y395762D01*
X410528D01*
X410462Y395828D01*
Y395961D01*
X410528Y396028D01*
X410728D01*
X410595D02*
X410462Y396161D01*
X410328D02*
X410195D01*
X410262D01*
Y395762D01*
X410328Y395828D01*
X409995D02*
X409929Y395762D01*
X409795D01*
X409729Y395828D01*
Y396095D01*
X409795Y396161D01*
X409929D01*
X409995Y396095D01*
Y395828D01*
X412352Y409147D02*
X412219D01*
X412286D01*
Y409547D01*
X412352D01*
X412219D01*
X411753Y409214D02*
X411819Y409147D01*
X411952D01*
X412019Y409214D01*
Y409481D01*
X411952Y409547D01*
X411819D01*
X411753Y409481D01*
X411353Y409147D02*
X411619D01*
Y409347D01*
X411486Y409281D01*
X411419D01*
X411353Y409347D01*
Y409481D01*
X411419Y409547D01*
X411553D01*
X411619Y409481D01*
X413406Y410569D02*
X413340Y410636D01*
X413206D01*
X413140Y410569D01*
Y410303D01*
X413206Y410236D01*
X413340D01*
X413406Y410303D01*
X413540Y410636D02*
X413806D01*
Y410569D01*
X413540Y410303D01*
Y410236D01*
X407686Y396084D02*
X407753Y396017D01*
X407886D01*
X407953Y396084D01*
Y396351D01*
X407886Y396417D01*
X407753D01*
X407686Y396351D01*
X407286Y396417D02*
X407553D01*
X407286Y396151D01*
Y396084D01*
X407353Y396017D01*
X407486D01*
X407553Y396084D01*
X407153D02*
X407086Y396017D01*
X406953D01*
X406886Y396084D01*
Y396351D01*
X406953Y396417D01*
X407086D01*
X407153Y396351D01*
Y396084D01*
X413495Y400274D02*
X413428Y400341D01*
X413295D01*
X413228Y400274D01*
Y400008D01*
X413295Y399941D01*
X413428D01*
X413495Y400008D01*
X413628Y399941D02*
X413762D01*
X413695D01*
Y400341D01*
X413628Y400274D01*
X414228Y400341D02*
X414095Y400274D01*
X413961Y400141D01*
Y400008D01*
X414028Y399941D01*
X414161D01*
X414228Y400008D01*
Y400074D01*
X414161Y400141D01*
X413961D01*
X412668Y401367D02*
X412602Y401433D01*
X412468D01*
X412402Y401367D01*
Y401100D01*
X412468Y401033D01*
X412602D01*
X412668Y401100D01*
X412801Y401033D02*
X412935D01*
X412868D01*
Y401433D01*
X412801Y401367D01*
X413401Y401433D02*
X413135D01*
Y401233D01*
X413268Y401300D01*
X413335D01*
X413401Y401233D01*
Y401100D01*
X413335Y401033D01*
X413201D01*
X413135Y401100D01*
X412668Y400825D02*
X412602Y400892D01*
X412468D01*
X412402Y400825D01*
Y400559D01*
X412468Y400492D01*
X412602D01*
X412668Y400559D01*
X412801Y400492D02*
X412935D01*
X412868D01*
Y400892D01*
X412801Y400825D01*
X413335Y400492D02*
Y400892D01*
X413135Y400692D01*
X413401D01*
X409509Y397609D02*
X409443Y397542D01*
Y397409D01*
X409509Y397343D01*
X409776D01*
X409843Y397409D01*
Y397542D01*
X409776Y397609D01*
X409843Y397742D02*
Y397876D01*
Y397809D01*
X409443D01*
X409509Y397742D01*
Y398076D02*
X409443Y398142D01*
Y398276D01*
X409509Y398342D01*
X409576D01*
X409643Y398276D01*
Y398209D01*
Y398276D01*
X409709Y398342D01*
X409776D01*
X409843Y398276D01*
Y398142D01*
X409776Y398076D01*
X408968Y397609D02*
X408901Y397542D01*
Y397409D01*
X408968Y397343D01*
X409235D01*
X409301Y397409D01*
Y397542D01*
X409235Y397609D01*
X409301Y397742D02*
Y397876D01*
Y397809D01*
X408901D01*
X408968Y397742D01*
X409301Y398342D02*
Y398076D01*
X409035Y398342D01*
X408968D01*
X408901Y398276D01*
Y398142D01*
X408968Y398076D01*
X409214Y399302D02*
X409147Y399235D01*
Y399102D01*
X409214Y399035D01*
X409481D01*
X409547Y399102D01*
Y399235D01*
X409481Y399302D01*
X409547Y399435D02*
Y399569D01*
Y399502D01*
X409147D01*
X409214Y399435D01*
X409547Y399769D02*
Y399902D01*
Y399835D01*
X409147D01*
X409214Y399769D01*
X414359Y397765D02*
X414425Y397832D01*
Y397965D01*
X414359Y398032D01*
X414092D01*
X414026Y397965D01*
Y397832D01*
X414092Y397765D01*
X414026Y397632D02*
Y397498D01*
Y397565D01*
X414425D01*
X414359Y397632D01*
Y397298D02*
X414425Y397232D01*
Y397098D01*
X414359Y397032D01*
X414092D01*
X414026Y397098D01*
Y397232D01*
X414092Y397298D01*
X414359D01*
X401832Y431369D02*
X401765Y431302D01*
Y431169D01*
X401832Y431102D01*
X402099D01*
X402165Y431169D01*
Y431302D01*
X402099Y431369D01*
X402165Y431502D02*
Y431636D01*
Y431569D01*
X401765D01*
X401832Y431502D01*
X406190Y431033D02*
X406256Y431099D01*
Y431233D01*
X406190Y431299D01*
X405923D01*
X405856Y431233D01*
Y431099D01*
X405923Y431033D01*
X405856Y430633D02*
Y430899D01*
X406123Y430633D01*
X406190D01*
X406256Y430699D01*
Y430833D01*
X406190Y430899D01*
X414506Y401800D02*
X414573Y401867D01*
Y402000D01*
X414506Y402067D01*
X414240D01*
X414173Y402000D01*
Y401867D01*
X414240Y401800D01*
X414506Y401667D02*
X414573Y401600D01*
Y401467D01*
X414506Y401400D01*
X414440D01*
X414373Y401467D01*
Y401534D01*
Y401467D01*
X414307Y401400D01*
X414240D01*
X414173Y401467D01*
Y401600D01*
X414240Y401667D01*
X413997Y405156D02*
X413930Y405223D01*
X413797D01*
X413730Y405156D01*
Y404889D01*
X413797Y404823D01*
X413930D01*
X413997Y404889D01*
X414330Y404823D02*
Y405223D01*
X414130Y405023D01*
X414397D01*
X416359Y408060D02*
X416292Y408126D01*
X416159D01*
X416093Y408060D01*
Y407793D01*
X416159Y407726D01*
X416292D01*
X416359Y407793D01*
X416759Y408126D02*
X416492D01*
Y407926D01*
X416626Y407993D01*
X416692D01*
X416759Y407926D01*
Y407793D01*
X416692Y407726D01*
X416559D01*
X416492Y407793D01*
X416466Y404342D02*
X416532Y404275D01*
X416666D01*
X416732Y404342D01*
Y404609D01*
X416666Y404675D01*
X416532D01*
X416466Y404609D01*
X416066Y404275D02*
X416199Y404342D01*
X416332Y404475D01*
Y404609D01*
X416266Y404675D01*
X416132D01*
X416066Y404609D01*
Y404542D01*
X416132Y404475D01*
X416332D01*
X413287Y396844D02*
X413154D01*
X413221D01*
Y397244D01*
X413287D01*
X413154D01*
X412688Y396911D02*
X412754Y396844D01*
X412888D01*
X412954Y396911D01*
Y397177D01*
X412888Y397244D01*
X412754D01*
X412688Y397177D01*
X412554Y397244D02*
X412421D01*
X412488D01*
Y396844D01*
X412554Y396911D01*
X413632Y402356D02*
X413499D01*
X413565D01*
Y402756D01*
X413632D01*
X413499D01*
X413032Y402423D02*
X413099Y402356D01*
X413232D01*
X413299Y402423D01*
Y402689D01*
X413232Y402756D01*
X413099D01*
X413032Y402689D01*
X412632Y402756D02*
X412899D01*
X412632Y402489D01*
Y402423D01*
X412699Y402356D01*
X412832D01*
X412899Y402423D01*
X415250Y405758D02*
Y405891D01*
Y405825D01*
X415650D01*
Y405758D01*
Y405891D01*
X415316Y406358D02*
X415250Y406291D01*
Y406158D01*
X415316Y406091D01*
X415583D01*
X415650Y406158D01*
Y406291D01*
X415583Y406358D01*
X415316Y406491D02*
X415250Y406558D01*
Y406691D01*
X415316Y406758D01*
X415383D01*
X415450Y406691D01*
Y406624D01*
Y406691D01*
X415516Y406758D01*
X415583D01*
X415650Y406691D01*
Y406558D01*
X415583Y406491D01*
X421063Y395718D02*
X421463D01*
Y395519D01*
X421396Y395452D01*
X421263D01*
X421196Y395519D01*
Y395718D01*
Y395585D02*
X421063Y395452D01*
Y395319D02*
Y395185D01*
Y395252D01*
X421463D01*
X421396Y395319D01*
X415256Y403445D02*
X415656D01*
Y403245D01*
X415589Y403178D01*
X415456D01*
X415389Y403245D01*
Y403445D01*
Y403312D02*
X415256Y403178D01*
Y402778D02*
Y403045D01*
X415522Y402778D01*
X415589D01*
X415656Y402845D01*
Y402978D01*
X415589Y403045D01*
X415256Y402657D02*
X415656D01*
Y402458D01*
X415589Y402391D01*
X415456D01*
X415389Y402458D01*
Y402657D01*
Y402524D02*
X415256Y402391D01*
X415589Y402258D02*
X415656Y402191D01*
Y402058D01*
X415589Y401991D01*
X415522D01*
X415456Y402058D01*
Y402124D01*
Y402058D01*
X415389Y401991D01*
X415323D01*
X415256Y402058D01*
Y402191D01*
X415323Y402258D01*
X414911Y405905D02*
Y405506D01*
X414711D01*
X414645Y405572D01*
Y405706D01*
X414711Y405772D01*
X414911D01*
X414778D02*
X414645Y405905D01*
X414245Y405506D02*
X414512D01*
Y405706D01*
X414378Y405639D01*
X414312D01*
X414245Y405706D01*
Y405839D01*
X414312Y405905D01*
X414445D01*
X414512Y405839D01*
X408071Y423327D02*
Y423727D01*
X408271D01*
X408337Y423660D01*
Y423527D01*
X408271Y423460D01*
X408071D01*
X408204D02*
X408337Y423327D01*
X408737Y423727D02*
X408604Y423660D01*
X408471Y423527D01*
Y423393D01*
X408537Y423327D01*
X408671D01*
X408737Y423393D01*
Y423460D01*
X408671Y423527D01*
X408471D01*
X408789Y396812D02*
X408855Y396746D01*
X408988D01*
X409055Y396812D01*
Y397079D01*
X408988Y397146D01*
X408855D01*
X408789Y397079D01*
X408389Y397146D02*
X408655D01*
X408389Y396879D01*
Y396812D01*
X408455Y396746D01*
X408589D01*
X408655Y396812D01*
X408255Y397146D02*
X408122D01*
X408189D01*
Y396746D01*
X408255Y396812D01*
X404774Y429866D02*
X404640D01*
X404707D01*
Y430266D01*
X404774D01*
X404640D01*
X404174Y429933D02*
X404240Y429866D01*
X404374D01*
X404440Y429933D01*
Y430199D01*
X404374Y430266D01*
X404240D01*
X404174Y430199D01*
X403841Y430266D02*
Y429866D01*
X404041Y430066D01*
X403774D01*
X409246Y410187D02*
X409646D01*
Y410454D01*
Y410853D02*
Y410587D01*
X409379Y410853D01*
X409312D01*
X409246Y410787D01*
Y410654D01*
X409312Y410587D01*
X410363Y423506D02*
Y423240D01*
X410430Y423173D01*
X410563D01*
X410630Y423240D01*
Y423506D01*
X410563Y423573D01*
X410430D01*
X410497Y423440D02*
X410363Y423573D01*
X410430D02*
X410363Y423506D01*
X410230Y423573D02*
X410097D01*
X410163D01*
Y423173D01*
X410230Y423240D01*
X412089Y406566D02*
X411822D01*
X411756Y406499D01*
Y406366D01*
X411822Y406299D01*
X412089D01*
X412155Y406366D01*
Y406499D01*
X412022Y406432D02*
X412155Y406566D01*
Y406499D02*
X412089Y406566D01*
X412155Y406966D02*
Y406699D01*
X411889Y406966D01*
X411822D01*
X411756Y406899D01*
Y406766D01*
X411822Y406699D01*
X413976Y405905D02*
Y405506D01*
X413776D01*
X413710Y405572D01*
Y405706D01*
X413776Y405772D01*
X413976D01*
X413843D02*
X413710Y405905D01*
X413377D02*
Y405506D01*
X413577Y405706D01*
X413310D01*
X419450Y395493D02*
X419384Y395426D01*
Y395293D01*
X419450Y395226D01*
X419717D01*
X419783Y395293D01*
Y395426D01*
X419717Y395493D01*
X419783Y395626D02*
Y395760D01*
Y395693D01*
X419384D01*
X419450Y395626D01*
X419384Y395959D02*
Y396226D01*
X419450D01*
X419717Y395959D01*
X419783D01*
X412882Y411495D02*
X412949Y411562D01*
Y411695D01*
X412882Y411762D01*
X412616D01*
X412549Y411695D01*
Y411562D01*
X412616Y411495D01*
X412882Y411362D02*
X412949Y411295D01*
Y411162D01*
X412882Y411095D01*
X412816D01*
X412749Y411162D01*
X412682Y411095D01*
X412616D01*
X412549Y411162D01*
Y411295D01*
X412616Y411362D01*
X412682D01*
X412749Y411295D01*
X412816Y411362D01*
X412882D01*
X412749Y411295D02*
Y411162D01*
X410624Y401673D02*
X411024D01*
Y401940D01*
Y402073D02*
Y402206D01*
Y402140D01*
X410624D01*
X410690Y402073D01*
X409443Y400049D02*
X409843D01*
Y400316D01*
X409509Y400449D02*
X409443Y400516D01*
Y400649D01*
X409509Y400716D01*
X409576D01*
X409643Y400649D01*
Y400582D01*
Y400649D01*
X409709Y400716D01*
X409776D01*
X409843Y400649D01*
Y400516D01*
X409776Y400449D01*
X403141Y434161D02*
Y434428D01*
X403074Y434494D01*
X402941D01*
X402874Y434428D01*
Y434161D01*
X402941Y434095D01*
X403074D01*
X403007Y434228D02*
X403141Y434095D01*
X403074D02*
X403141Y434161D01*
X403540Y434494D02*
X403407Y434428D01*
X403274Y434294D01*
Y434161D01*
X403341Y434095D01*
X403474D01*
X403540Y434161D01*
Y434228D01*
X403474Y434294D01*
X403274D01*
X415491Y424094D02*
X415557Y424160D01*
Y424294D01*
X415491Y424360D01*
X415224D01*
X415157Y424294D01*
Y424160D01*
X415224Y424094D01*
X415157Y423694D02*
Y423960D01*
X415424Y423694D01*
X415491D01*
X415557Y423760D01*
Y423894D01*
X415491Y423960D01*
X415224Y423560D02*
X415157Y423494D01*
Y423361D01*
X415224Y423294D01*
X415491D01*
X415557Y423361D01*
Y423494D01*
X415491Y423560D01*
X415424D01*
X415357Y423494D01*
Y423294D01*
X414940Y424104D02*
X415006Y424170D01*
Y424303D01*
X414940Y424370D01*
X414673D01*
X414606Y424303D01*
Y424170D01*
X414673Y424104D01*
X414940Y423970D02*
X415006Y423904D01*
Y423770D01*
X414940Y423704D01*
X414873D01*
X414806Y423770D01*
Y423837D01*
Y423770D01*
X414740Y423704D01*
X414673D01*
X414606Y423770D01*
Y423904D01*
X414673Y423970D01*
X414940Y423570D02*
X415006Y423504D01*
Y423370D01*
X414940Y423304D01*
X414673D01*
X414606Y423370D01*
Y423504D01*
X414673Y423570D01*
X414940D01*
X411909Y425548D02*
X412043D01*
X411976D01*
Y425148D01*
X411909D01*
X412043D01*
X412509Y425481D02*
X412443Y425548D01*
X412309D01*
X412243Y425481D01*
Y425214D01*
X412309Y425148D01*
X412443D01*
X412509Y425214D01*
X412643Y425148D02*
X412776D01*
X412709D01*
Y425548D01*
X412643Y425481D01*
X413242Y425148D02*
X412976D01*
X413242Y425414D01*
Y425481D01*
X413176Y425548D01*
X413042D01*
X412976Y425481D01*
X412451Y421407D02*
X412051D01*
Y421607D01*
X412118Y421674D01*
X412251D01*
X412318Y421607D01*
Y421407D01*
Y421541D02*
X412451Y421674D01*
Y422074D02*
Y421807D01*
X412184Y422074D01*
X412118D01*
X412051Y422007D01*
Y421874D01*
X412118Y421807D01*
X412384Y422207D02*
X412451Y422274D01*
Y422407D01*
X412384Y422474D01*
X412118D01*
X412051Y422407D01*
Y422274D01*
X412118Y422207D01*
X412184D01*
X412251Y422274D01*
Y422474D01*
X411909Y421407D02*
X411510D01*
Y421607D01*
X411576Y421674D01*
X411710D01*
X411776Y421607D01*
Y421407D01*
Y421541D02*
X411909Y421674D01*
X411576Y421807D02*
X411510Y421874D01*
Y422007D01*
X411576Y422074D01*
X411643D01*
X411710Y422007D01*
Y421941D01*
Y422007D01*
X411776Y422074D01*
X411843D01*
X411909Y422007D01*
Y421874D01*
X411843Y421807D01*
X411576Y422207D02*
X411510Y422274D01*
Y422407D01*
X411576Y422474D01*
X411843D01*
X411909Y422407D01*
Y422274D01*
X411843Y422207D01*
X411576D01*
X421506Y402602D02*
X421373D01*
X421439D01*
Y403002D01*
X421506D01*
X421373D01*
X420906Y402669D02*
X420973Y402602D01*
X421106D01*
X421173Y402669D01*
Y402935D01*
X421106Y403002D01*
X420973D01*
X420906Y402935D01*
X420773Y403002D02*
X420640D01*
X420706D01*
Y402602D01*
X420773Y402669D01*
X420440D02*
X420373Y402602D01*
X420240D01*
X420173Y402669D01*
Y402735D01*
X420240Y402802D01*
X420306D01*
X420240D01*
X420173Y402869D01*
Y402935D01*
X420240Y403002D01*
X420373D01*
X420440Y402935D01*
X418061Y405709D02*
X417661D01*
Y405909D01*
X417728Y405975D01*
X417861D01*
X417928Y405909D01*
Y405709D01*
Y405842D02*
X418061Y405975D01*
X417728Y406109D02*
X417661Y406175D01*
Y406308D01*
X417728Y406375D01*
X417794D01*
X417861Y406308D01*
Y406242D01*
Y406308D01*
X417928Y406375D01*
X417994D01*
X418061Y406308D01*
Y406175D01*
X417994Y406109D01*
X418061Y406508D02*
Y406642D01*
Y406575D01*
X417661D01*
X417728Y406508D01*
X417470Y423278D02*
Y422878D01*
X417271D01*
X417204Y422944D01*
Y423078D01*
X417271Y423144D01*
X417470D01*
X417337D02*
X417204Y423278D01*
X417071Y422944D02*
X417004Y422878D01*
X416871D01*
X416804Y422944D01*
Y423011D01*
X416871Y423078D01*
X416937D01*
X416871D01*
X416804Y423144D01*
Y423211D01*
X416871Y423278D01*
X417004D01*
X417071Y423211D01*
X416404Y423278D02*
X416671D01*
X416404Y423011D01*
Y422944D01*
X416471Y422878D01*
X416604D01*
X416671Y422944D01*
X414321Y422392D02*
X414721D01*
Y422192D01*
X414654Y422125D01*
X414521D01*
X414454Y422192D01*
Y422392D01*
Y422258D02*
X414321Y422125D01*
X414654Y421992D02*
X414721Y421925D01*
Y421792D01*
X414654Y421725D01*
X414587D01*
X414521Y421792D01*
Y421859D01*
Y421792D01*
X414454Y421725D01*
X414388D01*
X414321Y421792D01*
Y421925D01*
X414388Y421992D01*
X414654Y421592D02*
X414721Y421525D01*
Y421392D01*
X414654Y421325D01*
X414587D01*
X414521Y421392D01*
Y421459D01*
Y421392D01*
X414454Y421325D01*
X414388D01*
X414321Y421392D01*
Y421525D01*
X414388Y421592D01*
X414911Y422490D02*
Y422890D01*
X415111D01*
X415178Y422823D01*
Y422690D01*
X415111Y422623D01*
X414911D01*
X415045D02*
X415178Y422490D01*
X415311Y422823D02*
X415378Y422890D01*
X415511D01*
X415578Y422823D01*
Y422757D01*
X415511Y422690D01*
X415445D01*
X415511D01*
X415578Y422623D01*
Y422557D01*
X415511Y422490D01*
X415378D01*
X415311Y422557D01*
X415911Y422490D02*
Y422890D01*
X415711Y422690D01*
X415978D01*
X409596Y421998D02*
X409996D01*
Y421798D01*
X409930Y421731D01*
X409796D01*
X409730Y421798D01*
Y421998D01*
Y421865D02*
X409596Y421731D01*
X409930Y421598D02*
X409996Y421532D01*
Y421398D01*
X409930Y421332D01*
X409863D01*
X409796Y421398D01*
Y421465D01*
Y421398D01*
X409730Y421332D01*
X409663D01*
X409596Y421398D01*
Y421532D01*
X409663Y421598D01*
X409996Y420932D02*
Y421198D01*
X409796D01*
X409863Y421065D01*
Y420998D01*
X409796Y420932D01*
X409663D01*
X409596Y420998D01*
Y421132D01*
X409663Y421198D01*
X414113Y416269D02*
X414179Y416335D01*
Y416469D01*
X414113Y416535D01*
X413846D01*
X413780Y416469D01*
Y416335D01*
X413846Y416269D01*
X414113Y416136D02*
X414179Y416069D01*
Y415936D01*
X414113Y415869D01*
X414046D01*
X413979Y415936D01*
Y416002D01*
Y415936D01*
X413913Y415869D01*
X413846D01*
X413780Y415936D01*
Y416069D01*
X413846Y416136D01*
X413780Y415736D02*
Y415602D01*
Y415669D01*
X414179D01*
X414113Y415736D01*
X407402Y418690D02*
X407336Y418756D01*
X407202D01*
X407136Y418690D01*
Y418423D01*
X407202Y418356D01*
X407336D01*
X407402Y418423D01*
X407536Y418690D02*
X407602Y418756D01*
X407736D01*
X407802Y418690D01*
Y418623D01*
X407736Y418556D01*
X407669D01*
X407736D01*
X407802Y418490D01*
Y418423D01*
X407736Y418356D01*
X407602D01*
X407536Y418423D01*
X408202Y418356D02*
X407936D01*
X408202Y418623D01*
Y418690D01*
X408135Y418756D01*
X408002D01*
X407936Y418690D01*
X410601Y418197D02*
X410535Y418264D01*
X410401D01*
X410335Y418197D01*
Y417931D01*
X410401Y417864D01*
X410535D01*
X410601Y417931D01*
X410735Y418197D02*
X410801Y418264D01*
X410934D01*
X411001Y418197D01*
Y418131D01*
X410934Y418064D01*
X410868D01*
X410934D01*
X411001Y417997D01*
Y417931D01*
X410934Y417864D01*
X410801D01*
X410735Y417931D01*
X411134Y418197D02*
X411201Y418264D01*
X411334D01*
X411401Y418197D01*
Y418131D01*
X411334Y418064D01*
X411268D01*
X411334D01*
X411401Y417997D01*
Y417931D01*
X411334Y417864D01*
X411201D01*
X411134Y417931D01*
X408465Y416585D02*
X408065D01*
Y416785D01*
X408131Y416851D01*
X408265D01*
X408331Y416785D01*
Y416585D01*
Y416718D02*
X408465Y416851D01*
X408131Y416985D02*
X408065Y417051D01*
Y417184D01*
X408131Y417251D01*
X408198D01*
X408265Y417184D01*
Y417118D01*
Y417184D01*
X408331Y417251D01*
X408398D01*
X408465Y417184D01*
Y417051D01*
X408398Y416985D01*
X408065Y417651D02*
X408131Y417518D01*
X408265Y417384D01*
X408398D01*
X408465Y417451D01*
Y417584D01*
X408398Y417651D01*
X408331D01*
X408265Y417584D01*
Y417384D01*
X414370Y416535D02*
X414770D01*
Y416335D01*
X414703Y416269D01*
X414570D01*
X414503Y416335D01*
Y416535D01*
Y416402D02*
X414370Y416269D01*
X414703Y416136D02*
X414770Y416069D01*
Y415936D01*
X414703Y415869D01*
X414637D01*
X414570Y415936D01*
Y416002D01*
Y415936D01*
X414503Y415869D01*
X414437D01*
X414370Y415936D01*
Y416069D01*
X414437Y416136D01*
X414770Y415736D02*
Y415469D01*
X414703D01*
X414437Y415736D01*
X414370D01*
X407530Y417815D02*
Y418215D01*
X407729D01*
X407796Y418148D01*
Y418015D01*
X407729Y417948D01*
X407530D01*
X407663D02*
X407796Y417815D01*
X407929Y418148D02*
X407996Y418215D01*
X408129D01*
X408196Y418148D01*
Y418082D01*
X408129Y418015D01*
X408063D01*
X408129D01*
X408196Y417948D01*
Y417882D01*
X408129Y417815D01*
X407996D01*
X407929Y417882D01*
X408329Y418148D02*
X408396Y418215D01*
X408529D01*
X408596Y418148D01*
Y418082D01*
X408529Y418015D01*
X408596Y417948D01*
Y417882D01*
X408529Y417815D01*
X408396D01*
X408329Y417882D01*
Y417948D01*
X408396Y418015D01*
X408329Y418082D01*
Y418148D01*
X408396Y418015D02*
X408529D01*
X409203Y419544D02*
Y419477D01*
X409336Y419344D01*
X409469Y419477D01*
Y419544D01*
X409336Y419344D02*
Y419144D01*
X409603D02*
X409736D01*
X409669D01*
Y419544D01*
X409603Y419477D01*
X409330Y412364D02*
X409397Y412297D01*
X409530D01*
X409596Y412364D01*
Y412630D01*
X409530Y412697D01*
X409397D01*
X409330Y412630D01*
X409197Y412364D02*
X409130Y412297D01*
X408997D01*
X408930Y412364D01*
Y412430D01*
X408997Y412497D01*
X409063D01*
X408997D01*
X408930Y412564D01*
Y412630D01*
X408997Y412697D01*
X409130D01*
X409197Y412630D01*
X408597Y412697D02*
Y412297D01*
X408797Y412497D01*
X408530D01*
X409330Y412905D02*
X409397Y412838D01*
X409530D01*
X409596Y412905D01*
Y413172D01*
X409530Y413238D01*
X409397D01*
X409330Y413172D01*
X409197Y412905D02*
X409130Y412838D01*
X408997D01*
X408930Y412905D01*
Y412972D01*
X408997Y413038D01*
X409063D01*
X408997D01*
X408930Y413105D01*
Y413172D01*
X408997Y413238D01*
X409130D01*
X409197Y413172D01*
X408530Y412838D02*
X408797D01*
Y413038D01*
X408663Y412972D01*
X408597D01*
X408530Y413038D01*
Y413172D01*
X408597Y413238D01*
X408730D01*
X408797Y413172D01*
X410503Y417213D02*
X410436Y417280D01*
X410303D01*
X410236Y417213D01*
Y416947D01*
X410303Y416880D01*
X410436D01*
X410503Y416947D01*
X410636Y417213D02*
X410703Y417280D01*
X410836D01*
X410903Y417213D01*
Y417146D01*
X410836Y417080D01*
X410769D01*
X410836D01*
X410903Y417013D01*
Y416947D01*
X410836Y416880D01*
X410703D01*
X410636Y416947D01*
X411303Y417280D02*
X411169Y417213D01*
X411036Y417080D01*
Y416947D01*
X411103Y416880D01*
X411236D01*
X411303Y416947D01*
Y417013D01*
X411236Y417080D01*
X411036D01*
X410503Y416672D02*
X410436Y416738D01*
X410303D01*
X410236Y416672D01*
Y416405D01*
X410303Y416339D01*
X410436D01*
X410503Y416405D01*
X410636Y416672D02*
X410703Y416738D01*
X410836D01*
X410903Y416672D01*
Y416605D01*
X410836Y416539D01*
X410769D01*
X410836D01*
X410903Y416472D01*
Y416405D01*
X410836Y416339D01*
X410703D01*
X410636Y416405D01*
X411036Y416738D02*
X411303D01*
Y416672D01*
X411036Y416405D01*
Y416339D01*
X413227Y414251D02*
X413294Y414318D01*
Y414451D01*
X413227Y414518D01*
X412960D01*
X412894Y414451D01*
Y414318D01*
X412960Y414251D01*
X413227Y414118D02*
X413294Y414051D01*
Y413918D01*
X413227Y413851D01*
X413160D01*
X413094Y413918D01*
Y413985D01*
Y413918D01*
X413027Y413851D01*
X412960D01*
X412894Y413918D01*
Y414051D01*
X412960Y414118D01*
X413227Y413718D02*
X413294Y413651D01*
Y413518D01*
X413227Y413451D01*
X413160D01*
X413094Y413518D01*
X413027Y413451D01*
X412960D01*
X412894Y413518D01*
Y413651D01*
X412960Y413718D01*
X413027D01*
X413094Y413651D01*
X413160Y413718D01*
X413227D01*
X413094Y413651D02*
Y413518D01*
X408050Y413397D02*
X408117Y413330D01*
X408250D01*
X408317Y413397D01*
Y413664D01*
X408250Y413730D01*
X408117D01*
X408050Y413664D01*
X407917Y413397D02*
X407850Y413330D01*
X407717D01*
X407650Y413397D01*
Y413464D01*
X407717Y413530D01*
X407784D01*
X407717D01*
X407650Y413597D01*
Y413664D01*
X407717Y413730D01*
X407850D01*
X407917Y413664D01*
X407517D02*
X407451Y413730D01*
X407317D01*
X407251Y413664D01*
Y413397D01*
X407317Y413330D01*
X407451D01*
X407517Y413397D01*
Y413464D01*
X407451Y413530D01*
X407251D01*
X411446Y412659D02*
X411513Y412592D01*
X411646D01*
X411713Y412659D01*
Y412925D01*
X411646Y412992D01*
X411513D01*
X411446Y412925D01*
X411113Y412992D02*
Y412592D01*
X411313Y412792D01*
X411046D01*
X410913Y412659D02*
X410846Y412592D01*
X410713D01*
X410646Y412659D01*
Y412925D01*
X410713Y412992D01*
X410846D01*
X410913Y412925D01*
Y412659D01*
X411782Y417213D02*
X411716Y417280D01*
X411582D01*
X411516Y417213D01*
Y416947D01*
X411582Y416880D01*
X411716D01*
X411782Y416947D01*
X412116Y416880D02*
Y417280D01*
X411916Y417080D01*
X412182D01*
X412315Y416880D02*
X412449D01*
X412382D01*
Y417280D01*
X412315Y417213D01*
X408230Y414194D02*
X408163Y414127D01*
Y413994D01*
X408230Y413927D01*
X408496D01*
X408563Y413994D01*
Y414127D01*
X408496Y414194D01*
X408563Y414527D02*
X408163D01*
X408363Y414327D01*
Y414594D01*
X408563Y414993D02*
Y414727D01*
X408296Y414993D01*
X408230D01*
X408163Y414927D01*
Y414794D01*
X408230Y414727D01*
X408131Y415572D02*
X408065Y415505D01*
Y415372D01*
X408131Y415305D01*
X408398D01*
X408465Y415372D01*
Y415505D01*
X408398Y415572D01*
X408465Y415905D02*
X408065D01*
X408265Y415705D01*
Y415972D01*
X408131Y416105D02*
X408065Y416171D01*
Y416305D01*
X408131Y416371D01*
X408198D01*
X408265Y416305D01*
Y416238D01*
Y416305D01*
X408331Y416371D01*
X408398D01*
X408465Y416305D01*
Y416171D01*
X408398Y416105D01*
X413533Y414961D02*
Y415360D01*
X413733D01*
X413800Y415294D01*
Y415161D01*
X413733Y415094D01*
X413533D01*
X413667D02*
X413800Y414961D01*
X413933Y415294D02*
X414000Y415360D01*
X414133D01*
X414200Y415294D01*
Y415227D01*
X414133Y415161D01*
X414067D01*
X414133D01*
X414200Y415094D01*
Y415027D01*
X414133Y414961D01*
X414000D01*
X413933Y415027D01*
X414333D02*
X414400Y414961D01*
X414533D01*
X414600Y415027D01*
Y415294D01*
X414533Y415360D01*
X414400D01*
X414333Y415294D01*
Y415227D01*
X414400Y415161D01*
X414600D01*
X413533Y414419D02*
Y414819D01*
X413733D01*
X413800Y414753D01*
Y414619D01*
X413733Y414553D01*
X413533D01*
X413667D02*
X413800Y414419D01*
X414133D02*
Y414819D01*
X413933Y414619D01*
X414200D01*
X414333Y414753D02*
X414400Y414819D01*
X414533D01*
X414600Y414753D01*
Y414486D01*
X414533Y414419D01*
X414400D01*
X414333Y414486D01*
Y414753D01*
X412697Y413681D02*
Y413281D01*
X412497D01*
X412430Y413348D01*
Y413481D01*
X412497Y413548D01*
X412697D01*
X412564D02*
X412430Y413681D01*
X412097D02*
Y413281D01*
X412297Y413481D01*
X412030D01*
X411897Y413681D02*
X411764D01*
X411830D01*
Y413281D01*
X411897Y413348D01*
X412549Y416437D02*
Y416837D01*
X412749D01*
X412816Y416770D01*
Y416637D01*
X412749Y416570D01*
X412549D01*
X412682D02*
X412816Y416437D01*
X413149D02*
Y416837D01*
X412949Y416637D01*
X413216D01*
X413616Y416437D02*
X413349D01*
X413616Y416704D01*
Y416770D01*
X413549Y416837D01*
X413416D01*
X413349Y416770D01*
X411832Y401367D02*
X411765Y401433D01*
X411632D01*
X411565Y401367D01*
Y401100D01*
X411632Y401033D01*
X411765D01*
X411832Y401100D01*
X411965D02*
X412031Y401033D01*
X412165D01*
X412231Y401100D01*
Y401367D01*
X412165Y401433D01*
X412031D01*
X411965Y401367D01*
Y401300D01*
X412031Y401233D01*
X412231D01*
X418602Y407825D02*
X418202D01*
X418336Y407958D01*
X418202Y408091D01*
X418602D01*
Y408225D02*
X418202D01*
Y408425D01*
X418269Y408491D01*
X418402D01*
X418469Y408425D01*
Y408225D01*
X418602Y408625D02*
Y408758D01*
Y408691D01*
X418202D01*
X418269Y408625D01*
X415769Y398235D02*
X415635D01*
X415702D01*
Y397901D01*
X415635Y397835D01*
X415569D01*
X415502Y397901D01*
X415902Y397835D02*
X416035D01*
X415968D01*
Y398235D01*
X415902Y398168D01*
D97*
X418245Y398861D02*
Y400811D01*
X415105Y398671D02*
Y398681D01*
X415115Y398671D02*
Y398681D01*
Y401011D02*
Y401021D01*
X415125Y398671D02*
Y398691D01*
Y401001D02*
Y401021D01*
X415135Y398671D02*
Y398701D01*
Y400991D02*
Y401021D01*
X415145Y398671D02*
Y398711D01*
Y400981D02*
Y401021D01*
X415155Y398671D02*
Y398721D01*
Y400971D02*
Y401021D01*
X415165Y398671D02*
Y398731D01*
Y400961D02*
Y401021D01*
X415175Y398671D02*
Y398741D01*
Y400951D02*
Y401021D01*
X415185Y398681D02*
Y398751D01*
Y400941D02*
Y401021D01*
X415195Y398691D02*
Y398761D01*
Y400931D02*
Y401001D01*
X415205Y398701D02*
Y398771D01*
Y400921D02*
Y400991D01*
X415215Y398711D02*
Y398781D01*
Y400911D02*
Y400981D01*
X415225Y398721D02*
Y398791D01*
Y400901D02*
Y400971D01*
X415235Y398731D02*
Y398801D01*
Y400891D02*
Y400961D01*
X415245Y398741D02*
Y398811D01*
Y400881D02*
Y400951D01*
X415255Y398751D02*
Y398821D01*
Y400871D02*
Y400941D01*
X415265Y398761D02*
Y398831D01*
Y400861D02*
Y400931D01*
X415275Y398771D02*
Y398841D01*
Y400851D02*
Y400931D01*
X415285Y398771D02*
Y398851D01*
Y400841D02*
Y400921D01*
X415295Y398781D02*
Y398861D01*
Y400831D02*
Y400911D01*
X415305Y398791D02*
Y398871D01*
Y399741D02*
Y400071D01*
Y400821D02*
Y400901D01*
X415315Y398801D02*
Y398871D01*
Y399741D02*
Y400071D01*
Y400811D02*
Y400891D01*
X415325Y398811D02*
Y398881D01*
Y399701D02*
Y400071D01*
Y400801D02*
Y400881D01*
X415335Y398821D02*
Y398891D01*
Y399621D02*
Y400101D01*
Y400791D02*
Y400871D01*
X415345Y398831D02*
Y398901D01*
Y399441D02*
Y399551D01*
Y399561D02*
Y400151D01*
Y400781D02*
Y400861D01*
X415355Y398841D02*
Y398911D01*
Y399441D02*
Y400191D01*
Y400771D02*
Y400851D01*
X415365Y398851D02*
Y398921D01*
Y399441D02*
Y399801D01*
Y400001D02*
Y400231D01*
Y400761D02*
Y400841D01*
X415375Y398861D02*
Y398931D01*
Y399441D02*
Y399801D01*
Y400001D02*
Y400251D01*
Y400751D02*
Y400831D01*
X415385Y398871D02*
Y398941D01*
Y399441D02*
Y399801D01*
Y400001D02*
Y400281D01*
Y400741D02*
Y400821D01*
X415395Y398881D02*
Y398951D01*
Y399421D02*
Y399711D01*
Y399741D02*
Y399801D01*
Y400001D02*
Y400301D01*
Y400731D02*
Y400811D01*
X415405Y398891D02*
Y398961D01*
Y399401D02*
Y399631D01*
Y399741D02*
Y400071D01*
Y400101D02*
Y400311D01*
Y400731D02*
Y400801D01*
X415415Y398901D02*
Y398971D01*
Y399381D02*
Y399571D01*
Y399741D02*
Y400071D01*
Y400151D02*
Y400331D01*
Y400721D02*
Y400791D01*
X415425Y398901D02*
Y398981D01*
Y399371D02*
Y399551D01*
Y399741D02*
Y400071D01*
Y400191D02*
Y400341D01*
Y400401D02*
Y400481D01*
Y400711D02*
Y400781D01*
X415435Y398921D02*
Y398991D01*
Y399361D02*
Y399551D01*
Y399741D02*
Y400071D01*
Y400231D02*
Y400351D01*
Y400381D02*
Y400501D01*
Y400691D02*
Y400771D01*
X415445Y398931D02*
Y399001D01*
Y399351D02*
Y399551D01*
Y399741D02*
Y400071D01*
Y400251D02*
Y400361D01*
Y400371D02*
Y400511D01*
Y400681D02*
Y400761D01*
X415455Y398941D02*
Y399011D01*
Y399341D02*
Y399551D01*
Y399741D02*
Y400071D01*
Y400271D02*
Y400521D01*
Y400671D02*
Y400751D01*
X415465Y398951D02*
Y399021D01*
Y399331D02*
Y399421D01*
Y399441D02*
Y399551D01*
Y400291D02*
Y400521D01*
Y400661D02*
Y400741D01*
X415475Y398961D02*
Y399031D01*
Y399321D02*
Y399411D01*
Y399441D02*
Y399551D01*
Y400301D02*
Y400531D01*
Y400651D02*
Y400731D01*
X415485Y398961D02*
Y399041D01*
Y399311D02*
Y399401D01*
Y399441D02*
Y399551D01*
Y400311D02*
Y400531D01*
Y400641D02*
Y400721D01*
X415495Y398971D02*
Y399051D01*
Y399311D02*
Y399391D01*
Y399441D02*
Y399551D01*
Y400321D02*
Y400531D01*
Y400631D02*
Y400711D01*
X415505Y398981D02*
Y399061D01*
Y399301D02*
Y399381D01*
Y399441D02*
Y399551D01*
Y400331D02*
Y400531D01*
Y400621D02*
Y400701D01*
X415515Y398991D02*
Y399061D01*
Y399301D02*
Y399371D01*
Y399441D02*
Y399551D01*
Y400331D02*
Y400531D01*
Y400621D02*
Y400691D01*
X415525Y399001D02*
Y399071D01*
Y399231D02*
Y400531D01*
Y400611D02*
Y400681D01*
X415535Y399011D02*
Y399081D01*
Y399231D02*
Y400531D01*
Y400601D02*
Y400671D01*
X415545Y399021D02*
Y399091D01*
Y399231D02*
Y400521D01*
Y400591D02*
Y400661D01*
X415555Y399031D02*
Y399101D01*
Y399231D02*
Y400521D01*
Y400581D02*
Y400651D01*
X415565Y399041D02*
Y399111D01*
Y399231D02*
Y400511D01*
Y400571D02*
Y400641D01*
X415575Y399051D02*
Y399121D01*
Y399231D02*
Y400501D01*
Y400561D02*
Y400631D01*
X415585Y399061D02*
Y399131D01*
Y399231D02*
Y400491D01*
Y400551D02*
Y400621D01*
X415595Y399071D02*
Y399141D01*
Y399311D02*
Y399371D01*
Y400341D02*
Y400401D01*
Y400421D02*
Y400461D01*
Y400541D02*
Y400611D01*
X415605Y399081D02*
Y399151D01*
Y399311D02*
Y399371D01*
Y400341D02*
Y400401D01*
Y400531D02*
Y400601D01*
X415615Y399081D02*
Y399161D01*
Y399311D02*
Y399381D01*
Y400341D02*
Y400401D01*
Y400521D02*
Y400591D01*
X415625Y399091D02*
Y399171D01*
Y399311D02*
Y399381D01*
Y400341D02*
Y400401D01*
Y400511D02*
Y400581D01*
X415635Y399101D02*
Y399181D01*
Y399311D02*
Y399381D01*
Y400341D02*
Y400401D01*
Y400501D02*
Y400571D01*
X415645Y399111D02*
Y399181D01*
Y399311D02*
Y399381D01*
Y400331D02*
Y400401D01*
Y400491D02*
Y400561D01*
X415655Y399131D02*
Y399201D01*
Y399311D02*
Y399381D01*
Y400331D02*
Y400401D01*
Y400481D02*
Y400551D01*
X415665Y399141D02*
Y399211D01*
Y399311D02*
Y399381D01*
Y400331D02*
Y400401D01*
Y400471D02*
Y400541D01*
X415675Y399141D02*
Y399221D01*
Y399321D02*
Y399381D01*
Y400331D02*
Y400401D01*
Y400461D02*
Y400541D01*
X415685Y399151D02*
Y399231D01*
Y399321D02*
Y399381D01*
Y400331D02*
Y400401D01*
Y400451D02*
Y400531D01*
X415695Y399161D02*
Y399241D01*
Y399321D02*
Y399381D01*
Y400301D02*
Y400531D01*
X415705Y399171D02*
Y399241D01*
Y399321D02*
Y399381D01*
Y400301D02*
Y400531D01*
X415715Y399181D02*
Y399251D01*
Y399321D02*
Y399381D01*
Y400301D02*
Y400531D01*
X415725Y399191D02*
Y399261D01*
Y399321D02*
Y399391D01*
Y400301D02*
Y400531D01*
X415735Y399201D02*
Y399271D01*
Y399321D02*
Y399391D01*
Y400301D02*
Y400531D01*
X415745Y399211D02*
Y399281D01*
Y399321D02*
Y399391D01*
Y400301D02*
Y400531D01*
X415755Y399221D02*
Y399291D01*
Y399321D02*
Y399391D01*
Y400301D02*
Y400461D01*
Y400471D02*
Y400531D01*
X415765Y399231D02*
Y399301D01*
Y399321D02*
Y399391D01*
Y400301D02*
Y400451D01*
Y400471D02*
Y400531D01*
X415775Y399241D02*
Y399311D01*
Y399321D02*
Y399391D01*
Y400301D02*
Y400441D01*
Y400471D02*
Y400531D01*
X415785Y399251D02*
Y399391D01*
Y400301D02*
Y400431D01*
Y400471D02*
Y400531D01*
X415795Y399261D02*
Y399391D01*
Y400301D02*
Y400421D01*
Y400471D02*
Y400531D01*
X415805Y399261D02*
Y399391D01*
Y400301D02*
Y400411D01*
Y400471D02*
Y400531D01*
X415815Y399271D02*
Y399391D01*
Y400301D02*
Y400401D01*
Y400471D02*
Y400531D01*
X415825Y399281D02*
Y399391D01*
Y400301D02*
Y400391D01*
Y400471D02*
Y400531D01*
X415835Y399291D02*
Y399391D01*
Y400301D02*
Y400381D01*
Y400471D02*
Y400531D01*
X415845Y399301D02*
Y399401D01*
Y400291D02*
Y400381D01*
Y400471D02*
Y400531D01*
X415855Y399311D02*
Y399401D01*
Y400281D02*
Y400381D01*
Y400471D02*
Y400531D01*
X415865Y399321D02*
Y399401D01*
Y400271D02*
Y400381D01*
Y400471D02*
Y400531D01*
X415875Y399331D02*
Y399411D01*
Y400261D02*
Y400531D01*
X415885Y399331D02*
Y399421D01*
Y400251D02*
Y400531D01*
X415895Y399331D02*
Y399431D01*
Y400241D02*
Y400531D01*
X415905Y399341D02*
Y399431D01*
Y400231D02*
Y400531D01*
X415915Y399341D02*
Y399441D01*
Y400221D02*
Y400531D01*
X415925Y399341D02*
Y399451D01*
Y400211D02*
Y400291D01*
Y400301D02*
Y400531D01*
X415935Y399341D02*
Y399461D01*
Y399721D02*
Y400141D01*
Y400201D02*
Y400281D01*
Y400311D02*
Y400371D01*
X415945Y399341D02*
Y399471D01*
Y399721D02*
Y400141D01*
Y400191D02*
Y400271D01*
Y400311D02*
Y400371D01*
X415955Y399341D02*
Y399481D01*
Y399721D02*
Y400141D01*
Y400181D02*
Y400261D01*
Y400301D02*
Y400371D01*
X415965Y399341D02*
Y399411D01*
Y399421D02*
Y399491D01*
Y399721D02*
Y400141D01*
Y400171D02*
Y400251D01*
Y400301D02*
Y400371D01*
X415975Y399341D02*
Y399411D01*
Y399431D02*
Y399501D01*
Y399721D02*
Y400141D01*
Y400161D02*
Y400241D01*
Y400301D02*
Y400371D01*
X415985Y399341D02*
Y399411D01*
Y399441D02*
Y399511D01*
Y399721D02*
Y400141D01*
Y400151D02*
Y400231D01*
Y400301D02*
Y400371D01*
X415995Y399341D02*
Y399411D01*
Y399441D02*
Y399521D01*
Y399721D02*
Y400221D01*
Y400301D02*
Y400371D01*
X416005Y399341D02*
Y399411D01*
Y399451D02*
Y399531D01*
Y399721D02*
Y400211D01*
Y400301D02*
Y400371D01*
X416015Y399341D02*
Y399411D01*
Y399461D02*
Y399541D01*
Y399721D02*
Y400201D01*
Y400301D02*
Y400361D01*
X416025Y399351D02*
Y399411D01*
Y399471D02*
Y399551D01*
Y399721D02*
Y400191D01*
Y400301D02*
Y400361D01*
X416035Y399351D02*
Y399411D01*
Y399481D02*
Y399551D01*
Y399721D02*
Y400181D01*
Y400301D02*
Y400361D01*
X416045Y399351D02*
Y399411D01*
Y399491D02*
Y399561D01*
Y399721D02*
Y400171D01*
Y400301D02*
Y400361D01*
X416055Y399351D02*
Y399411D01*
Y399501D02*
Y399571D01*
Y399721D02*
Y400161D01*
Y400301D02*
Y400361D01*
X416065Y399351D02*
Y399411D01*
Y399511D02*
Y399581D01*
Y400081D02*
Y400151D01*
Y400291D02*
Y400361D01*
X416075Y399351D02*
Y399421D01*
Y399521D02*
Y399591D01*
Y400071D02*
Y400141D01*
Y400291D02*
Y400361D01*
X416085Y399351D02*
Y399421D01*
Y399531D02*
Y399601D01*
Y400061D02*
Y400141D01*
Y400291D02*
Y400361D01*
X416095Y399351D02*
Y399421D01*
Y399541D02*
Y399611D01*
Y400051D02*
Y400131D01*
Y400291D02*
Y400361D01*
X416105Y399351D02*
Y399421D01*
Y399551D02*
Y399621D01*
Y400041D02*
Y400111D01*
Y400291D02*
Y400361D01*
X416115Y399351D02*
Y399421D01*
Y399561D02*
Y399631D01*
Y400031D02*
Y400101D01*
Y400291D02*
Y400361D01*
X416125Y399351D02*
Y399421D01*
Y399571D02*
Y399641D01*
Y400021D02*
Y400091D01*
Y400291D02*
Y400351D01*
X416135Y399361D02*
Y399421D01*
Y399581D02*
Y399651D01*
Y400011D02*
Y400081D01*
Y400291D02*
Y400351D01*
X416145Y399361D02*
Y399421D01*
Y399591D02*
Y399661D01*
Y400001D02*
Y400071D01*
Y400291D02*
Y400351D01*
X416155Y399361D02*
Y399421D01*
Y399601D02*
Y399671D01*
Y399991D02*
Y400061D01*
Y400291D02*
Y400351D01*
X416165Y399361D02*
Y399421D01*
Y399611D02*
Y399681D01*
Y399981D02*
Y400051D01*
Y400281D02*
Y400351D01*
X416175Y399361D02*
Y399421D01*
Y399621D02*
Y399691D01*
Y399971D02*
Y400041D01*
Y400281D02*
Y400351D01*
X416185Y399361D02*
Y399431D01*
Y399621D02*
Y399701D01*
Y399961D02*
Y400031D01*
Y400281D02*
Y400351D01*
X416195Y399361D02*
Y399431D01*
Y399631D02*
Y399711D01*
Y399951D02*
Y400021D01*
Y400281D02*
Y400351D01*
X416205Y399361D02*
Y399431D01*
Y399641D02*
Y399721D01*
Y399941D02*
Y400011D01*
Y400281D02*
Y400351D01*
X416215Y399361D02*
Y399431D01*
Y399651D02*
Y399731D01*
Y399931D02*
Y400001D01*
Y400281D02*
Y400351D01*
X416225Y399361D02*
Y399431D01*
Y399661D02*
Y399741D01*
Y399921D02*
Y400001D01*
Y400281D02*
Y400341D01*
X416235Y399361D02*
Y399431D01*
Y399671D02*
Y399751D01*
Y399911D02*
Y399991D01*
Y400281D02*
Y400341D01*
X416245Y399361D02*
Y399431D01*
Y399681D02*
Y399751D01*
Y399901D02*
Y399981D01*
Y400281D02*
Y400341D01*
X416255Y399361D02*
Y399431D01*
Y399691D02*
Y399761D01*
Y399891D02*
Y399971D01*
Y400281D02*
Y400341D01*
X416265Y399361D02*
Y399431D01*
Y399701D02*
Y399771D01*
Y399881D02*
Y399961D01*
Y400281D02*
Y400341D01*
X416275Y399361D02*
Y399431D01*
Y399711D02*
Y399781D01*
Y399871D02*
Y399951D01*
Y400271D02*
Y400341D01*
X416285Y399371D02*
Y399431D01*
Y399721D02*
Y399791D01*
Y399861D02*
Y399941D01*
Y400271D02*
Y400341D01*
X416295Y399371D02*
Y399431D01*
Y399731D02*
Y399801D01*
Y399851D02*
Y399931D01*
Y400271D02*
Y400341D01*
X416305Y399371D02*
Y399441D01*
Y399741D02*
Y399811D01*
Y399841D02*
Y399921D01*
Y400271D02*
Y400341D01*
X416315Y399371D02*
Y399441D01*
Y399751D02*
Y399821D01*
Y399831D02*
Y399911D01*
Y400271D02*
Y400341D01*
X416325Y399371D02*
Y399441D01*
Y399761D02*
Y399901D01*
Y400271D02*
Y400341D01*
X416335Y399371D02*
Y399441D01*
Y399771D02*
Y399891D01*
Y400271D02*
Y400341D01*
X416345Y399371D02*
Y399441D01*
Y399781D02*
Y399881D01*
Y400271D02*
Y400341D01*
X416355Y399371D02*
Y399441D01*
Y399791D02*
Y399871D01*
Y400271D02*
Y400341D01*
X416365Y399371D02*
Y399441D01*
Y399781D02*
Y399871D01*
Y400271D02*
Y400331D01*
X416375Y399371D02*
Y399441D01*
Y399771D02*
Y399881D01*
Y400271D02*
Y400331D01*
X416385Y399371D02*
Y399441D01*
Y399761D02*
Y399891D01*
Y400261D02*
Y400331D01*
X416395Y399371D02*
Y399441D01*
Y399751D02*
Y399901D01*
Y400261D02*
Y400331D01*
X416405Y399381D02*
Y399441D01*
Y399741D02*
Y399821D01*
Y399831D02*
Y399911D01*
Y400261D02*
Y400331D01*
X416415Y399381D02*
Y399451D01*
Y399731D02*
Y399811D01*
Y399841D02*
Y399921D01*
Y400261D02*
Y400331D01*
X416425Y399381D02*
Y399451D01*
Y399721D02*
Y399801D01*
Y399851D02*
Y399931D01*
Y400261D02*
Y400331D01*
X416435Y399381D02*
Y399451D01*
Y399711D02*
Y399791D01*
Y399861D02*
Y399941D01*
Y400261D02*
Y400331D01*
X416445Y399381D02*
Y399451D01*
Y399701D02*
Y399781D01*
Y399871D02*
Y399951D01*
Y400261D02*
Y400331D01*
X416455Y399381D02*
Y399451D01*
Y399691D02*
Y399771D01*
Y399881D02*
Y399951D01*
Y400261D02*
Y400331D01*
X416465Y399381D02*
Y399451D01*
Y399681D02*
Y399761D01*
Y399891D02*
Y399961D01*
Y400261D02*
Y400331D01*
X416475Y399381D02*
Y399451D01*
Y399671D02*
Y399751D01*
Y399901D02*
Y399971D01*
Y400261D02*
Y400321D01*
X416485Y399381D02*
Y399451D01*
Y399671D02*
Y399741D01*
Y399911D02*
Y399981D01*
Y400251D02*
Y400321D01*
X416495Y399381D02*
Y399451D01*
Y399661D02*
Y399731D01*
Y399921D02*
Y399991D01*
Y400251D02*
Y400321D01*
X416505Y399381D02*
Y399451D01*
Y399651D02*
Y399721D01*
Y399931D02*
Y400001D01*
Y400251D02*
Y400321D01*
X416515Y399391D02*
Y399451D01*
Y399641D02*
Y399711D01*
Y399941D02*
Y400011D01*
Y400251D02*
Y400321D01*
X416525Y399391D02*
Y399451D01*
Y399631D02*
Y399701D01*
Y399951D02*
Y400021D01*
Y400251D02*
Y400321D01*
X416535Y399391D02*
Y399461D01*
Y399621D02*
Y399691D01*
Y399951D02*
Y400031D01*
Y400251D02*
Y400321D01*
X416545Y399391D02*
Y399461D01*
Y399611D02*
Y399681D01*
Y399961D02*
Y400041D01*
Y400251D02*
Y400321D01*
X416555Y399391D02*
Y399461D01*
Y399591D02*
Y399671D01*
Y399981D02*
Y400051D01*
Y400251D02*
Y400321D01*
X416565Y399391D02*
Y399461D01*
Y399581D02*
Y399661D01*
Y399981D02*
Y400061D01*
Y400251D02*
Y400321D01*
X416575Y399391D02*
Y399461D01*
Y399571D02*
Y399651D01*
Y399991D02*
Y400071D01*
Y400251D02*
Y400311D01*
X416585Y399391D02*
Y399461D01*
Y399561D02*
Y399641D01*
Y400001D02*
Y400081D01*
Y400251D02*
Y400311D01*
X416595Y399391D02*
Y399461D01*
Y399551D02*
Y399631D01*
Y400011D02*
Y400091D01*
Y400241D02*
Y400311D01*
X416605Y399391D02*
Y399461D01*
Y399551D02*
Y399621D01*
Y400021D02*
Y400101D01*
Y400241D02*
Y400311D01*
X416615Y399391D02*
Y399461D01*
Y399541D02*
Y399611D01*
Y400031D02*
Y400111D01*
Y400241D02*
Y400311D01*
X416625Y399391D02*
Y399461D01*
Y399531D02*
Y399601D01*
Y400041D02*
Y400121D01*
Y400241D02*
Y400311D01*
X416635Y399401D02*
Y399461D01*
Y399521D02*
Y399591D01*
Y400051D02*
Y400131D01*
Y400241D02*
Y400311D01*
X416645Y399401D02*
Y399471D01*
Y399511D02*
Y399581D01*
Y400061D02*
Y400141D01*
Y400241D02*
Y400311D01*
X416655Y399401D02*
Y399471D01*
Y399501D02*
Y399571D01*
Y400071D02*
Y400141D01*
Y400241D02*
Y400311D01*
X416665Y399401D02*
Y399471D01*
Y399491D02*
Y399561D01*
Y400081D02*
Y400151D01*
Y400241D02*
Y400311D01*
X416675Y399401D02*
Y399471D01*
Y399481D02*
Y399551D01*
Y400091D02*
Y400161D01*
Y400241D02*
Y400311D01*
X416685Y399401D02*
Y399551D01*
Y400101D02*
Y400171D01*
Y400241D02*
Y400301D01*
X416695Y399401D02*
Y399541D01*
Y400111D02*
Y400181D01*
Y400231D02*
Y400301D01*
X416705Y399401D02*
Y399531D01*
Y400121D02*
Y400191D01*
Y400231D02*
Y400301D01*
X416715Y399401D02*
Y399521D01*
Y400131D02*
Y400201D01*
Y400231D02*
Y400301D01*
X416725Y399401D02*
Y399511D01*
Y400141D02*
Y400211D01*
Y400231D02*
Y400301D01*
X416735Y399401D02*
Y399501D01*
Y400141D02*
Y400221D01*
Y400231D02*
Y400301D01*
X416745Y399411D02*
Y399491D01*
Y400151D02*
Y400301D01*
X416755Y399401D02*
Y399481D01*
Y400161D02*
Y400301D01*
X416765Y399391D02*
Y399481D01*
Y400171D02*
Y400301D01*
X416775Y399381D02*
Y399481D01*
Y400181D02*
Y400301D01*
X416785Y399371D02*
Y399481D01*
Y400191D02*
Y400301D01*
X416795Y399361D02*
Y399481D01*
Y400201D02*
Y400291D01*
X416805Y399351D02*
Y399481D01*
Y400211D02*
Y400291D01*
X416815Y399341D02*
Y399481D01*
Y400221D02*
Y400301D01*
X416825Y399331D02*
Y399481D01*
Y400221D02*
Y400311D01*
X416835Y399321D02*
Y399401D01*
Y399411D02*
Y399481D01*
Y400221D02*
Y400321D01*
X416845Y399311D02*
Y399391D01*
Y399411D02*
Y399481D01*
Y400221D02*
Y400331D01*
X416855Y399301D02*
Y399381D01*
Y399411D02*
Y399481D01*
Y400221D02*
Y400341D01*
X416865Y399291D02*
Y399371D01*
Y399421D02*
Y399481D01*
Y400221D02*
Y400341D01*
X416875Y399281D02*
Y399361D01*
Y399421D02*
Y399491D01*
Y400221D02*
Y400351D01*
X416885Y399271D02*
Y399351D01*
Y399421D02*
Y399491D01*
Y400181D02*
Y400361D01*
X416895Y399261D02*
Y399341D01*
Y399421D02*
Y399491D01*
Y400161D02*
Y400371D01*
X416905Y399251D02*
Y399331D01*
Y399421D02*
Y399491D01*
Y400141D02*
Y400381D01*
X416915Y399241D02*
Y399321D01*
Y399421D02*
Y399491D01*
Y400131D02*
Y400391D01*
X416925Y399231D02*
Y399311D01*
Y399421D02*
Y399491D01*
Y400111D02*
Y400401D01*
X416935Y399221D02*
Y399301D01*
Y399421D02*
Y399491D01*
Y400101D02*
Y400411D01*
X416945Y399211D02*
Y399291D01*
Y399421D02*
Y399491D01*
Y400091D02*
Y400421D01*
X416955Y399201D02*
Y399281D01*
Y399421D02*
Y399491D01*
Y400091D02*
Y400431D01*
X416965Y399191D02*
Y399271D01*
Y399421D02*
Y399491D01*
Y400081D02*
Y400441D01*
X416975Y399181D02*
Y399261D01*
Y399431D02*
Y399491D01*
Y400071D02*
Y400211D01*
Y400271D02*
Y400451D01*
X416985Y399171D02*
Y399251D01*
Y399431D02*
Y399491D01*
Y400071D02*
Y400191D01*
Y400291D02*
Y400461D01*
X416995Y399161D02*
Y399241D01*
Y399431D02*
Y399501D01*
Y400061D02*
Y400171D01*
Y400311D02*
Y400471D01*
X417005Y399151D02*
Y399231D01*
Y399431D02*
Y399501D01*
Y400061D02*
Y400161D01*
Y400231D02*
Y400261D01*
Y400321D02*
Y400481D01*
X417015Y399141D02*
Y399221D01*
Y399431D02*
Y399501D01*
Y400051D02*
Y400151D01*
Y400201D02*
Y400281D01*
Y400331D02*
Y400491D01*
X417025Y399131D02*
Y399211D01*
Y399431D02*
Y399501D01*
Y400051D02*
Y400151D01*
Y400191D02*
Y400291D01*
Y400331D02*
Y400501D01*
X417035Y399121D02*
Y399201D01*
Y399431D02*
Y399501D01*
Y400051D02*
Y400141D01*
Y400181D02*
Y400301D01*
Y400341D02*
Y400511D01*
X417045Y399111D02*
Y399191D01*
Y399431D02*
Y399501D01*
Y400051D02*
Y400141D01*
Y400181D02*
Y400301D01*
Y400341D02*
Y400431D01*
Y400441D02*
Y400521D01*
X417055Y399101D02*
Y399181D01*
Y399431D02*
Y399501D01*
Y400051D02*
Y400141D01*
Y400181D02*
Y400311D01*
Y400341D02*
Y400431D01*
Y400451D02*
Y400531D01*
X417065Y399091D02*
Y399171D01*
Y399431D02*
Y399501D01*
Y400051D02*
Y400141D01*
Y400171D02*
Y400311D01*
Y400341D02*
Y400431D01*
Y400461D02*
Y400541D01*
X417075Y399091D02*
Y399161D01*
Y399431D02*
Y399501D01*
Y400051D02*
Y400141D01*
Y400171D02*
Y400311D01*
Y400341D02*
Y400431D01*
Y400471D02*
Y400541D01*
X417085Y399081D02*
Y399151D01*
Y399441D02*
Y399501D01*
Y400051D02*
Y400141D01*
Y400181D02*
Y400311D01*
Y400341D02*
Y400431D01*
Y400481D02*
Y400551D01*
X417095Y399071D02*
Y399141D01*
Y399441D02*
Y400141D01*
Y400181D02*
Y400301D01*
Y400341D02*
Y400431D01*
Y400491D02*
Y400561D01*
X417105Y399061D02*
Y399131D01*
Y399441D02*
Y400141D01*
Y400181D02*
Y400301D01*
Y400341D02*
Y400431D01*
Y400501D02*
Y400571D01*
X417115Y399051D02*
Y399121D01*
Y399441D02*
Y400151D01*
Y400191D02*
Y400291D01*
Y400331D02*
Y400431D01*
Y400511D02*
Y400581D01*
X417125Y399041D02*
Y399111D01*
Y399441D02*
Y400151D01*
Y400201D02*
Y400281D01*
Y400331D02*
Y400431D01*
Y400521D02*
Y400591D01*
X417135Y399031D02*
Y399101D01*
Y399441D02*
Y400161D01*
Y400231D02*
Y400261D01*
Y400321D02*
Y400421D01*
Y400531D02*
Y400601D01*
X417145Y399021D02*
Y399101D01*
Y399441D02*
Y400171D01*
Y400311D02*
Y400421D01*
Y400531D02*
Y400611D01*
X417155Y399011D02*
Y399091D01*
Y399451D02*
Y400181D01*
Y400301D02*
Y400421D01*
Y400541D02*
Y400621D01*
X417165Y399001D02*
Y399081D01*
Y399471D02*
Y399591D01*
Y400071D02*
Y400201D01*
Y400281D02*
Y400411D01*
Y400551D02*
Y400631D01*
X417175Y398991D02*
Y399071D01*
Y399471D02*
Y399591D01*
Y400081D02*
Y400401D01*
Y400561D02*
Y400641D01*
X417185Y398981D02*
Y399061D01*
Y399471D02*
Y399591D01*
Y400081D02*
Y400401D01*
Y400571D02*
Y400651D01*
X417195Y398971D02*
Y399051D01*
Y399471D02*
Y399591D01*
Y400091D02*
Y400391D01*
Y400581D02*
Y400661D01*
X417205Y398961D02*
Y399041D01*
Y399471D02*
Y399591D01*
Y400101D02*
Y400381D01*
Y400591D02*
Y400671D01*
X417215Y398951D02*
Y399031D01*
Y399471D02*
Y399591D01*
Y400111D02*
Y400371D01*
Y400601D02*
Y400671D01*
X417225Y398941D02*
Y399011D01*
Y399471D02*
Y399591D01*
Y400131D02*
Y400361D01*
Y400611D02*
Y400691D01*
X417235Y398931D02*
Y399001D01*
Y399471D02*
Y399591D01*
Y400141D02*
Y400341D01*
Y400621D02*
Y400701D01*
X417245Y398921D02*
Y398991D01*
Y399471D02*
Y399591D01*
Y400161D02*
Y400331D01*
Y400631D02*
Y400711D01*
X417255Y398911D02*
Y398981D01*
Y399471D02*
Y399591D01*
Y400181D02*
Y400301D01*
Y400641D02*
Y400721D01*
X417265Y398901D02*
Y398971D01*
Y400651D02*
Y400731D01*
X417275Y398891D02*
Y398961D01*
Y400661D02*
Y400731D01*
X417285Y398881D02*
Y398961D01*
Y400671D02*
Y400741D01*
X417295Y398871D02*
Y398951D01*
Y400681D02*
Y400751D01*
X417305Y398861D02*
Y398941D01*
Y400691D02*
Y400761D01*
X417315Y398851D02*
Y398931D01*
Y400701D02*
Y400771D01*
X417325Y398841D02*
Y398921D01*
Y400711D02*
Y400781D01*
X417335Y398831D02*
Y398911D01*
Y400711D02*
Y400791D01*
X417345Y398821D02*
Y398901D01*
Y400721D02*
Y400801D01*
X417355Y398811D02*
Y398891D01*
Y400731D02*
Y400811D01*
X417365Y398801D02*
Y398881D01*
Y400741D02*
Y400821D01*
X417375Y398791D02*
Y398871D01*
Y400751D02*
Y400831D01*
X417385Y398781D02*
Y398861D01*
Y400761D02*
Y400841D01*
X417395Y398771D02*
Y398851D01*
Y400771D02*
Y400851D01*
X417405Y398761D02*
Y398841D01*
Y400781D02*
Y400861D01*
X417415Y398751D02*
Y398831D01*
Y400791D02*
Y400861D01*
X417425Y398741D02*
Y398821D01*
Y400801D02*
Y400871D01*
X417435Y398731D02*
Y398811D01*
Y400811D02*
Y400891D01*
X417445Y398721D02*
Y398801D01*
Y400821D02*
Y400901D01*
X417455Y398711D02*
Y398791D01*
Y400831D02*
Y400891D01*
X417465Y398721D02*
Y398781D01*
Y400841D02*
Y400881D01*
X417475Y398731D02*
Y398771D01*
Y400851D02*
Y400871D01*
X417485Y398741D02*
Y398761D01*
X417975Y398861D02*
Y400811D01*
X417985Y398861D02*
Y400811D01*
X417995Y398861D02*
Y400811D01*
X418005Y398861D02*
Y400811D01*
X418015Y398861D02*
Y400811D01*
X418025Y398861D02*
Y400811D01*
X418035Y398861D02*
Y400811D01*
X418045Y398861D02*
Y400811D01*
X418055Y398861D02*
Y400811D01*
X418065Y398861D02*
Y400811D01*
X418075Y398861D02*
Y400811D01*
X418085Y398861D02*
Y400811D01*
X418095Y398861D02*
Y400811D01*
X418105Y398861D02*
Y400811D01*
X418115Y398861D02*
Y400811D01*
X418125Y398861D02*
Y400811D01*
X418135Y398861D02*
Y400811D01*
X418145Y398861D02*
Y400811D01*
X418155Y398861D02*
Y400811D01*
X418165Y398861D02*
Y400811D01*
X418175Y398861D02*
Y400811D01*
X418185Y398861D02*
Y400811D01*
X418195Y398861D02*
Y400811D01*
X418205Y398861D02*
Y400811D01*
X418215Y398861D02*
Y400811D01*
X418225Y398861D02*
Y400811D01*
X418235Y398861D02*
Y400811D01*
X418255Y398861D02*
Y400811D01*
X418265Y398861D02*
Y400811D01*
X418275Y398861D02*
Y400811D01*
X418285Y398861D02*
Y400811D01*
X418295Y398861D02*
Y400811D01*
X418305Y398861D02*
Y400811D01*
X418315Y398861D02*
Y400811D01*
X418325Y398861D02*
Y400811D01*
X418335Y398861D02*
Y400811D01*
X418345Y398861D02*
Y400811D01*
X418355Y398861D02*
Y400811D01*
X418365Y398861D02*
Y400811D01*
X418375Y398861D02*
Y400811D01*
X418385Y398861D02*
Y400811D01*
X418395Y398861D02*
Y400811D01*
X418405Y398861D02*
Y400811D01*
X418415Y398861D02*
Y400811D01*
X418425Y398861D02*
Y400811D01*
X418435Y398861D02*
Y400811D01*
X418445Y398861D02*
Y400811D01*
D167*
X407018Y398228D02*
D03*
D168*
X401968Y398228D02*
D03*
Y424606D02*
D03*
D169*
X401968Y398228D02*
D03*
M02*
