%FSLAX24Y24*%
%MOIN*%
G70*
G01*
G75*
%ADD10C,0.0090*%
%ADD11R,0.1142X0.0157*%
%ADD12R,0.0650X0.1024*%
%ADD13R,0.0079X0.0236*%
%ADD14R,0.0354X0.0118*%
%ADD15R,0.0118X0.0354*%
%ADD16R,0.0118X0.0118*%
%ADD17R,0.0709X0.0709*%
%ADD18R,0.0197X0.0138*%
%ADD19R,0.1260X0.0701*%
%ADD20R,0.1063X0.0472*%
%ADD21R,0.0630X0.0709*%
%ADD22R,0.0709X0.0630*%
%ADD23R,0.0512X0.0591*%
%ADD24R,0.0591X0.0512*%
%ADD25R,0.0394X0.0433*%
%ADD26R,0.0315X0.0551*%
%ADD27R,0.0591X0.0276*%
%ADD28R,0.0276X0.0591*%
%ADD29R,0.0591X0.0394*%
%ADD30R,0.0630X0.0630*%
%ADD31R,0.0315X0.0630*%
%ADD32R,0.0630X0.0315*%
%ADD33C,0.0056*%
%ADD34R,0.0276X0.0118*%
%ADD35R,0.0118X0.0276*%
%ADD36R,0.0276X0.0098*%
%ADD37R,0.0315X0.0098*%
%ADD38R,0.0248X0.0177*%
%ADD39R,0.0748X0.0945*%
%ADD40R,0.0413X0.0236*%
%ADD41R,0.0384X0.0079*%
%ADD42C,0.0079*%
%ADD43R,0.0384X0.0236*%
%ADD44R,0.0039X0.0157*%
%ADD45R,0.0098X0.0581*%
%ADD46O,0.0098X0.0079*%
%ADD47C,0.0011*%
%ADD48R,0.0236X0.0192*%
%ADD49R,0.0074X0.0064*%
%ADD50C,0.0010*%
%ADD51R,0.0035X0.0044*%
%ADD52R,0.0079X0.0202*%
%ADD53R,0.0226X0.0079*%
%ADD54R,0.0044X0.0035*%
%ADD55R,0.0202X0.0079*%
%ADD56R,0.0079X0.0226*%
%ADD57R,0.0192X0.0236*%
%ADD58O,0.0079X0.0098*%
%ADD59R,0.0384X0.0098*%
%ADD60R,0.0064X0.0074*%
%ADD61R,0.0482X0.0079*%
%ADD62R,0.0315X0.0079*%
%ADD63R,0.0079X0.0315*%
%ADD64R,0.0236X0.0217*%
%ADD65R,0.0098X0.0039*%
%ADD66R,0.0354X0.0315*%
%ADD67R,0.0551X0.0315*%
%ADD68R,0.0551X0.0453*%
%ADD69R,0.0236X0.0413*%
%ADD70C,0.0394*%
%ADD71R,0.2016X0.2087*%
%ADD72R,0.0236X0.0276*%
%ADD73R,0.0276X0.0236*%
%ADD74R,0.0433X0.0394*%
%ADD75R,0.0236X0.0472*%
%ADD76R,0.0157X0.0098*%
%ADD77R,0.0079X0.0197*%
%ADD78R,0.0197X0.0079*%
%ADD79R,0.0098X0.0315*%
%ADD80R,0.1457X0.1457*%
%ADD81R,0.1311X0.2756*%
%ADD82R,0.0118X0.0472*%
%ADD83C,0.0100*%
%ADD84C,0.0150*%
%ADD85C,0.0140*%
%ADD86C,0.0170*%
%ADD87C,0.0120*%
%ADD88C,0.0079*%
%ADD89C,0.0110*%
%ADD90C,0.0630*%
%ADD91C,0.0098*%
%ADD92C,0.0070*%
%ADD93C,0.0512*%
%ADD94C,0.0230*%
%ADD95C,0.0236*%
%ADD96C,0.0060*%
%ADD97C,0.0010*%
%ADD98C,0.0118*%
%ADD99R,0.0394X0.1083*%
%ADD100R,0.1033X0.0640*%
%ADD101R,0.1102X0.1102*%
%ADD102R,0.1063X0.0354*%
%ADD103R,0.0748X0.0709*%
%ADD104R,0.0630X0.1339*%
%ADD105R,0.0630X0.1358*%
%ADD106R,0.1654X0.0709*%
%ADD107R,0.0866X0.1614*%
%ADD108R,0.0453X0.0906*%
%ADD109R,0.1594X0.0610*%
%ADD110R,0.0512X0.1516*%
%ADD111R,0.2736X0.0433*%
%ADD112R,0.0787X0.0748*%
%ADD113R,0.2264X0.0689*%
%ADD114R,0.0689X0.0906*%
%ADD115R,0.0236X0.0610*%
%ADD116R,0.0177X0.0315*%
%ADD117R,0.1161X0.0787*%
%ADD118R,0.0689X0.0098*%
%ADD119R,0.0394X0.0571*%
%ADD120R,0.0728X0.0098*%
%ADD121R,0.0768X0.0335*%
%ADD122R,0.0217X0.0689*%
%ADD123R,0.0866X0.0689*%
%ADD124R,0.1319X0.0827*%
%ADD125R,0.0591X0.0276*%
%ADD126R,0.0630X0.1299*%
%ADD127R,0.0531X0.0354*%
%ADD128R,0.0177X0.0748*%
%ADD129R,0.0492X0.0236*%
%ADD130R,0.0335X0.1063*%
%ADD131R,0.0886X0.0610*%
%ADD132R,0.0512X0.0768*%
%ADD133R,0.0807X0.0551*%
%ADD134R,0.1457X0.0492*%
%ADD135R,0.0817X0.1181*%
%ADD136R,0.1801X0.0945*%
%ADD137R,0.0707X0.0295*%
%ADD138R,0.1772X0.0640*%
%ADD139C,0.0787*%
%ADD140C,0.2362*%
%ADD141C,0.0748*%
%ADD142C,0.0591*%
%ADD143C,0.0984*%
%ADD144C,0.2913*%
%ADD145C,0.0433*%
%ADD146C,0.0630*%
%ADD147C,0.0551*%
%ADD148C,0.0256*%
%ADD149C,0.0260*%
%ADD150C,0.0230*%
D10*
X407677Y415797D02*
X407691Y415695D01*
X407730Y415600D01*
X407792Y415519D01*
X407874Y415456D01*
X407969Y415417D01*
X408071Y415404D01*
X408268Y415010D02*
X408166Y414996D01*
X408071Y414957D01*
X407989Y414895D01*
X407927Y414813D01*
X407887Y414718D01*
X407874Y414616D01*
X407579Y414370D02*
X407605Y414272D01*
X407677Y414200D01*
X407776Y414173D01*
X407972Y415207D02*
X407871Y415193D01*
X407776Y415154D01*
X407694Y415091D01*
X407631Y415010D01*
X407592Y414915D01*
X407579Y414813D01*
X407972Y415992D02*
X407986Y415890D01*
X408025Y415795D01*
X408088Y415714D01*
X408169Y415651D01*
X408264Y415612D01*
X408366Y415598D01*
X407972Y416189D02*
X407946Y416287D01*
X407874Y416359D01*
X407776Y416386D01*
X411220Y417028D02*
X411119Y417014D01*
X411024Y416975D01*
X410942Y416912D01*
X410880Y416831D01*
X410840Y416736D01*
X410827Y416634D01*
X411463Y417028D02*
X411561Y417054D01*
X411633Y417126D01*
X411659Y417224D01*
X411219Y417224D02*
X411317Y417251D01*
X411389Y417323D01*
X411415Y417421D01*
X411220Y417224D02*
X411118Y417215D01*
X411018Y417189D01*
X410925Y417145D01*
X410841Y417086D01*
X410768Y417013D01*
X410709Y416929D01*
X410666Y416836D01*
X410639Y416736D01*
X410630Y416634D01*
X411614Y417868D02*
X411516Y417842D01*
X411444Y417770D01*
X411417Y417671D01*
X413100Y409892D02*
Y410423D01*
X412864Y410659D02*
X413100Y410423D01*
X412441Y410659D02*
X412864D01*
X409823Y406201D02*
X410453D01*
X420423Y402106D02*
Y402805D01*
X419547Y402106D02*
X419783Y402343D01*
Y402362D01*
X417028Y397650D02*
Y398524D01*
X415354Y398228D02*
X415797Y398671D01*
X416880D01*
X417028Y398524D01*
X410089Y408268D02*
X413484D01*
X413917Y407835D01*
X415108Y409183D02*
X415630Y408661D01*
X417372D01*
X417913Y408120D01*
Y405118D02*
Y408120D01*
Y405118D02*
X418348Y404683D01*
X418898D01*
X415529Y419466D02*
X415797Y419734D01*
X415529Y418088D02*
Y419466D01*
X413228Y395965D02*
X417175D01*
X417638Y396427D01*
Y396882D01*
X420079Y403396D02*
Y403888D01*
X415305Y406250D02*
Y407726D01*
X414724Y408307D02*
X415305Y407726D01*
X414331Y408012D02*
Y416968D01*
Y408012D02*
X414961Y407382D01*
X415108Y409183D02*
Y416831D01*
X420215Y399743D02*
X420530D01*
X419959Y399487D02*
X420215Y399743D01*
X419723Y399487D02*
X419959D01*
X419723Y398938D02*
Y399231D01*
X412539Y405896D02*
Y406280D01*
X409508Y424626D02*
Y425492D01*
X409606Y425591D01*
X410000D01*
X411634Y397766D02*
X411789D01*
X413652Y398159D02*
X413780Y398032D01*
X413504Y398159D02*
X413652D01*
X412736Y422185D02*
Y422598D01*
X413435Y406398D02*
X413573Y406260D01*
X413051Y406909D02*
X413366D01*
X413435Y406841D01*
X413386Y406004D02*
Y406201D01*
X413307Y406280D02*
X413386Y406201D01*
X413051Y406280D02*
X413307D01*
X414567Y405905D02*
Y406260D01*
X414321Y405659D02*
X414567Y405905D01*
X413091Y405659D02*
X414321D01*
X412795Y405955D02*
X413091Y405659D01*
X412795Y405955D02*
Y406280D01*
X412539Y406703D02*
Y406909D01*
Y406703D02*
X412648Y406595D01*
X412943D01*
X413051Y406486D01*
Y406280D02*
Y406486D01*
X413878Y406929D02*
Y407480D01*
X414311Y406929D02*
X414567D01*
X414222Y406841D02*
X414311Y406929D01*
X414222Y406348D02*
Y406841D01*
X414134Y406260D02*
X414222Y406348D01*
X414577Y406250D02*
X415305D01*
X411467Y407530D02*
X411870D01*
X412539Y407293D02*
Y407530D01*
Y407293D02*
X412795Y407037D01*
Y406860D02*
Y407037D01*
X412539Y407530D02*
X413248D01*
X413917D02*
Y407835D01*
X410669Y425591D02*
X411102D01*
X407638Y423032D02*
X408032D01*
X411122Y424134D02*
X411909D01*
X411260Y423740D02*
Y424134D01*
X410551Y423032D02*
X411260Y423740D01*
X408701Y423032D02*
X410551D01*
X411476Y423780D02*
X411634Y423937D01*
X411476Y423524D02*
Y423780D01*
X410571Y422618D02*
X411476Y423524D01*
X408366Y424272D02*
X409606D01*
X406841Y422195D02*
Y422746D01*
X408366Y424272D01*
X410748Y423642D02*
Y423957D01*
X410118Y424468D02*
Y424803D01*
X409921Y424213D02*
X410118D01*
X409508Y424626D02*
X409921Y424213D01*
X410000Y425256D02*
X410000D01*
X410787Y425118D02*
X411575Y424331D01*
X410000Y425256D02*
Y425591D01*
Y425256D02*
X410138Y425118D01*
X410787D01*
X409606Y424272D02*
X409921Y423957D01*
X410118D01*
X409374Y423673D02*
X410287D01*
X410453Y423839D01*
Y424350D01*
X410571Y424468D01*
X410748D01*
Y424213D02*
X411043D01*
X411122Y424134D01*
X411575Y424331D02*
X411909D01*
X413917Y403760D02*
X414232Y403445D01*
X413642Y403248D02*
X413819Y403425D01*
X413543Y403248D02*
X413642D01*
X413701Y403760D02*
X413917D01*
X412579Y403445D02*
X412835D01*
Y402795D02*
Y403051D01*
X412559Y402185D02*
Y403109D01*
X412698Y403248D01*
X412835D01*
X406201Y399508D02*
X406654D01*
X413009Y397483D02*
Y397687D01*
X407087Y421260D02*
X407234Y421260D01*
X407598Y421260D01*
X413386Y421112D02*
Y421516D01*
X412795Y421112D02*
Y421516D01*
X409301Y426329D02*
X411073D01*
X408465Y427165D02*
X409301Y426329D01*
X408465Y427165D02*
Y427165D01*
X400000Y422638D02*
X401181Y423819D01*
X403937Y421260D02*
X407087D01*
X400394Y417717D02*
X403937Y421260D01*
X400787Y409134D02*
Y417559D01*
X404095Y420866D01*
X401181Y417402D02*
X404252Y420472D01*
X401968Y417638D02*
X404409Y420079D01*
X405118Y409646D02*
Y409646D01*
X414724Y408307D02*
Y417126D01*
X413780Y397638D02*
X414095D01*
X414075Y398474D02*
X414419D01*
X413780Y398868D02*
X414124D01*
X415108Y416831D02*
X418012Y419734D01*
X407087Y427165D02*
X408465D01*
X406348Y427904D02*
X407087Y427165D01*
X403356Y430630D02*
X403799D01*
X403543Y402756D02*
Y405118D01*
X400394Y408898D02*
Y417717D01*
Y408898D02*
X403937Y405354D01*
Y402756D02*
Y405354D01*
X400787Y409134D02*
X404331Y405591D01*
Y402756D02*
Y405591D01*
X401181Y409370D02*
Y417402D01*
Y409370D02*
X404724Y405827D01*
Y402756D02*
Y405827D01*
X404724Y398425D02*
Y398720D01*
X404980Y398976D01*
X406949D01*
X404705Y397480D02*
X407008D01*
X404331Y397933D02*
Y398425D01*
Y397933D02*
X404705Y397480D01*
X404478Y397195D02*
X407136D01*
X403937Y397736D02*
Y398425D01*
Y397736D02*
X404478Y397195D01*
X401968Y410630D02*
Y411083D01*
Y411752D02*
Y417638D01*
X401329Y428100D02*
Y428494D01*
X401083Y428740D02*
X401329Y428494D01*
X400709Y428740D02*
X401083D01*
X400827Y429370D02*
Y429626D01*
X400689Y429232D02*
X400827Y429370D01*
X400689Y429134D02*
Y429232D01*
X400148Y429636D02*
Y430069D01*
X400709Y428937D02*
X401831D01*
X399852D02*
X400079D01*
X399754Y429035D02*
X399852Y428937D01*
X399754Y429035D02*
Y429724D01*
X399665Y429813D02*
X399754Y429724D01*
X398990Y429813D02*
X399665D01*
X400079Y428425D02*
Y428740D01*
X399793Y428140D02*
X400079Y428425D01*
X398990Y428140D02*
X399793D01*
X412648Y415600D02*
X413287D01*
X411959Y415502D02*
X412549D01*
X420374Y400020D02*
Y400295D01*
X411909Y424528D02*
X412274D01*
X412717Y424134D02*
X413130D01*
X409350Y413632D02*
X409429Y413711D01*
X409646D01*
X408858Y414715D02*
X408957Y414813D01*
X409331D01*
X408514Y418750D02*
X408996D01*
X409016Y418770D02*
X409134D01*
X409764Y418140D01*
X409882D01*
X409016Y417904D02*
Y418140D01*
Y417904D02*
X409154Y417766D01*
Y417569D02*
Y417766D01*
X410335Y417323D02*
Y418652D01*
X409882Y418770D02*
X410217D01*
X410335Y418652D01*
X409154Y417569D02*
X409547D01*
X410433Y415915D02*
Y417224D01*
X409941Y417569D02*
X410335D01*
Y417323D02*
X410433Y417224D01*
X409646Y417274D02*
X410089D01*
X409547Y417372D02*
X409646Y417274D01*
X409547Y417372D02*
Y417569D01*
X410236Y415915D02*
Y417126D01*
X410089Y417274D02*
X410236Y417126D01*
X410039Y415915D02*
Y416240D01*
X409941Y416339D02*
X410039Y416240D01*
X409843Y415915D02*
Y416142D01*
X411220Y415915D02*
Y415994D01*
X412894Y415994D02*
Y416339D01*
X413287Y415994D02*
Y416339D01*
X411535Y414616D02*
X411713D01*
X411860Y414468D01*
X411535Y414813D02*
X411860D01*
X411959Y414715D01*
X412598Y415010D02*
X412795Y414813D01*
X412894D01*
X411535Y415010D02*
X412598D01*
X411535Y415207D02*
X412894D01*
X412549Y415502D02*
X412648Y415600D01*
X411860Y415404D02*
X411959Y415502D01*
X411535Y415404D02*
X411860D01*
X413287Y414468D02*
Y415207D01*
X411959Y413927D02*
X412106D01*
X411860Y414026D02*
X411959Y413927D01*
X411860Y414026D02*
Y414468D01*
X412500Y413927D02*
X412795D01*
X413622Y432992D02*
Y433386D01*
X407136Y397195D02*
X407244Y397303D01*
X407480Y397146D02*
Y397195D01*
X408012Y397480D02*
X408445D01*
X411890Y397264D02*
X412008Y397382D01*
X404409Y420079D02*
X408976D01*
X413012Y422874D02*
Y423740D01*
X412736Y422598D02*
X413012Y422874D01*
X413130Y423937D02*
X413327Y423740D01*
X413130Y424331D02*
X413583D01*
X412618Y423209D02*
Y423622D01*
X412421Y423366D02*
Y423622D01*
X411516Y422461D02*
X412421Y423366D01*
X412224Y423465D02*
Y423622D01*
X412028Y423622D02*
Y423740D01*
X410689Y422283D02*
X412028Y423622D01*
X409035Y422283D02*
X410689D01*
X408799Y422047D02*
X409035Y422283D01*
X411634Y423937D02*
X411909D01*
X400000Y408661D02*
Y422638D01*
Y408661D02*
X403543Y405118D01*
X418012Y419734D02*
Y421299D01*
X412028Y424724D02*
Y425374D01*
X411073Y426329D02*
X412028Y425374D01*
X413278Y398317D02*
X413366Y398405D01*
X413612D01*
X416014Y406230D02*
Y406732D01*
Y406230D02*
X416191Y406053D01*
X416585D02*
X416762Y406230D01*
X416191Y406053D02*
X416585D01*
X416762Y406230D02*
Y406732D01*
X413976Y421063D02*
Y421516D01*
X415157Y421260D02*
X415787Y421890D01*
X415157Y420079D02*
Y421260D01*
X414813Y419734D02*
X415157Y420079D01*
X414518Y419734D02*
X414813D01*
X414016Y422146D02*
X415118D01*
X414961Y423032D02*
Y424459D01*
X414616Y424803D02*
X414961Y424459D01*
X413533Y424803D02*
X414616D01*
X413258Y424528D02*
X413533Y424803D01*
X413130Y424528D02*
X413258D01*
X413012Y424724D02*
Y424921D01*
X413140Y425049D01*
X414961D01*
X415354Y424655D01*
Y423032D02*
Y424655D01*
Y423032D02*
X415787Y422598D01*
Y421890D02*
Y422598D01*
X414823Y403445D02*
X414922Y403346D01*
Y403071D02*
Y403346D01*
X414232Y403445D02*
X414823D01*
X414922Y402048D02*
Y402480D01*
X413543Y403051D02*
X414233D01*
X414253Y402480D02*
Y403071D01*
X415118Y421693D02*
Y422146D01*
X417264Y423622D02*
X417717D01*
X412815Y425256D02*
X413032Y425472D01*
X412815Y424843D02*
Y425256D01*
X415000Y425472D02*
X415669Y424803D01*
Y423976D02*
Y424803D01*
Y423976D02*
X416024Y423622D01*
X416595D01*
Y422717D02*
Y423622D01*
Y422717D02*
X418012Y421299D01*
X413032Y425472D02*
X415000D01*
X409252Y421122D02*
X410650D01*
X410945Y421417D01*
Y422185D02*
X412224Y423465D01*
X420530Y399743D02*
X420709Y399921D01*
X421024D01*
Y400000D02*
X421457D01*
X421024Y400689D02*
Y401142D01*
X420353Y399487D02*
X420747D01*
X420353Y398623D02*
Y399231D01*
X419882Y398583D02*
X420325D01*
X421014D02*
X421457D01*
X404252Y420472D02*
X408150D01*
X408681Y421122D02*
X408799Y421240D01*
X408366Y421122D02*
X408681D01*
X408799Y421240D02*
Y422047D01*
X404173Y423819D02*
X406142Y421850D01*
X407323D01*
X408091Y422618D01*
X401181Y423819D02*
X404173D01*
X408091Y422618D02*
X410571D01*
X407953Y421811D02*
X408346D01*
X409272D02*
X409685D01*
X407087Y419291D02*
X410827D01*
X406693Y418898D02*
X407087Y419291D01*
X406693Y413386D02*
Y418898D01*
X412520Y420472D02*
X413386D01*
X413976Y421063D01*
X410236Y419685D02*
X411024Y420472D01*
X406929Y419685D02*
X410236D01*
X406299Y419055D02*
X406929Y419685D01*
X406299Y413228D02*
Y419055D01*
Y413228D02*
X407374Y412154D01*
Y409673D02*
Y412154D01*
X405905Y410433D02*
Y419685D01*
X405118Y409646D02*
X405905Y410433D01*
X408366Y420689D02*
Y421122D01*
X408150Y420472D02*
X408366Y420689D01*
X409252Y420354D02*
Y421122D01*
X408976Y420079D02*
X409252Y420354D01*
X410945Y421417D02*
Y422185D01*
X404095Y420866D02*
X407598D01*
X413327Y422185D02*
Y423740D01*
X408374Y409673D02*
Y411705D01*
X406693Y413386D02*
X408374Y411705D01*
X411516Y422461D02*
X411516D01*
X411417Y422362D02*
X411516Y422461D01*
X411417Y419882D02*
Y422362D01*
X410827Y419291D02*
X411417Y419882D01*
X412618Y423209D02*
X412618D01*
X411811Y422402D02*
X412618Y423209D01*
X411811Y419488D02*
Y422402D01*
Y419488D02*
X414331Y416968D01*
X412205Y422441D02*
X412815Y423051D01*
X412205Y419646D02*
Y422441D01*
Y419646D02*
X414724Y417126D01*
X412815Y423051D02*
Y423622D01*
X411535Y415600D02*
X411821D01*
X412008Y415787D01*
X411220Y415915D02*
X411683D01*
X411959Y416191D01*
X411024Y415915D02*
Y416191D01*
X411122Y416289D01*
X412352Y415837D02*
Y416191D01*
X410630Y413484D02*
Y413711D01*
Y413484D02*
X410728Y413386D01*
Y413238D02*
Y413386D01*
X407677Y415797D02*
Y415992D01*
X408071Y415404D02*
X409331D01*
X407874Y414567D02*
Y414616D01*
X408268Y415010D02*
X409331D01*
X407776Y414173D02*
X407874D01*
X407579Y414370D02*
X407579Y414813D01*
X407972Y415207D02*
X409331D01*
X408366Y415598D02*
X409331Y415600D01*
X407972Y415992D02*
X407972Y416189D01*
X407677Y416386D02*
X407776D01*
X411659Y417474D02*
X411659Y417224D01*
X410827Y415915D02*
Y416634D01*
X411220Y417028D02*
X411463D01*
X411614Y417868D02*
X411659Y417868D01*
X410630Y415915D02*
Y416634D01*
X411417Y417423D02*
Y417671D01*
X420423Y400984D02*
Y401437D01*
X419291Y400984D02*
Y401437D01*
Y399951D02*
X419499Y399743D01*
X419723D01*
X416240Y397177D02*
Y397650D01*
X418405Y397177D02*
Y397650D01*
X415896Y397638D02*
X416228D01*
X418417D02*
X418750D01*
X417224Y397650D02*
Y398081D01*
X417323Y398179D01*
X417421Y397650D02*
Y397933D01*
X417569Y398081D01*
Y398278D01*
X417323Y398524D02*
X417569Y398278D01*
X413248Y397244D02*
X413533D01*
X413009Y397483D02*
X413248Y397244D01*
X413140Y396555D02*
X414321D01*
X415354Y397589D01*
Y398228D01*
X419723Y399999D02*
Y400382D01*
X419291Y399951D02*
Y400394D01*
X419685Y400787D01*
Y401968D01*
X419547Y402106D02*
X419685Y401968D01*
X419291Y402106D02*
X419547D01*
X420030Y400689D02*
Y401968D01*
X420167Y402106D01*
X420423D01*
X419723Y400382D02*
X420030Y400689D01*
X412165Y397008D02*
Y397485D01*
X412008Y396850D02*
X412165Y397008D01*
X412323Y396476D02*
Y397485D01*
X412480Y396713D02*
X413228Y395965D01*
X412480Y396713D02*
Y397485D01*
X412638Y397057D02*
X413140Y396555D01*
X412638Y397057D02*
Y397485D01*
X412795Y397293D02*
Y397473D01*
Y397293D02*
X413238Y396850D01*
X413533D01*
X403189Y430463D02*
X403356Y430630D01*
X413435Y406398D02*
Y406841D01*
X413573Y406260D02*
X414134D01*
X406102Y431841D02*
X406348Y431595D01*
X404183Y431841D02*
X406102D01*
X403888Y432136D02*
X404183Y431841D01*
X403583Y432136D02*
X403888D01*
X406348Y427904D02*
Y431595D01*
X403583Y432136D02*
Y432874D01*
X419980Y410384D02*
X420079Y410482D01*
X419980Y410236D02*
Y410384D01*
X420905Y405905D02*
Y409980D01*
X421063Y410089D02*
X421407Y409744D01*
Y405905D02*
Y409744D01*
X420472Y411909D02*
X420591Y411791D01*
X420472Y411909D02*
Y412215D01*
X420905Y411801D02*
X421014Y411909D01*
Y412155D01*
X420276Y397441D02*
X422047Y397441D01*
X420276Y396260D02*
X422047Y396260D01*
X419095Y413976D02*
X420866D01*
X400394Y393701D02*
Y394685D01*
X399213Y393701D02*
Y394685D01*
X398425Y393701D02*
X399213D01*
X404134Y433661D02*
Y434646D01*
X405315Y433661D02*
Y434646D01*
D11*
X407480Y397795D02*
D03*
Y398661D02*
D03*
D12*
Y398228D02*
D03*
D13*
X407244Y398976D02*
D03*
X407087D02*
D03*
X407874D02*
D03*
X407717D02*
D03*
X407559D02*
D03*
X407402D02*
D03*
X407717Y397480D02*
D03*
X407874D02*
D03*
X407087D02*
D03*
X407244D02*
D03*
X407402D02*
D03*
X407559D02*
D03*
D14*
X413130Y424134D02*
D03*
Y423937D02*
D03*
Y424331D02*
D03*
Y424528D02*
D03*
X411909Y424331D02*
D03*
Y424528D02*
D03*
Y424134D02*
D03*
Y423937D02*
D03*
D15*
X412618Y424843D02*
D03*
X412815D02*
D03*
X412421D02*
D03*
X412224D02*
D03*
X412421Y423622D02*
D03*
X412224D02*
D03*
X412618D02*
D03*
X412815D02*
D03*
D16*
X412028Y423740D02*
D03*
Y424724D02*
D03*
X413012D02*
D03*
Y423740D02*
D03*
D17*
X412520Y424232D02*
D03*
D18*
X419723Y399487D02*
D03*
Y399743D02*
D03*
Y399231D02*
D03*
Y399999D02*
D03*
X420353Y399487D02*
D03*
Y399743D02*
D03*
Y399231D02*
D03*
Y399999D02*
D03*
D19*
X411909Y403982D02*
D03*
Y401923D02*
D03*
D20*
X410532Y399813D02*
D03*
Y400876D02*
D03*
X410335Y411014D02*
D03*
Y409951D02*
D03*
D21*
X414587Y404331D02*
D03*
X413484D02*
D03*
D22*
X410335Y397589D02*
D03*
Y398691D02*
D03*
D23*
X412087Y411417D02*
D03*
X411339D02*
D03*
X411732Y399262D02*
D03*
X412480D02*
D03*
X412480Y400079D02*
D03*
X411732D02*
D03*
X413898Y399557D02*
D03*
X413150D02*
D03*
X408150Y400295D02*
D03*
X407402D02*
D03*
D24*
X411122Y397805D02*
D03*
Y398553D02*
D03*
D25*
X409843Y395217D02*
D03*
Y394547D02*
D03*
X412205D02*
D03*
Y395217D02*
D03*
X407087Y430571D02*
D03*
Y431240D02*
D03*
X409449D02*
D03*
Y430571D02*
D03*
X411811D02*
D03*
Y431240D02*
D03*
X401968Y411083D02*
D03*
Y411752D02*
D03*
X409252Y421791D02*
D03*
Y421122D02*
D03*
X413976Y422185D02*
D03*
Y421516D02*
D03*
X418405Y406486D02*
D03*
Y405817D02*
D03*
X412795Y421516D02*
D03*
Y422185D02*
D03*
X413386D02*
D03*
Y421516D02*
D03*
X413671Y423642D02*
D03*
Y424311D02*
D03*
X414262D02*
D03*
Y423642D02*
D03*
X420128Y394941D02*
D03*
Y395610D02*
D03*
X413878Y406260D02*
D03*
Y406929D02*
D03*
X408465Y397500D02*
D03*
Y398169D02*
D03*
X414567Y406260D02*
D03*
Y406929D02*
D03*
X420718Y395610D02*
D03*
Y394941D02*
D03*
X405512Y431339D02*
D03*
Y430669D02*
D03*
X414173Y395217D02*
D03*
Y394547D02*
D03*
X408366Y421791D02*
D03*
Y421122D02*
D03*
X411417Y397037D02*
D03*
Y396368D02*
D03*
X420423Y402106D02*
D03*
Y401437D02*
D03*
X419291D02*
D03*
Y402106D02*
D03*
X421014Y400010D02*
D03*
Y400679D02*
D03*
X407087Y428878D02*
D03*
Y428209D02*
D03*
X409449D02*
D03*
Y428878D02*
D03*
X411811D02*
D03*
Y428209D02*
D03*
X401772Y432618D02*
D03*
Y431949D02*
D03*
X414567Y427992D02*
D03*
Y427323D02*
D03*
X413878D02*
D03*
Y427992D02*
D03*
X421112Y412884D02*
D03*
Y412215D02*
D03*
X419537Y411407D02*
D03*
Y410738D02*
D03*
X420472Y412884D02*
D03*
Y412215D02*
D03*
D26*
X419587Y403396D02*
D03*
X420571D02*
D03*
X420079D02*
D03*
X420571Y404970D02*
D03*
X419587D02*
D03*
X420079D02*
D03*
X409705Y399311D02*
D03*
D27*
X417087Y429449D02*
D03*
Y429843D02*
D03*
Y430236D02*
D03*
Y430630D02*
D03*
Y431024D02*
D03*
Y431417D02*
D03*
Y431811D02*
D03*
Y432205D02*
D03*
Y432598D02*
D03*
Y432992D02*
D03*
Y433386D02*
D03*
Y433780D02*
D03*
X413622Y429449D02*
D03*
Y429843D02*
D03*
Y430236D02*
D03*
Y430630D02*
D03*
Y431024D02*
D03*
Y431417D02*
D03*
Y431811D02*
D03*
X413622Y432205D02*
D03*
X413622Y432598D02*
D03*
Y432992D02*
D03*
Y433386D02*
D03*
Y433780D02*
D03*
D28*
X415354Y429291D02*
D03*
X415748D02*
D03*
X416142D02*
D03*
X414961D02*
D03*
X414567D02*
D03*
D29*
X417087Y434232D02*
D03*
X413622D02*
D03*
D30*
X398110Y433780D02*
D03*
X401102Y430787D02*
D03*
Y433780D02*
D03*
D31*
X398268Y430787D02*
D03*
D32*
X398110Y430945D02*
D03*
D33*
X398228Y430631D02*
X398109Y430512D01*
X397835Y430787D01*
X397954Y430906D01*
X398228Y430631D01*
X398162D02*
X398109Y430578D01*
X397901Y430787D01*
X397954Y430840D01*
X398162Y430631D01*
X398106Y430641D02*
X397957Y430776D01*
D34*
X410453Y406201D02*
D03*
Y405945D02*
D03*
Y406457D02*
D03*
X409823Y406201D02*
D03*
Y405945D02*
D03*
Y406457D02*
D03*
X410118Y424468D02*
D03*
Y423957D02*
D03*
X410748Y424213D02*
D03*
Y424468D02*
D03*
Y423957D02*
D03*
X410118Y424213D02*
D03*
D35*
X412795Y406909D02*
D03*
X413051D02*
D03*
X412539D02*
D03*
X413051Y406280D02*
D03*
X412539D02*
D03*
X412795D02*
D03*
D36*
X400709Y429134D02*
D03*
X400709Y428740D02*
D03*
Y428937D02*
D03*
X400079Y428740D02*
D03*
Y428937D02*
D03*
D37*
X400098Y429134D02*
D03*
X409331Y415600D02*
D03*
Y415404D02*
D03*
Y415207D02*
D03*
Y415010D02*
D03*
Y414026D02*
D03*
Y414222D02*
D03*
Y414419D02*
D03*
Y414616D02*
D03*
Y414813D02*
D03*
X411535Y414026D02*
D03*
Y414222D02*
D03*
Y414419D02*
D03*
Y414616D02*
D03*
Y415600D02*
D03*
Y415404D02*
D03*
Y415207D02*
D03*
Y415010D02*
D03*
Y414813D02*
D03*
D38*
X397860Y429045D02*
D03*
X398990Y429557D02*
D03*
Y429301D02*
D03*
Y429045D02*
D03*
Y429813D02*
D03*
X397860Y429301D02*
D03*
Y429557D02*
D03*
Y429813D02*
D03*
Y428140D02*
D03*
Y427884D02*
D03*
Y427628D02*
D03*
X398990Y428140D02*
D03*
Y427372D02*
D03*
Y427628D02*
D03*
Y427884D02*
D03*
X397860Y427372D02*
D03*
D39*
X398272Y429429D02*
D03*
Y427756D02*
D03*
D40*
X412441Y410285D02*
D03*
Y409911D02*
D03*
Y410659D02*
D03*
X411378Y409911D02*
D03*
Y410659D02*
D03*
X404862Y430630D02*
D03*
Y431378D02*
D03*
X403799Y430630D02*
D03*
Y431378D02*
D03*
Y431004D02*
D03*
D41*
X411885Y398002D02*
D03*
D42*
X412077D02*
D03*
Y398159D02*
D03*
Y398317D02*
D03*
X412884D02*
D03*
Y398159D02*
D03*
X412165Y398563D02*
D03*
Y397598D02*
D03*
X412323D02*
D03*
X412480D02*
D03*
X412638D02*
D03*
X412628Y398002D02*
D03*
X412008Y398474D02*
D03*
X412323Y398573D02*
D03*
X412884Y397845D02*
D03*
D43*
X411885Y398238D02*
D03*
D44*
X412096D02*
D03*
D45*
X412648Y398499D02*
D03*
X412470D02*
D03*
D46*
X412648Y398209D02*
D03*
X412470D02*
D03*
D47*
X412826Y398598D02*
X412771Y398542D01*
X412747Y398566D01*
X412802Y398622D01*
X412826Y398598D01*
X412813D02*
X412771Y398555D01*
X412760Y398566D01*
X412802Y398608D01*
X412813Y398598D01*
X412805Y398593D02*
X412769Y398571D01*
X411940Y397712D02*
X411885Y397656D01*
X411861Y397680D01*
X411916Y397736D01*
X411940Y397712D01*
X411927D02*
X411885Y397669D01*
X411874Y397680D01*
X411916Y397722D01*
X411927Y397712D01*
X411918Y397707D02*
X411882Y397685D01*
X411918Y398473D02*
X411877Y398515D01*
X411968Y398605D01*
X412009Y398564D01*
X411918Y398473D01*
Y398487D02*
X411890Y398515D01*
X411968Y398592D01*
X411995Y398564D01*
X411918Y398487D01*
Y398500D02*
X411904Y398515D01*
X411968Y398579D01*
X411982Y398564D01*
X411918Y398500D01*
Y398513D02*
X411917Y398515D01*
X411968Y398565D01*
X411969Y398564D01*
X411918Y398513D01*
X411928Y398517D02*
X411958Y398562D01*
D48*
X412717Y398693D02*
D03*
D49*
X412734Y398565D02*
D03*
D50*
X411975Y397574D02*
X412012Y397611D01*
X412033Y397590D01*
X411996Y397553D01*
X411975Y397574D01*
X411987D02*
X412012Y397600D01*
X412022Y397590D01*
X411996Y397565D01*
X411987Y397574D01*
X411994Y397579D02*
X412015Y397586D01*
X412871Y398470D02*
X412908Y398507D01*
X412929Y398486D01*
X412892Y398449D01*
X412871Y398470D01*
X412883D02*
X412908Y398495D01*
X412917Y398486D01*
X412892Y398461D01*
X412883Y398470D01*
X412890Y398475D02*
X412910Y398481D01*
X412908Y397654D02*
X412871Y397692D01*
X412892Y397712D01*
X412929Y397675D01*
X412908Y397654D01*
Y397666D02*
X412883Y397692D01*
X412892Y397701D01*
X412917Y397675D01*
X412908Y397666D01*
X412903Y397673D02*
X412897Y397694D01*
X412791Y397611D02*
X412828Y397574D01*
X412807Y397553D01*
X412770Y397590D01*
X412791Y397611D01*
Y397600D02*
X412816Y397574D01*
X412807Y397565D01*
X412781Y397590D01*
X412791Y397600D01*
X412795Y397593D02*
X412802Y397572D01*
D51*
X412030Y397596D02*
D03*
X412773D02*
D03*
D52*
X412008Y397473D02*
D03*
X412795D02*
D03*
D53*
X412997Y398317D02*
D03*
Y398159D02*
D03*
Y397845D02*
D03*
D54*
X412886Y398452D02*
D03*
Y397709D02*
D03*
D55*
X413009Y398474D02*
D03*
Y397687D02*
D03*
D56*
X412165Y398676D02*
D03*
Y397485D02*
D03*
X412323D02*
D03*
X412480D02*
D03*
X412638D02*
D03*
D57*
X411789Y397766D02*
D03*
D58*
X412077Y397835D02*
D03*
D59*
X411885D02*
D03*
D60*
X411917Y397748D02*
D03*
D61*
X412869Y398002D02*
D03*
D62*
X411850Y398474D02*
D03*
D63*
X412008Y398632D02*
D03*
D64*
X412402Y398681D02*
D03*
D65*
X412372Y398553D02*
D03*
D66*
X403583Y432874D02*
D03*
Y433661D02*
D03*
X402717Y433268D02*
D03*
D67*
X418898Y403683D02*
D03*
Y404683D02*
D03*
X421260Y403683D02*
D03*
Y404683D02*
D03*
D68*
X409882Y418770D02*
D03*
X409016D02*
D03*
Y418140D02*
D03*
X409882D02*
D03*
D69*
X416014Y405669D02*
D03*
X416762D02*
D03*
X416014Y406732D02*
D03*
X416762D02*
D03*
X416388D02*
D03*
D70*
X398425Y394882D02*
D03*
X405512Y429134D02*
D03*
X416142Y427559D02*
D03*
D71*
X401968Y395630D02*
D03*
Y427205D02*
D03*
D72*
X411713Y400699D02*
D03*
X412106D02*
D03*
X411959Y416191D02*
D03*
X412352D02*
D03*
X412500Y413927D02*
D03*
X412106D02*
D03*
X412894Y414813D02*
D03*
X413287D02*
D03*
Y415207D02*
D03*
X412894D02*
D03*
X412008Y416634D02*
D03*
X411614D02*
D03*
X410728Y413238D02*
D03*
X411122D02*
D03*
X408563Y413632D02*
D03*
X408957D02*
D03*
X409547Y416585D02*
D03*
X409941D02*
D03*
Y416978D02*
D03*
X409547D02*
D03*
X409941Y413238D02*
D03*
X410335D02*
D03*
Y412845D02*
D03*
X409941D02*
D03*
Y417569D02*
D03*
X409547D02*
D03*
X410335D02*
D03*
X410728D02*
D03*
X408760D02*
D03*
X409154D02*
D03*
X410433Y399311D02*
D03*
X410039D02*
D03*
X413386Y398868D02*
D03*
X413780D02*
D03*
X414075Y398474D02*
D03*
X413681D02*
D03*
D73*
X408760Y416289D02*
D03*
Y415896D02*
D03*
X408858Y414518D02*
D03*
Y414124D02*
D03*
X412205Y414715D02*
D03*
Y414321D02*
D03*
X413287Y415994D02*
D03*
Y415600D02*
D03*
X408760Y417077D02*
D03*
Y416683D02*
D03*
X412894Y415600D02*
D03*
Y415994D02*
D03*
X413780Y398032D02*
D03*
Y397638D02*
D03*
D74*
X415118Y422146D02*
D03*
X415787D02*
D03*
X416595Y423622D02*
D03*
X417264D02*
D03*
X408032Y423032D02*
D03*
X408701D02*
D03*
X414253Y402480D02*
D03*
X414922D02*
D03*
X414253Y403071D02*
D03*
X414922D02*
D03*
X416053Y405020D02*
D03*
X416722D02*
D03*
Y407382D02*
D03*
X416053D02*
D03*
X413839Y401791D02*
D03*
X413170D02*
D03*
X402520Y431398D02*
D03*
X403189D02*
D03*
X407146Y396752D02*
D03*
X407815D02*
D03*
X413770Y409892D02*
D03*
X413100D02*
D03*
X410325Y396506D02*
D03*
X409655D02*
D03*
X406654Y399508D02*
D03*
X407323D02*
D03*
X400157Y429626D02*
D03*
X400827D02*
D03*
X402500Y429528D02*
D03*
X401831D02*
D03*
X402500Y428937D02*
D03*
X401831D02*
D03*
X411870Y407530D02*
D03*
X412539D02*
D03*
X413917D02*
D03*
X413248D02*
D03*
X409803Y407087D02*
D03*
X410472D02*
D03*
Y405315D02*
D03*
X409803D02*
D03*
X410000Y425591D02*
D03*
X410669D02*
D03*
X421004Y398573D02*
D03*
X420335D02*
D03*
X403583Y432136D02*
D03*
X402913D02*
D03*
X417904Y428642D02*
D03*
X417234D02*
D03*
X401880Y430709D02*
D03*
X402549D02*
D03*
D75*
X413189Y403346D02*
D03*
D76*
X412835Y403642D02*
D03*
Y403445D02*
D03*
Y403051D02*
D03*
Y403248D02*
D03*
X413543Y403642D02*
D03*
Y403445D02*
D03*
Y403051D02*
D03*
Y403248D02*
D03*
D77*
X420276Y411614D02*
D03*
X420433D02*
D03*
X421063D02*
D03*
X420905D02*
D03*
X420591D02*
D03*
X420748D02*
D03*
X420276Y410433D02*
D03*
X420433D02*
D03*
X421063D02*
D03*
X420905D02*
D03*
X420591D02*
D03*
X420748D02*
D03*
D78*
X421260Y411417D02*
D03*
Y411260D02*
D03*
Y410630D02*
D03*
Y410787D02*
D03*
Y411102D02*
D03*
Y410945D02*
D03*
X420079Y411417D02*
D03*
Y411260D02*
D03*
Y410630D02*
D03*
Y410787D02*
D03*
Y411102D02*
D03*
Y410945D02*
D03*
D79*
X409646Y413711D02*
D03*
X409843D02*
D03*
X410039D02*
D03*
X410236D02*
D03*
X411220D02*
D03*
X411024D02*
D03*
X410827D02*
D03*
X410630D02*
D03*
X410433D02*
D03*
X411220Y415915D02*
D03*
X411024D02*
D03*
X410827D02*
D03*
X410630D02*
D03*
X409646D02*
D03*
X409843D02*
D03*
X410039D02*
D03*
X410236D02*
D03*
X410433D02*
D03*
D80*
Y414813D02*
D03*
D81*
X419659Y407185D02*
D03*
D82*
X417421Y397650D02*
D03*
X417224D02*
D03*
X417028D02*
D03*
X416831D02*
D03*
X416634D02*
D03*
X416437D02*
D03*
X416240D02*
D03*
X417618D02*
D03*
X417815D02*
D03*
X418012D02*
D03*
X418209D02*
D03*
X418405D02*
D03*
D83*
X406201Y400738D02*
X406496Y400443D01*
X406170Y400738D02*
X406496Y400412D01*
X406127Y400738D02*
X406496Y400369D01*
X406085Y400738D02*
X406496Y400327D01*
X406042Y400738D02*
X406496Y400284D01*
X406000Y400738D02*
X406496Y400242D01*
X405957Y400738D02*
X406496Y400200D01*
X405915Y400738D02*
X406496Y400157D01*
X405873Y400738D02*
X406480Y400131D01*
X405830Y400738D02*
X406458Y400110D01*
X405788Y400738D02*
X406437Y400089D01*
X405745Y400738D02*
X406416Y400068D01*
X405703Y400738D02*
X406395Y400046D01*
X405660Y400738D02*
X406374Y400025D01*
X405618Y400738D02*
X406352Y400004D01*
X405576Y400738D02*
X406331Y399983D01*
X405533Y400738D02*
X406310Y399961D01*
X405491Y400738D02*
X406289Y399940D01*
X405448Y400738D02*
X406267Y399919D01*
X406496Y400148D02*
Y400443D01*
X406174Y399852D02*
X406496Y400175D01*
X406201Y399852D02*
X406496Y400148D01*
X406089Y399852D02*
X406496Y400259D01*
X406131Y399852D02*
X406496Y400217D01*
X406004Y399852D02*
X406496Y400344D01*
X405962Y399852D02*
X406496Y400387D01*
X406047Y399852D02*
X406496Y400302D01*
X405877Y399852D02*
X406482Y400457D01*
X405919Y399852D02*
X406496Y400429D01*
X405792Y399852D02*
X406439Y400500D01*
X405750Y399852D02*
X406418Y400521D01*
X405834Y399852D02*
X406461Y400478D01*
X405665Y399852D02*
X406376Y400563D01*
X405707Y399852D02*
X406397Y400542D01*
X405580Y399852D02*
X406333Y400606D01*
X405622Y399852D02*
X406354Y400584D01*
X405537Y399852D02*
X406312Y400627D01*
X405495Y399852D02*
X406291Y400648D01*
X405406Y400738D02*
X406246Y399898D01*
X405364Y400738D02*
X406225Y399877D01*
X405325Y399852D02*
X406206Y400733D01*
X405321Y400738D02*
X406204Y399855D01*
X405283Y399852D02*
X406169Y400738D01*
X405279D02*
X406164Y399852D01*
X405241D02*
X406126Y400738D01*
X405236D02*
X406122Y399852D01*
X405198D02*
X406084Y400738D01*
X405194D02*
X406080Y399852D01*
X405156D02*
X406041Y400738D01*
X404626D02*
X406201D01*
X405151D02*
X406037Y399852D01*
X405113D02*
X405999Y400738D01*
X405109D02*
X405995Y399852D01*
X405071D02*
X405957Y400738D01*
X405067D02*
X405952Y399852D01*
X405028D02*
X405914Y400738D01*
X405024D02*
X405910Y399852D01*
X405410D02*
X406248Y400691D01*
X405368Y399852D02*
X406227Y400712D01*
X405453Y399852D02*
X406270Y400669D01*
X404986Y399852D02*
X405872Y400738D01*
X404982D02*
X405868Y399852D01*
X404944D02*
X405829Y400738D01*
X404944Y399852D02*
X405829Y400738D01*
X404939D02*
X405825Y399852D01*
X404901D02*
X405787Y400738D01*
X404897D02*
X405783Y399852D01*
X404859D02*
X405745Y400738D01*
X404823Y399852D02*
X406201D01*
X404854Y400738D02*
X405740Y399852D01*
X404812Y400738D02*
X405698Y399852D01*
X404770Y400738D02*
X405655Y399852D01*
X404727Y400738D02*
X405613Y399852D01*
X404685Y400738D02*
X405571Y399852D01*
X404642Y400738D02*
X405528Y399852D01*
X404613Y400725D02*
X405486Y399852D01*
X404592Y400704D02*
X405443Y399852D01*
X404571Y400683D02*
X405401Y399852D01*
X404549Y400661D02*
X405358Y399852D01*
X404528Y400640D02*
X405316Y399852D01*
X404507Y400619D02*
X405274Y399852D01*
X404486Y400598D02*
X405231Y399852D01*
X404464Y400577D02*
X405189Y399852D01*
X404443Y400555D02*
X405146Y399852D01*
X404422Y400534D02*
X405104Y399852D01*
X404401Y400513D02*
X405061Y399852D01*
X404380Y400492D02*
X405019Y399852D01*
X404358Y400471D02*
X404977Y399852D01*
X404337Y400449D02*
X404934Y399852D01*
X404316Y400428D02*
X404892Y399852D01*
X404295Y400407D02*
X404849Y399852D01*
X404274Y400386D02*
X404815Y399844D01*
X404252Y400364D02*
X404794Y399823D01*
X404231Y400343D02*
X404772Y399802D01*
X404210Y400322D02*
X404751Y399781D01*
X404189Y400301D02*
X404730Y399760D01*
X404146Y400258D02*
X404688Y399717D01*
X404167Y400280D02*
X404709Y399738D01*
X404125Y400237D02*
X404666Y399696D01*
X404083Y400195D02*
X404624Y399653D01*
X404104Y400216D02*
X404645Y399675D01*
X404061Y400174D02*
X404603Y399632D01*
X404040Y400152D02*
X404581Y399611D01*
X404019Y400131D02*
X404560Y399590D01*
X403998Y400110D02*
X404539Y399569D01*
X403977Y400089D02*
X404518Y399547D01*
X403955Y400068D02*
X404497Y399526D01*
X403934Y400046D02*
X404475Y399505D01*
X403913Y400025D02*
X404454Y399484D01*
X403870Y399983D02*
X404412Y399441D01*
X403892Y400004D02*
X404433Y399463D01*
X403849Y399961D02*
X404391Y399420D01*
X403828Y399940D02*
X404369Y399399D01*
X403807Y399919D02*
X404348Y399378D01*
X403786Y399898D02*
X404327Y399356D01*
X403764Y399877D02*
X404306Y399335D01*
X403743Y399855D02*
X404285Y399314D01*
X403722Y399834D02*
X404263Y399293D01*
X403701Y399813D02*
X404242Y399272D01*
X403658Y399771D02*
X404200Y399229D01*
X403680Y399792D02*
X404221Y399250D01*
X403637Y399749D02*
X404178Y399208D01*
X403595Y399707D02*
X404136Y399166D01*
X403616Y399728D02*
X404157Y399187D01*
X403573Y399686D02*
X404115Y399144D01*
X403552Y399664D02*
X404094Y399123D01*
X403531Y399643D02*
X404072Y399102D01*
X403510Y399622D02*
X404051Y399081D01*
X403489Y399601D02*
X404030Y399059D01*
X403467Y399580D02*
X404009Y399038D01*
X403446Y399558D02*
X403988Y399017D01*
X403446Y399558D02*
X403988Y399017D01*
X403425Y399537D02*
X403966Y398996D01*
X403383Y399495D02*
X403924Y398953D01*
X403404Y399516D02*
X403945Y398975D01*
X403361Y399474D02*
X403903Y398932D01*
X403319Y399431D02*
X403860Y398890D01*
X403340Y399452D02*
X403881Y398911D01*
X403298Y399410D02*
X403839Y398869D01*
X403276Y399389D02*
X403818Y398847D01*
X403255Y399367D02*
X403797Y398826D01*
X403234Y399346D02*
X403775Y398805D01*
X403213Y399325D02*
X403754Y398784D01*
X403170Y399283D02*
X403712Y398741D01*
X403192Y399304D02*
X403733Y398762D01*
X403149Y399261D02*
X403691Y398720D01*
X403107Y399219D02*
X403648Y398678D01*
X403128Y399240D02*
X403669Y398699D01*
X403086Y399198D02*
X403627Y398656D01*
X403043Y399155D02*
X403584Y398614D01*
X403064Y399177D02*
X403606Y398635D01*
X403022Y399134D02*
X403563Y398593D01*
X403001Y399113D02*
X403542Y398572D01*
X402980Y399092D02*
X403521Y398550D01*
X402958Y399070D02*
X403500Y398529D01*
X401575Y397247D02*
X405066Y400738D01*
X401575Y397290D02*
X405023Y400738D01*
X401575Y397332D02*
X404981Y400738D01*
X402362Y397392D02*
X404823Y399852D01*
X402937Y399049D02*
X403478Y398508D01*
X401575Y397544D02*
X404769Y400738D01*
X401575Y397587D02*
X404726Y400738D01*
X401575Y397629D02*
X404684Y400738D01*
X401575Y397672D02*
X404641Y400738D01*
X401575Y397687D02*
X404626Y400738D01*
X401575Y397375D02*
X404938Y400738D01*
X401575Y397417D02*
X404896Y400738D01*
X401575Y397459D02*
X404854Y400738D01*
X401575Y397502D02*
X404811Y400738D01*
X402895Y399007D02*
X403436Y398465D01*
X402916Y399028D02*
X403457Y398487D01*
X402873Y398986D02*
X403415Y398444D01*
X402831Y398943D02*
X403372Y398402D01*
X402852Y398964D02*
X403394Y398423D01*
X402810Y398922D02*
X403351Y398381D01*
X402789Y398901D02*
X403330Y398359D01*
X402767Y398880D02*
X403309Y398338D01*
X402746Y398858D02*
X403288Y398317D01*
X402725Y398837D02*
X403266Y398296D01*
X402682Y398795D02*
X403224Y398253D01*
X402704Y398816D02*
X403245Y398275D01*
X402661Y398773D02*
X403203Y398232D01*
X402619Y398731D02*
X403160Y398190D01*
X402640Y398752D02*
X403181Y398211D01*
X402598Y398710D02*
X403139Y398169D01*
X402576Y398689D02*
X403118Y398147D01*
X402555Y398667D02*
X403097Y398126D01*
X402534Y398646D02*
X403075Y398105D01*
X402513Y398625D02*
X403054Y398084D01*
X402492Y398604D02*
X403033Y398062D01*
X402470Y398583D02*
X403012Y398041D01*
X402449Y398561D02*
X402990Y398020D01*
X402407Y398519D02*
X402948Y397978D01*
X402428Y398540D02*
X402969Y397999D01*
X402386Y398498D02*
X402927Y397956D01*
X402343Y398455D02*
X402884Y397914D01*
X402364Y398477D02*
X402906Y397935D01*
X402322Y398434D02*
X402863Y397893D01*
X402301Y398413D02*
X402842Y397872D01*
X402279Y398392D02*
X402821Y397850D01*
X402258Y398370D02*
X402800Y397829D01*
X402237Y398349D02*
X402778Y397808D01*
X402216Y398328D02*
X402757Y397787D01*
X402195Y398307D02*
X402736Y397765D01*
X402173Y398286D02*
X402715Y397744D01*
X402131Y398243D02*
X402672Y397702D01*
X402152Y398264D02*
X402694Y397723D01*
X402110Y398222D02*
X402651Y397681D01*
X402089Y398201D02*
X402630Y397659D01*
X402067Y398180D02*
X402609Y397638D01*
X402046Y398158D02*
X402587Y397617D01*
X402025Y398137D02*
X402566Y397596D01*
X402004Y398116D02*
X402545Y397575D01*
X401982Y398095D02*
X402524Y397553D01*
X401961Y398073D02*
X402503Y397532D01*
X401919Y398031D02*
X402460Y397490D01*
X401940Y398052D02*
X402481Y397511D01*
X401898Y398010D02*
X402439Y397468D01*
X401855Y397967D02*
X402397Y397426D01*
X401876Y397989D02*
X402418Y397447D01*
X401834Y397946D02*
X402375Y397405D01*
X401813Y397925D02*
X402362Y397376D01*
X401792Y397904D02*
X402362Y397333D01*
X401770Y397883D02*
X402362Y397291D01*
X401749Y397861D02*
X402362Y397248D01*
X401728Y397840D02*
X402362Y397206D01*
X401575Y396823D02*
X405490Y400738D01*
X401707Y397819D02*
X402362Y397163D01*
X401685Y397798D02*
X402362Y397121D01*
X401664Y397776D02*
X402362Y397079D01*
X401575Y396611D02*
X405702Y400738D01*
X401575Y396653D02*
X405660Y400738D01*
X401575Y396696D02*
X405617Y400738D01*
X401575Y396738D02*
X405575Y400738D01*
X401575Y396781D02*
X405532Y400738D01*
X401575Y397035D02*
X405278Y400738D01*
X401575Y397078D02*
X405235Y400738D01*
X401575Y397120D02*
X405193Y400738D01*
X401575Y397162D02*
X405151Y400738D01*
X401575Y397205D02*
X405108Y400738D01*
X401575Y396865D02*
X405448Y400738D01*
X401575Y396908D02*
X405405Y400738D01*
X401575Y396950D02*
X405363Y400738D01*
X401575Y396993D02*
X405320Y400738D01*
X401643Y397755D02*
X402362Y397036D01*
X401622Y397734D02*
X402362Y396994D01*
X401601Y397713D02*
X402362Y396951D01*
X401579Y397692D02*
X402362Y396909D01*
X401575Y397654D02*
X402362Y396866D01*
X401575Y397611D02*
X402362Y396824D01*
Y396506D02*
Y397392D01*
X402276Y396506D02*
X402362Y396592D01*
X402318Y396506D02*
X402362Y396550D01*
X401575Y397569D02*
X402362Y396782D01*
X401575Y397527D02*
X402362Y396739D01*
X401575Y397484D02*
X402362Y396697D01*
X401575Y397442D02*
X402362Y396654D01*
X401575Y397399D02*
X402362Y396612D01*
X401575Y397357D02*
X402362Y396569D01*
X401575Y396568D02*
X402362Y397356D01*
X401575Y397314D02*
X402362Y396527D01*
X401575Y396526D02*
X402362Y397313D01*
X401894Y396506D02*
X402362Y396974D01*
X401852Y396506D02*
X402362Y397016D01*
X401936Y396506D02*
X402362Y396932D01*
X401767Y396506D02*
X402362Y397101D01*
X401809Y396506D02*
X402362Y397059D01*
X401682Y396506D02*
X402362Y397186D01*
X401640Y396506D02*
X402362Y397229D01*
X401724Y396506D02*
X402362Y397144D01*
X401597Y396506D02*
X402362Y397271D01*
X401597Y396506D02*
X402362Y397271D01*
X401575Y397272D02*
X402341Y396506D01*
X401575Y397230D02*
X402298Y396506D01*
X401575Y397187D02*
X402256Y396506D01*
X401575D02*
Y397687D01*
Y397145D02*
X402214Y396506D01*
X401575Y397102D02*
X402171Y396506D01*
X401575Y397060D02*
X402129Y396506D01*
X401575Y397017D02*
X402086Y396506D01*
X401575Y396975D02*
X402044Y396506D01*
X402191D02*
X402362Y396677D01*
X402149Y396506D02*
X402362Y396720D01*
X402233Y396506D02*
X402362Y396635D01*
X402064Y396506D02*
X402362Y396804D01*
X402106Y396506D02*
X402362Y396762D01*
X401979Y396506D02*
X402362Y396889D01*
X402021Y396506D02*
X402362Y396847D01*
X401575Y396933D02*
X402001Y396506D01*
X401575Y396890D02*
X401959Y396506D01*
X401575Y396848D02*
X401917Y396506D01*
X401575Y396805D02*
X401874Y396506D01*
X401575Y396763D02*
X401832Y396506D01*
X401575Y396720D02*
X401789Y396506D01*
X401575Y396678D02*
X401747Y396506D01*
X401575Y396636D02*
X401705Y396506D01*
X401575D02*
X402362D01*
X401575Y396593D02*
X401662Y396506D01*
X401575Y396551D02*
X401620Y396506D01*
X410728Y417569D02*
Y417913D01*
X408415Y417569D02*
X408760D01*
X410335Y413386D02*
X410433Y413484D01*
Y413711D01*
X408415Y417077D02*
X408760D01*
X409498Y415896D02*
X409518Y415915D01*
X408760Y416683D02*
X408907D01*
X409350Y416240D01*
X409744D01*
X409843Y416142D01*
X420276Y397441D02*
X420178Y397433D01*
X420084Y397409D01*
X419995Y397370D01*
X419913Y397316D01*
X419841Y397250D01*
X419781Y397173D01*
X419735Y397088D01*
X419703Y396995D01*
X419687Y396899D01*
Y396802D01*
X419703Y396705D01*
X419735Y396613D01*
X419781Y396527D01*
X419841Y396450D01*
X419913Y396384D01*
X419995Y396331D01*
X420084Y396292D01*
X420178Y396268D01*
X420276Y396260D01*
X422047Y412795D02*
X422043Y412893D01*
X422031Y412990D01*
X422011Y413085D01*
X421983Y413179D01*
X421948Y413270D01*
X421905Y413357D01*
X421855Y413441D01*
X421798Y413521D01*
X421735Y413595D01*
X421666Y413664D01*
X421592Y413727D01*
X421512Y413784D01*
X421428Y413834D01*
X421341Y413877D01*
X421250Y413912D01*
X421156Y413940D01*
X421061Y413960D01*
X420964Y413972D01*
X420866Y413976D01*
X397244Y394882D02*
X397248Y394784D01*
X397260Y394688D01*
X397280Y394592D01*
X397308Y394498D01*
X397344Y394407D01*
X397386Y394320D01*
X397436Y394236D01*
X397493Y394156D01*
X397556Y394082D01*
X397625Y394013D01*
X397700Y393950D01*
X397779Y393893D01*
X397863Y393843D01*
X397951Y393800D01*
X398042Y393765D01*
X398135Y393737D01*
X398231Y393717D01*
X398328Y393705D01*
X398425Y393701D01*
Y434646D02*
X398328Y434642D01*
X398231Y434630D01*
X398135Y434610D01*
X398042Y434582D01*
X397951Y434546D01*
X397863Y434503D01*
X397779Y434453D01*
X397700Y434397D01*
X397625Y434334D01*
X397556Y434264D01*
X397493Y434190D01*
X397436Y434111D01*
X397386Y434027D01*
X397344Y433939D01*
X397308Y433848D01*
X397280Y433755D01*
X397260Y433659D01*
X397248Y433562D01*
X397244Y433465D01*
X396654Y422244D02*
X396756Y422253D01*
X396856Y422280D01*
X396949Y422323D01*
X397033Y422382D01*
X397106Y422455D01*
X397165Y422539D01*
X397208Y422633D01*
X397235Y422732D01*
X397244Y422835D01*
Y405512D02*
X397235Y405614D01*
X397208Y405714D01*
X397165Y405807D01*
X397106Y405891D01*
X397033Y405964D01*
X396949Y406023D01*
X396856Y406067D01*
X396756Y406093D01*
X396654Y406102D01*
X419685Y393701D02*
X419785Y393703D01*
X419885Y393709D01*
X419985Y393720D01*
X420084Y393735D01*
X420183Y393754D01*
X420280Y393777D01*
X420377Y393804D01*
X420472Y393836D01*
X420566Y393871D01*
X420658Y393910D01*
X420749Y393954D01*
X420837Y394001D01*
X420924Y394052D01*
X421008Y394106D01*
X421090Y394164D01*
X421169Y394225D01*
X421246Y394290D01*
X421320Y394358D01*
X421390Y394428D01*
X421458Y394502D01*
X421523Y394579D01*
X421584Y394658D01*
X421642Y394740D01*
X421697Y394824D01*
X421747Y394911D01*
X421794Y395000D01*
X421838Y395090D01*
X421877Y395182D01*
X421912Y395276D01*
X421944Y395371D01*
X421971Y395468D01*
X421994Y395565D01*
X422013Y395664D01*
X422028Y395763D01*
X422039Y395863D01*
X422045Y395963D01*
X422047Y396063D01*
X418504Y433465D02*
X418500Y433562D01*
X418488Y433659D01*
X418468Y433755D01*
X418440Y433848D01*
X418404Y433939D01*
X418362Y434027D01*
X418312Y434111D01*
X418255Y434190D01*
X418192Y434264D01*
X418123Y434334D01*
X418048Y434397D01*
X417969Y434453D01*
X417885Y434503D01*
X417797Y434546D01*
X417706Y434582D01*
X417613Y434610D01*
X417517Y434630D01*
X417420Y434642D01*
X417323Y434646D01*
X418504Y414567D02*
X418513Y414464D01*
X418540Y414365D01*
X418583Y414272D01*
X418642Y414187D01*
X418715Y414115D01*
X418799Y414055D01*
X418893Y414012D01*
X418992Y413985D01*
X419095Y413976D01*
X400394Y394685D02*
X400386Y394782D01*
X400362Y394877D01*
X400323Y394966D01*
X400269Y395048D01*
X400203Y395120D01*
X400126Y395179D01*
X400040Y395226D01*
X399948Y395258D01*
X399852Y395274D01*
X399754D01*
X399658Y395258D01*
X399566Y395226D01*
X399480Y395179D01*
X399403Y395120D01*
X399337Y395048D01*
X399284Y394966D01*
X399245Y394877D01*
X399221Y394782D01*
X399213Y394685D01*
X404134Y433661D02*
X404142Y433564D01*
X404166Y433470D01*
X404205Y433380D01*
X404258Y433299D01*
X404324Y433227D01*
X404401Y433167D01*
X404487Y433121D01*
X404579Y433089D01*
X404676Y433073D01*
X404773D01*
X404869Y433089D01*
X404962Y433121D01*
X405047Y433167D01*
X405124Y433227D01*
X405190Y433299D01*
X405244Y433380D01*
X405283Y433470D01*
X405307Y433564D01*
X405315Y433661D01*
X422047Y396063D02*
Y396260D01*
X418504Y414567D02*
Y433465D01*
X393701Y422244D02*
X393701Y406102D01*
X405315Y434646D02*
X417323Y434646D01*
X397244Y422835D02*
Y433465D01*
X393701Y422244D02*
X396654D01*
X400394Y393701D02*
X419685Y393701D01*
X397244Y394882D02*
Y405512D01*
X393701Y406102D02*
X396654D01*
X422047Y397441D02*
Y412795D01*
X398425Y434646D02*
X404134D01*
D84*
X416043Y407392D02*
Y407776D01*
X416732Y407392D02*
Y407776D01*
X415797Y404183D02*
X417864D01*
X415354Y404626D02*
X415797Y404183D01*
X415354Y404626D02*
Y405069D01*
X415059Y405364D02*
X415354Y405069D01*
X413947Y405364D02*
X415059D01*
X418405Y406486D02*
Y406988D01*
X418848Y405069D02*
X419587D01*
X418405Y405512D02*
X418848Y405069D01*
X418405Y405512D02*
Y405817D01*
X416053Y404616D02*
Y405020D01*
X419341Y395866D02*
X419596Y395610D01*
X420128D01*
X409537Y394547D02*
X409843D01*
X409400Y394685D02*
X409537Y394547D01*
X409400Y394685D02*
Y395522D01*
X409055Y395866D02*
X409400Y395522D01*
X409055Y395866D02*
Y399705D01*
X419291Y404183D02*
X419587Y403888D01*
X417864Y404183D02*
X419291D01*
X419587Y403396D02*
Y403888D01*
X413642Y404862D02*
Y405059D01*
X413947Y405364D01*
X401102Y433780D02*
X401654D01*
X402165Y433268D01*
X402717D01*
X401142Y430709D02*
X401880D01*
X401890Y430315D02*
Y430699D01*
X402559Y430315D02*
Y430699D01*
X404862Y431378D02*
X405472D01*
X403189Y430226D02*
X404282Y429134D01*
Y424902D02*
Y429134D01*
X403799Y431004D02*
X404232D01*
X403209Y431378D02*
X403799D01*
X403780Y424409D02*
X404282Y424902D01*
X400197Y424409D02*
X403780D01*
X399055Y423268D02*
X400197Y424409D01*
X405512Y430266D02*
Y430669D01*
X420718Y394941D02*
X421112Y394931D01*
X420128Y394488D02*
Y394941D01*
X420718Y394488D02*
Y394941D01*
X410138Y404673D02*
X410472Y405008D01*
Y405315D01*
X410827Y407087D02*
X411220Y406693D01*
X410472Y407087D02*
X410827D01*
X401831Y428937D02*
Y429528D01*
X402500Y428012D02*
Y428937D01*
X403071Y429528D02*
X403543Y429055D01*
X402500Y429528D02*
X403071D01*
X401437Y431949D02*
X401772D01*
X401102Y431614D02*
X401437Y431949D01*
X401102Y430787D02*
Y431614D01*
X401437Y432618D02*
X401772D01*
X401102Y432953D02*
X401437Y432618D01*
X401102Y432953D02*
Y433780D01*
X397953Y400394D02*
Y424370D01*
X398937Y425354D01*
X402992D01*
X403543Y425905D01*
X408465Y396555D02*
Y397500D01*
X408169Y396260D02*
X408465Y396555D01*
X402608Y396260D02*
X408169D01*
X408465Y398169D02*
Y398622D01*
X403593Y433671D02*
Y434055D01*
X419734Y394931D02*
X420128Y394941D01*
X407815Y396752D02*
Y397185D01*
X406742Y396752D02*
X407146D01*
X407717Y397283D02*
X407815Y397185D01*
X409055Y399705D02*
X409567Y400217D01*
X412008Y410285D02*
X412441D01*
X411378Y410659D02*
Y411289D01*
X416762Y406732D02*
Y407343D01*
X416388Y406299D02*
Y406732D01*
X416762Y405059D02*
Y405669D01*
X416722Y405020D02*
X417126D01*
X403543Y425905D02*
Y429055D01*
X399055Y406417D02*
Y423268D01*
Y406417D02*
X404331Y401181D01*
X409114D01*
X411220Y405669D02*
Y406693D01*
X410866Y405315D02*
X411220Y405669D01*
X410472Y405315D02*
X410866D01*
X408374Y404673D02*
X410138D01*
X397953Y400315D02*
Y400394D01*
Y400315D02*
X401181Y397087D01*
Y396417D02*
Y397087D01*
X409114Y401181D02*
X409567Y401634D01*
Y400217D02*
Y402362D01*
X403189Y430226D02*
Y431398D01*
X419004Y396203D02*
X419341Y395866D01*
X419004Y396203D02*
Y396705D01*
X420128Y395610D02*
X420718D01*
X405512Y431339D02*
X405965D01*
X402904Y432146D02*
Y432579D01*
D85*
X419537Y410285D02*
Y410738D01*
Y411408D02*
Y411860D01*
X421112Y412884D02*
Y413337D01*
X420472Y412884D02*
Y413337D01*
X421122Y412205D02*
X421506D01*
D86*
X410728Y412894D02*
Y413238D01*
X413671Y423189D02*
Y423642D01*
X414262Y423189D02*
Y423642D01*
Y424311D02*
X414665D01*
X408957Y413632D02*
X409350D01*
X408957Y413287D02*
Y413632D01*
X408563Y413287D02*
Y413632D01*
X408858Y414518D02*
Y414715D01*
X408514Y414518D02*
X408858D01*
X408514Y414124D02*
X408858D01*
X409596Y412845D02*
X409941D01*
X409596Y413238D02*
X409941D01*
X409203Y416978D02*
X409547D01*
X410335Y412845D02*
Y413386D01*
X409941Y416339D02*
Y416978D01*
X409203Y416732D02*
Y416978D01*
Y416732D02*
X409350Y416585D01*
X409547D01*
X408415Y416289D02*
X408760D01*
X408415Y415896D02*
X409498D01*
X412205Y414715D02*
X412549D01*
X412205Y414321D02*
X412549D01*
X411959Y414715D02*
X412205D01*
X414567Y428789D02*
Y429774D01*
X416142Y428789D02*
Y429774D01*
X413140Y431024D02*
X414124D01*
X413140Y431417D02*
X414124D01*
X413140Y432205D02*
X414124D01*
X416585Y430630D02*
X417569D01*
X413140Y434232D02*
X413622D01*
X413140Y433780D02*
X413622D01*
X417087Y434232D02*
X417569D01*
X417087Y433780D02*
X417569D01*
X417087Y433386D02*
X417569D01*
X417087Y432992D02*
X417569D01*
X417087Y432598D02*
X417598D01*
X413465Y424311D02*
X414262D01*
X416831Y428642D02*
X417234D01*
X413140Y432598D02*
X413622D01*
X411467Y416634D02*
X411614D01*
X411122Y416289D02*
X411467Y416634D01*
X411614Y416289D02*
Y416634D01*
X412008D02*
X412352D01*
X411132Y413228D02*
X411457D01*
X417913Y428248D02*
Y432283D01*
X417598Y432598D02*
X417913Y432283D01*
X417087Y429449D02*
X417598D01*
X417913Y429134D01*
X416585Y431024D02*
X417569D01*
D87*
X402106Y431398D02*
X402520D01*
X413780Y394547D02*
X414173D01*
X413110Y395217D02*
X413780Y394547D01*
X412205Y395217D02*
X413110D01*
X413583Y395217D02*
X414173D01*
X412382Y396417D02*
X413583Y395217D01*
X409449Y426772D02*
X411319D01*
X409843Y427165D02*
X411516D01*
X406693Y431250D02*
X407077D01*
X409055D02*
X409439D01*
X411417D02*
X411801D01*
X408012Y428209D02*
X409449Y426772D01*
X407087Y428209D02*
X408012D01*
X409449Y427559D02*
X409843Y427165D01*
X409449Y427559D02*
Y428209D01*
X414567Y426870D02*
Y427323D01*
X413878Y426870D02*
Y427323D01*
Y427992D02*
Y428494D01*
X413622Y428750D02*
X413878Y428494D01*
X413622Y428750D02*
Y429449D01*
X414567Y427992D02*
Y428396D01*
X414173Y428789D02*
X414567Y428396D01*
X414173Y428789D02*
Y429577D01*
X413907Y429843D02*
X414173Y429577D01*
X413622Y429843D02*
X413907D01*
X416634Y432205D02*
X417087D01*
X405500Y408673D02*
X407374D01*
X407087Y428878D02*
Y430571D01*
X409449Y428878D02*
Y430571D01*
X411811Y428878D02*
Y430571D01*
Y427559D02*
Y428209D01*
X409724Y399311D02*
X410039D01*
X410433D02*
Y399606D01*
X411811Y427559D02*
X412618Y426752D01*
X411516Y427165D02*
X412421Y426260D01*
X411319Y426772D02*
X412224Y425866D01*
X404528Y409646D02*
Y418898D01*
Y409646D02*
X405500Y408673D01*
X403937Y409449D02*
Y419055D01*
Y409449D02*
X405713Y407673D01*
X407374D01*
X410630Y395669D02*
X411860Y395669D01*
X412008Y394045D02*
X412205Y394242D01*
Y394547D01*
X409655Y396053D02*
Y396506D01*
Y396053D02*
X409843Y395866D01*
Y395217D02*
Y395866D01*
X410325Y395974D02*
Y396506D01*
Y395974D02*
X410630Y395669D01*
X409843Y394242D02*
X410039Y394045D01*
X409843Y394242D02*
Y394547D01*
X410039Y394045D02*
X412008D01*
X412008Y395817D02*
Y396850D01*
X411860Y395669D02*
X412008Y395817D01*
X412323Y396476D02*
X412382Y396417D01*
D88*
X407008Y397480D02*
X407087D01*
X406949Y398976D02*
X407087D01*
X408012Y399902D02*
Y400138D01*
X407874Y399764D02*
X408012Y399902D01*
X407874Y398976D02*
Y399764D01*
X407579Y399902D02*
Y400138D01*
Y399902D02*
X407717Y399764D01*
Y398976D02*
Y399764D01*
X412997Y398159D02*
X413504D01*
X412165Y398676D02*
Y398858D01*
X407244Y397303D02*
Y397480D01*
X407402Y397274D02*
X407480Y397195D01*
X407402Y397274D02*
Y397480D01*
X407874D02*
X408012D01*
X407717Y397283D02*
Y397480D01*
X407402Y398976D02*
Y399390D01*
X412008Y397382D02*
Y397473D01*
X412997Y398317D02*
X413278D01*
X413009Y398474D02*
X413140D01*
X413386Y398720D01*
Y398868D01*
X419547Y411417D02*
X420079D01*
Y410482D02*
Y410630D01*
X420433Y411407D02*
Y411614D01*
Y411407D02*
X420571Y411270D01*
X420748Y411447D02*
Y411614D01*
X420571Y411270D02*
X420748Y411447D01*
Y410433D02*
Y410758D01*
X420433Y410098D02*
Y410433D01*
X420905Y409980D02*
Y410433D01*
X421063Y410089D02*
Y410433D01*
X420591Y411614D02*
Y411791D01*
X420905Y411614D02*
Y411801D01*
D89*
X410453Y405945D02*
X410817D01*
X409823Y405335D02*
Y405945D01*
X409203Y405315D02*
X409803D01*
X408844Y405673D02*
X409203Y405315D01*
X408374Y405673D02*
X408844D01*
X409498Y406447D02*
X409813D01*
X409793Y406841D02*
Y407096D01*
X409803Y406831D02*
X409941Y406693D01*
X410335D01*
X410453Y406575D01*
Y406457D02*
Y406575D01*
X409400Y407087D02*
X409803D01*
X408986Y406673D02*
X409400Y407087D01*
X408374Y406673D02*
X408986D01*
X412618Y424843D02*
Y426752D01*
X412421Y424843D02*
Y426260D01*
X412224Y424843D02*
Y425866D01*
D90*
X398272Y427756D02*
Y429429D01*
D91*
X409518Y415915D02*
X409646D01*
D92*
X412106Y398917D02*
X412165Y398858D01*
X412106Y400699D02*
X412106Y398917D01*
X411368Y400699D02*
X411713D01*
D93*
X406279Y400297D02*
X407402Y400295D01*
D94*
X411614Y398238D02*
X412155D01*
D95*
X410630Y409911D02*
X411378D01*
D96*
X412884Y397845D02*
X412997D01*
D97*
X412359Y432097D02*
X412619D01*
X412029D02*
X412199D01*
X411759D02*
X411929D01*
X411349D02*
X411669D01*
X410889D02*
X411249D01*
X412319Y432107D02*
X412649D01*
X412029D02*
X412199D01*
X411759D02*
X411929D01*
X411349D02*
X411669D01*
X410899D02*
X411249D01*
X412309Y432117D02*
X412669D01*
X412019D02*
X412199D01*
X411759D02*
X411929D01*
X411349D02*
X411669D01*
X410899D02*
X411249D01*
X412299Y432127D02*
X412679D01*
X412019D02*
X412199D01*
X411759D02*
X411929D01*
X411349D02*
X411669D01*
X410899D02*
X411249D01*
X412289Y432137D02*
X412689D01*
X412019D02*
X412189D01*
X411759D02*
X411929D01*
X411349D02*
X411679D01*
X410899D02*
X411259D01*
X412279Y432147D02*
X412699D01*
X412009D02*
X412189D01*
X411759D02*
X411929D01*
X411349D02*
X411679D01*
X410909D02*
X411259D01*
X412279Y432157D02*
X412699D01*
X412009D02*
X412189D01*
X411759D02*
X411929D01*
X411349D02*
X411679D01*
X410909D02*
X411259D01*
X412279Y432167D02*
X412699D01*
X412009D02*
X412179D01*
X411759D02*
X411929D01*
X411349D02*
X411679D01*
X410909D02*
X411259D01*
X412269Y432177D02*
X412699D01*
X412009D02*
X412179D01*
X411759D02*
X411929D01*
X411349D02*
X411679D01*
X410909D02*
X411259D01*
X412269Y432187D02*
X412709D01*
X412009D02*
X412169D01*
X411759D02*
X411929D01*
X411349D02*
X411679D01*
X410909D02*
X411259D01*
X412269Y432197D02*
X412709D01*
X411999D02*
X412169D01*
X411759D02*
X411929D01*
X411349D02*
X411689D01*
X410919D02*
X411269D01*
X412269Y432207D02*
X412709D01*
X411989D02*
X412169D01*
X411759D02*
X411929D01*
X411349D02*
X411689D01*
X410919D02*
X411269D01*
X412269Y432217D02*
X412709D01*
X411989D02*
X412169D01*
X411759D02*
X411929D01*
X411349D02*
X411689D01*
X410929D02*
X411269D01*
X412269Y432227D02*
X412709D01*
X411989D02*
X412159D01*
X411759D02*
X411929D01*
X411349D02*
X411689D01*
X410929D02*
X411269D01*
X412269Y432237D02*
X412709D01*
X411989D02*
X412159D01*
X411759D02*
X411929D01*
X411349D02*
X411689D01*
X410929D02*
X411269D01*
X412529Y432247D02*
X412709D01*
X412269D02*
X412439D01*
X411989D02*
X412159D01*
X411759D02*
X411929D01*
X411349D02*
X411689D01*
X410929D02*
X411269D01*
X412529Y432257D02*
X412709D01*
X412269D02*
X412439D01*
X411979D02*
X412149D01*
X411759D02*
X411929D01*
X411349D02*
X411519D01*
X410939D02*
X411119D01*
X412529Y432267D02*
X412709D01*
X412269D02*
X412439D01*
X411979D02*
X412149D01*
X411759D02*
X411929D01*
X411349D02*
X411519D01*
X410939D02*
X411119D01*
X412529Y432277D02*
X412709D01*
X412269D02*
X412439D01*
X411979D02*
X412139D01*
X411759D02*
X411929D01*
X411349D02*
X411519D01*
X410939D02*
X411119D01*
X412529Y432287D02*
X412709D01*
X412269D02*
X412439D01*
X411979D02*
X412139D01*
X411759D02*
X411929D01*
X411349D02*
X411519D01*
X410939D02*
X411119D01*
X412529Y432297D02*
X412709D01*
X412269D02*
X412439D01*
X411969D02*
X412139D01*
X411759D02*
X411929D01*
X411349D02*
X411519D01*
X410939D02*
X411129D01*
X412529Y432307D02*
X412709D01*
X412269D02*
X412439D01*
X411969D02*
X412139D01*
X411759D02*
X411929D01*
X411349D02*
X411519D01*
X410949D02*
X411129D01*
X412529Y432317D02*
X412709D01*
X412269D02*
X412439D01*
X411959D02*
X412129D01*
X411759D02*
X411929D01*
X411349D02*
X411519D01*
X410949D02*
X411139D01*
X412529Y432327D02*
X412709D01*
X412269D02*
X412439D01*
X411959D02*
X412129D01*
X411759D02*
X411929D01*
X411349D02*
X411519D01*
X410959D02*
X411139D01*
X412529Y432337D02*
X412709D01*
X412269D02*
X412439D01*
X411959D02*
X412129D01*
X411759D02*
X411929D01*
X411349D02*
X411519D01*
X410959D02*
X411139D01*
X412529Y432347D02*
X412709D01*
X412269D02*
X412439D01*
X411949D02*
X412129D01*
X411759D02*
X411929D01*
X411349D02*
X411519D01*
X410959D02*
X411139D01*
X412529Y432357D02*
X412709D01*
X412269D02*
X412439D01*
X411949D02*
X412119D01*
X411759D02*
X411929D01*
X411349D02*
X411519D01*
X410959D02*
X411149D01*
X412529Y432367D02*
X412709D01*
X412269D02*
X412439D01*
X411759D02*
X412139D01*
X411349D02*
X411519D01*
X410969D02*
X411149D01*
X412529Y432377D02*
X412709D01*
X412269D02*
X412439D01*
X411759D02*
X412169D01*
X411349D02*
X411519D01*
X410969D02*
X411149D01*
X412529Y432387D02*
X412709D01*
X412269D02*
X412439D01*
X411759D02*
X412179D01*
X411349D02*
X411519D01*
X410969D02*
X411149D01*
X412529Y432397D02*
X412709D01*
X412269D02*
X412439D01*
X411759D02*
X412179D01*
X411349D02*
X411519D01*
X410969D02*
X411149D01*
X412529Y432407D02*
X412709D01*
X412269D02*
X412439D01*
X411759D02*
X412189D01*
X411349D02*
X411519D01*
X410969D02*
X411159D01*
X412529Y432417D02*
X412709D01*
X412269D02*
X412439D01*
X411759D02*
X412189D01*
X411349D02*
X411519D01*
X410979D02*
X411159D01*
X412529Y432427D02*
X412709D01*
X412269D02*
X412439D01*
X411759D02*
X412189D01*
X411349D02*
X411519D01*
X410979D02*
X411169D01*
X412529Y432437D02*
X412709D01*
X412269D02*
X412439D01*
X411759D02*
X412189D01*
X411349D02*
X411659D01*
X410989D02*
X411169D01*
X412529Y432447D02*
X412709D01*
X412269D02*
X412439D01*
X411759D02*
X412189D01*
X411349D02*
X411659D01*
X410989D02*
X411169D01*
X412529Y432457D02*
X412709D01*
X412269D02*
X412439D01*
X411759D02*
X412189D01*
X411349D02*
X411659D01*
X410989D02*
X411169D01*
X412529Y432467D02*
X412709D01*
X412269D02*
X412439D01*
X411759D02*
X412189D01*
X411349D02*
X411659D01*
X410989D02*
X411169D01*
X412529Y432477D02*
X412709D01*
X412269D02*
X412439D01*
X411759D02*
X412189D01*
X411349D02*
X411659D01*
X410999D02*
X411179D01*
X412529Y432487D02*
X412709D01*
X412269D02*
X412439D01*
X411759D02*
X412189D01*
X411349D02*
X411659D01*
X410999D02*
X411179D01*
X412529Y432497D02*
X412709D01*
X412269D02*
X412439D01*
X411759D02*
X412189D01*
X411349D02*
X411659D01*
X410999D02*
X411179D01*
X412529Y432507D02*
X412709D01*
X412269D02*
X412439D01*
X412019D02*
X412189D01*
X411759D02*
X411929D01*
X411349D02*
X411659D01*
X410999D02*
X411179D01*
X412529Y432517D02*
X412709D01*
X412269D02*
X412439D01*
X412029D02*
X412189D01*
X411759D02*
X411929D01*
X411349D02*
X411659D01*
X410999D02*
X411189D01*
X412529Y432527D02*
X412709D01*
X412269D02*
X412439D01*
X412029D02*
X412189D01*
X411759D02*
X411929D01*
X411349D02*
X411659D01*
X411009D02*
X411189D01*
X412529Y432537D02*
X412709D01*
X412269D02*
X412439D01*
X412029D02*
X412189D01*
X411759D02*
X411929D01*
X411349D02*
X411659D01*
X411019D02*
X411199D01*
X412529Y432547D02*
X412709D01*
X412269D02*
X412439D01*
X412029D02*
X412189D01*
X411759D02*
X411929D01*
X411349D02*
X411659D01*
X411019D02*
X411199D01*
X412529Y432557D02*
X412709D01*
X412269D02*
X412439D01*
X412029D02*
X412189D01*
X411759D02*
X411929D01*
X411349D02*
X411659D01*
X411019D02*
X411199D01*
X412529Y432567D02*
X412709D01*
X412269D02*
X412439D01*
X412029D02*
X412189D01*
X411759D02*
X411929D01*
X411349D02*
X411659D01*
X411019D02*
X411199D01*
X412529Y432577D02*
X412709D01*
X412269D02*
X412439D01*
X412029D02*
X412189D01*
X411759D02*
X411929D01*
X411349D02*
X411659D01*
X411019D02*
X411199D01*
X412529Y432587D02*
X412709D01*
X412269D02*
X412439D01*
X412029D02*
X412189D01*
X411759D02*
X411929D01*
X411349D02*
X411519D01*
X411029D02*
X411209D01*
X412529Y432597D02*
X412709D01*
X412269D02*
X412439D01*
X412029D02*
X412189D01*
X411759D02*
X411929D01*
X411349D02*
X411519D01*
X411029D02*
X411209D01*
X412529Y432607D02*
X412709D01*
X412269D02*
X412439D01*
X412029D02*
X412189D01*
X411759D02*
X411929D01*
X411349D02*
X411519D01*
X411029D02*
X411209D01*
X412529Y432617D02*
X412709D01*
X412269D02*
X412439D01*
X412029D02*
X412189D01*
X411759D02*
X411929D01*
X411349D02*
X411519D01*
X411029D02*
X411209D01*
X412529Y432627D02*
X412709D01*
X412269D02*
X412439D01*
X412029D02*
X412189D01*
X411759D02*
X411929D01*
X411349D02*
X411519D01*
X411039D02*
X411219D01*
X412529Y432637D02*
X412709D01*
X412269D02*
X412439D01*
X412029D02*
X412189D01*
X411759D02*
X411929D01*
X411349D02*
X411519D01*
X411039D02*
X411219D01*
X412529Y432647D02*
X412709D01*
X412269D02*
X412439D01*
X412029D02*
X412189D01*
X411759D02*
X411929D01*
X411349D02*
X411519D01*
X411049D02*
X411219D01*
X412529Y432657D02*
X412709D01*
X412269D02*
X412439D01*
X412029D02*
X412189D01*
X411759D02*
X411929D01*
X411349D02*
X411519D01*
X411049D02*
X411229D01*
X412529Y432667D02*
X412709D01*
X412269D02*
X412439D01*
X412029D02*
X412189D01*
X411759D02*
X411929D01*
X411349D02*
X411519D01*
X411049D02*
X411229D01*
X412529Y432677D02*
X412709D01*
X412269D02*
X412439D01*
X412029D02*
X412189D01*
X411759D02*
X411929D01*
X411349D02*
X411519D01*
X411049D02*
X411229D01*
X412529Y432687D02*
X412709D01*
X412269D02*
X412439D01*
X412029D02*
X412189D01*
X411759D02*
X411929D01*
X411349D02*
X411519D01*
X411049D02*
X411229D01*
X412529Y432697D02*
X412709D01*
X412269D02*
X412439D01*
X412029D02*
X412189D01*
X411759D02*
X411929D01*
X411349D02*
X411519D01*
X411059D02*
X411229D01*
X412529Y432707D02*
X412709D01*
X412269D02*
X412439D01*
X412029D02*
X412189D01*
X411759D02*
X411929D01*
X411349D02*
X411519D01*
X411059D02*
X411239D01*
X412529Y432717D02*
X412709D01*
X412269D02*
X412439D01*
X412029D02*
X412189D01*
X411759D02*
X411929D01*
X411349D02*
X411519D01*
X411059D02*
X411239D01*
X412529Y432727D02*
X412709D01*
X412269D02*
X412439D01*
X412029D02*
X412189D01*
X411759D02*
X411929D01*
X411349D02*
X411519D01*
X411059D02*
X411239D01*
X412529Y432737D02*
X412709D01*
X412269D02*
X412439D01*
X412029D02*
X412189D01*
X411759D02*
X411929D01*
X411349D02*
X411519D01*
X411069D02*
X411239D01*
X412529Y432747D02*
X412709D01*
X412269D02*
X412439D01*
X412029D02*
X412189D01*
X411759D02*
X411929D01*
X411349D02*
X411519D01*
X411069D02*
X411249D01*
X412529Y432757D02*
X412709D01*
X412269D02*
X412439D01*
X412029D02*
X412189D01*
X411759D02*
X411929D01*
X411349D02*
X411519D01*
X411069D02*
X411249D01*
X412529Y432767D02*
X412709D01*
X412269D02*
X412439D01*
X412029D02*
X412189D01*
X411759D02*
X411929D01*
X411349D02*
X411519D01*
X411079D02*
X411259D01*
X412529Y432777D02*
X412709D01*
X412269D02*
X412439D01*
X412019D02*
X412189D01*
X411759D02*
X411929D01*
X411349D02*
X411519D01*
X411079D02*
X411259D01*
X412529Y432787D02*
X412709D01*
X412269D02*
X412439D01*
X412019D02*
X412189D01*
X411759D02*
X411929D01*
X411349D02*
X411699D01*
X410899D02*
X411259D01*
X405669D02*
X410819D01*
X412269Y432797D02*
X412709D01*
X411759D02*
X412189D01*
X411349D02*
X411699D01*
X410909D02*
X411259D01*
X405669D02*
X410819D01*
X412269Y432807D02*
X412709D01*
X411759D02*
X412189D01*
X411349D02*
X411699D01*
X410909D02*
X411259D01*
X405669D02*
X410819D01*
X412269Y432817D02*
X412709D01*
X411759D02*
X412189D01*
X411349D02*
X411689D01*
X410909D02*
X411269D01*
X405669D02*
X410819D01*
X412269Y432827D02*
X412709D01*
X411759D02*
X412189D01*
X411349D02*
X411689D01*
X410909D02*
X411269D01*
X405669D02*
X410819D01*
X412269Y432837D02*
X412709D01*
X411759D02*
X412189D01*
X411349D02*
X411689D01*
X410909D02*
X411269D01*
X405679D02*
X410829D01*
X412269Y432847D02*
X412709D01*
X411759D02*
X412189D01*
X411349D02*
X411689D01*
X410909D02*
X411269D01*
X405679D02*
X410829D01*
X412269Y432857D02*
X412699D01*
X411759D02*
X412189D01*
X411349D02*
X411689D01*
X410919D02*
X411279D01*
X405679D02*
X410829D01*
X412279Y432867D02*
X412699D01*
X411759D02*
X412189D01*
X411349D02*
X411689D01*
X410919D02*
X411279D01*
X405679D02*
X410839D01*
X412279Y432877D02*
X412699D01*
X411759D02*
X412189D01*
X411349D02*
X411689D01*
X410919D02*
X411279D01*
X405679D02*
X410839D01*
X412279Y432887D02*
X412699D01*
X411759D02*
X412179D01*
X411349D02*
X411679D01*
X410929D02*
X411289D01*
X405689D02*
X410839D01*
X412289Y432897D02*
X412689D01*
X411759D02*
X412169D01*
X411349D02*
X411679D01*
X410929D02*
X411289D01*
X405689D02*
X410839D01*
X412289Y432907D02*
X412679D01*
X411759D02*
X412169D01*
X411349D02*
X411679D01*
X410929D02*
X411289D01*
X405699D02*
X410839D01*
X412309Y432917D02*
X412669D01*
X411759D02*
X412159D01*
X411349D02*
X411679D01*
X410929D02*
X411289D01*
X405699D02*
X410839D01*
X412329Y432927D02*
X412649D01*
X411759D02*
X412129D01*
X411349D02*
X411679D01*
X410929D02*
X411299D01*
X405699D02*
X410839D01*
X412349Y432937D02*
X412619D01*
X411759D02*
X412109D01*
X411349D02*
X411679D01*
X410929D02*
X411299D01*
X405699D02*
X410849D01*
X410789Y433087D02*
X410839D01*
X410109D02*
X410199D01*
X408889D02*
X408939D01*
X407289D02*
X407359D01*
X406189D02*
X406279D01*
X410719Y433097D02*
X410909D01*
X410019D02*
X410369D01*
X408819D02*
X409009D01*
X407199D02*
X407549D01*
X406039D02*
X406429D01*
X412219Y433107D02*
X412639D01*
X411599D02*
X411829D01*
X411179D02*
X411509D01*
X410679D02*
X410949D01*
X409979D02*
X410389D01*
X409279D02*
X409599D01*
X408789D02*
X409049D01*
X407699D02*
X408109D01*
X407149D02*
X407569D01*
X405969D02*
X406499D01*
X412219Y433117D02*
X412639D01*
X411609D02*
X411839D01*
X411179D02*
X411509D01*
X410669D02*
X410969D01*
X409969D02*
X410389D01*
X409279D02*
X409599D01*
X408779D02*
X409069D01*
X407699D02*
X408109D01*
X407139D02*
X407569D01*
X405949D02*
X406529D01*
X412209Y433127D02*
X412639D01*
X411619D02*
X411849D01*
X411169D02*
X411509D01*
X410649D02*
X410999D01*
X409949D02*
X410389D01*
X409269D02*
X409609D01*
X408759D02*
X409099D01*
X407709D02*
X408109D01*
X407119D02*
X407569D01*
X405909D02*
X406569D01*
X412199Y433137D02*
X412629D01*
X411629D02*
X411859D01*
X411169D02*
X411509D01*
X410629D02*
X411019D01*
X409929D02*
X410399D01*
X409259D02*
X409609D01*
X408739D02*
X409119D01*
X407709D02*
X408109D01*
X407109D02*
X407569D01*
X405869D02*
X406609D01*
X412199Y433147D02*
X412619D01*
X411639D02*
X411869D01*
X411169D02*
X411509D01*
X410629D02*
X411029D01*
X409919D02*
X410399D01*
X409259D02*
X409609D01*
X408729D02*
X409129D01*
X407709D02*
X408109D01*
X407099D02*
X407569D01*
X405859D02*
X406629D01*
X412199Y433157D02*
X412619D01*
X411649D02*
X411879D01*
X411169D02*
X411519D01*
X410609D02*
X411049D01*
X409909D02*
X410399D01*
X409259D02*
X409609D01*
X408719D02*
X409149D01*
X407709D02*
X408119D01*
X407089D02*
X407569D01*
X405829D02*
X406649D01*
X412189Y433167D02*
X412609D01*
X411659D02*
X411889D01*
X411159D02*
X411519D01*
X410599D02*
X411069D01*
X409909D02*
X410399D01*
X409259D02*
X409609D01*
X408709D02*
X409159D01*
X407709D02*
X408119D01*
X407079D02*
X407579D01*
X405809D02*
X406669D01*
X412189Y433177D02*
X412609D01*
X411669D02*
X411899D01*
X411159D02*
X411519D01*
X410599D02*
X411079D01*
X409899D02*
X410399D01*
X409259D02*
X409609D01*
X408699D02*
X409179D01*
X407709D02*
X408119D01*
X407079D02*
X407579D01*
X405799D02*
X406689D01*
X412179Y433187D02*
X412599D01*
X411679D02*
X411909D01*
X411159D02*
X411529D01*
X410589D02*
X411089D01*
X409889D02*
X410399D01*
X409249D02*
X409619D01*
X408699D02*
X409189D01*
X407719D02*
X408129D01*
X407069D02*
X407579D01*
X405789D02*
X406709D01*
X412169Y433197D02*
X412589D01*
X411689D02*
X411919D01*
X411149D02*
X411529D01*
X410579D02*
X411109D01*
X409889D02*
X410409D01*
X409249D02*
X409619D01*
X408689D02*
X409199D01*
X407719D02*
X408129D01*
X407059D02*
X407589D01*
X405769D02*
X406729D01*
X412169Y433207D02*
X412589D01*
X411699D02*
X411929D01*
X411149D02*
X411529D01*
X410579D02*
X411109D01*
X409889D02*
X410409D01*
X409249D02*
X409619D01*
X408679D02*
X409199D01*
X407719D02*
X408129D01*
X407059D02*
X407589D01*
X405769D02*
X406729D01*
X412159Y433217D02*
X412589D01*
X411709D02*
X411939D01*
X411149D02*
X411529D01*
X410569D02*
X411119D01*
X409879D02*
X410409D01*
X409249D02*
X409619D01*
X408679D02*
X409219D01*
X407719D02*
X408129D01*
X407059D02*
X407589D01*
X405769D02*
X406749D01*
X412159Y433227D02*
X412579D01*
X411719D02*
X411949D01*
X410569D02*
X411529D01*
X409879D02*
X410419D01*
X408669D02*
X409619D01*
X407719D02*
X408129D01*
X407059D02*
X407589D01*
X405769D02*
X406759D01*
X412159Y433237D02*
X412579D01*
X411729D02*
X411959D01*
X410569D02*
X411529D01*
X409879D02*
X410419D01*
X408669D02*
X409629D01*
X407719D02*
X408129D01*
X407059D02*
X407589D01*
X406329D02*
X406769D01*
X405769D02*
X406269D01*
X412149Y433247D02*
X412569D01*
X411739D02*
X411969D01*
X410569D02*
X411539D01*
X409879D02*
X410309D01*
X408669D02*
X409629D01*
X407729D02*
X408139D01*
X407049D02*
X407489D01*
X406369D02*
X406779D01*
X405769D02*
X406239D01*
X412139Y433257D02*
X412569D01*
X411749D02*
X411979D01*
X410569D02*
X411539D01*
X409879D02*
X410299D01*
X408669D02*
X409629D01*
X407729D02*
X408139D01*
X407049D02*
X407469D01*
X406379D02*
X406789D01*
X405779D02*
X406229D01*
X412139Y433267D02*
X412559D01*
X411759D02*
X411989D01*
X410559D02*
X411539D01*
X409879D02*
X410289D01*
X408669D02*
X409639D01*
X407739D02*
X408139D01*
X407049D02*
X407469D01*
X406389D02*
X406799D01*
X405779D02*
X406219D01*
X412129Y433277D02*
X412559D01*
X411769D02*
X411999D01*
X411069D02*
X411539D01*
X410559D02*
X410989D01*
X409879D02*
X410279D01*
X409159D02*
X409639D01*
X408659D02*
X409089D01*
X407739D02*
X408139D01*
X407049D02*
X407459D01*
X406409D02*
X406809D01*
X405789D02*
X406209D01*
X412129Y433287D02*
X412549D01*
X411779D02*
X412009D01*
X411079D02*
X411539D01*
X410559D02*
X410989D01*
X409879D02*
X410279D01*
X409179D02*
X409639D01*
X408659D02*
X409069D01*
X407739D02*
X408139D01*
X407049D02*
X407449D01*
X406419D02*
X406819D01*
X405789D02*
X406209D01*
X412119Y433297D02*
X412549D01*
X411789D02*
X412019D01*
X411099D02*
X411539D01*
X410559D02*
X410979D01*
X409879D02*
X410279D01*
X409199D02*
X409639D01*
X408659D02*
X409059D01*
X407739D02*
X408149D01*
X407049D02*
X407449D01*
X406419D02*
X406819D01*
X405789D02*
X406199D01*
X412109Y433307D02*
X412539D01*
X411799D02*
X412029D01*
X411119D02*
X411549D01*
X410559D02*
X410969D01*
X409879D02*
X410279D01*
X409209D02*
X409639D01*
X408659D02*
X409049D01*
X407739D02*
X408149D01*
X407049D02*
X407449D01*
X406429D02*
X406839D01*
X405789D02*
X406189D01*
X412109Y433317D02*
X412529D01*
X411809D02*
X412039D01*
X411119D02*
X411549D01*
X410559D02*
X410969D01*
X409879D02*
X410279D01*
X409219D02*
X409639D01*
X408659D02*
X409049D01*
X407739D02*
X408149D01*
X407049D02*
X407449D01*
X406429D02*
X406839D01*
X405789D02*
X406189D01*
X412109Y433327D02*
X412529D01*
X411819D02*
X412049D01*
X411139D02*
X411549D01*
X410559D02*
X410969D01*
X409879D02*
X410279D01*
X409229D02*
X409649D01*
X408659D02*
X409039D01*
X407749D02*
X408159D01*
X407049D02*
X407459D01*
X406449D02*
X406839D01*
X405799D02*
X406189D01*
X412099Y433337D02*
X412519D01*
X411829D02*
X412059D01*
X411149D02*
X411559D01*
X410559D02*
X410969D01*
X409879D02*
X410279D01*
X409239D02*
X409649D01*
X408659D02*
X409039D01*
X407749D02*
X408159D01*
X407049D02*
X407459D01*
X406449D02*
X406849D01*
X405799D02*
X406179D01*
X412099Y433347D02*
X412519D01*
X411839D02*
X412069D01*
X411149D02*
X411559D01*
X410559D02*
X410969D01*
X409879D02*
X410279D01*
X409239D02*
X409649D01*
X408659D02*
X409039D01*
X407749D02*
X408159D01*
X407049D02*
X407459D01*
X406449D02*
X406849D01*
X405799D02*
X406179D01*
X412089Y433357D02*
X412519D01*
X411859D02*
X412079D01*
X411149D02*
X411559D01*
X410559D02*
X410969D01*
X409879D02*
X410279D01*
X409249D02*
X409649D01*
X408659D02*
X409039D01*
X407749D02*
X408159D01*
X407059D02*
X407459D01*
X406459D02*
X406859D01*
X405799D02*
X406179D01*
X411869Y433367D02*
X412509D01*
X411149D02*
X411559D01*
X410569D02*
X410969D01*
X409879D02*
X410289D01*
X409249D02*
X409649D01*
X408659D02*
X409039D01*
X407749D02*
X408159D01*
X407059D02*
X407469D01*
X406459D02*
X406869D01*
X405799D02*
X406179D01*
X411869Y433377D02*
X412499D01*
X411149D02*
X411559D01*
X410569D02*
X410969D01*
X409879D02*
X410289D01*
X409249D02*
X409659D01*
X408659D02*
X409039D01*
X407749D02*
X408159D01*
X407059D02*
X407469D01*
X406459D02*
X406869D01*
X405809D02*
X406179D01*
X411889Y433387D02*
X412499D01*
X411159D02*
X411569D01*
X410569D02*
X410969D01*
X409879D02*
X410289D01*
X409249D02*
X409659D01*
X408669D02*
X409039D01*
X407759D02*
X408169D01*
X407059D02*
X407469D01*
X406459D02*
X406869D01*
X405809D02*
X406179D01*
X411899Y433397D02*
X412489D01*
X411159D02*
X411569D01*
X410569D02*
X410979D01*
X409889D02*
X410299D01*
X409259D02*
X409659D01*
X408669D02*
X409039D01*
X407759D02*
X408169D01*
X407059D02*
X407469D01*
X406459D02*
X406879D01*
X405819D02*
X406179D01*
X411899Y433407D02*
X412489D01*
X411159D02*
X411569D01*
X410569D02*
X410979D01*
X409889D02*
X410299D01*
X409259D02*
X409669D01*
X408669D02*
X409039D01*
X407759D02*
X408169D01*
X407059D02*
X407469D01*
X406459D02*
X406879D01*
X405819D02*
X406179D01*
X411919Y433417D02*
X412479D01*
X411169D02*
X411569D01*
X410569D02*
X410979D01*
X409889D02*
X410299D01*
X409259D02*
X409669D01*
X408669D02*
X409039D01*
X407769D02*
X408169D01*
X407059D02*
X407469D01*
X406469D02*
X406879D01*
X405819D02*
X406179D01*
X411929Y433427D02*
X412469D01*
X411169D02*
X411569D01*
X410569D02*
X410979D01*
X409889D02*
X410299D01*
X409259D02*
X409669D01*
X408679D02*
X409049D01*
X407769D02*
X408169D01*
X407069D02*
X407479D01*
X406469D02*
X406879D01*
X405819D02*
X406179D01*
X411929Y433437D02*
X412469D01*
X411169D02*
X411569D01*
X410579D02*
X410989D01*
X409889D02*
X410299D01*
X409259D02*
X409669D01*
X408679D02*
X409049D01*
X407769D02*
X408169D01*
X407069D02*
X407479D01*
X406459D02*
X406879D01*
X405819D02*
X406179D01*
X411949Y433447D02*
X412469D01*
X411169D02*
X411579D01*
X410579D02*
X410989D01*
X409889D02*
X410299D01*
X409269D02*
X409669D01*
X408679D02*
X409059D01*
X407769D02*
X408179D01*
X407069D02*
X407479D01*
X406459D02*
X406879D01*
X405829D02*
X406179D01*
X411959Y433457D02*
X412459D01*
X411169D02*
X411579D01*
X410579D02*
X410989D01*
X409899D02*
X410309D01*
X409269D02*
X409679D01*
X408689D02*
X409069D01*
X407769D02*
X408179D01*
X407079D02*
X407479D01*
X406459D02*
X406889D01*
X405829D02*
X406179D01*
X411959Y433467D02*
X412459D01*
X411169D02*
X411579D01*
X410579D02*
X410989D01*
X409899D02*
X410309D01*
X409269D02*
X409679D01*
X408699D02*
X409069D01*
X407769D02*
X408189D01*
X407079D02*
X407479D01*
X406459D02*
X406889D01*
X405829D02*
X406179D01*
X411979Y433477D02*
X412449D01*
X411179D02*
X411589D01*
X410579D02*
X410989D01*
X409899D02*
X410309D01*
X409279D02*
X409679D01*
X408699D02*
X409079D01*
X407779D02*
X408189D01*
X407079D02*
X407479D01*
X406459D02*
X406889D01*
X405829D02*
X406179D01*
X411989Y433487D02*
X412439D01*
X411179D02*
X411589D01*
X410589D02*
X410989D01*
X409909D02*
X410309D01*
X409279D02*
X409679D01*
X408709D02*
X409099D01*
X407779D02*
X408189D01*
X407079D02*
X407489D01*
X406449D02*
X406889D01*
X411989Y433497D02*
X412439D01*
X411179D02*
X411589D01*
X410589D02*
X410999D01*
X409909D02*
X410309D01*
X409279D02*
X409679D01*
X408719D02*
X409099D01*
X407779D02*
X408189D01*
X407079D02*
X407489D01*
X406449D02*
X406889D01*
X412009Y433507D02*
X412429D01*
X411179D02*
X411589D01*
X410589D02*
X410999D01*
X409909D02*
X410309D01*
X409279D02*
X409679D01*
X408729D02*
X409119D01*
X407779D02*
X408189D01*
X407079D02*
X407489D01*
X406439D02*
X406899D01*
X412009Y433517D02*
X412429D01*
X411179D02*
X411589D01*
X410599D02*
X410999D01*
X409909D02*
X410319D01*
X409279D02*
X409689D01*
X408739D02*
X409149D01*
X407779D02*
X408189D01*
X407089D02*
X407499D01*
X406429D02*
X406899D01*
X411999Y433527D02*
X412429D01*
X411189D02*
X411599D01*
X410599D02*
X410999D01*
X409909D02*
X410319D01*
X409279D02*
X409689D01*
X408759D02*
X409159D01*
X407789D02*
X408199D01*
X407089D02*
X407499D01*
X406419D02*
X406899D01*
X411989Y433537D02*
X412419D01*
X411189D02*
X411599D01*
X410599D02*
X410999D01*
X409909D02*
X410319D01*
X408769D02*
X409689D01*
X408399D02*
X408619D01*
X407789D02*
X408199D01*
X407089D02*
X407499D01*
X406399D02*
X406899D01*
X411989Y433547D02*
X412409D01*
X411189D02*
X411599D01*
X410599D02*
X411009D01*
X409919D02*
X410329D01*
X408789D02*
X409699D01*
X408399D02*
X408619D01*
X407789D02*
X408199D01*
X407089D02*
X407499D01*
X406389D02*
X406899D01*
X411989Y433557D02*
X412409D01*
X411199D02*
X411599D01*
X410599D02*
X411009D01*
X409919D02*
X410329D01*
X408799D02*
X409699D01*
X408399D02*
X408629D01*
X407799D02*
X408199D01*
X407089D02*
X407499D01*
X406369D02*
X406899D01*
X411979Y433567D02*
X412399D01*
X411199D02*
X411599D01*
X410609D02*
X411009D01*
X409919D02*
X410329D01*
X408829D02*
X409699D01*
X408399D02*
X408629D01*
X407799D02*
X408199D01*
X407089D02*
X407499D01*
X406349D02*
X406899D01*
X411979Y433577D02*
X412399D01*
X411199D02*
X411599D01*
X410609D02*
X411019D01*
X409919D02*
X410329D01*
X408859D02*
X409699D01*
X408399D02*
X408629D01*
X407799D02*
X408209D01*
X407099D02*
X407509D01*
X406319D02*
X406899D01*
X411969Y433587D02*
X412399D01*
X411199D02*
X411609D01*
X410609D02*
X411019D01*
X409919D02*
X410329D01*
X408879D02*
X409699D01*
X408399D02*
X408639D01*
X407799D02*
X408209D01*
X407099D02*
X407509D01*
X406299D02*
X406889D01*
X411959Y433597D02*
X412399D01*
X411199D02*
X411609D01*
X410609D02*
X411019D01*
X409929D02*
X410329D01*
X408919D02*
X409699D01*
X408399D02*
X408639D01*
X407799D02*
X408209D01*
X407109D02*
X407509D01*
X406259D02*
X406889D01*
X411959Y433607D02*
X412409D01*
X411209D02*
X411619D01*
X410609D02*
X411019D01*
X409929D02*
X410339D01*
X408969D02*
X409699D01*
X408399D02*
X408639D01*
X407809D02*
X408219D01*
X407109D02*
X407509D01*
X406219D02*
X406889D01*
X411949Y433617D02*
X412409D01*
X411209D02*
X411619D01*
X410609D02*
X411019D01*
X409929D02*
X410339D01*
X409009D02*
X409699D01*
X408399D02*
X408639D01*
X407809D02*
X408219D01*
X407109D02*
X407509D01*
X406209D02*
X406889D01*
X411949Y433627D02*
X412429D01*
X411209D02*
X411619D01*
X410619D02*
X411019D01*
X409939D02*
X410339D01*
X409189D02*
X409699D01*
X408399D02*
X408639D01*
X407809D02*
X408219D01*
X407109D02*
X407519D01*
X406159D02*
X406889D01*
X411939Y433637D02*
X412439D01*
X411209D02*
X411619D01*
X410619D02*
X411029D01*
X409939D02*
X410339D01*
X409309D02*
X409709D01*
X408399D02*
X408649D01*
X407809D02*
X408219D01*
X407109D02*
X407519D01*
X406129D02*
X406879D01*
X411939Y433647D02*
X412439D01*
X411209D02*
X411619D01*
X410619D02*
X411029D01*
X409939D02*
X410339D01*
X409309D02*
X409709D01*
X408399D02*
X408649D01*
X407809D02*
X408219D01*
X407109D02*
X407519D01*
X406119D02*
X406879D01*
X411929Y433657D02*
X412459D01*
X411209D02*
X411619D01*
X410629D02*
X411029D01*
X409939D02*
X410349D01*
X409309D02*
X409709D01*
X408389D02*
X408649D01*
X407809D02*
X408219D01*
X407119D02*
X407529D01*
X406089D02*
X406879D01*
X411929Y433667D02*
X412469D01*
X411219D02*
X411629D01*
X410629D02*
X411029D01*
X409939D02*
X410349D01*
X409309D02*
X409709D01*
X408389D02*
X408649D01*
X407819D02*
X408229D01*
X407119D02*
X407529D01*
X406059D02*
X406879D01*
X411919Y433677D02*
X412469D01*
X411219D02*
X411629D01*
X410629D02*
X411029D01*
X409939D02*
X410349D01*
X409319D02*
X409709D01*
X408389D02*
X408649D01*
X407819D02*
X408229D01*
X407119D02*
X407529D01*
X406049D02*
X406879D01*
X411919Y433687D02*
X412489D01*
X411219D02*
X411629D01*
X410629D02*
X411029D01*
X409949D02*
X410359D01*
X409319D02*
X409709D01*
X408379D02*
X408649D01*
X407819D02*
X408229D01*
X407119D02*
X407529D01*
X406029D02*
X406869D01*
X411909Y433697D02*
X412499D01*
X411229D02*
X411629D01*
X410629D02*
X411039D01*
X409949D02*
X410359D01*
X409319D02*
X409709D01*
X408379D02*
X408659D01*
X407829D02*
X408229D01*
X407119D02*
X407529D01*
X406019D02*
X406869D01*
X411899Y433707D02*
X412499D01*
X411229D02*
X411629D01*
X410629D02*
X411039D01*
X409949D02*
X410359D01*
X409319D02*
X409709D01*
X408379D02*
X408659D01*
X407829D02*
X408239D01*
X407119D02*
X407529D01*
X406009D02*
X406859D01*
X411899Y433717D02*
X412519D01*
X411229D02*
X411629D01*
X410639D02*
X411049D01*
X409949D02*
X410359D01*
X409319D02*
X409709D01*
X408789D02*
X409079D01*
X408369D02*
X408659D01*
X407829D02*
X408249D01*
X407129D02*
X407539D01*
X405999D02*
X406849D01*
X411889Y433727D02*
X412529D01*
X411229D02*
X411639D01*
X410639D02*
X411049D01*
X409949D02*
X410359D01*
X409319D02*
X409709D01*
X408789D02*
X409089D01*
X408369D02*
X408669D01*
X407829D02*
X408259D01*
X407129D02*
X407539D01*
X405979D02*
X406849D01*
X411889Y433737D02*
X412529D01*
X411229D02*
X411639D01*
X410639D02*
X411049D01*
X409949D02*
X410359D01*
X409319D02*
X409709D01*
X408799D02*
X409089D01*
X408359D02*
X408669D01*
X407829D02*
X408279D01*
X407129D02*
X407539D01*
X405979D02*
X406849D01*
X412319Y433747D02*
X412549D01*
X411889D02*
X412309D01*
X411239D02*
X411639D01*
X410639D02*
X411049D01*
X409959D02*
X410369D01*
X409319D02*
X409709D01*
X408799D02*
X409089D01*
X408329D02*
X408669D01*
X407829D02*
X408309D01*
X407139D02*
X407539D01*
X405969D02*
X406839D01*
X412339Y433757D02*
X412559D01*
X411879D02*
X412299D01*
X411239D02*
X411649D01*
X410639D02*
X411049D01*
X409959D02*
X410369D01*
X409319D02*
X409699D01*
X408799D02*
X409099D01*
X407839D02*
X408669D01*
X407139D02*
X407539D01*
X405959D02*
X406829D01*
X412339Y433767D02*
X412559D01*
X411869D02*
X412299D01*
X411239D02*
X411649D01*
X410649D02*
X411049D01*
X409959D02*
X410369D01*
X409319D02*
X409699D01*
X408799D02*
X409099D01*
X407839D02*
X408669D01*
X407139D02*
X407539D01*
X405949D02*
X406819D01*
X412349Y433777D02*
X412579D01*
X411869D02*
X412289D01*
X411239D02*
X411649D01*
X410649D02*
X411059D01*
X409969D02*
X410369D01*
X409319D02*
X409699D01*
X408799D02*
X409099D01*
X407839D02*
X408669D01*
X407139D02*
X407549D01*
X405949D02*
X406809D01*
X412369Y433787D02*
X412589D01*
X411859D02*
X412279D01*
X411239D02*
X411649D01*
X410649D02*
X411059D01*
X409969D02*
X410369D01*
X409319D02*
X409699D01*
X408809D02*
X409109D01*
X407839D02*
X408679D01*
X407139D02*
X407549D01*
X405939D02*
X406799D01*
X412369Y433797D02*
X412589D01*
X411859D02*
X412279D01*
X411239D02*
X411649D01*
X410659D02*
X411059D01*
X409969D02*
X410369D01*
X409319D02*
X409699D01*
X408809D02*
X409119D01*
X407839D02*
X408679D01*
X407149D02*
X407549D01*
X405939D02*
X406789D01*
X412379Y433807D02*
X412599D01*
X411859D02*
X412279D01*
X411249D02*
X411659D01*
X410659D02*
X411059D01*
X409969D02*
X410379D01*
X409309D02*
X409689D01*
X408809D02*
X409119D01*
X407849D02*
X408679D01*
X407149D02*
X407559D01*
X405929D02*
X406779D01*
X412389Y433817D02*
X412609D01*
X411839D02*
X412269D01*
X411249D02*
X411659D01*
X410659D02*
X411059D01*
X409969D02*
X410379D01*
X409309D02*
X409689D01*
X408819D02*
X409129D01*
X408249D02*
X408679D01*
X407849D02*
X408229D01*
X407149D02*
X407559D01*
X405929D02*
X406759D01*
X412399Y433827D02*
X412619D01*
X411839D02*
X412259D01*
X411249D02*
X411659D01*
X410659D02*
X411059D01*
X409969D02*
X410389D01*
X409299D02*
X409679D01*
X408819D02*
X409139D01*
X408259D02*
X408679D01*
X407849D02*
X408229D01*
X407149D02*
X407559D01*
X405919D02*
X406749D01*
X412409Y433837D02*
X412629D01*
X411839D02*
X412259D01*
X411259D02*
X411659D01*
X410659D02*
X411069D01*
X409819D02*
X410539D01*
X409279D02*
X409679D01*
X408819D02*
X409159D01*
X408269D02*
X408689D01*
X407859D02*
X408229D01*
X406999D02*
X407719D01*
X405919D02*
X406729D01*
X412419Y433847D02*
X412639D01*
X411829D02*
X412249D01*
X411259D02*
X411659D01*
X410669D02*
X411069D01*
X409819D02*
X410549D01*
X409229D02*
X409669D01*
X408819D02*
X409219D01*
X408279D02*
X408689D01*
X407859D02*
X408229D01*
X406999D02*
X407719D01*
X405919D02*
X406699D01*
X412429Y433857D02*
X412649D01*
X411829D02*
X412249D01*
X411259D02*
X411659D01*
X410669D02*
X411069D01*
X409829D02*
X410549D01*
X408819D02*
X409669D01*
X408279D02*
X408689D01*
X407859D02*
X408229D01*
X406999D02*
X407719D01*
X405919D02*
X406689D01*
X412439Y433867D02*
X412659D01*
X411819D02*
X412249D01*
X411259D02*
X411669D01*
X410669D02*
X411079D01*
X409829D02*
X410549D01*
X408819D02*
X409659D01*
X408289D02*
X408699D01*
X407859D02*
X408219D01*
X406999D02*
X407719D01*
X405919D02*
X406649D01*
X412439Y433877D02*
X412669D01*
X411809D02*
X412239D01*
X411259D02*
X411669D01*
X410669D02*
X411079D01*
X409829D02*
X410549D01*
X408829D02*
X409649D01*
X408309D02*
X408699D01*
X407859D02*
X408219D01*
X406999D02*
X407729D01*
X405909D02*
X406609D01*
X412449Y433887D02*
X412679D01*
X411809D02*
X412229D01*
X411259D02*
X411669D01*
X410669D02*
X411079D01*
X409829D02*
X410549D01*
X408829D02*
X409639D01*
X408309D02*
X408699D01*
X407859D02*
X408219D01*
X407009D02*
X407729D01*
X405909D02*
X406589D01*
X412459Y433897D02*
X412689D01*
X411809D02*
X412229D01*
X411269D02*
X411679D01*
X410669D02*
X411079D01*
X409829D02*
X410549D01*
X408849D02*
X409629D01*
X408319D02*
X408699D01*
X407869D02*
X408219D01*
X407009D02*
X407729D01*
X405909D02*
X406539D01*
X412469Y433907D02*
X412699D01*
X411799D02*
X412219D01*
X411269D02*
X411679D01*
X410679D02*
X411079D01*
X409839D02*
X410549D01*
X408879D02*
X409609D01*
X408339D02*
X408699D01*
X407869D02*
X408219D01*
X407019D02*
X407729D01*
X405909D02*
X406489D01*
X412479Y433917D02*
X412709D01*
X411799D02*
X412219D01*
X411269D02*
X411679D01*
X410679D02*
X411089D01*
X409839D02*
X410559D01*
X408889D02*
X409609D01*
X408339D02*
X408699D01*
X407869D02*
X408219D01*
X407019D02*
X407739D01*
X405909D02*
X406459D01*
X412489Y433927D02*
X412719D01*
X411789D02*
X412209D01*
X411269D02*
X411679D01*
X410679D02*
X411089D01*
X409839D02*
X410559D01*
X408919D02*
X409579D01*
X408359D02*
X408709D01*
X407869D02*
X408209D01*
X407019D02*
X407739D01*
X405909D02*
X406419D01*
X412499Y433937D02*
X412729D01*
X411779D02*
X412199D01*
X411269D02*
X411679D01*
X410689D02*
X411089D01*
X409849D02*
X410559D01*
X408959D02*
X409559D01*
X408379D02*
X408709D01*
X407869D02*
X408209D01*
X407019D02*
X407739D01*
X405909D02*
X406389D01*
X412509Y433947D02*
X412739D01*
X411779D02*
X412199D01*
X411279D02*
X411689D01*
X410689D02*
X411089D01*
X409849D02*
X410569D01*
X408979D02*
X409549D01*
X408379D02*
X408699D01*
X407869D02*
X408209D01*
X407019D02*
X407739D01*
X405909D02*
X406379D01*
X412519Y433957D02*
X412739D01*
X411769D02*
X412199D01*
X411279D02*
X411689D01*
X410689D02*
X411089D01*
X409849D02*
X410569D01*
X409029D02*
X409509D01*
X408409D02*
X408679D01*
X407879D02*
X408199D01*
X407019D02*
X407739D01*
X405909D02*
X406359D01*
X409879Y433967D02*
X410409D01*
X409089D02*
X409459D01*
X408439D02*
X408639D01*
X407059D02*
X407589D01*
X405909D02*
X406339D01*
X409909Y433977D02*
X410419D01*
X409129D02*
X409419D01*
X408469D02*
X408619D01*
X407079D02*
X407589D01*
X405909D02*
X406339D01*
X409949Y433987D02*
X410419D01*
X407119D02*
X407589D01*
X405909D02*
X406329D01*
X409979Y433997D02*
X410419D01*
X407159D02*
X407599D01*
X405909D02*
X406319D01*
X409999Y434007D02*
X410419D01*
X407169D02*
X407599D01*
X406569D02*
X406899D01*
X405919D02*
X406309D01*
X410029Y434017D02*
X410419D01*
X407199D02*
X407599D01*
X406569D02*
X406899D01*
X405919D02*
X406309D01*
X410049Y434027D02*
X410429D01*
X407229D02*
X407599D01*
X406569D02*
X406909D01*
X405919D02*
X406309D01*
X410059Y434037D02*
X410429D01*
X407239D02*
X407599D01*
X406569D02*
X406909D01*
X405919D02*
X406309D01*
X410079Y434047D02*
X410429D01*
X407259D02*
X407599D01*
X406569D02*
X406909D01*
X405919D02*
X406309D01*
X410099Y434057D02*
X410429D01*
X407269D02*
X407609D01*
X406569D02*
X406909D01*
X405929D02*
X406309D01*
X410099Y434067D02*
X410429D01*
X407279D02*
X407609D01*
X406569D02*
X406909D01*
X405929D02*
X406309D01*
X410119Y434077D02*
X410429D01*
X407299D02*
X407609D01*
X406569D02*
X406919D01*
X405939D02*
X406309D01*
X410129Y434087D02*
X410439D01*
X407309D02*
X407619D01*
X406569D02*
X406919D01*
X405939D02*
X406309D01*
X410149Y434097D02*
X410439D01*
X407319D02*
X407619D01*
X406569D02*
X406929D01*
X405939D02*
X406309D01*
X410159Y434107D02*
X410439D01*
X407329D02*
X407619D01*
X406569D02*
X406929D01*
X405949D02*
X406309D01*
X410169Y434117D02*
X410449D01*
X407349D02*
X407619D01*
X406569D02*
X406929D01*
X405949D02*
X406309D01*
X410179Y434127D02*
X410449D01*
X407349D02*
X407619D01*
X406569D02*
X406929D01*
X405959D02*
X406309D01*
X410189Y434137D02*
X410449D01*
X407359D02*
X407629D01*
X406569D02*
X406929D01*
X405969D02*
X406319D01*
X410189Y434147D02*
X410449D01*
X407369D02*
X407629D01*
X406569D02*
X406939D01*
X405969D02*
X406329D01*
X410199Y434157D02*
X410449D01*
X407379D02*
X407629D01*
X406569D02*
X406939D01*
X405979D02*
X406329D01*
X410209Y434167D02*
X410459D01*
X407389D02*
X407629D01*
X406569D02*
X406939D01*
X405989D02*
X406339D01*
X410219Y434177D02*
X410459D01*
X407399D02*
X407629D01*
X406559D02*
X406939D01*
X405999D02*
X406339D01*
X410229Y434187D02*
X410459D01*
X407409D02*
X407629D01*
X406559D02*
X406949D01*
X405999D02*
X406349D01*
X410239Y434197D02*
X410459D01*
X407409D02*
X407639D01*
X406549D02*
X406949D01*
X406009D02*
X406359D01*
X410249Y434207D02*
X410459D01*
X407419D02*
X407639D01*
X406549D02*
X406959D01*
X406029D02*
X406379D01*
X410249Y434217D02*
X410459D01*
X407429D02*
X407639D01*
X406539D02*
X406959D01*
X406029D02*
X406389D01*
X410259Y434227D02*
X410469D01*
X407439D02*
X407649D01*
X406529D02*
X406959D01*
X406039D02*
X406399D01*
X406509Y434237D02*
X406959D01*
X406059D02*
X406429D01*
X406069Y434247D02*
X406959D01*
X406089Y434257D02*
X406969D01*
X406099Y434267D02*
X406969D01*
X406109Y434277D02*
X406969D01*
X406129Y434287D02*
X406959D01*
X406149Y434297D02*
X406949D01*
X406159Y434307D02*
X406939D01*
X406189Y434317D02*
X406919D01*
X406219Y434327D02*
X406899D01*
X406239Y434337D02*
X406879D01*
X406269Y434347D02*
X406849D01*
X406309Y434357D02*
X406819D01*
X406339Y434367D02*
X406789D01*
X406409Y434377D02*
X406739D01*
X406519Y434387D02*
X406639D01*
D98*
X416831Y397650D02*
Y398179D01*
X417815Y397650D02*
Y398179D01*
D99*
X413780Y409892D02*
D03*
D100*
X412771Y409670D02*
D03*
D101*
X411811Y402953D02*
D03*
D102*
X410335Y410482D02*
D03*
D103*
X414075Y401811D02*
D03*
D104*
X414587Y404331D02*
D03*
D105*
X413484Y404321D02*
D03*
D106*
X412106Y403976D02*
D03*
D107*
X412933Y401457D02*
D03*
D108*
X412510Y400768D02*
D03*
D109*
X410167Y398671D02*
D03*
D110*
X412480Y399734D02*
D03*
D111*
X411368Y401142D02*
D03*
D112*
X411319Y396201D02*
D03*
D113*
X400049Y427628D02*
D03*
D114*
X399262Y429193D02*
D03*
D115*
X412402Y398711D02*
D03*
D116*
X412431Y398307D02*
D03*
D117*
X411407Y398819D02*
D03*
D118*
X412904Y398002D02*
D03*
D119*
X413366Y397766D02*
D03*
D120*
X411762Y398002D02*
D03*
D121*
X411014Y397726D02*
D03*
D122*
X411585Y397530D02*
D03*
D123*
X411260Y397096D02*
D03*
D124*
X410620Y399941D02*
D03*
D125*
X410984Y399429D02*
D03*
D126*
X411673Y399843D02*
D03*
D127*
X412510Y397874D02*
D03*
D128*
X412687Y398524D02*
D03*
D129*
X412943Y398780D02*
D03*
D130*
X413022Y399350D02*
D03*
D131*
X414045Y399557D02*
D03*
D132*
X413110Y400148D02*
D03*
D133*
X408337Y400295D02*
D03*
D134*
X410532Y411417D02*
D03*
D135*
X412239Y411467D02*
D03*
D136*
X410694Y411585D02*
D03*
D137*
X416544Y398179D02*
D03*
X418101D02*
D03*
D138*
X410679Y409670D02*
D03*
D139*
X408374Y404673D02*
D03*
Y405673D02*
D03*
Y406673D02*
D03*
Y407673D02*
D03*
Y408673D02*
D03*
Y409673D02*
D03*
X407374Y404673D02*
D03*
Y405673D02*
D03*
Y406673D02*
D03*
Y407673D02*
D03*
Y408673D02*
D03*
Y409673D02*
D03*
D140*
X416929Y425591D02*
D03*
X407874D02*
D03*
Y402756D02*
D03*
X416929D02*
D03*
D141*
X409374Y423673D02*
D03*
X417551Y417252D02*
D03*
Y418091D02*
D03*
X417358Y420161D02*
D03*
D142*
X395472Y410976D02*
D03*
Y411764D02*
D03*
Y412551D02*
D03*
Y413339D02*
D03*
Y415008D02*
D03*
Y415795D02*
D03*
Y416583D02*
D03*
Y417370D02*
D03*
D143*
X396543Y410689D02*
D03*
Y413445D02*
D03*
X394402Y410689D02*
D03*
Y413445D02*
D03*
X396543Y414902D02*
D03*
Y417657D02*
D03*
X394402Y414902D02*
D03*
Y417657D02*
D03*
D144*
X401968Y400787D02*
D03*
Y422047D02*
D03*
D145*
X405512Y394783D02*
D03*
X404921D02*
D03*
X406102D02*
D03*
D146*
X403720Y395118D02*
D03*
X407303Y394449D02*
D03*
X419004Y396705D02*
D03*
X415642D02*
D03*
X419004Y394843D02*
D03*
X415642D02*
D03*
D147*
X419659Y408276D02*
D03*
Y406094D02*
D03*
D148*
X418425Y397157D02*
D03*
X418268Y396882D02*
D03*
X418110Y397157D02*
D03*
X417953Y396882D02*
D03*
X417795Y397157D02*
D03*
X417638Y396882D02*
D03*
X417480Y397157D02*
D03*
X416220D02*
D03*
X416378Y396882D02*
D03*
X416535Y397157D02*
D03*
X416693Y396882D02*
D03*
X416850Y397157D02*
D03*
X417008Y396882D02*
D03*
X417165Y397157D02*
D03*
D149*
X407628Y397982D02*
D03*
X407333D02*
D03*
X407628Y398474D02*
D03*
X407333Y398474D02*
D03*
X421407Y407480D02*
D03*
X420905Y409006D02*
D03*
X421407Y405905D02*
D03*
X420905D02*
D03*
X420748Y410758D02*
D03*
X421506Y412205D02*
D03*
X421112Y413337D02*
D03*
X420472D02*
D03*
X419537Y411860D02*
D03*
Y410285D02*
D03*
X419980Y410236D02*
D03*
X420571Y411270D02*
D03*
X416053Y404616D02*
D03*
X415529Y418088D02*
D03*
X410728Y412894D02*
D03*
X411811Y402953D02*
D03*
X410354Y410463D02*
D03*
X402559Y430315D02*
D03*
X412549Y405905D02*
D03*
X413435Y406545D02*
D03*
X413386Y406004D02*
D03*
X415305Y406250D02*
D03*
X411467Y407530D02*
D03*
X410089Y408268D02*
D03*
X407638Y423032D02*
D03*
X406841Y422195D02*
D03*
X411102Y425591D02*
D03*
X410118Y424803D02*
D03*
X410748Y423642D02*
D03*
X414291Y401614D02*
D03*
Y402008D02*
D03*
X414921Y402047D02*
D03*
X413819Y403425D02*
D03*
X414744Y403799D02*
D03*
X414409D02*
D03*
X414744Y404862D02*
D03*
X414409D02*
D03*
X413642D02*
D03*
X413307D02*
D03*
X414331Y399724D02*
D03*
Y399409D02*
D03*
X410974Y396900D02*
D03*
Y397293D02*
D03*
X407598Y420866D02*
D03*
Y421260D02*
D03*
X413327Y422598D02*
D03*
X412736D02*
D03*
X413386Y421112D02*
D03*
X412795D02*
D03*
X405905Y419685D02*
D03*
X412008Y396850D02*
D03*
X414961Y407382D02*
D03*
X414095Y397638D02*
D03*
X414419Y398474D02*
D03*
X414124Y398868D02*
D03*
X412835Y402795D02*
D03*
X412559Y403425D02*
D03*
X415896Y397638D02*
D03*
X418750D02*
D03*
X417323Y398179D02*
D03*
X420079Y403888D02*
D03*
X418405Y406988D02*
D03*
X411417Y431250D02*
D03*
X409055D02*
D03*
X406693D02*
D03*
X414567Y426870D02*
D03*
X413878D02*
D03*
X404528Y418898D02*
D03*
X403937Y419055D02*
D03*
X420423Y400984D02*
D03*
X419291D02*
D03*
X402106Y431398D02*
D03*
X404232Y431004D02*
D03*
X405512Y430266D02*
D03*
X404724Y402756D02*
D03*
X404331D02*
D03*
X403937D02*
D03*
X403543D02*
D03*
X404724Y398425D02*
D03*
X404331D02*
D03*
X403937D02*
D03*
X401968Y410630D02*
D03*
X420128Y394488D02*
D03*
X421112Y394931D02*
D03*
X420718Y394488D02*
D03*
X410817Y405945D02*
D03*
X410138Y406201D02*
D03*
X409498Y406447D02*
D03*
X401890Y430315D02*
D03*
X411659Y417474D02*
D03*
X411659Y417868D02*
D03*
X407677Y415992D02*
D03*
Y416386D02*
D03*
X407874Y414567D02*
D03*
Y414173D02*
D03*
X400148Y430069D02*
D03*
X399409Y428937D02*
D03*
Y429183D02*
D03*
Y429429D02*
D03*
X420374Y400295D02*
D03*
X419724Y398937D02*
D03*
X421024Y401142D02*
D03*
X421457Y400000D02*
D03*
Y398583D02*
D03*
X419882D02*
D03*
X420748Y399488D02*
D03*
X413671Y423189D02*
D03*
X414262D02*
D03*
X414665Y424311D02*
D03*
X412323Y424429D02*
D03*
X412717D02*
D03*
X412323Y424035D02*
D03*
X412717D02*
D03*
X408563Y413287D02*
D03*
X408957D02*
D03*
X408514Y414124D02*
D03*
Y414518D02*
D03*
X412894Y416339D02*
D03*
X413287D02*
D03*
X412352Y416634D02*
D03*
X411614Y416289D02*
D03*
X411457Y413228D02*
D03*
X408514Y418750D02*
D03*
X410728Y417913D02*
D03*
X408415Y417569D02*
D03*
X409596Y412845D02*
D03*
Y413238D02*
D03*
X409203Y416978D02*
D03*
X412008Y415787D02*
D03*
X408415Y415896D02*
D03*
Y416289D02*
D03*
Y417077D02*
D03*
X410433Y414813D02*
D03*
X409843D02*
D03*
X411024D02*
D03*
X410433Y414222D02*
D03*
Y415404D02*
D03*
X409843D02*
D03*
X411024D02*
D03*
X409843Y414222D02*
D03*
X411024D02*
D03*
X412362Y415827D02*
D03*
X412402Y415502D02*
D03*
X412549Y414715D02*
D03*
Y414321D02*
D03*
X413287Y414468D02*
D03*
X412795Y413927D02*
D03*
X416388Y406299D02*
D03*
X417126Y405020D02*
D03*
X416732Y407776D02*
D03*
X416043D02*
D03*
X413405Y398405D02*
D03*
X410827Y399459D02*
D03*
X411122D02*
D03*
X410532Y400197D02*
D03*
X410876D02*
D03*
X410187D02*
D03*
X409705Y399429D02*
D03*
X411614Y398238D02*
D03*
X412155D02*
D03*
X417569Y434232D02*
D03*
Y433780D02*
D03*
Y431024D02*
D03*
Y430630D02*
D03*
X413140Y431024D02*
D03*
Y431417D02*
D03*
Y432205D02*
D03*
Y432598D02*
D03*
Y433780D02*
D03*
Y434232D02*
D03*
X414124Y432205D02*
D03*
Y431417D02*
D03*
Y431024D02*
D03*
X414567Y429774D02*
D03*
Y428789D02*
D03*
X416585Y431024D02*
D03*
Y430630D02*
D03*
X416634Y432205D02*
D03*
X416831Y428642D02*
D03*
X417913Y428248D02*
D03*
X416142Y429774D02*
D03*
Y428789D02*
D03*
X417569Y433386D02*
D03*
Y432992D02*
D03*
X406742Y396752D02*
D03*
X406201Y399508D02*
D03*
X407480Y397146D02*
D03*
X408465Y398622D02*
D03*
X403593Y434055D02*
D03*
X402904Y432579D02*
D03*
X405118Y409646D02*
D03*
X419734Y394931D02*
D03*
X411073Y396407D02*
D03*
Y395965D02*
D03*
X411565D02*
D03*
X411890Y397264D02*
D03*
X409705Y399193D02*
D03*
X411368Y400699D02*
D03*
X411516Y399665D02*
D03*
X411831D02*
D03*
X409803Y398504D02*
D03*
X409508D02*
D03*
Y398839D02*
D03*
X412382Y397835D02*
D03*
X411024Y420472D02*
D03*
X415797Y419734D02*
D03*
X413110Y400059D02*
D03*
Y400374D02*
D03*
X412638Y397835D02*
D03*
X409803Y398839D02*
D03*
X413366Y397618D02*
D03*
Y397894D02*
D03*
X408583Y400433D02*
D03*
Y400157D02*
D03*
X413189Y400984D02*
D03*
X409567Y402362D02*
D03*
X413780Y410285D02*
D03*
X413091Y409498D02*
D03*
X412697D02*
D03*
X413780D02*
D03*
X412008Y411024D02*
D03*
X411417Y411909D02*
D03*
X411073D02*
D03*
X412008D02*
D03*
X408268Y395787D02*
D03*
X412520Y420472D02*
D03*
X414518Y419734D02*
D03*
X414961Y423032D02*
D03*
X415118Y421693D02*
D03*
X417717Y423622D02*
D03*
X414567Y425472D02*
D03*
X410945Y421772D02*
D03*
X409685Y421811D02*
D03*
X407953D02*
D03*
X420423Y402805D02*
D03*
X419783Y402362D02*
D03*
X421112Y401772D02*
D03*
X412008Y410285D02*
D03*
X417323Y398524D02*
D03*
X413533Y397244D02*
D03*
X413533Y396850D02*
D03*
X412451Y411909D02*
D03*
Y411024D02*
D03*
X405965Y431339D02*
D03*
X416339Y398179D02*
D03*
X416683D02*
D03*
X418307D02*
D03*
X417963D02*
D03*
X420433Y410098D02*
D03*
D150*
X413189Y403346D02*
D03*
M02*
